<svg width="141" height="22" viewBox="0 0 141 22" fill="none" xmlns="http://www.w3.org/2000/svg">
<path d="M111.884 19.6765H93.4123C90.8333 19.6765 90.2408 19.0588 90.2408 17.3823V8.7647C90.2408 8.47058 90.5196 8.23529 90.8333 8.23529H101.568C101.916 8.2647 102.299 8.44117 102.543 8.64705L112.163 19.2941C112.337 19.5 112.232 19.6765 111.884 19.6765ZM15.937 19.6176H11.6851C11.3366 19.6176 11.0229 19.3823 11.0229 19.0588V2.91176C11.0229 2.61764 11.3017 2.35293 11.6851 2.35293H15.937C26.4274 2.35293 31.9688 5.99999 31.9688 10.9706C31.9688 16 26.3576 19.6176 15.937 19.6176ZM140.079 5.91176H137.012C136.454 5.91176 135.966 6.35293 135.966 6.35293L124.291 19.2353C124.082 19.4706 123.733 19.4706 123.524 19.2353L112.755 6.35293C112.755 6.35293 112.337 5.91176 111.605 5.91176H90.903C90.5545 5.91176 90.2408 5.67646 90.2408 5.35293V1.08823C90.2408 0.470581 89.6483 -0.0294189 88.9513 -0.0294189H57.2711C52.357 0.11764 50.2659 0.529404 48.0354 1.61764C45.9792 2.64705 44.9336 3.94117 44.9336 5.49999C44.9336 7.14705 46.5368 8.79411 49.7431 10.4118C50.5796 10.8235 53.542 12.0294 58.6303 14.0294C61.8367 15.2647 63.5793 16.2941 63.4398 17.3235C63.2307 18.9706 61.4882 19.5294 57.306 19.5294H38.1375C37.6844 19.5294 37.3011 19.4706 37.3011 19.147C37.3011 19 37.4056 18.8529 37.6147 18.7647C41.9015 16.5882 43.3304 13.647 43.3304 10.9706C43.3304 5.97058 38.3466 -0.0294189 18.5857 -0.0294189H1.29928C0.602244 -7.18422e-06 0.00976562 0.499993 0.00976562 1.11764V20.9118C0.00976562 21.5294 0.602244 22 1.29928 22H18.4812C19.1433 22 19.7707 22 20.398 21.9706H63.4398C67.3781 21.9706 70.445 21.4118 72.6407 20.3235C74.6969 19.2941 75.7076 18.0294 75.7076 16.4412C75.7076 14.7941 74.1045 13.1765 70.8981 11.5588C70.0617 11.147 67.0993 9.94117 62.0109 7.94117C58.8046 6.70587 57.2014 5.67646 57.2014 4.91176C57.2014 3.2647 59.2925 2.44117 63.405 2.44117H77.9382C78.2867 2.44117 78.6003 2.67646 78.6003 2.99999V17.3823C78.6003 19.5 80.2384 21.9706 85.257 21.9706H125.232C126.173 21.9706 126.661 21.4412 126.661 21.4412L140.358 6.2647C140.392 6.29411 140.706 5.91176 140.079 5.91176Z" fill="#0095DA"/>
</svg>
