<svg width="34" height="35" viewBox="0 0 34 35" fill="none" xmlns="http://www.w3.org/2000/svg">
<rect x="0.25" y="0.75" width="33.5" height="33.5" rx="16.75" fill="white"/>
<rect x="0.25" y="0.75" width="33.5" height="33.5" rx="16.75" stroke="#E6E8EC" stroke-width="0.5"/>
<g clip-path="url(#clip0_306_9301)">
<path d="M15.9261 20.4997C15.908 21.1721 15.8403 21.8478 15.9564 22.5158C15.9944 22.7344 15.9564 22.8324 15.7062 22.8233C15.2672 22.8066 14.8268 22.815 14.3872 22.8233C14.2008 22.8233 14.1422 22.7589 14.1647 22.5712C14.3324 21.2173 14.266 19.8556 14.2879 18.4965C14.3014 17.6828 14.2917 16.8685 14.2743 16.0548C14.2705 15.8517 14.3266 15.7969 14.5232 15.8014C14.8874 15.815 15.253 15.8169 15.6192 15.8014C15.8306 15.7924 15.8648 15.8775 15.8629 16.0645C15.8538 16.962 15.8584 17.8588 15.8584 18.7859C15.9673 18.7086 15.977 18.5957 16.0124 18.5055C16.1823 18.0693 16.4501 17.678 16.7953 17.3619C17.1405 17.0457 17.5537 16.8132 18.0031 16.6824C18.4525 16.5515 18.926 16.5257 19.3869 16.6071C19.8479 16.6884 20.2839 16.8747 20.6613 17.1515C21.3789 17.6776 21.3802 17.6789 20.8225 18.3411C20.085 19.2179 19.3494 20.0967 18.6003 20.9632C18.4262 21.1657 18.4442 21.245 18.6989 21.3114C19.3369 21.4789 20.0132 21.4213 20.6136 21.1483C20.7671 21.0838 20.9147 21.0039 21.1055 20.9123C20.9379 21.4191 20.9624 21.8756 21.2235 22.3017C21.3157 22.452 21.1932 22.4552 21.1133 22.4894C19.1669 23.3172 16.7371 22.6563 15.9705 20.5803C15.9576 20.5524 15.9427 20.5255 15.9261 20.4997Z" fill="#373435"/>
<path d="M18.4028 10.7307C18.6729 10.674 18.9443 10.7397 19.2157 10.7256C19.3621 10.7178 19.375 10.79 19.3111 10.9041C19.2086 11.0918 19.1119 11.282 19.0172 11.4735C18.8521 11.8061 18.8553 11.8107 19.2273 11.9125C20.177 12.1788 21.0625 12.6355 21.83 13.2549C21.876 13.3016 21.9191 13.3511 21.9589 13.4032C20.7011 12.8732 19.4807 12.6572 18.2068 12.8616C18.1863 12.8759 18.1618 12.8835 18.1368 12.8835C18.1118 12.8835 18.0874 12.8759 18.0669 12.8616C18.0024 12.7655 18.0521 12.6682 18.0611 12.5702C18.1049 12.3961 18.1623 12.2265 18.2184 12.0544C18.2951 11.8964 18.2326 11.8274 18.0727 11.7842C17.7465 11.6959 17.4157 11.7346 17.0869 11.7197C16.9316 11.7133 16.7614 11.7559 16.6395 11.6101C16.5815 11.4812 16.6808 11.3619 16.6627 11.2098C16.1748 11.3686 15.7042 11.5761 15.2579 11.8294C15.5738 11.7049 15.971 11.6359 16.3758 11.6076C16.5976 11.6198 16.6666 11.7217 16.5576 11.9222C16.3449 12.309 16.2314 12.7352 16.1167 13.1601C16.0019 13.585 15.8343 13.7056 15.4075 13.7101C15.1393 13.7133 14.8711 13.7146 14.6029 13.7101C14.2393 13.703 14.044 13.5895 13.9582 13.2484C13.8016 12.6295 13.5108 12.0711 13.2542 11.4934C12.9119 10.7236 13.0537 9.98216 13.6275 9.37932C14.1736 8.80615 14.8801 8.63078 15.6383 8.88545C16.4068 9.14335 16.8574 9.69525 16.9432 10.5173C16.9825 10.8971 16.9806 10.8983 17.3648 10.8216C17.575 10.7791 17.7877 10.7501 17.9979 10.7062C18.132 10.6907 18.2725 10.625 18.4028 10.7307Z" fill="#F3B331"/>
<path d="M11.6897 24.2443C10.6021 23.4706 9.78975 22.4693 9.19792 21.283C9.11863 21.1244 8.93102 20.9342 9.02643 20.7943C9.11669 20.6653 9.36425 20.7601 9.54219 20.7724C10.134 20.813 10.1424 20.8169 10.0812 20.2353C9.97736 19.2372 10.0231 18.254 10.3313 17.2888C10.4125 17.8536 10.4145 18.4268 10.5582 18.9832C10.7227 19.6603 10.992 20.3074 11.3564 20.9013C11.4756 21.0902 11.4247 21.1341 11.2274 21.1431C10.9921 21.1541 10.7574 21.1985 10.5228 21.196C10.3094 21.196 10.2739 21.243 10.3377 21.4539C10.6405 22.4386 11.1297 23.3559 11.7786 24.156C11.7909 24.2256 11.7599 24.2546 11.6897 24.2443Z" fill="#BF3438"/>
<path d="M16.186 26.5935C14.5904 26.6496 13.1147 26.2531 11.7421 25.4484C11.5345 25.3266 11.6016 25.2698 11.7583 25.1815C11.9626 25.0654 12.1547 24.9268 12.361 24.8146C12.5467 24.7141 12.5441 24.636 12.3952 24.4884C11.6435 23.737 11.0662 22.8294 10.7042 21.8301C10.6883 21.7891 10.6837 21.7446 10.6906 21.7012C11.4875 22.7972 12.4835 23.6354 13.7723 24.1512C13.5898 24.433 13.3345 24.5909 13.1024 24.7624C12.8936 24.9165 12.9342 24.9926 13.1141 25.1325C13.9657 25.7895 14.818 26.1963 16.186 26.5935Z" fill="#F3B431"/>
<path d="M17.7695 26.2871C18.6147 26.0001 19.4051 25.6378 20.1143 25.1065C20.4085 24.8919 20.6798 24.6475 20.924 24.3773C21.0968 24.1839 21.1639 24.2484 21.2296 24.4521C21.2954 24.6559 21.3979 24.8699 21.4566 25.0853C21.512 25.2896 21.5952 25.2787 21.7492 25.1839C22.6068 24.652 23.3495 23.9541 23.9335 23.131C23.9829 23.05 24.0563 22.9864 24.1436 22.9492C24.0663 23.1555 23.9999 23.367 23.9109 23.5682C23.4021 24.719 22.6309 25.7348 21.659 26.534C21.4965 26.6687 21.4204 26.6758 21.3818 26.4482C21.3431 26.2206 21.2728 25.9905 21.2412 25.7584C21.2096 25.5263 21.1181 25.5385 20.9414 25.6178C19.9744 26.0537 18.9635 26.3032 17.8972 26.2987C17.8546 26.2954 17.8121 26.2903 17.7695 26.2871Z" fill="#F3B431"/>
<path d="M20.5227 26.158C19.2623 27.0419 17.8543 27.4817 16.28 27.5797C16.4154 27.2573 16.5269 26.971 16.6558 26.6925C16.7364 26.5171 16.7351 26.4436 16.5075 26.403C15.5027 26.2257 14.5454 25.8422 13.696 25.2766C13.6535 25.2489 13.6154 25.2122 13.5703 25.1793C13.6316 25.0916 13.6928 25.1367 13.7431 25.1541C14.8643 25.5385 16.0682 25.6149 17.229 25.3753C17.4578 25.3289 17.4688 25.3966 17.4224 25.5719C17.3579 25.7989 17.316 26.0329 17.229 26.2502C17.1419 26.4675 17.229 26.4933 17.4224 26.5081C18.4429 26.5764 19.428 26.4017 20.3944 26.0922C20.4634 26.0561 20.5279 26.0394 20.5227 26.158Z" fill="#C03438"/>
<path d="M19.5156 11.75C21.1074 11.7745 22.5328 12.3135 23.8596 13.2729C23.5624 13.4315 23.3077 13.5804 23.0408 13.7055C22.8339 13.8029 22.8042 13.8822 22.9654 14.0711C23.6669 14.887 24.1612 15.8602 24.4063 16.908C23.6971 15.7771 22.7746 14.8802 21.5168 14.2697C21.8017 14.0646 22.0403 13.8706 22.3007 13.7126C22.4941 13.5953 22.4696 13.5192 22.3226 13.387C21.5602 12.6933 20.6649 12.1617 19.691 11.8241C19.631 11.8022 19.5743 11.7745 19.5156 11.75Z" fill="#BF3438"/>
<path d="M23.4289 21.2043C23.7351 21.3468 23.9768 21.5409 24.2199 21.7291C24.3759 21.8503 24.4314 21.8187 24.5055 21.6453C24.9478 20.6047 25.1373 19.5177 25.1347 18.3926C25.6356 19.9219 25.6034 21.4525 25.1347 23.0347C24.8768 22.802 24.6467 22.6021 24.4256 22.39C24.2818 22.2494 24.2115 22.2456 24.1032 22.4396C23.6489 23.2435 23.0405 23.9499 22.3129 24.5183C22.2194 24.5924 22.1369 24.7169 21.9551 24.6672C22.3528 24.1702 22.6823 23.6222 22.935 23.038C23.1858 22.4577 23.3147 21.8426 23.4289 21.2043Z" fill="#C03438"/>
<path d="M24.4455 21.2C24.4591 20.0362 24.2786 18.9176 23.7886 17.8538C23.581 17.4025 23.5862 17.3992 24.0968 17.3973C24.8091 17.3941 24.8104 17.3941 24.6074 16.6952C24.4788 16.253 24.312 15.8229 24.109 15.4096C23.9081 15.0074 23.6744 14.6224 23.4102 14.2587C23.5191 14.1781 23.5597 14.2696 23.6074 14.3103C24.6757 15.2154 25.4878 16.385 25.9625 17.7023C26.0328 17.8957 26.0167 17.9557 25.802 17.9176C25.5873 17.8796 25.3745 17.8738 25.1657 17.8286C24.9078 17.7732 24.8162 17.8396 24.8478 18.1136C24.9426 18.9312 24.8549 19.7371 24.6506 20.5314C24.5925 20.7564 24.5145 20.9743 24.4455 21.2Z" fill="#F3B431"/>
<path d="M12.3349 9.11778C12.4148 9.02172 12.4831 8.91147 12.6656 8.8457C12.5263 9.33829 12.3175 9.78703 12.4026 10.2796C12.4142 10.5117 12.3458 10.5781 12.1099 10.4679C11.7089 10.2809 11.685 10.2932 11.6508 10.749C11.6231 11.1133 11.645 11.4821 11.6135 11.8515C11.2445 11.2391 11.0884 10.5219 11.1693 9.81153C11.4271 9.78639 11.5529 10.1765 11.8262 9.95144C11.9197 9.62778 12.0383 9.3183 12.3349 9.11778Z" fill="#C23B3F"/>
<path d="M16.5946 8.15988C16.4966 8.27593 16.4012 8.15988 16.3032 8.15472C15.8616 8.12119 15.4258 8.14634 15.0087 8.29527C14.8153 8.36426 14.7508 8.33589 14.7869 8.13151C14.7913 8.09965 14.7941 8.06758 14.7953 8.03544C14.8243 7.67051 14.7766 7.61571 14.4252 7.71694C14.2892 7.75562 14.1557 7.74917 14.0242 7.78141C13.8547 7.96516 13.6084 7.97483 13.3937 8.05994C13.3357 8.08251 13.2351 8.0896 13.2448 7.96581C13.6909 7.5538 14.2235 7.24691 14.8037 7.06768C15.1905 6.94905 15.2072 6.96323 15.1215 7.34492C15.1144 7.37587 15.1125 7.40939 15.108 7.43905C15.0435 7.62603 15.1009 7.67503 15.3014 7.67374C15.7888 7.66987 16.2459 7.78077 16.5946 8.15988Z" fill="#C0363A"/>
<path d="M17.9476 9.65859C17.5608 9.20726 17.0702 8.93002 16.4887 8.76304C16.5119 8.59992 16.6473 8.51674 16.7466 8.42519C16.9335 8.25627 16.9077 8.1544 16.6821 8.07896C16.283 7.93905 15.9027 7.74692 15.4881 7.64892C15.4353 7.63602 15.3534 7.62119 15.3972 7.52577C16.1631 7.45356 16.9077 7.50514 17.6021 7.88876C17.5608 8.01771 17.4506 8.05446 17.3719 8.11829C17.0683 8.36201 17.067 8.35943 17.3668 8.60959C17.7465 8.78818 17.8658 9.16536 18.0398 9.49804C18.0501 9.51413 18.0558 9.53272 18.0562 9.55179C18.0566 9.57086 18.0519 9.58969 18.0424 9.60624C18.0329 9.62278 18.019 9.63641 18.0023 9.64563C17.9856 9.65486 17.9667 9.65934 17.9476 9.65859Z" fill="#C0363A"/>
<path d="M14.2838 7.84001H14.6061C14.0293 8.09314 13.5457 8.51975 13.2226 9.06051C13.1723 9.00248 13.1382 8.96444 13.1059 8.92511C13.0002 8.79617 12.9648 8.52344 12.8184 8.54214C12.625 8.56664 12.4542 8.74781 12.3362 8.9335C12.3136 8.9696 12.2936 9.007 12.2717 9.04375C12.1937 9.27392 12.0138 9.44671 11.9184 9.66721C11.8952 9.72073 11.8539 9.79616 11.7804 9.75877C11.7069 9.72137 11.7256 9.6382 11.7656 9.57179C11.8924 8.95479 12.1615 8.37592 12.5515 7.88127C12.6804 7.72331 12.7572 7.72331 12.8171 7.92318C12.8294 7.9638 12.8487 8.00184 12.8648 8.04117C13.0047 8.38482 13.0047 8.38482 13.3071 8.14949C13.5908 7.90319 13.9389 7.88192 14.2838 7.84001Z" fill="#C1373B"/>
<path d="M11.8285 10.8047C12.0444 11.2612 12.183 11.7596 12.5602 12.1277C12.6214 12.1877 12.6015 12.2425 12.5196 12.2663C12.4393 12.2941 12.3567 12.3144 12.2727 12.3269C11.9774 12.3553 11.9355 12.4881 12.1025 12.7138C12.3893 12.9768 12.5537 13.3411 12.8374 13.6093C12.8774 13.6467 12.9367 13.7441 12.7974 13.7621C12.1166 13.4591 11.5996 12.9743 11.2012 12.3553C11.2308 12.3243 11.2418 12.3005 11.2573 12.2973C11.4455 12.2599 11.6886 12.3405 11.8149 12.2077C11.9542 12.0613 11.7505 11.8563 11.7633 11.6699C11.7872 11.383 11.6686 11.0839 11.8285 10.8047Z" fill="#C1363A"/>
<path d="M15.8789 14.0715C16.151 13.9074 16.3889 13.6925 16.5797 13.4384C16.6764 13.3094 16.7383 13.2752 16.8085 13.4513C16.8434 13.5383 16.9027 13.617 16.9323 13.7059C17.009 13.9348 17.1148 13.8903 17.2379 13.7485C17.51 13.4403 17.7724 13.1224 18.0909 12.8594H18.2037C18.058 13.5125 17.7073 14.0502 17.2585 14.5357C17.1438 14.6595 17.0793 14.693 17.0065 14.4938C16.8498 14.0638 16.8421 14.0715 16.4005 14.2237C16.2 14.2926 15.9924 14.341 15.7873 14.3984C15.6984 14.3984 15.652 14.3391 15.6133 14.2694C15.6217 14.096 15.7687 14.1082 15.8789 14.0715Z" fill="#C0363A"/>
<path d="M12.3387 12.6737C12.7171 13.0431 13.0904 13.2288 13.7776 13.3881C13.8028 13.5009 13.7099 13.5583 13.6558 13.6299C13.3818 13.9916 13.3792 13.9929 13.8034 14.1766C13.9395 14.2359 14.0826 14.2798 14.2225 14.3313C14.2554 14.366 14.2749 14.4112 14.2775 14.459C14.2801 14.5067 14.2656 14.5538 14.2367 14.5918C13.7215 14.6385 13.2028 14.556 12.7274 14.352C12.8673 14.2108 12.9814 14.0889 13.1033 13.9748C13.2142 13.8716 13.1987 13.7981 13.0665 13.7382C12.6533 13.537 12.4322 13.1631 12.2175 12.7865C12.1736 12.7008 12.1956 12.684 12.3387 12.6737Z" fill="#C0363A"/>
<path d="M18.0088 10.7875C17.9134 10.6115 17.8386 10.42 17.7174 10.2633C17.5588 10.0576 17.6529 10.0189 17.8464 10.0054C17.8676 10.0054 17.8883 9.99895 17.9108 9.99572C18.2976 9.93576 18.2976 9.93576 18.1416 9.57084C17.9037 9.22654 17.6826 8.87129 17.4492 8.52377C17.5266 8.44189 17.5878 8.51474 17.6459 8.54956C18.1972 8.88674 18.6533 9.35924 18.9707 9.92222C19.0558 10.0673 19.0403 10.1156 18.8579 10.1305C18.6909 10.1434 18.4543 10.0183 18.3711 10.2233C18.3138 10.3626 18.3905 10.5573 18.4079 10.7269L18.0088 10.7875Z" fill="#C0373A"/>
<path d="M15.0108 15.1081H14.4641C14.3261 15.1081 14.241 15.0552 14.2365 14.9024C14.232 14.7496 14.3203 14.709 14.4602 14.709C14.8245 14.7141 15.1894 14.7141 15.5562 14.709C15.6916 14.709 15.7831 14.7348 15.7825 14.9024C15.7818 15.07 15.6961 15.1061 15.5601 15.1061H15.0108V15.1081Z" fill="#494748"/>
<path d="M14.2355 14.5927C14.2297 14.5056 14.2246 14.4179 14.2188 14.3309C14.2374 14.3083 14.2555 14.2858 14.2742 14.2664C14.7255 14.1214 15.1819 14.1375 15.6397 14.2387C15.6764 14.2493 15.7094 14.27 15.7348 14.2985C15.7603 14.327 15.7771 14.3622 15.7834 14.3999C15.7834 14.5488 15.719 14.6281 15.5578 14.6301C15.1187 14.6352 14.6771 14.672 14.2355 14.5927Z" fill="#423F40"/>
<path d="M15.3971 7.52519C15.7117 7.68702 16.0798 7.70571 16.386 7.8914C16.486 7.95136 16.5833 8.01584 16.6819 8.07838L16.5943 8.15961C16.163 7.93266 15.7207 7.73602 15.2236 7.70829C14.989 7.69604 15.0302 7.57934 15.1076 7.4375C15.107 7.78502 15.2913 7.52647 15.3971 7.52519Z" fill="#ECD7D7"/>
<path d="M12.3382 12.6746C12.177 12.6907 12.2885 12.7719 12.3111 12.8151C12.4974 13.1768 12.7895 13.4534 13.0686 13.7403C12.9842 13.8216 12.9003 13.9041 12.7965 13.7642C12.8262 13.5804 12.6399 13.5482 12.5632 13.4418C12.3981 13.2071 12.2028 12.9905 12.1016 12.7184C12.1731 12.6443 12.2066 12.3857 12.3382 12.6746Z" fill="#EBD3D4"/>
<path d="M14.5215 15.206C14.8116 15.206 15.0559 15.206 15.3003 15.206C15.3499 15.206 15.4112 15.1937 15.4357 15.2595C15.464 15.3362 15.4028 15.3781 15.3589 15.4194C15.123 15.6418 14.7626 15.5683 14.5215 15.206Z" fill="#3E3B3C"/>
<path d="M17.4446 8.52734C17.7617 8.81085 18.0002 9.17154 18.137 9.57441C18.0396 9.78589 18.0396 9.78589 17.9481 9.65823C18.0383 9.45642 17.8694 9.33263 17.7895 9.19401C17.6594 8.99155 17.5185 8.79633 17.3672 8.60923L17.4446 8.52734Z" fill="#ECD4D5"/>
<path d="M11.7675 9.57101C11.7746 9.61292 11.7675 9.67417 11.79 9.69158C11.8403 9.72833 11.8377 9.65677 11.8513 9.63549C11.9802 9.4311 12.0776 9.20222 12.2736 9.04297L12.338 9.11647L11.8274 9.94883C11.7043 9.83987 11.634 9.72124 11.7675 9.57101Z" fill="#ECD6D7"/>
<path d="M14.2862 7.84015L13.3101 8.14962C13.2553 8.04647 13.1328 8.20572 13.1057 8.10901C13.0883 8.04453 13.1773 7.9936 13.2456 7.96394C13.4152 8.08708 13.517 7.88657 13.6621 7.87496C13.7858 7.85454 13.9073 7.82259 14.0251 7.77954C14.0966 7.86594 14.1998 7.81565 14.2862 7.84015Z" fill="#EDD8D8"/>
<path d="M11.6895 24.2439L11.7784 24.1543C11.8932 24.2278 11.9718 24.3335 12.0718 24.487C11.9199 24.4531 11.7846 24.3671 11.6895 24.2439Z" fill="#D27A7C"/>
<path d="M20.5234 26.1577C20.4989 26.0964 20.4409 26.1009 20.3906 26.09C20.5054 25.9926 20.6485 25.961 20.8329 25.9023C20.7342 26.0493 20.644 26.1216 20.5234 26.1577Z" fill="#D37D7F"/>
<path d="M19.1681 18.0271C19.1469 18.072 19.1221 18.1151 19.0939 18.156C18.5298 18.8246 17.9644 19.4926 17.3945 20.1663C17.1418 19.7337 17.214 19.0767 17.5634 18.6331C17.967 18.1244 18.4918 17.922 19.1681 18.0271Z" fill="#F5F5F5"/>
<path d="M17.2305 13.4955C17.5496 12.9932 17.6863 12.4375 17.6908 11.834C17.9242 11.8778 18.0918 12.0119 18.28 12.1022C18.233 12.2634 18.1853 12.4246 18.1382 12.5858C17.9654 12.9326 17.7656 13.2595 17.4426 13.4884C17.3581 13.549 17.3568 13.5464 17.2305 13.4955Z" fill="#C0373A"/>
<path d="M16.6426 11.5674L16.3409 11.6841C15.8896 11.7486 15.4422 11.846 14.9902 11.9375C15.5279 11.5423 16.1294 11.2876 16.7818 11.0723C16.8063 11.2766 16.7348 11.4243 16.6426 11.5674Z" fill="#FDFAF5"/>
<path d="M17.2318 13.4958C17.3698 13.5822 17.4052 13.4365 17.4742 13.3823C17.7495 13.1625 17.9094 12.8446 18.1395 12.5861C18.1241 12.6783 18.1079 12.7698 18.0918 12.862C17.8815 13.2214 17.5893 13.5261 17.2389 13.7511C17.1461 13.6654 17.0545 13.5828 17.2318 13.4958Z" fill="#ECD6D6"/>
<path d="M14.4017 14.1444C14.2612 14.1303 14.2347 14.0355 14.2438 13.9188C14.2502 13.8414 14.2721 13.7518 14.3598 13.7557C14.8279 13.7763 15.3024 13.6641 15.7646 13.813C15.8291 14.0065 15.7833 14.1741 15.5641 14.1838C15.1773 14.1999 14.7853 14.2573 14.4017 14.1444Z" fill="#383536"/>
<path d="M14.4025 14.1439C14.7499 14.1439 15.0981 14.1272 15.4456 14.1439C15.6964 14.1542 15.7944 14.0556 15.7679 13.8145L15.882 14.0724L15.6467 14.2381L14.2812 14.2658L14.4025 14.1439Z" fill="#BAB6B7"/>
</g>
<defs>
<clipPath id="clip0_306_9301">
<rect width="17" height="20.5789" fill="white" transform="translate(9 7)"/>
</clipPath>
</defs>
</svg>
