<svg width="34" height="35" viewBox="0 0 34 35" fill="none" xmlns="http://www.w3.org/2000/svg">
<rect x="0.25" y="0.290039" width="33.5" height="33.5" rx="16.75" fill="white"/>
<rect x="0.25" y="0.290039" width="33.5" height="33.5" rx="16.75" stroke="#E6E8EC" stroke-width="0.5"/>
<g clip-path="url(#clip0_306_10450)">
<path d="M29.3359 23.499C29.3277 23.5113 29.3548 23.5408 29.3163 23.5383C29.2933 23.5383 29.2704 23.5383 29.2474 23.5383C20.8649 23.5383 12.4821 23.5383 4.09903 23.5383C4.02608 23.5383 4.00887 23.5219 4.00887 23.4482C4.00887 19.5083 4.01051 15.5681 4.01379 11.6277C4.01379 11.6031 3.96543 11.5375 4.04985 11.54C4.05845 11.5499 4.06562 11.5609 4.07117 11.5728C4.08437 11.6369 4.08823 11.7026 4.08264 11.7679C4.08264 15.5968 4.08264 19.4252 4.08264 23.2531C4.08264 23.4785 4.06379 23.4646 4.29657 23.4646H29.0876C29.1593 23.4581 29.2317 23.462 29.3023 23.476C29.3146 23.482 29.3259 23.4898 29.3359 23.499Z" fill="#FBFBFD"/>
<path d="M4.05078 11.5621V11.5416H29.3155C29.3181 11.5476 29.3182 11.5544 29.3159 11.5605C29.3136 11.5666 29.3091 11.5716 29.3032 11.5744C29.2607 11.5917 29.2145 11.5982 29.1688 11.5933H4.26963C4.19668 11.5933 4.11799 11.6129 4.05078 11.5621Z" fill="#8F8DB2"/>
<path d="M29.3156 11.563V11.5417C29.3213 11.5458 29.3361 11.5318 29.3352 11.5515C29.3344 11.5712 29.3352 11.6031 29.3352 11.6294V23.499H29.3156C29.2925 23.4707 29.2811 23.4347 29.2836 23.3982C29.2836 23.3728 29.2836 23.3466 29.2836 23.3203V11.7425C29.2722 11.6807 29.2836 11.617 29.3156 11.563Z" fill="#F0ECFE"/>
<path d="M29.3166 11.563C29.3166 11.654 29.3166 11.7458 29.3166 11.8376V23.499C29.2838 23.499 29.251 23.5031 29.2182 23.5031C20.8701 23.5031 12.522 23.5031 4.17394 23.5031C4.07312 23.5031 4.04607 23.481 4.04689 23.3777C4.04689 19.481 4.04689 15.5843 4.04689 11.6876C4.04689 11.6449 4.04689 11.6056 4.04689 11.5597H29.2108L29.3166 11.563Z" fill="#312F5E"/>
<path d="M16.6636 20.2972C12.6592 20.2972 8.65486 20.2972 4.65049 20.2972C4.54803 20.2972 4.52344 20.2718 4.52344 20.1702C4.52781 17.4926 4.52918 14.815 4.52754 12.1374C4.52754 12.0497 4.54639 12.0234 4.63819 12.0234C12.6633 12.0234 20.6885 12.0234 28.7136 12.0234C28.8071 12.0234 28.8243 12.0513 28.8243 12.1374C28.8172 14.8204 28.8125 17.5038 28.8103 20.1874C28.8103 20.2816 28.7808 20.2956 28.6964 20.2956C24.686 20.2956 20.6751 20.2956 16.6636 20.2956V20.2972Z" fill="white"/>
<path d="M16.6631 23.0253H4.65982C4.52539 23.0253 4.52539 23.0253 4.52539 22.8892C4.52539 22.2253 4.52949 21.5605 4.52539 20.8966C4.52539 20.8146 4.53769 20.7867 4.62949 20.7867C12.6579 20.7867 20.6869 20.7867 28.7164 20.7867C28.8073 20.7867 28.8213 20.8146 28.8205 20.8966C28.8161 21.5736 28.8161 22.251 28.8205 22.9285C28.8205 23.0105 28.7967 23.0294 28.7172 23.0294C24.7002 23.0294 20.6838 23.0294 16.668 23.0294L16.6631 23.0253Z" fill="white"/>
<path d="M18.3942 17.3204C18.3942 16.7835 18.3942 16.2467 18.3942 15.7098C18.3942 15.6352 18.4098 15.6106 18.4893 15.6114C18.9811 15.6147 19.4756 15.6147 19.9729 15.6114C20.0548 15.6114 20.0688 15.6352 20.0688 15.7098C20.0688 16.345 20.0753 16.9794 20.0762 17.6147C20.0762 17.6868 20.0926 17.7098 20.168 17.7065C20.6196 17.6835 21.0524 17.6049 21.4196 17.3155C22.1434 16.7467 22.0163 15.6508 21.4589 15.1672C21.2696 15.0032 21.0409 14.9475 20.8032 14.9212C20.5579 14.8999 20.3116 14.8933 20.0655 14.9016C19.5417 14.9016 19.018 14.9016 18.4942 14.9016C18.4048 14.9016 18.3852 14.8762 18.3868 14.7909C18.3917 14.4019 18.3917 14.0125 18.3868 13.6229C18.3868 13.5409 18.4114 13.5245 18.4868 13.5245C19.3573 13.5245 20.2286 13.5204 21.0999 13.5245C22.2868 13.5344 23.2122 14.2827 23.4999 15.4565C23.6575 16.0583 23.6424 16.6923 23.4565 17.286C23.204 18.0762 22.6417 18.5581 21.8737 18.8221C21.4738 18.9586 21.0552 19.0322 20.6327 19.0401C19.9581 19.0557 19.2844 19.086 18.6098 19.0606C18.386 19.0524 18.386 19.054 18.3868 18.8303V17.3204H18.3942Z" fill="#312F60"/>
<path d="M27.1541 19.0564C26.6971 19.0712 26.2399 19.0304 25.7926 18.9351C25.4521 18.8629 25.1331 18.7119 24.8615 18.4941C24.5899 18.2763 24.3732 17.9978 24.2287 17.681C24.0425 17.3212 23.9319 16.9271 23.9037 16.523C23.8755 16.1188 23.9303 15.7132 24.0648 15.331C24.4115 14.3253 25.1558 13.7736 26.182 13.5843C26.6812 13.4909 27.1869 13.5253 27.6902 13.522C27.923 13.522 27.923 13.522 27.923 13.7523C27.923 14.1122 27.923 14.472 27.9279 14.8318C27.9279 14.9179 27.9123 14.9466 27.8181 14.9466C27.4057 14.9308 26.9935 14.9806 26.5967 15.0941C25.6828 15.39 25.3984 16.5851 26.0869 17.2417C26.3041 17.4491 26.5787 17.5376 26.8631 17.5884C27.1798 17.6396 27.5008 17.6586 27.8213 17.645C27.8984 17.645 27.9262 17.6564 27.9254 17.7433C27.9189 18.1458 27.9189 18.5482 27.9254 18.9499C27.9254 19.0318 27.909 19.0589 27.8246 19.0572C27.5959 19.0523 27.3762 19.0564 27.1541 19.0564Z" fill="#312F60"/>
<path d="M7.56186 19.0423C6.94301 19.0423 6.32416 19.0423 5.70612 19.0423C5.62825 19.0423 5.60858 19.0218 5.6094 18.9448C5.61432 17.859 5.61705 16.7729 5.6176 15.6866C5.6176 15.6046 5.64465 15.5915 5.7176 15.5923C6.95475 15.5956 8.19219 15.597 9.42989 15.5964C9.5053 15.5964 9.52088 15.6177 9.52006 15.6899C9.51405 16.0893 9.51186 16.4885 9.5135 16.8874C9.5135 16.9612 9.49301 16.9792 9.42006 16.9784C8.73973 16.9784 8.05858 16.9784 7.37743 16.9784C7.28727 16.9784 7.26924 17.0038 7.27333 17.0866C7.28071 17.244 7.28071 17.4013 7.27333 17.5579C7.27333 17.6325 7.29301 17.6497 7.36596 17.6497C8.05038 17.6497 8.73481 17.6497 9.41514 17.6497C9.49711 17.6497 9.51678 17.6735 9.51596 17.7538C9.51022 18.153 9.50776 18.5522 9.51596 18.9513C9.51596 19.0431 9.48727 19.0554 9.40612 19.0546C8.79055 19.0546 8.17661 19.0546 7.5594 19.0546L7.56186 19.0423Z" fill="#312F60"/>
<path d="M16.1161 19.0447C15.494 19.0447 14.8718 19.0447 14.2497 19.0447C14.1784 19.0447 14.1563 19.0292 14.1563 18.9538C14.1563 18.3152 14.1563 17.6775 14.1563 17.039C14.1559 16.9907 14.1741 16.944 14.2071 16.9087C14.5563 16.501 14.9038 16.0912 15.2497 15.6792C15.268 15.6551 15.2919 15.6358 15.3193 15.6231C15.3467 15.6104 15.3769 15.6046 15.4071 15.6062C16.2655 15.6062 17.1235 15.6062 17.9808 15.6062C18.0628 15.6062 18.0915 15.6243 18.0899 15.7128C18.0833 16.0986 18.0833 16.4846 18.0899 16.871C18.0899 16.9636 18.0612 16.9759 17.98 16.9751C17.3021 16.9751 16.6243 16.9751 15.9464 16.9751C15.8644 16.9751 15.8415 16.9947 15.8456 17.0767C15.8538 17.2365 15.8546 17.398 15.8497 17.5579C15.8497 17.6349 15.8735 17.648 15.944 17.648C16.6251 17.648 17.3062 17.648 17.9874 17.6439C18.0694 17.6439 18.0956 17.662 18.094 17.7497C18.0874 18.1488 18.0866 18.548 18.089 18.9472C18.089 19.0292 18.0735 19.0513 17.9882 19.0505C17.3661 19.0464 16.744 19.0505 16.1218 19.0505L16.1161 19.0447Z" fill="#312F60"/>
<path d="M13.4361 13.5385C13.4312 13.5803 13.3992 13.6016 13.3779 13.6278C12.6921 14.4852 12.0033 15.3412 11.3115 16.1958C11.2566 16.263 11.2623 16.3032 11.3156 16.3598C11.441 16.4893 11.5615 16.6262 11.6877 16.7507C11.7599 16.8204 11.7574 16.8688 11.6959 16.945C11.414 17.2975 11.1369 17.6532 10.8615 18.0106C10.8197 18.0655 10.8009 18.0524 10.7623 18.0106C10.4798 17.7024 10.1951 17.3956 9.90823 17.0901C9.89471 17.0762 9.88412 17.0598 9.87707 17.0418C9.87003 17.0238 9.86669 17.0045 9.86725 16.9852C9.86725 16.5994 9.86725 16.2133 9.86725 15.827C9.86676 15.7847 9.88262 15.7439 9.91151 15.713C10.5156 15.0204 11.091 14.3032 11.6713 13.5909C11.7 13.5557 11.723 13.5229 11.7795 13.5237C12.323 13.5286 12.8664 13.5294 13.4099 13.5327C13.4188 13.5333 13.4277 13.5353 13.4361 13.5385Z" fill="#312F60"/>
<path d="M7.56728 14.8966C6.94515 14.8966 6.32302 14.8966 5.70171 14.8966C5.62875 14.8966 5.60662 14.8802 5.60744 14.8048C5.61236 14.4023 5.61236 14.0007 5.60744 13.5982C5.60744 13.54 5.62056 13.5162 5.68285 13.5162C6.93695 13.5162 8.19078 13.5162 9.44433 13.5162C9.49843 13.5162 9.51646 13.5293 9.51646 13.5859C9.51646 13.9957 9.51646 14.4105 9.51646 14.8228C9.51646 14.8974 9.48203 14.8974 9.42711 14.8974H7.56728V14.8966Z" fill="#312F60"/>
<path d="M16.4656 13.5048L17.3934 12.7392C17.4086 12.7237 17.4274 12.7121 17.4481 12.7055C17.4688 12.6988 17.4908 12.6974 17.5122 12.7011C17.5336 12.7049 17.5538 12.7139 17.5709 12.7272C17.5881 12.7406 17.6017 12.7579 17.6106 12.7777C17.6344 12.8204 17.5926 12.8367 17.5746 12.8597C17.4057 13.063 17.2336 13.2638 17.0623 13.4646C17.0525 13.4769 17.0443 13.4917 17.0352 13.5048C16.9752 13.6091 16.901 13.7045 16.8147 13.7884C16.5418 14.1236 16.2492 14.4441 15.9787 14.7794C15.9457 14.8196 15.9064 14.8542 15.8623 14.8818L14.3156 16.6933C13.933 17.1419 13.5524 17.59 13.1738 18.0376C13.1524 18.063 13.1361 18.1195 13.0852 18.0884C13.0344 18.0572 13.0033 18.0326 13.018 17.9556C13.1369 17.454 13.2483 16.9499 13.3623 16.4466C13.368 16.4245 13.3721 16.4023 13.377 16.3794C13.3361 16.3679 13.3221 16.4023 13.3041 16.4187C12.2937 17.3477 11.2828 18.2766 10.2713 19.2056C10.2385 19.2359 10.2164 19.3105 10.141 19.2417C10.0656 19.1728 10.0738 19.1408 10.1287 19.0679C11.2549 17.5821 12.3795 16.0947 13.5024 14.6056C13.7254 14.3116 13.9478 14.0168 14.1697 13.7212C14.1836 13.704 14.2041 13.69 14.2024 13.6638C14.2024 13.6589 14.2065 13.654 14.209 13.6499C14.3549 13.5753 14.4295 13.6163 14.4229 13.7761C14.4057 14.2097 14.3836 14.6433 14.3861 15.0777C14.3797 15.1151 14.3842 15.1535 14.3992 15.1884C14.4522 15.1567 14.5012 15.1187 14.5451 15.0753C15.141 14.5835 15.7336 14.0851 16.3287 13.5908C16.3754 13.554 16.4254 13.5376 16.4656 13.5048Z" fill="#EA3236"/>
<path d="M13.8142 19.0505H13.6503C13.0377 19.0505 12.4257 19.0505 11.8142 19.0505C11.7853 19.0527 11.7563 19.048 11.7297 19.0367C11.703 19.0254 11.6794 19.008 11.6609 18.9857C11.5183 18.8218 11.3716 18.6652 11.2224 18.5095C11.183 18.4677 11.188 18.4496 11.2281 18.4119C11.5691 18.0961 11.9085 17.7789 12.2462 17.4603C12.2798 17.4291 12.2978 17.4037 12.3437 17.4529C12.8279 17.9764 13.3136 18.4985 13.8011 19.0193C13.8067 19.0291 13.8112 19.0396 13.8142 19.0505Z" fill="#312F60"/>
<path d="M17.0574 13.5253H18.0795C18.0902 13.5492 18.0934 13.5758 18.0885 13.6015C18.0885 14.0072 18.0885 14.4122 18.0885 14.8171C18.0885 14.8892 18.073 14.9113 17.9975 14.9113C17.3303 14.9113 16.6631 14.9113 15.9967 14.9113C15.9697 14.9113 15.9311 14.9277 15.9147 14.8941C15.8984 14.8605 15.9295 14.8335 15.9508 14.8081C16.2317 14.4687 16.5156 14.1324 16.8025 13.799C16.8732 13.6955 16.9592 13.6032 17.0574 13.5253Z" fill="#312F60"/>
<path d="M14.2085 13.6612C14.1937 13.6481 14.161 13.7259 14.156 13.6473C14.1495 13.5309 14.156 13.5227 14.2741 13.5235H16.3905C16.3659 13.6186 16.2741 13.6514 16.2101 13.7046C15.8593 13.997 15.5077 14.2885 15.1552 14.5792C15.0396 14.6743 14.9233 14.7702 14.8093 14.8678C14.7611 14.9 14.7028 14.9134 14.6454 14.9055C14.3372 14.9055 14.3765 14.9169 14.3929 14.6489C14.411 14.3522 14.3929 14.0555 14.4159 13.7596C14.4159 13.7194 14.4462 13.6514 14.3929 13.6382C14.3396 13.6251 14.2634 13.6022 14.2101 13.662L14.2085 13.6612Z" fill="#312F60"/>
<path d="M14.207 13.6629C14.257 13.5711 14.3398 13.6318 14.4054 13.626C14.4488 13.6219 14.4283 13.6834 14.4283 13.7146C14.4226 14.0736 14.4169 14.4326 14.4062 14.7924C14.4062 14.8621 14.4259 14.8744 14.4923 14.8801C14.5787 14.8894 14.6661 14.8795 14.7483 14.8512C14.8304 14.8228 14.9053 14.7768 14.9677 14.7162C15.4136 14.3334 15.8693 13.9662 16.3259 13.5916C16.3497 13.5719 16.3841 13.5605 16.3906 13.5236L16.4669 13.5039C16.2308 13.7031 15.9947 13.9039 15.757 14.1023C15.3199 14.4662 14.8841 14.8296 14.4497 15.1924C14.4275 15.2113 14.4038 15.2277 14.3759 15.249C14.3581 15.2171 14.3528 15.1797 14.3611 15.1441C14.3742 14.69 14.3882 14.2359 14.4005 13.7818C14.4054 13.6219 14.3628 13.5957 14.207 13.6629Z" fill="#F9F0F4"/>
<path d="M17.0553 13.5252L15.9118 14.8859C15.9251 14.8946 15.94 14.9006 15.9556 14.9036C15.9712 14.9065 15.9873 14.9064 16.0028 14.9031C16.6643 14.9031 17.3258 14.9031 17.9864 14.9031C18.0602 14.9031 18.0872 14.8892 18.0864 14.808C18.0799 14.3802 18.0799 13.9515 18.0774 13.5228C18.1094 13.5474 18.0971 13.5826 18.0971 13.6138C18.0971 14.0162 18.0971 14.4187 18.0971 14.8203C18.0971 14.9023 18.0733 14.9195 17.9963 14.9195C17.3258 14.9195 16.655 14.9195 15.984 14.9195C15.9396 14.9169 15.8966 14.9028 15.8594 14.8785C16.1326 14.5506 16.408 14.2241 16.6856 13.899C16.7987 13.7646 16.9168 13.6334 17.0323 13.5015L17.0553 13.5252Z" fill="#F6E4ED"/>
<path d="M24.8288 21.8515C24.7772 22.0154 24.728 22.1753 24.6796 22.3326C24.6649 22.3802 24.6526 22.4195 24.5837 22.4146C24.5149 22.4097 24.5018 22.3826 24.4878 22.3326C24.4468 22.1728 24.4018 22.013 24.3485 21.8531C24.3403 22.0171 24.3263 22.181 24.3255 22.3449C24.3255 22.4326 24.2763 22.4228 24.219 22.4269C24.1485 22.4326 24.1477 22.3958 24.1518 22.3449C24.1665 22.1269 24.1813 21.9089 24.1927 21.6892C24.1927 21.6343 24.2149 21.6072 24.2698 21.6179H24.2796C24.4436 21.613 24.4436 21.613 24.4903 21.7679C24.5083 21.8302 24.5255 21.8933 24.5427 21.9564C24.56 22.0195 24.5731 22.0761 24.5944 22.1597C24.6304 22.0392 24.66 21.9384 24.6911 21.8384C24.7075 21.7958 24.7212 21.7523 24.7321 21.708C24.7427 21.6359 24.778 21.6121 24.8509 21.6162C25.0198 21.6244 25.0009 21.5859 25.0149 21.7744C25.0288 21.963 25.0345 22.1597 25.046 22.3482C25.046 22.3933 25.046 22.4302 24.9911 22.4212C24.9362 22.4121 24.864 22.4605 24.864 22.354C24.864 22.2171 24.8591 22.0794 24.855 21.9441C24.8573 21.9277 24.8562 21.911 24.8516 21.8951C24.8471 21.8791 24.8393 21.8643 24.8288 21.8515Z" fill="#E93338"/>
<path d="M26.7753 21.8606C26.7753 22.0245 26.7753 22.1843 26.7753 22.3401C26.7753 22.4155 26.745 22.422 26.6827 22.422C26.6204 22.422 26.6007 22.4015 26.6007 22.3401C26.6007 22.1335 26.6007 21.9302 26.6007 21.7212C26.6007 21.6851 26.5712 21.6188 26.6335 21.6171C26.6958 21.6155 26.7925 21.5696 26.845 21.6647C26.927 21.8188 27.0147 21.972 27.1048 22.1351C27.1048 21.981 27.1048 21.8368 27.1048 21.6925C27.1048 21.6261 27.1278 21.6106 27.1868 21.6106C27.2458 21.6106 27.2688 21.6261 27.2688 21.6925C27.2688 21.9024 27.2688 22.1114 27.2688 22.3212C27.2688 22.354 27.2958 22.4155 27.2376 22.4163C27.1794 22.4171 27.095 22.4606 27.0466 22.3687C26.9655 22.2024 26.8729 22.0376 26.7753 21.8606Z" fill="#EA3337"/>
<path d="M21.7134 21.8464C21.7134 22.0316 21.7134 22.1906 21.7134 22.3488C21.7134 22.412 21.6921 22.4259 21.6314 22.4243C21.5708 22.4226 21.5404 22.4243 21.5421 22.348C21.547 22.139 21.5421 21.9292 21.5421 21.7202C21.5421 21.6841 21.5117 21.6185 21.5781 21.6185C21.6445 21.6185 21.7314 21.5726 21.7806 21.6636L22.0183 22.1021C22.0257 22.1161 22.0339 22.1292 22.0404 22.1398C22.0404 21.9931 22.0404 21.848 22.0404 21.7021C22.0404 21.6365 22.0544 21.6103 22.1224 21.6111C22.1904 21.612 22.2126 21.6283 22.2109 21.6988C22.2068 21.9054 22.2109 22.1087 22.2109 22.3177C22.2109 22.3529 22.2412 22.4161 22.174 22.4193C22.1068 22.4226 22.029 22.4579 21.9831 22.3677C21.9011 22.2144 21.8191 22.062 21.7372 21.9095C21.7421 21.8964 21.7339 21.8857 21.7134 21.8464Z" fill="#E73439"/>
<path d="M18.5847 21.9876C18.7035 22.0482 18.7535 22.1351 18.7191 22.2507C18.7017 22.3004 18.6694 22.3436 18.6265 22.3742C18.5837 22.4049 18.5324 22.4216 18.4797 22.422C18.3861 22.4357 18.2911 22.4379 18.197 22.4286C18.1511 22.4245 18.1281 22.4114 18.1289 22.3581C18.1289 22.1335 18.1289 21.9081 18.1289 21.6835C18.1289 21.6384 18.1461 21.6179 18.1904 21.6155C18.288 21.606 18.3863 21.606 18.4838 21.6155C18.5299 21.6155 18.5747 21.6299 18.6122 21.6566C18.6497 21.6834 18.6779 21.7211 18.6929 21.7646C18.7215 21.863 18.6691 21.9261 18.5847 21.9876Z" fill="#E73439"/>
<path d="M14.5772 22.0188C14.5772 21.9106 14.5772 21.8024 14.5772 21.695C14.5772 21.6409 14.5952 21.613 14.6493 21.613C14.7469 21.613 14.8461 21.6048 14.9428 21.613C14.9897 21.6135 15.036 21.6234 15.0791 21.6419C15.1221 21.6604 15.1611 21.6873 15.1937 21.721C15.2264 21.7547 15.252 21.7945 15.2691 21.8382C15.2863 21.8818 15.2946 21.9284 15.2936 21.9753C15.301 22.2138 15.1797 22.3769 14.9657 22.4138C14.8526 22.4335 14.7198 22.4679 14.628 22.4138C14.5166 22.3499 14.6051 22.2089 14.5821 22.104C14.5778 22.0758 14.5761 22.0473 14.5772 22.0188Z" fill="#E73438"/>
<path d="M7.15567 22.0131C7.15567 22.2721 7.00075 22.4385 6.75977 22.4385C6.51879 22.4385 6.37453 22.2688 6.37698 22.0221C6.37944 21.7754 6.54092 21.5999 6.77043 21.5991C6.99994 21.5983 7.15567 21.7663 7.15567 22.0131Z" fill="#E93338"/>
<path d="M23.266 22.0131C23.2636 21.9591 23.2722 21.9051 23.2914 21.8545C23.3106 21.8039 23.34 21.7578 23.3777 21.719C23.4154 21.6803 23.4607 21.6496 23.5107 21.629C23.5607 21.6084 23.6144 21.5982 23.6685 21.5992C23.8964 21.6049 24.0513 21.7779 24.0464 22.0221C24.0414 22.2664 23.8824 22.4435 23.6365 22.4385C23.3906 22.4336 23.2611 22.2615 23.266 22.0131Z" fill="#E93338"/>
<path d="M20.6484 22.0236C20.6484 21.7736 20.8075 21.6007 21.0378 21.599C21.2681 21.5974 21.4239 21.7629 21.4239 22.0088C21.4239 22.2547 21.2689 22.4351 21.0296 22.4351C20.7902 22.4351 20.6476 22.2752 20.6484 22.0236Z" fill="#E93338"/>
<path d="M17.072 22.0179C17.072 21.9072 17.072 21.7957 17.072 21.6851C17.072 21.6482 17.0777 21.6195 17.122 21.6179C17.242 21.6027 17.3636 21.606 17.4827 21.6277C17.5217 21.6362 17.5576 21.6556 17.5863 21.6835C17.6149 21.7114 17.6352 21.7467 17.6448 21.7856C17.6543 21.8244 17.6528 21.8652 17.6404 21.9032C17.6279 21.9412 17.6051 21.975 17.5745 22.0007C17.5269 22.0359 17.5343 22.0531 17.5671 22.0949C17.6335 22.1769 17.6368 22.2892 17.6679 22.3884C17.6705 22.3943 17.6708 22.4009 17.6686 22.407C17.6665 22.4131 17.6621 22.4182 17.6564 22.4212C17.6217 22.4343 17.5833 22.4341 17.5486 22.4206C17.514 22.4071 17.4855 22.3814 17.4687 22.3482C17.454 22.2982 17.4433 22.2466 17.4277 22.1974C17.4224 22.1732 17.4096 22.1514 17.391 22.135C17.3724 22.1186 17.3491 22.1086 17.3245 22.1064C17.2786 22.1023 17.2474 22.1064 17.2523 22.1662C17.2572 22.2261 17.2466 22.2646 17.2523 22.3121C17.2687 22.4162 17.2171 22.4318 17.1302 22.4244C17.0835 22.4244 17.0695 22.4056 17.0703 22.3605C17.0736 22.2466 17.0728 22.1318 17.072 22.0179Z" fill="#E83338"/>
<path d="M11.27 22.0426C11.3782 22.1377 11.3766 22.2697 11.4168 22.3852C11.4225 22.4016 11.4168 22.4139 11.3971 22.4221C11.379 22.4294 11.3596 22.4328 11.3402 22.432C11.3207 22.4313 11.3017 22.4264 11.2842 22.4177C11.2668 22.409 11.2514 22.3967 11.2391 22.3817C11.2267 22.3666 11.2177 22.3491 11.2127 22.3303C11.2012 22.2902 11.1922 22.2484 11.1799 22.2082C11.1756 22.1822 11.163 22.1583 11.1439 22.1401C11.1248 22.1219 11.1003 22.1104 11.0741 22.1074C11.0291 22.1025 10.9979 22.1074 11.0012 22.1664C11.0045 22.2254 11.0012 22.2967 11.0012 22.3623C11.0012 22.4279 10.9504 22.4221 10.9086 22.423C10.8668 22.4238 10.8168 22.4352 10.8184 22.359C10.8184 22.1344 10.8184 21.909 10.8184 21.6836C10.8184 21.6303 10.8463 21.6156 10.8905 21.6156C10.9791 21.6156 11.0676 21.6082 11.1553 21.6156C11.2063 21.612 11.257 21.6257 11.2994 21.6544C11.3417 21.683 11.3733 21.7251 11.3889 21.7738C11.4209 21.8754 11.3881 21.9508 11.27 22.0426Z" fill="#E83438"/>
<path d="M19.5125 21.9105C19.5125 21.9925 19.5182 22.0744 19.5125 22.1564C19.5089 22.2344 19.4746 22.3078 19.4173 22.3607C19.3599 22.4137 19.2839 22.4419 19.2059 22.4392C19.0166 22.4482 18.8961 22.3613 18.8674 22.1851C18.849 22.0128 18.8448 21.8392 18.8551 21.6662C18.8551 21.5843 18.9272 21.6236 18.9674 21.6162C19.0076 21.6089 19.0436 21.6121 19.042 21.6736C19.042 21.8105 19.042 21.9482 19.042 22.0835C19.0399 22.1261 19.0475 22.1687 19.0641 22.208C19.0753 22.2335 19.0941 22.2549 19.1178 22.2695C19.1415 22.284 19.169 22.291 19.1968 22.2895C19.2246 22.288 19.2512 22.278 19.2732 22.261C19.2952 22.2439 19.3115 22.2206 19.3199 22.1941C19.3321 22.1534 19.3379 22.1111 19.3371 22.0687C19.3371 21.9507 19.3444 21.8326 19.3371 21.7154C19.3297 21.6228 19.3658 21.6056 19.4477 21.6105C19.501 21.6105 19.524 21.6253 19.5207 21.6826C19.5166 21.758 19.5207 21.8334 19.5207 21.9089L19.5125 21.9105Z" fill="#E93338"/>
<path d="M5.91435 21.9394C5.96327 21.8788 6.00687 21.814 6.04468 21.7459C6.10697 21.6074 6.21435 21.5984 6.35533 21.623C6.28402 21.714 6.22173 21.8 6.15369 21.8804C6.14171 21.8901 6.13184 21.9021 6.12472 21.9158C6.1176 21.9295 6.11337 21.9445 6.11229 21.9598C6.11121 21.9752 6.11331 21.9907 6.11846 22.0052C6.12361 22.0197 6.1317 22.033 6.14222 22.0443C6.22418 22.1607 6.2914 22.2902 6.36599 22.4115C6.18074 22.4476 6.17173 22.4443 6.08894 22.2976C6.06271 22.2517 6.03894 22.205 6.01107 22.1615C5.99549 22.1394 5.99303 22.0918 5.95943 22.1009C5.94049 22.1067 5.924 22.1187 5.91245 22.1348C5.90091 22.1509 5.89496 22.1704 5.89549 22.1902C5.89549 22.2492 5.89549 22.3082 5.89549 22.3664C5.89549 22.4246 5.85205 22.4279 5.81353 22.4246C5.775 22.4214 5.71599 22.4509 5.71681 22.3697C5.71681 22.1375 5.71681 21.9055 5.71681 21.6738C5.71681 21.5918 5.77336 21.6197 5.81271 21.6173C5.85205 21.6148 5.90123 21.605 5.89468 21.6754C5.89468 21.7623 5.89468 21.85 5.89468 21.9369L5.91435 21.9394Z" fill="#E93338"/>
<path d="M26.3885 22.4204C26.3066 22.4442 26.2828 22.3901 26.2672 22.3229C26.259 22.2876 26.2598 22.2319 26.2172 22.2253C26.1503 22.2113 26.081 22.213 26.0148 22.2303C25.9721 22.2458 25.9779 22.3212 25.9598 22.3696C25.9418 22.418 25.7959 22.4516 25.7697 22.4147C25.7557 22.3967 25.7697 22.3778 25.7754 22.3598C25.8451 22.1327 25.9164 21.9057 25.9836 21.6778C25.9975 21.6278 26.0213 21.6139 26.0721 21.613C26.241 21.613 26.2418 21.6089 26.2918 21.7663C26.35 21.9491 26.4058 22.1335 26.4648 22.3163C26.4894 22.3909 26.4943 22.4458 26.3885 22.4204Z" fill="#E93338"/>
<path d="M5.07031 22.0145C5.07031 21.903 5.07031 21.7923 5.07031 21.6809C5.07031 21.63 5.0867 21.612 5.13834 21.6128C5.26211 21.6128 5.38425 21.6169 5.5113 21.6128C5.57195 21.6128 5.56949 21.6472 5.56949 21.689C5.56949 21.7309 5.56949 21.771 5.5113 21.7653C5.4531 21.7595 5.39982 21.7653 5.34736 21.7653C5.2949 21.7653 5.2531 21.7743 5.25392 21.8472C5.25474 21.9202 5.28097 21.9382 5.34572 21.9292C5.38834 21.9292 5.42769 21.9292 5.47359 21.9292C5.53343 21.9235 5.56211 21.9399 5.5613 22.0112C5.56048 22.0825 5.52933 22.0874 5.47933 22.0833C5.44326 22.0833 5.40638 22.0833 5.37113 22.0833C5.28343 22.071 5.25064 22.1022 5.25638 22.1948C5.26048 22.2604 5.27933 22.2817 5.33834 22.2768C5.39736 22.2718 5.46293 22.2768 5.52523 22.2768C5.58752 22.2768 5.5908 22.3087 5.59162 22.3587C5.59244 22.4087 5.57769 22.4284 5.52523 22.4268C5.39818 22.4268 5.27031 22.4268 5.14244 22.4268C5.08261 22.4268 5.07277 22.4013 5.07359 22.3505C5.07277 22.2366 5.07031 22.1259 5.07031 22.0145Z" fill="#E93338"/>
<path d="M7.52284 22.0212C7.52284 21.9097 7.52284 21.7991 7.52284 21.6876C7.52284 21.6351 7.53432 21.6114 7.59333 21.613C7.71383 21.6171 7.83514 21.6171 7.95563 21.613C8.01792 21.613 8.02202 21.6417 8.02284 21.6909C8.02366 21.74 8.01137 21.7728 7.95235 21.7663C7.89333 21.7597 7.85399 21.7663 7.80563 21.7663C7.74333 21.7663 7.70317 21.7663 7.70317 21.8482C7.70317 21.9302 7.74661 21.9343 7.80645 21.9302C7.84251 21.9302 7.87858 21.9302 7.91465 21.9302C7.96874 21.9302 8.00563 21.9302 8.00563 22.0048C8.00563 22.0794 7.97448 22.0868 7.9171 22.0818C7.88432 22.0818 7.85071 22.0818 7.81956 22.0818C7.72038 22.0655 7.69579 22.1105 7.70399 22.2015C7.70891 22.2548 7.71956 22.2794 7.77694 22.2761C7.83432 22.2728 7.89415 22.2761 7.95317 22.2761C8.01219 22.2761 8.04088 22.2802 8.04251 22.3523C8.04415 22.4245 7.99989 22.4245 7.94989 22.4245C7.83923 22.4245 7.72776 22.4196 7.6171 22.4245C7.54579 22.4245 7.5171 22.4114 7.52202 22.3343C7.52858 22.2302 7.52284 22.1253 7.52284 22.0212Z" fill="#E83438"/>
<path d="M8.78125 22.0186C8.78125 21.9071 8.78125 21.7957 8.78125 21.6842C8.78125 21.6383 8.78781 21.6112 8.84436 21.6129C8.96895 21.6129 9.09026 21.6129 9.21731 21.6129C9.27387 21.6129 9.28207 21.6383 9.28125 21.685C9.28043 21.7317 9.28125 21.767 9.21568 21.767C9.1501 21.767 9.09764 21.767 9.03945 21.767C8.96486 21.7604 8.96486 21.8022 8.9624 21.8571C8.95994 21.912 8.98125 21.9391 9.04436 21.935C9.08699 21.935 9.12633 21.935 9.17223 21.935C9.21813 21.935 9.26568 21.9284 9.26731 22.0063C9.26895 22.0842 9.23043 22.0883 9.17059 22.0883C9.13863 22.0883 9.10502 22.0883 9.07305 22.0883C8.98371 22.0735 8.96158 22.1112 8.96486 22.1965C8.96486 22.2678 8.99191 22.2875 9.05748 22.2784C9.10912 22.2784 9.1624 22.2784 9.21404 22.2784C9.26568 22.2784 9.30256 22.2834 9.30338 22.3555C9.3042 22.4276 9.25994 22.4268 9.21076 22.426C9.08945 22.426 8.96486 22.426 8.84682 22.426C8.80092 22.426 8.78371 22.4112 8.78453 22.3645C8.78289 22.2473 8.78125 22.1317 8.78125 22.0186Z" fill="#E83438"/>
<path d="M25.1878 22.0163C25.1878 21.9089 25.1878 21.8007 25.1878 21.6934C25.1878 21.6548 25.1878 21.6196 25.2403 21.6171C25.3537 21.6025 25.4687 21.6055 25.5813 21.6262C25.6332 21.6351 25.6803 21.6621 25.7143 21.7025C25.7482 21.7428 25.7667 21.7939 25.7665 21.8466C25.7731 21.9024 25.7605 21.9587 25.7307 22.0063C25.7008 22.0539 25.6556 22.0898 25.6026 22.1081C25.5483 22.1314 25.4895 22.1423 25.4304 22.1401C25.3772 22.136 25.3624 22.1589 25.3665 22.2081C25.3665 22.2434 25.3665 22.2794 25.3665 22.3155C25.3665 22.4163 25.3099 22.4548 25.2149 22.4221C25.1788 22.4098 25.1862 22.3827 25.1862 22.3589C25.1878 22.245 25.1886 22.1319 25.1878 22.0163Z" fill="#E83338"/>
<path d="M15.9545 22.4418C15.9094 22.4352 15.8644 22.4254 15.8193 22.4213C15.7316 22.4139 15.7217 22.3672 15.7455 22.2934C15.7586 22.2516 15.7742 22.2434 15.8144 22.259C15.8664 22.2798 15.9224 22.2885 15.9783 22.2844C16.0283 22.2803 16.0791 22.273 16.0898 22.2107C16.1004 22.1484 16.0578 22.1287 16.016 22.109C15.9742 22.0893 15.9176 22.0713 15.8717 22.0467C15.8273 22.0287 15.79 21.9965 15.7657 21.9552C15.7414 21.9138 15.7314 21.8656 15.7373 21.818C15.7425 21.7722 15.7615 21.7289 15.7918 21.6941C15.8221 21.6593 15.8623 21.6345 15.907 21.623C15.9881 21.597 16.0746 21.5931 16.1578 21.6115C16.2447 21.6262 16.2529 21.6664 16.2242 21.7385C16.2078 21.7795 16.1881 21.7853 16.1512 21.7689C16.105 21.7513 16.055 21.7462 16.0062 21.7541C15.9875 21.7535 15.9693 21.7593 15.9544 21.7705C15.9395 21.7816 15.9288 21.7975 15.9242 21.8156C15.9202 21.8336 15.923 21.8524 15.9321 21.8685C15.9412 21.8845 15.9559 21.8966 15.9734 21.9025C16.0201 21.9246 16.0701 21.9418 16.1168 21.9648C16.1671 21.9824 16.2103 22.016 16.2398 22.0603C16.2694 22.1047 16.2838 22.1574 16.2807 22.2107C16.2744 22.2666 16.2491 22.3188 16.209 22.3583C16.1688 22.3978 16.1163 22.4224 16.0603 22.4279C16.0299 22.432 15.9939 22.4361 15.9545 22.4418Z" fill="#E93438"/>
<path d="M23.0301 22.4391C22.8424 22.4326 22.6932 22.3834 22.6202 22.2137C22.5826 22.1348 22.5698 22.0464 22.5834 21.9601C22.597 21.8738 22.6364 21.7936 22.6965 21.7301C22.7604 21.6713 22.8385 21.63 22.9231 21.6105C23.0078 21.591 23.096 21.5938 23.1793 21.6186C23.2407 21.6408 23.2104 21.6768 23.2071 21.7121C23.2014 21.7727 23.1702 21.7727 23.1186 21.7613C23.067 21.7435 23.0112 21.7424 22.9589 21.7581C22.9067 21.7739 22.8608 21.8057 22.8276 21.849C22.7964 21.8914 22.7775 21.9417 22.773 21.9942C22.7685 22.0467 22.7786 22.0994 22.8022 22.1465C22.853 22.2588 22.9596 22.3055 23.1178 22.2768C23.1694 22.267 23.1997 22.2662 23.2047 22.3268C23.2096 22.3875 23.2178 22.4195 23.1473 22.4236C23.1079 22.4265 23.0688 22.4317 23.0301 22.4391Z" fill="#E83439"/>
<path d="M9.83092 22.4392C9.64158 22.4343 9.49076 22.3818 9.42109 22.2121C9.38379 22.1347 9.3708 22.0477 9.38382 21.9627C9.39684 21.8777 9.43526 21.7987 9.49404 21.7359C9.62437 21.5949 9.79404 21.5777 9.97354 21.6179C10.0301 21.631 10.0194 21.6646 10.0096 21.7072C9.99977 21.7498 9.98502 21.7761 9.92764 21.7638C9.68174 21.7146 9.52191 21.8834 9.5924 22.1146C9.63256 22.2457 9.74732 22.3064 9.91535 22.2785C9.96699 22.2703 9.99732 22.2588 10.008 22.331C10.0186 22.4031 10.008 22.4228 9.93912 22.4261C9.90285 22.4285 9.86673 22.4329 9.83092 22.4392Z" fill="#E93338"/>
<path d="M12.295 22.4385C12.0696 22.4385 11.9245 22.3565 11.8704 22.1926C11.8377 22.1153 11.828 22.0303 11.8425 21.9476C11.8571 21.865 11.8952 21.7884 11.9524 21.727C12.0161 21.6681 12.0941 21.627 12.1787 21.6077C12.2633 21.5885 12.3514 21.5917 12.4343 21.6171C12.4761 21.6327 12.4827 21.6565 12.4663 21.6917C12.4499 21.727 12.4663 21.7794 12.3999 21.7655C12.3901 21.7655 12.3811 21.759 12.3712 21.7573C12.2557 21.7385 12.1458 21.7475 12.0761 21.8565C12.0449 21.903 12.0279 21.9576 12.0271 22.0137C12.0264 22.0697 12.042 22.1247 12.072 22.1721C12.1376 22.286 12.2507 22.2934 12.3655 22.2753C12.4171 22.2671 12.4475 22.2598 12.4589 22.3278C12.4663 22.3811 12.4696 22.4171 12.4016 22.4204C12.3657 22.4242 12.3301 22.4302 12.295 22.4385Z" fill="#E83438"/>
<path d="M13.0922 22.0908C13.0885 22.0223 13.0885 21.9536 13.0922 21.8851C13.1029 21.79 13.0676 21.7531 12.9742 21.7695C12.8807 21.7859 12.8627 21.7507 12.8709 21.6679C12.8758 21.6244 12.8922 21.6138 12.9316 21.6138C13.1012 21.6138 13.2717 21.6138 13.4414 21.6138C13.5021 21.6138 13.5004 21.6466 13.4996 21.6884C13.4988 21.7302 13.507 21.7703 13.4389 21.7703C13.275 21.7761 13.275 21.7802 13.275 21.9392C13.275 22.0728 13.2709 22.2072 13.275 22.3408C13.275 22.417 13.243 22.4228 13.1816 22.4228C13.1201 22.4228 13.0783 22.4228 13.0848 22.3408C13.0914 22.2589 13.0922 22.1761 13.0922 22.0908Z" fill="#E7353A"/>
<path d="M20.0216 22.0949C20.0175 22.1733 20.0175 22.2518 20.0216 22.3302C20.0298 22.4122 19.9921 22.4236 19.9208 22.4253C19.8495 22.4269 19.8265 22.4015 19.829 22.3302C19.8347 22.1835 19.8241 22.0368 19.8331 21.89C19.8388 21.7917 19.811 21.7507 19.711 21.7687C19.629 21.7835 19.6052 21.7482 19.6126 21.6712C19.6167 21.631 19.6274 21.613 19.67 21.6138C19.8432 21.6138 20.0161 21.6138 20.1888 21.6138C20.2462 21.6138 20.2405 21.6515 20.2396 21.6867C20.2388 21.722 20.2528 21.7687 20.1888 21.7687C20.1249 21.7687 20.0577 21.7343 20.0249 21.7933C20.0107 21.8499 20.0082 21.9087 20.0175 21.9663C20.0208 22.0105 20.0216 22.0499 20.0216 22.0949Z" fill="#E93539"/>
<path d="M13.543 21.6213C13.7438 21.6025 13.7438 21.6025 13.8159 21.7762L13.8938 21.9574C13.9389 21.85 13.9758 21.759 14.0151 21.6689C14.0418 21.6429 14.0749 21.6245 14.1111 21.6158C14.1473 21.607 14.1852 21.608 14.2208 21.6189C14.2421 21.6377 14.2208 21.6533 14.2126 21.6689C14.1749 21.7369 14.1405 21.8082 14.0971 21.8721C13.9982 22.0034 13.9546 22.1682 13.9758 22.3312C13.9864 22.4025 13.9618 22.4271 13.8864 22.4262C13.811 22.4254 13.784 22.4074 13.7946 22.3328C13.8141 22.17 13.7723 22.0058 13.6774 21.8721C13.6282 21.7959 13.5905 21.7123 13.543 21.6213Z" fill="#E83438"/>
<path d="M27.3653 21.6148C27.4095 21.6148 27.4546 21.6148 27.4989 21.6148C27.5169 21.6111 27.5357 21.6148 27.551 21.6249C27.5664 21.635 27.5771 21.6508 27.5809 21.6689C27.6161 21.7598 27.6571 21.8484 27.7038 21.9557C27.7481 21.8533 27.7858 21.7631 27.8251 21.6738C27.8501 21.6462 27.8824 21.6264 27.9183 21.6166C27.9542 21.6069 27.9921 21.6077 28.0276 21.6189C28.0497 21.6361 28.0341 21.6533 28.0276 21.6689C27.9899 21.7369 27.9554 21.8082 27.9112 21.8721C27.8151 22.001 27.7712 22.1615 27.7882 22.3213C27.7981 22.4131 27.7186 22.459 27.6325 22.4221C27.6234 22.4186 27.6159 22.4117 27.6118 22.4028C27.6077 22.394 27.6072 22.3838 27.6104 22.3746C27.6595 22.1131 27.5079 21.9148 27.3981 21.7033C27.3762 21.6791 27.3644 21.6474 27.3653 21.6148Z" fill="#E83438"/>
<path d="M16.5646 22.0917C16.5646 22.0097 16.5646 21.9212 16.5646 21.8368C16.5646 21.7876 16.5523 21.763 16.499 21.7688C16.4704 21.7688 16.44 21.7688 16.4113 21.7688C16.3466 21.7753 16.3466 21.736 16.3458 21.6868C16.345 21.6376 16.3507 21.6048 16.413 21.6097C16.5769 21.613 16.7408 21.613 16.9048 21.6097C16.9622 21.6097 16.9769 21.6302 16.9761 21.6843C16.9753 21.7384 16.9671 21.7663 16.9023 21.7663C16.7507 21.7663 16.7507 21.772 16.7507 21.9253C16.7507 22.0622 16.7466 22.1999 16.7507 22.3352C16.7507 22.4097 16.7204 22.4171 16.6581 22.4171C16.5958 22.4171 16.5556 22.4171 16.563 22.3352C16.5704 22.2532 16.5646 22.1761 16.5646 22.0917Z" fill="#E6353A"/>
<path d="M10.3168 22.0999C10.3127 22.0283 10.3127 21.9566 10.3168 21.8851C10.3283 21.7884 10.293 21.7532 10.1988 21.7695C10.1168 21.7835 10.0857 21.7523 10.0955 21.6687C10.0996 21.6253 10.116 21.613 10.1562 21.6138C10.3201 21.6138 10.4889 21.6138 10.6553 21.6138C10.7119 21.6138 10.7209 21.64 10.7185 21.6859C10.716 21.7318 10.7258 21.7679 10.6578 21.772C10.498 21.781 10.498 21.7843 10.498 21.9499C10.498 22.0835 10.493 22.2179 10.498 22.3515C10.498 22.4294 10.4578 22.4261 10.4062 22.4245C10.3545 22.4228 10.3053 22.4392 10.3119 22.3556C10.3185 22.272 10.3168 22.1851 10.3168 22.0999Z" fill="#E3363A"/>
<path d="M8.16016 22.0163C8.16016 21.9048 8.16016 21.7942 8.16016 21.6827C8.16016 21.6007 8.20852 21.6147 8.25688 21.6147C8.30524 21.6147 8.35524 21.6016 8.35278 21.6827C8.34704 21.8532 8.35278 22.0229 8.35278 22.1925C8.35278 22.2532 8.37081 22.2745 8.43065 22.2696C8.49048 22.2647 8.52901 22.2696 8.57819 22.2696C8.62737 22.2696 8.67573 22.2655 8.67655 22.3475C8.67737 22.4294 8.63475 22.4253 8.57901 22.4245C8.46753 22.4245 8.35606 22.4204 8.2454 22.4245C8.17819 22.4245 8.16344 22.4015 8.16344 22.3425C8.16753 22.2319 8.16016 22.1245 8.16016 22.0163Z" fill="#E93439"/>
<path d="M20.5261 22.018C20.5261 22.1287 20.5261 22.2402 20.5261 22.3517C20.5261 22.4459 20.463 22.4181 20.413 22.4238C20.363 22.4295 20.3351 22.4074 20.336 22.3476C20.336 22.1287 20.3401 21.909 20.336 21.6918C20.336 21.6213 20.3646 21.6098 20.4228 21.6148C20.481 21.6197 20.5343 21.6057 20.5286 21.6967C20.5212 21.8041 20.5286 21.9123 20.5286 22.0205L20.5261 22.018Z" fill="#E23B3F"/>
<path d="M17.7832 22.0138C17.7832 21.9023 17.7832 21.7916 17.7832 21.6801C17.7832 21.6187 17.8103 21.6064 17.8594 21.6146C17.9086 21.6228 17.9734 21.5826 17.9734 21.6752C17.9734 21.9042 17.9734 22.1329 17.9734 22.3613C17.9734 22.4523 17.9053 22.4162 17.8611 22.4228C17.8168 22.4293 17.7791 22.4178 17.7848 22.3564C17.7865 22.2424 17.7832 22.1318 17.7832 22.0138Z" fill="#E7373B"/>
<path d="M15.4183 22.0178C15.4183 21.9072 15.4224 21.7957 15.4183 21.685C15.4142 21.6031 15.4618 21.6137 15.5118 21.6137C15.5618 21.6137 15.606 21.608 15.6044 21.6859C15.5995 21.908 15.5995 22.1309 15.6044 22.3523C15.6044 22.4342 15.5593 22.4227 15.5101 22.4236C15.4609 22.4244 15.4134 22.4293 15.4183 22.3506C15.4224 22.24 15.4183 22.1318 15.4183 22.0178Z" fill="#E6353A"/>
<path d="M11.5335 22.0236C11.5335 21.9089 11.5376 21.7941 11.5335 21.6802C11.5294 21.6056 11.5736 21.613 11.6204 21.6146C11.6671 21.6163 11.7203 21.5966 11.7187 21.6802C11.7146 21.9056 11.7146 22.1318 11.7187 22.3572C11.7187 22.4392 11.6654 22.4212 11.6204 22.4228C11.5753 22.4245 11.5294 22.4318 11.5335 22.3572C11.5376 22.2466 11.5335 22.1318 11.5335 22.0236Z" fill="#E53439"/>
<path d="M12.5938 22.0091C12.5938 21.8976 12.5938 21.7861 12.5938 21.6755C12.5938 21.5935 12.6437 21.6148 12.6856 21.6148C12.7274 21.6148 12.7798 21.5984 12.779 21.6755C12.7757 21.905 12.7757 22.1339 12.779 22.3624C12.779 22.4443 12.7282 22.4222 12.6864 22.423C12.6446 22.4238 12.5913 22.4402 12.5946 22.3624C12.5938 22.2443 12.5938 22.1263 12.5938 22.0091Z" fill="#E0373A"/>
<path d="M10.832 18.4294L14.1861 13.9524H14.2066C14.1878 14.5089 14.1681 15.0663 14.1484 15.6499L15.4558 14.5745C15.8861 14.2204 16.3156 13.8655 16.7673 13.5261L13.2935 17.7056L13.2747 17.6966C13.3165 17.4909 13.3566 17.2868 13.4009 17.0802C13.4615 16.7827 13.5189 16.4851 13.5845 16.1892C13.5992 16.1204 13.5599 16.1073 13.5189 16.0786C13.5101 16.0712 13.4998 16.0658 13.4888 16.0627C13.4778 16.0596 13.4662 16.0588 13.4548 16.0604C13.4435 16.062 13.4326 16.066 13.4229 16.0721C13.4132 16.0782 13.4048 16.0863 13.3984 16.0958C13.0268 16.4401 12.6533 16.7854 12.2779 17.1319L10.9165 18.3851C10.8935 18.4065 10.8681 18.4261 10.8443 18.4466L10.832 18.4294Z" fill="#FEDB22"/>
<path d="M18.3779 22.0663C18.488 22.0721 18.5422 22.1181 18.5332 22.192C18.5233 22.2872 18.451 22.3029 18.3755 22.2979C18.2506 22.2897 18.3278 22.1903 18.3122 22.1337C18.2966 22.077 18.3393 22.0573 18.3779 22.0663Z" fill="#FCF6F6"/>
<path d="M18.31 21.8106C18.3034 21.772 18.319 21.7375 18.3921 21.7441C18.4652 21.7507 18.5243 21.7548 18.5194 21.8402C18.5145 21.9256 18.4479 21.9281 18.3847 21.9347C18.2911 21.9437 18.3165 21.878 18.31 21.8106Z" fill="#FDF6F6"/>
<path d="M14.7604 22.0187C14.7644 21.9642 14.7644 21.9094 14.7604 21.8548C14.7457 21.7589 14.7948 21.7474 14.8727 21.7532C15.0367 21.7638 15.1186 21.8778 15.0973 22.0638C15.0949 22.0985 15.0853 22.1323 15.0692 22.1631C15.0531 22.1939 15.0308 22.221 15.0037 22.2428C14.9766 22.2645 14.9453 22.2805 14.9118 22.2896C14.8782 22.2987 14.8432 22.3008 14.8088 22.2958C14.8015 22.2959 14.7943 22.2944 14.7876 22.2914C14.781 22.2884 14.7751 22.2839 14.7704 22.2784C14.7657 22.2728 14.7623 22.2662 14.7604 22.2592C14.7585 22.2521 14.7583 22.2448 14.7596 22.2376C14.7612 22.163 14.7604 22.0909 14.7604 22.0187Z" fill="#FDFBFC"/>
<path d="M6.96151 22.0171C6.96151 22.181 6.87954 22.2991 6.76315 22.295C6.64675 22.2909 6.56561 22.1704 6.57052 22.0089C6.57544 21.8474 6.65987 21.7392 6.78528 21.7499C6.89265 21.7589 6.96069 21.863 6.96151 22.0171Z" fill="white"/>
<path d="M23.4609 22.0253C23.4609 21.8539 23.5339 21.7498 23.656 21.749C23.7781 21.7482 23.8585 21.8671 23.8527 22.0343C23.847 22.1876 23.7667 22.2941 23.656 22.2949C23.5454 22.2957 23.4618 22.1851 23.4609 22.0253Z" fill="white"/>
<path d="M20.8404 22.0254C20.837 21.9636 20.8497 21.902 20.8773 21.8467C20.8913 21.8172 20.9136 21.7923 20.9413 21.775C20.969 21.7577 21.0011 21.7488 21.0338 21.7491C21.0666 21.748 21.0989 21.7566 21.1266 21.774C21.1544 21.7914 21.1763 21.8167 21.1896 21.8467C21.2182 21.9001 21.2332 21.9598 21.2332 22.0204C21.2332 22.0811 21.2182 22.1408 21.1896 22.1942C21.1763 22.2233 21.1551 22.2482 21.1284 22.2659C21.1018 22.2836 21.0707 22.2935 21.0387 22.2944C21.0067 22.2954 20.9751 22.2873 20.9474 22.2712C20.9197 22.2551 20.8971 22.2315 20.8822 22.2032C20.8514 22.1492 20.8369 22.0874 20.8404 22.0254Z" fill="white"/>
<path d="M17.3293 21.7466C17.4114 21.7466 17.4705 21.7737 17.4705 21.8591C17.4705 21.9314 17.4089 21.9774 17.317 21.9724C17.1962 21.9667 17.2693 21.8747 17.2562 21.823C17.2373 21.7548 17.2816 21.7384 17.3293 21.7466Z" fill="#FCF7F7"/>
<path d="M11.0034 21.8632C11.0034 21.7983 10.987 21.7392 11.0798 21.7457C11.1726 21.7523 11.2252 21.7893 11.2203 21.8591C11.2137 21.9461 11.1513 21.9675 11.0765 21.9733C10.9697 21.9823 11.0116 21.9026 11.0034 21.8632Z" fill="#FCF6F7"/>
<path d="M26.1206 21.7589C26.1518 21.8649 26.1748 21.9412 26.1954 22.0193C26.2011 22.039 26.2134 22.0718 26.1822 22.0768C26.1407 22.085 26.098 22.085 26.0565 22.0768C26.0262 22.0702 26.0434 22.0398 26.0492 22.0185L26.1206 21.7589Z" fill="#FBEAEA"/>
<path d="M25.3673 21.8747C25.3796 21.8238 25.3303 21.74 25.4494 21.7474C25.5422 21.754 25.5931 21.7934 25.5907 21.8722C25.5882 21.9511 25.5332 21.9905 25.4436 21.9963C25.3303 22.002 25.3829 21.9207 25.3673 21.8747Z" fill="#FCF8F8"/>
</g>
<defs>
<clipPath id="clip0_306_10450">
<rect width="25.3377" height="12" fill="white" transform="translate(4 11.54)"/>
</clipPath>
</defs>
</svg>
