<svg width="133" height="157" viewBox="0 0 133 157" fill="none" xmlns="http://www.w3.org/2000/svg">
<path d="M61.5 121.629C95.0152 121.629 122.185 94.4596 122.185 60.9444C122.185 27.4292 95.0152 0.259766 61.5 0.259766C27.9849 0.259766 0.81543 27.4292 0.81543 60.9444C0.81543 94.4596 27.9849 121.629 61.5 121.629Z" fill="#FAFAFA"/>
<g filter="url(#filter0_d_306_9182)">
<path d="M96.2879 35.0529H26.7029C24.4685 35.0529 22.6572 36.7801 22.6572 38.9109V119.929C22.6572 122.06 24.4685 123.787 26.7029 123.787H96.2879C98.5222 123.787 100.334 122.06 100.334 119.929V38.9109C100.334 36.7801 98.5222 35.0529 96.2879 35.0529Z" fill="white"/>
</g>
<path d="M53.4071 47.1893H32.3698C31.0292 47.1893 29.9424 48.2761 29.9424 49.6167C29.9424 50.9573 31.0292 52.0441 32.3698 52.0441H53.4071C54.7477 52.0441 55.8345 50.9573 55.8345 49.6167C55.8345 48.2761 54.7477 47.1893 53.4071 47.1893Z" fill="#EFEFEF"/>
<path d="M67.9714 57.7075H32.3698C31.0292 57.7075 29.9424 58.7943 29.9424 60.1349C29.9424 61.4755 31.0292 62.5623 32.3698 62.5623H67.9714C69.312 62.5623 70.3988 61.4755 70.3988 60.1349C70.3988 58.7943 69.312 57.7075 67.9714 57.7075Z" fill="#F7F7F7"/>
<path d="M53.4071 69.9668H32.3698C31.0292 69.9668 29.9424 71.0536 29.9424 72.3942C29.9424 73.7348 31.0292 74.8216 32.3698 74.8216H53.4071C54.7477 74.8216 55.8345 73.7348 55.8345 72.3942C55.8345 71.0536 54.7477 69.9668 53.4071 69.9668Z" fill="#EFEFEF"/>
<path d="M67.9714 80.485H32.3698C31.0292 80.485 29.9424 81.5718 29.9424 82.9124C29.9424 84.253 31.0292 85.3398 32.3698 85.3398H67.9714C69.312 85.3398 70.3988 84.253 70.3988 82.9124C70.3988 81.5718 69.312 80.485 67.9714 80.485Z" fill="#F7F7F7"/>
<path d="M53.4071 91.2256H32.3698C31.0292 91.2256 29.9424 92.3124 29.9424 93.653C29.9424 94.9936 31.0292 96.0804 32.3698 96.0804H53.4071C54.7477 96.0804 55.8345 94.9936 55.8345 93.653C55.8345 92.3124 54.7477 91.2256 53.4071 91.2256Z" fill="#EFEFEF"/>
<path d="M67.9714 101.744H32.3698C31.0292 101.744 29.9424 102.831 29.9424 104.171C29.9424 105.512 31.0292 106.599 32.3698 106.599H67.9714C69.312 106.599 70.3988 105.512 70.3988 104.171C70.3988 102.831 69.312 101.744 67.9714 101.744Z" fill="#F7F7F7"/>
<defs>
<filter id="filter0_d_306_9182" x="3.06157" y="15.4572" width="129.932" height="140.989" filterUnits="userSpaceOnUse" color-interpolation-filters="sRGB">
<feFlood flood-opacity="0" result="BackgroundImageFix"/>
<feColorMatrix in="SourceAlpha" type="matrix" values="0 0 0 0 0 0 0 0 0 0 0 0 0 0 0 0 0 0 127 0" result="hardAlpha"/>
<feOffset dx="6.53189" dy="6.53189"/>
<feGaussianBlur stdDeviation="13.0638"/>
<feComposite in2="hardAlpha" operator="out"/>
<feColorMatrix type="matrix" values="0 0 0 0 0.632812 0 0 0 0 0.617188 0 0 0 0 0.617188 0 0 0 0.1 0"/>
<feBlend mode="normal" in2="BackgroundImageFix" result="effect1_dropShadow_306_9182"/>
<feBlend mode="normal" in="SourceGraphic" in2="effect1_dropShadow_306_9182" result="shape"/>
</filter>
</defs>
</svg>
