<svg width="38" height="39" viewBox="0 0 38 39" fill="none" xmlns="http://www.w3.org/2000/svg">
<rect x="0.25" y="0.75" width="37.5" height="37.5" rx="18.75" stroke="#E6E8EC" stroke-width="0.5"/>
<path fill-rule="evenodd" clip-rule="evenodd" d="M15.5419 29.7133C14.9362 30.0724 14.3868 30.2863 13.8105 30.2863C12.3186 30.2863 11.0717 29.0672 11 27.6086L13.9073 25.8848L18.4259 27.8963L15.5419 29.7145V29.7133Z" fill="#71B0D1"/>
<path fill-rule="evenodd" clip-rule="evenodd" d="M17.2685 22.3067L15.1103 21.3601C14.1451 20.9334 13.2344 20.5738 13.2344 19.5174C13.2344 18.9688 13.4016 18.6824 13.6631 18.3965L18.2319 20.4031L17.0995 21.0535C16.7878 21.2443 16.5716 21.4119 16.5716 21.6509C16.5716 21.9093 16.8686 22.1294 17.2685 22.3098V22.3067Z" fill="#A4D0A0"/>
<path fill-rule="evenodd" clip-rule="evenodd" d="M19.3906 12.3904L17.1772 13.7271C16.9806 13.8454 16.7179 14.0356 16.7179 14.3294C16.7179 14.6628 17.2287 14.9188 17.6831 15.1334L14.913 13.9143C14.0973 13.5571 13.2833 13.1511 13.2833 12.1722C13.2791 11.8051 13.3877 11.4454 13.5944 11.1414L19.5823 7.5C20.3001 7.90474 20.9958 8.72397 20.9958 9.82176C20.9958 10.9976 20.3975 11.7845 19.3906 12.3873V12.3904Z" fill="#71B0D1"/>
<path fill-rule="evenodd" clip-rule="evenodd" d="M24.1015 16.6959L23.5503 17.0062L18.9766 14.9947L24.2926 11.8086C25.0098 12.2206 25.7135 13.032 25.7135 14.1291C25.7135 15.3043 25.131 16.115 24.0997 16.6935L24.1015 16.6959Z" fill="#A4D0A0"/>
<path fill-rule="evenodd" clip-rule="evenodd" d="M20.2388 20.5605L22.944 21.7437C23.9576 22.196 24.2693 22.7263 24.2693 23.3962C24.2693 23.7771 24.0531 24.1599 23.7426 24.4226L19.1934 22.4111L19.9632 21.9844C20.6136 21.6266 20.8298 21.4115 20.8298 21.1731C20.8298 20.9251 20.6779 20.7617 20.2388 20.5636V20.5605Z" fill="#71B0D1"/>
<path fill-rule="evenodd" clip-rule="evenodd" d="M25.0602 30.4996C23.9094 29.6176 22.6815 29.0209 21.1889 28.3467L14.2904 25.3094C12.5571 24.5401 11.4082 23.5155 11.4082 21.7904C11.4082 20.1142 12.2234 19.3029 13.2835 18.6354L13.6663 18.3965C13.4029 18.6824 13.2376 18.9688 13.2376 19.5174C13.2376 20.5738 14.1483 20.931 15.1135 21.3601L23.1365 24.8802C24.5323 25.477 25.8098 26.5035 25.8098 28.251C25.8098 29.2117 25.4424 30.0711 25.0596 30.4996H25.0602Z" fill="#22A947"/>
<path fill-rule="evenodd" clip-rule="evenodd" d="M24.245 24.1113L23.7422 24.4228C24.0527 24.1601 24.2689 23.7773 24.2689 23.3963C24.2689 22.7258 23.9566 22.1961 22.9436 21.7438L14.3632 17.9841C12.6312 17.2222 11.5527 16.2372 11.5527 14.5201C11.5527 12.9389 12.3434 11.9063 13.5958 11.1444C13.3885 11.448 13.2793 11.8075 13.2829 12.1745C13.2829 13.1535 14.0968 13.5594 14.9126 13.9166L23.2547 17.5788C24.7717 18.2493 25.9997 19.255 25.9997 21.0983C25.9997 22.5362 25.326 23.4426 24.245 24.1107V24.1113Z" fill="#0072A9"/>
</svg>
