<svg width="202" height="40" viewBox="0 0 202 40" fill="none" xmlns="http://www.w3.org/2000/svg">
<path d="M28.608 1.656H44.352V9.528H41.952V39H28.464L14.4 17.352V31.128H16.704V39H0.96V31.128H3.36V9.528H0.96V1.656H18.288L30.912 20.904V9.528H28.608V1.656ZM81.4264 27H79.0264V36.6C77.6184 37.4 75.5544 38.12 72.8344 38.76C70.1464 39.368 67.2344 39.672 64.0984 39.672C58.1144 39.672 53.4264 38.104 50.0344 34.968C46.6424 31.8 44.9464 26.92 44.9464 20.328C44.9464 13.576 46.6264 8.664 49.9864 5.592C53.3784 2.52 58.2104 0.983997 64.4824 0.983997C67.5224 0.983997 70.3704 1.304 73.0264 1.944C75.6824 2.584 77.6824 3.304 79.0264 4.104V15.576H67.0264V13.32C67.0264 11.976 66.7384 11.016 66.1624 10.44C65.6184 9.832 64.7384 9.528 63.5224 9.528C62.3064 9.528 61.4104 9.832 60.8344 10.44C60.2904 11.016 60.0184 11.976 60.0184 13.32V27.336C60.0184 28.68 60.2904 29.656 60.8344 30.264C61.4104 30.84 62.3064 31.128 63.5224 31.128C64.7384 31.128 65.6184 30.84 66.1624 30.264C66.7384 29.656 67.0264 28.68 67.0264 27.336V27H64.4344V19.848H81.4264V27ZM100.059 1.656H116.091V9.528H114.171L105.579 39H90.0274L81.4354 9.528H79.5154V1.656H97.9474V9.528H95.4514L98.7634 25.608H99.2434L102.555 9.528H100.059V1.656Z" fill="#008225"/>
<path d="M169.618 9.528H167.218V31.128H169.618V39H151.474V31.128H153.778V14.328L145.618 39H138.514L130.114 14.568V31.128H132.418V39H116.674V31.128H119.074V9.528H116.674V1.656H138.658L143.65 16.632L148.45 1.656H169.618V9.528Z" fill="#75F94C"/>
<path d="M185.438 39.672C182.366 39.672 179.454 39.416 176.702 38.904C173.982 38.36 171.886 37.752 170.414 37.08V27.576H180.974C180.974 28.568 181.198 29.288 181.646 29.736C182.094 30.184 182.91 30.408 184.094 30.408C185.086 30.408 185.79 30.264 186.206 29.976C186.654 29.656 186.878 29.192 186.878 28.584C186.878 28.072 186.67 27.64 186.254 27.288C185.838 26.904 185.118 26.52 184.094 26.136L179.966 24.696C176.414 23.352 173.854 21.768 172.286 19.944C170.75 18.12 169.982 15.656 169.982 12.552C169.982 8.776 171.214 5.912 173.678 3.96C176.174 1.976 180.318 0.983997 186.11 0.983997C188.894 0.983997 191.502 1.272 193.934 1.848C196.398 2.392 198.382 3.128 199.886 4.056V12.648H190.286C190.286 11.048 189.294 10.248 187.31 10.248C186.35 10.248 185.662 10.376 185.246 10.632C184.862 10.856 184.67 11.272 184.67 11.88C184.67 12.424 184.894 12.856 185.342 13.176C185.822 13.496 186.59 13.832 187.646 14.184L191.822 15.624C195.214 16.776 197.678 18.28 199.214 20.136C200.782 21.96 201.566 24.36 201.566 27.336C201.566 31.4 200.19 34.472 197.438 36.552C194.718 38.632 190.718 39.672 185.438 39.672Z" fill="#008225"/>
</svg>
