<svg width="211" height="187" viewBox="0 0 211 187" fill="none" xmlns="http://www.w3.org/2000/svg">
<path d="M105.5 128.629C139.015 128.629 166.185 101.46 166.185 67.9444C166.185 34.4292 139.015 7.25977 105.5 7.25977C71.9849 7.25977 44.8154 34.4292 44.8154 67.9444C44.8154 101.46 71.9849 128.629 105.5 128.629Z" fill="#FAFAFA"/>
<g filter="url(#filter0_d_306_9180)">
<path d="M140.288 42.0529H70.7029C68.4685 42.0529 66.6572 43.7801 66.6572 45.9109V126.929C66.6572 129.06 68.4685 130.787 70.7029 130.787H140.288C142.522 130.787 144.334 129.06 144.334 126.929V45.9109C144.334 43.7801 142.522 42.0529 140.288 42.0529Z" fill="white"/>
</g>
<path d="M97.4071 54.1893H76.3698C75.0292 54.1893 73.9424 55.2761 73.9424 56.6167C73.9424 57.9573 75.0292 59.0441 76.3698 59.0441H97.4071C98.7477 59.0441 99.8345 57.9573 99.8345 56.6167C99.8345 55.2761 98.7477 54.1893 97.4071 54.1893Z" fill="#EFEFEF"/>
<path d="M111.971 64.7075H76.3698C75.0292 64.7075 73.9424 65.7943 73.9424 67.1349C73.9424 68.4755 75.0292 69.5623 76.3698 69.5623H111.971C113.312 69.5623 114.399 68.4755 114.399 67.1349C114.399 65.7943 113.312 64.7075 111.971 64.7075Z" fill="#F7F7F7"/>
<path d="M97.4071 76.9668H76.3698C75.0292 76.9668 73.9424 78.0536 73.9424 79.3942C73.9424 80.7348 75.0292 81.8216 76.3698 81.8216H97.4071C98.7477 81.8216 99.8345 80.7348 99.8345 79.3942C99.8345 78.0536 98.7477 76.9668 97.4071 76.9668Z" fill="#EFEFEF"/>
<path d="M111.971 87.485H76.3698C75.0292 87.485 73.9424 88.5718 73.9424 89.9124C73.9424 91.253 75.0292 92.3398 76.3698 92.3398H111.971C113.312 92.3398 114.399 91.253 114.399 89.9124C114.399 88.5718 113.312 87.485 111.971 87.485Z" fill="#F7F7F7"/>
<path d="M97.4071 98.2256H76.3698C75.0292 98.2256 73.9424 99.3124 73.9424 100.653C73.9424 101.994 75.0292 103.08 76.3698 103.08H97.4071C98.7477 103.08 99.8345 101.994 99.8345 100.653C99.8345 99.3124 98.7477 98.2256 97.4071 98.2256Z" fill="#EFEFEF"/>
<path d="M111.971 108.744H76.3698C75.0292 108.744 73.9424 109.831 73.9424 111.171C73.9424 112.512 75.0292 113.599 76.3698 113.599H111.971C113.312 113.599 114.399 112.512 114.399 111.171C114.399 109.831 113.312 108.744 111.971 108.744Z" fill="#F7F7F7"/>
<path d="M140.288 0.786865H70.7029C68.4685 0.786865 66.6572 2.59816 66.6572 4.83251V29.1064C66.6572 31.3407 68.4685 33.152 70.7029 33.152H140.288C142.522 33.152 144.334 31.3407 144.334 29.1064V4.83251C144.334 2.59816 142.522 0.786865 140.288 0.786865Z" fill="#EFEFEF"/>
<path d="M97.4071 9.68726H76.3698C75.0292 9.68726 73.9424 10.774 73.9424 12.1146C73.9424 13.4552 75.0292 14.542 76.3698 14.542H97.4071C98.7477 14.542 99.8345 13.4552 99.8345 12.1146C99.8345 10.774 98.7477 9.68726 97.4071 9.68726Z" fill="#959696"/>
<path d="M111.971 20.2054H76.3698C75.0292 20.2054 73.9424 21.2922 73.9424 22.6328C73.9424 23.9734 75.0292 25.0602 76.3698 25.0602H111.971C113.312 25.0602 114.399 23.9734 114.399 22.6328C114.399 21.2922 113.312 20.2054 111.971 20.2054Z" fill="white"/>
<path d="M61.8714 150.605V160.787H60.2308L55.4332 153.852H55.3487V160.787H53.5043V150.605H55.1548L59.9474 157.546H60.0369V150.605H61.8714ZM66.8526 160.936C66.1069 160.936 65.4606 160.772 64.9137 160.444C64.3668 160.116 63.9426 159.657 63.641 159.067C63.3427 158.477 63.1935 157.788 63.1935 156.999C63.1935 156.21 63.3427 155.519 63.641 154.926C63.9426 154.332 64.3668 153.872 64.9137 153.544C65.4606 153.215 66.1069 153.051 66.8526 153.051C67.5984 153.051 68.2447 153.215 68.7916 153.544C69.3384 153.872 69.761 154.332 70.0593 154.926C70.3609 155.519 70.5117 156.21 70.5117 156.999C70.5117 157.788 70.3609 158.477 70.0593 159.067C69.761 159.657 69.3384 160.116 68.7916 160.444C68.2447 160.772 67.5984 160.936 66.8526 160.936ZM66.8626 159.495C67.2669 159.495 67.605 159.384 67.8768 159.162C68.1486 158.936 68.3507 158.635 68.4833 158.257C68.6192 157.879 68.6872 157.458 68.6872 156.994C68.6872 156.527 68.6192 156.104 68.4833 155.726C68.3507 155.345 68.1486 155.042 67.8768 154.816C67.605 154.591 67.2669 154.478 66.8626 154.478C66.4483 154.478 66.1036 154.591 65.8285 154.816C65.5567 155.042 65.3529 155.345 65.217 155.726C65.0844 156.104 65.0181 156.527 65.0181 156.994C65.0181 157.458 65.0844 157.879 65.217 158.257C65.3529 158.635 65.5567 158.936 65.8285 159.162C66.1036 159.384 66.4483 159.495 66.8626 159.495ZM74.9519 160.787V153.151H76.6969V154.424H76.7765C76.9157 153.983 77.1543 153.643 77.4924 153.404C77.8338 153.162 78.2232 153.041 78.6607 153.041C78.7601 153.041 78.8712 153.046 78.9938 153.056C79.1198 153.063 79.2242 153.075 79.307 153.091V154.747C79.2308 154.72 79.1098 154.697 78.9441 154.677C78.7817 154.654 78.6243 154.642 78.4718 154.642C78.1437 154.642 77.8487 154.714 77.5868 154.856C77.3283 154.995 77.1245 155.189 76.9753 155.438C76.8262 155.686 76.7516 155.973 76.7516 156.298V160.787H74.9519ZM83.2889 160.936C82.5233 160.936 81.8621 160.777 81.3052 160.459C80.7517 160.138 80.3258 159.684 80.0275 159.097C79.7293 158.507 79.5801 157.813 79.5801 157.014C79.5801 156.228 79.7293 155.539 80.0275 154.946C80.3292 154.349 80.7501 153.885 81.2903 153.554C81.8306 153.219 82.4653 153.051 83.1945 153.051C83.6651 153.051 84.1092 153.128 84.5268 153.28C84.9478 153.429 85.319 153.661 85.6405 153.976C85.9653 154.291 86.2205 154.692 86.4061 155.179C86.5917 155.663 86.6845 156.24 86.6845 156.909V157.461H80.4253V156.248H84.9594C84.9561 155.903 84.8815 155.597 84.7356 155.328C84.5898 155.057 84.386 154.843 84.1241 154.687C83.8656 154.531 83.564 154.453 83.2193 154.453C82.8514 154.453 82.5283 154.543 82.2499 154.722C81.9714 154.898 81.7543 155.13 81.5986 155.418C81.4461 155.703 81.3682 156.016 81.3649 156.358V157.416C81.3649 157.861 81.4461 158.242 81.6085 158.56C81.7709 158.875 81.998 159.117 82.2896 159.286C82.5813 159.452 82.9227 159.534 83.3138 159.534C83.5756 159.534 83.8126 159.498 84.0247 159.425C84.2368 159.349 84.4208 159.238 84.5766 159.092C84.7323 158.946 84.85 158.765 84.9295 158.55L86.6099 158.739C86.5039 159.183 86.3017 159.571 86.0034 159.902C85.7084 160.23 85.3306 160.486 84.8699 160.668C84.4092 160.847 83.8822 160.936 83.2889 160.936ZM91.258 160.936C90.4957 160.936 89.8411 160.769 89.2942 160.434C88.7507 160.099 88.3314 159.637 88.0364 159.047C87.7448 158.454 87.5989 157.771 87.5989 156.999C87.5989 156.223 87.7481 155.539 88.0464 154.946C88.3447 154.349 88.7656 153.885 89.3092 153.554C89.856 153.219 90.5023 153.051 91.2481 153.051C91.8679 153.051 92.4164 153.166 92.8937 153.394C93.3743 153.62 93.7571 153.94 94.0421 154.354C94.3272 154.765 94.4896 155.246 94.5293 155.796H92.8092C92.7396 155.428 92.5738 155.121 92.312 154.876C92.0535 154.627 91.7071 154.503 91.2729 154.503C90.905 154.503 90.5819 154.603 90.3035 154.801C90.0251 154.997 89.808 155.279 89.6522 155.647C89.4997 156.015 89.4235 156.455 89.4235 156.969C89.4235 157.489 89.4997 157.937 89.6522 158.311C89.8047 158.683 90.0184 158.969 90.2935 159.171C90.5719 159.37 90.8984 159.47 91.2729 159.47C91.5381 159.47 91.7751 159.42 91.9839 159.321C92.196 159.218 92.3733 159.07 92.5158 158.878C92.6584 158.686 92.7561 158.452 92.8092 158.177H94.5293C94.4862 158.717 94.3272 159.196 94.0521 159.614C93.777 160.028 93.4024 160.353 92.9285 160.588C92.4545 160.82 91.8977 160.936 91.258 160.936ZM99.0581 160.936C98.3124 160.936 97.6661 160.772 97.1192 160.444C96.5723 160.116 96.1481 159.657 95.8465 159.067C95.5482 158.477 95.399 157.788 95.399 156.999C95.399 156.21 95.5482 155.519 95.8465 154.926C96.1481 154.332 96.5723 153.872 97.1192 153.544C97.6661 153.215 98.3124 153.051 99.0581 153.051C99.8038 153.051 100.45 153.215 100.997 153.544C101.544 153.872 101.966 154.332 102.265 154.926C102.566 155.519 102.717 156.21 102.717 156.999C102.717 157.788 102.566 158.477 102.265 159.067C101.966 159.657 101.544 160.116 100.997 160.444C100.45 160.772 99.8038 160.936 99.0581 160.936ZM99.068 159.495C99.4724 159.495 99.8105 159.384 100.082 159.162C100.354 158.936 100.556 158.635 100.689 158.257C100.825 157.879 100.893 157.458 100.893 156.994C100.893 156.527 100.825 156.104 100.689 155.726C100.556 155.345 100.354 155.042 100.082 154.816C99.8105 154.591 99.4724 154.478 99.068 154.478C98.6537 154.478 98.3091 154.591 98.034 154.816C97.7622 155.042 97.5583 155.345 97.4225 155.726C97.2899 156.104 97.2236 156.527 97.2236 156.994C97.2236 157.458 97.2899 157.879 97.4225 158.257C97.5583 158.635 97.7622 158.936 98.034 159.162C98.3091 159.384 98.6537 159.495 99.068 159.495ZM103.965 160.787V153.151H105.71V154.424H105.789C105.928 153.983 106.167 153.643 106.505 153.404C106.847 153.162 107.236 153.041 107.674 153.041C107.773 153.041 107.884 153.046 108.007 153.056C108.133 153.063 108.237 153.075 108.32 153.091V154.747C108.244 154.72 108.123 154.697 107.957 154.677C107.794 154.654 107.637 154.642 107.485 154.642C107.156 154.642 106.861 154.714 106.6 154.856C106.341 154.995 106.137 155.189 105.988 155.438C105.839 155.686 105.764 155.973 105.764 156.298V160.787H103.965ZM111.755 160.921C111.155 160.921 110.618 160.767 110.144 160.459C109.67 160.151 109.296 159.703 109.02 159.117C108.745 158.53 108.608 157.818 108.608 156.979C108.608 156.131 108.747 155.415 109.025 154.831C109.307 154.245 109.687 153.802 110.164 153.504C110.641 153.202 111.173 153.051 111.76 153.051C112.207 153.051 112.575 153.128 112.864 153.28C113.152 153.429 113.381 153.61 113.55 153.822C113.719 154.031 113.85 154.228 113.942 154.414H114.017V150.605H115.822V160.787H114.052V159.584H113.942C113.85 159.77 113.715 159.967 113.54 160.176C113.364 160.381 113.132 160.557 112.844 160.703C112.555 160.849 112.192 160.921 111.755 160.921ZM112.257 159.445C112.638 159.445 112.963 159.342 113.231 159.137C113.5 158.928 113.704 158.638 113.843 158.267C113.982 157.895 114.052 157.463 114.052 156.969C114.052 156.475 113.982 156.046 113.843 155.681C113.707 155.317 113.505 155.033 113.236 154.831C112.971 154.629 112.645 154.528 112.257 154.528C111.856 154.528 111.521 154.632 111.253 154.841C110.984 155.05 110.782 155.338 110.646 155.706C110.51 156.074 110.442 156.495 110.442 156.969C110.442 157.446 110.51 157.872 110.646 158.247C110.785 158.618 110.989 158.911 111.258 159.127C111.529 159.339 111.863 159.445 112.257 159.445ZM124.52 153.151V154.543H120.006V153.151H124.52ZM121.134 160.787V152.43C121.134 151.916 121.24 151.489 121.452 151.147C121.668 150.806 121.956 150.551 122.318 150.382C122.679 150.213 123.08 150.128 123.521 150.128C123.832 150.128 124.109 150.153 124.351 150.203C124.593 150.252 124.772 150.297 124.888 150.337L124.53 151.729C124.454 151.706 124.358 151.683 124.242 151.659C124.126 151.633 123.996 151.62 123.854 151.62C123.519 151.62 123.282 151.701 123.143 151.863C123.007 152.022 122.939 152.251 122.939 152.549V160.787H121.134ZM128.693 160.936C127.948 160.936 127.301 160.772 126.754 160.444C126.207 160.116 125.783 159.657 125.482 159.067C125.183 158.477 125.034 157.788 125.034 156.999C125.034 156.21 125.183 155.519 125.482 154.926C125.783 154.332 126.207 153.872 126.754 153.544C127.301 153.215 127.948 153.051 128.693 153.051C129.439 153.051 130.085 153.215 130.632 153.544C131.179 153.872 131.602 154.332 131.9 154.926C132.202 155.519 132.352 156.21 132.352 156.999C132.352 157.788 132.202 158.477 131.9 159.067C131.602 159.657 131.179 160.116 130.632 160.444C130.085 160.772 129.439 160.936 128.693 160.936ZM128.703 159.495C129.108 159.495 129.446 159.384 129.717 159.162C129.989 158.936 130.191 158.635 130.324 158.257C130.46 157.879 130.528 157.458 130.528 156.994C130.528 156.527 130.46 156.104 130.324 155.726C130.191 155.345 129.989 155.042 129.717 154.816C129.446 154.591 129.108 154.478 128.703 154.478C128.289 154.478 127.944 154.591 127.669 154.816C127.397 155.042 127.193 155.345 127.058 155.726C126.925 156.104 126.859 156.527 126.859 156.994C126.859 157.458 126.925 157.879 127.058 158.257C127.193 158.635 127.397 158.936 127.669 159.162C127.944 159.384 128.289 159.495 128.703 159.495ZM138.467 157.576V153.151H140.267V160.787H138.522V159.43H138.442C138.27 159.858 137.986 160.207 137.592 160.479C137.201 160.751 136.719 160.887 136.145 160.887C135.645 160.887 135.202 160.776 134.818 160.554C134.437 160.328 134.138 160.002 133.923 159.574C133.708 159.143 133.6 158.623 133.6 158.013V153.151H135.4V157.735C135.4 158.219 135.532 158.603 135.797 158.888C136.062 159.173 136.41 159.316 136.841 159.316C137.107 159.316 137.363 159.251 137.612 159.122C137.861 158.992 138.064 158.8 138.223 158.545C138.386 158.287 138.467 157.963 138.467 157.576ZM143.637 156.313V160.787H141.837V153.151H143.558V154.448H143.647C143.823 154.021 144.103 153.681 144.487 153.429C144.875 153.177 145.354 153.051 145.924 153.051C146.451 153.051 146.91 153.164 147.301 153.39C147.696 153.615 148.001 153.941 148.216 154.369C148.435 154.796 148.542 155.315 148.539 155.925V160.787H146.739V156.203C146.739 155.693 146.607 155.294 146.342 155.005C146.08 154.717 145.717 154.573 145.253 154.573C144.938 154.573 144.658 154.642 144.413 154.782C144.171 154.917 143.98 155.115 143.841 155.373C143.705 155.632 143.637 155.945 143.637 156.313ZM152.923 160.921C152.323 160.921 151.786 160.767 151.312 160.459C150.838 160.151 150.463 159.703 150.188 159.117C149.913 158.53 149.775 157.818 149.775 156.979C149.775 156.131 149.915 155.415 150.193 154.831C150.475 154.245 150.854 153.802 151.332 153.504C151.809 153.202 152.341 153.051 152.927 153.051C153.375 153.051 153.743 153.128 154.031 153.28C154.32 153.429 154.548 153.61 154.717 153.822C154.886 154.031 155.017 154.228 155.11 154.414H155.185V150.605H156.989V160.787H155.219V159.584H155.11C155.017 159.77 154.883 159.967 154.707 160.176C154.532 160.381 154.3 160.557 154.011 160.703C153.723 160.849 153.36 160.921 152.923 160.921ZM153.425 159.445C153.806 159.445 154.131 159.342 154.399 159.137C154.668 158.928 154.871 158.638 155.011 158.267C155.15 157.895 155.219 157.463 155.219 156.969C155.219 156.475 155.15 156.046 155.011 155.681C154.875 155.317 154.673 155.033 154.404 154.831C154.139 154.629 153.812 154.528 153.425 154.528C153.024 154.528 152.689 154.632 152.42 154.841C152.152 155.05 151.95 155.338 151.814 155.706C151.678 156.074 151.61 156.495 151.61 156.969C151.61 157.446 151.678 157.872 151.814 158.247C151.953 158.618 152.157 158.911 152.425 159.127C152.697 159.339 153.03 159.445 153.425 159.445Z" fill="black"/>
<path d="M1.53267 183.787H0.332386L3.80398 174.333H4.9858L8.45739 183.787H7.2571L4.43182 175.828H4.35795L1.53267 183.787ZM1.97585 180.094H6.81392V181.11H1.97585V180.094ZM10.7418 174.333V183.787H9.65232V174.333H10.7418ZM13.6968 174.333V183.787H12.6073V174.333H13.6968ZM19.0885 183.787V176.696H20.141V177.767H20.2149C20.3442 177.416 20.5781 177.132 20.9166 176.913C21.2552 176.695 21.6368 176.586 22.0615 176.586C22.1415 176.586 22.2415 176.587 22.3616 176.59C22.4816 176.593 22.5724 176.598 22.6339 176.604V177.712C22.597 177.703 22.5124 177.689 22.38 177.67C22.2508 177.649 22.1138 177.638 21.9692 177.638C21.6245 177.638 21.3167 177.71 21.0459 177.855C20.7781 177.997 20.5658 178.194 20.4088 178.446C20.2549 178.695 20.178 178.98 20.178 179.3V183.787H19.0885ZM26.5526 183.935C25.8694 183.935 25.28 183.784 24.7845 183.483C24.2921 183.178 23.912 182.753 23.6442 182.208C23.3795 181.661 23.2472 181.024 23.2472 180.297C23.2472 179.571 23.3795 178.931 23.6442 178.377C23.912 177.82 24.2844 177.386 24.7614 177.075C25.2415 176.761 25.8016 176.604 26.4418 176.604C26.8111 176.604 27.1758 176.666 27.5359 176.789C27.896 176.912 28.2238 177.112 28.5192 177.389C28.8147 177.663 29.0501 178.026 29.2255 178.478C29.401 178.931 29.4887 179.488 29.4887 180.149V180.611H24.0228V179.669H28.3807C28.3807 179.269 28.3007 178.912 28.1407 178.598C27.9837 178.284 27.759 178.037 27.4667 177.855C27.1774 177.673 26.8357 177.583 26.4418 177.583C26.0078 177.583 25.6324 177.69 25.3154 177.906C25.0015 178.118 24.7599 178.395 24.5906 178.737C24.4213 179.078 24.3367 179.445 24.3367 179.836V180.463C24.3367 180.999 24.429 181.453 24.6137 181.825C24.8014 182.195 25.0615 182.476 25.3939 182.67C25.7262 182.861 26.1125 182.956 26.5526 182.956C26.8388 182.956 27.0973 182.916 27.3282 182.836C27.5621 182.753 27.7636 182.63 27.9329 182.467C28.1022 182.301 28.233 182.095 28.3253 181.848L29.3779 182.144C29.2671 182.501 29.0809 182.815 28.8193 183.086C28.5577 183.353 28.2345 183.563 27.8498 183.713C27.4651 183.861 27.0327 183.935 26.5526 183.935ZM33.8967 183.935C33.2319 183.935 32.6595 183.778 32.1793 183.464C31.6992 183.15 31.3299 182.718 31.0714 182.167C30.8129 181.616 30.6836 180.987 30.6836 180.279C30.6836 179.559 30.8159 178.923 31.0806 178.372C31.3484 177.818 31.7208 177.386 32.1978 177.075C32.6779 176.761 33.2381 176.604 33.8782 176.604C34.3768 176.604 34.8261 176.696 35.2262 176.881C35.6263 177.066 35.9541 177.324 36.2095 177.657C36.465 177.989 36.6235 178.377 36.685 178.82H35.5955C35.5124 178.497 35.3278 178.211 35.0416 177.961C34.7584 177.709 34.3768 177.583 33.8967 177.583C33.472 177.583 33.0996 177.693 32.7795 177.915C32.4625 178.134 32.2147 178.443 32.0362 178.843C31.8608 179.24 31.7731 179.706 31.7731 180.242C31.7731 180.79 31.8593 181.267 32.0316 181.673C32.207 182.079 32.4532 182.395 32.7702 182.619C33.0903 182.844 33.4658 182.956 33.8967 182.956C34.1798 182.956 34.4368 182.907 34.6676 182.809C34.8984 182.71 35.0939 182.568 35.2539 182.384C35.414 182.199 35.5278 181.978 35.5955 181.719H36.685C36.6235 182.138 36.4711 182.515 36.228 182.85C35.9879 183.182 35.6694 183.447 35.2724 183.644C34.8784 183.838 34.4199 183.935 33.8967 183.935ZM41.1207 183.935C40.4375 183.935 39.8481 183.784 39.3526 183.483C38.8602 183.178 38.4801 182.753 38.2123 182.208C37.9477 181.661 37.8153 181.024 37.8153 180.297C37.8153 179.571 37.9477 178.931 38.2123 178.377C38.4801 177.82 38.8525 177.386 39.3295 177.075C39.8096 176.761 40.3698 176.604 41.0099 176.604C41.3792 176.604 41.7439 176.666 42.104 176.789C42.4641 176.912 42.7919 177.112 43.0873 177.389C43.3828 177.663 43.6182 178.026 43.7937 178.478C43.9691 178.931 44.0568 179.488 44.0568 180.149V180.611H38.5909V179.669H42.9488C42.9488 179.269 42.8688 178.912 42.7088 178.598C42.5518 178.284 42.3272 178.037 42.0348 177.855C41.7455 177.673 41.4039 177.583 41.0099 177.583C40.576 177.583 40.2005 177.69 39.8835 177.906C39.5696 178.118 39.328 178.395 39.1587 178.737C38.9894 179.078 38.9048 179.445 38.9048 179.836V180.463C38.9048 180.999 38.9971 181.453 39.1818 181.825C39.3695 182.195 39.6296 182.476 39.962 182.67C40.2944 182.861 40.6806 182.956 41.1207 182.956C41.4069 182.956 41.6655 182.916 41.8963 182.836C42.1302 182.753 42.3318 182.63 42.501 182.467C42.6703 182.301 42.8011 182.095 42.8934 181.848L43.946 182.144C43.8352 182.501 43.649 182.815 43.3874 183.086C43.1258 183.353 42.8027 183.563 42.4179 183.713C42.0332 183.861 41.6008 183.935 41.1207 183.935ZM46.6736 179.522V183.787H45.5841V176.696H46.6367V177.804H46.729C46.8952 177.444 47.1476 177.155 47.4861 176.936C47.8246 176.715 48.2617 176.604 48.7972 176.604C49.2773 176.604 49.6974 176.702 50.0575 176.899C50.4176 177.093 50.6976 177.389 50.8977 177.786C51.0977 178.18 51.1977 178.678 51.1977 179.282V183.787H50.1083V179.355C50.1083 178.798 49.9636 178.364 49.6743 178.054C49.385 177.74 48.988 177.583 48.4833 177.583C48.1355 177.583 47.8246 177.658 47.5507 177.809C47.2799 177.96 47.066 178.18 46.909 178.469C46.7521 178.758 46.6736 179.109 46.6736 179.522ZM56.1424 176.696V177.62H52.4677V176.696H56.1424ZM53.5387 174.997H54.6282V181.756C54.6282 182.064 54.6728 182.295 54.7621 182.448C54.8544 182.599 54.9714 182.701 55.1129 182.753C55.2576 182.802 55.4099 182.827 55.57 182.827C55.69 182.827 55.7885 182.821 55.8654 182.809C55.9424 182.793 56.0039 182.781 56.0501 182.772L56.2717 183.75C56.1978 183.778 56.0947 183.806 55.9624 183.833C55.83 183.864 55.6623 183.88 55.4592 183.88C55.1514 183.88 54.8498 183.813 54.5543 183.681C54.262 183.549 54.0188 183.347 53.8249 183.076C53.6341 182.805 53.5387 182.464 53.5387 182.051V174.997ZM64.2613 176.696V177.62H60.5866V176.696H64.2613ZM61.6576 174.997H62.7471V181.756C62.7471 182.064 62.7917 182.295 62.881 182.448C62.9733 182.599 63.0903 182.701 63.2318 182.753C63.3765 182.802 63.5288 182.827 63.6889 182.827C63.8089 182.827 63.9074 182.821 63.9843 182.809C64.0613 182.793 64.1228 182.781 64.169 182.772L64.3906 183.75C64.3167 183.778 64.2136 183.806 64.0813 183.833C63.9489 183.864 63.7812 183.88 63.5781 183.88C63.2703 183.88 62.9687 183.813 62.6732 183.681C62.3809 183.549 62.1377 183.347 61.9438 183.076C61.753 182.805 61.6576 182.464 61.6576 182.051V174.997ZM65.7702 183.787V176.696H66.8227V177.767H66.8966C67.0259 177.416 67.2598 177.132 67.5983 176.913C67.9368 176.695 68.3185 176.586 68.7432 176.586C68.8232 176.586 68.9232 176.587 69.0433 176.59C69.1633 176.593 69.2541 176.598 69.3156 176.604V177.712C69.2787 177.703 69.1941 177.689 69.0617 177.67C68.9325 177.649 68.7955 177.638 68.6509 177.638C68.3062 177.638 67.9984 177.71 67.7276 177.855C67.4598 177.997 67.2474 178.194 67.0905 178.446C66.9366 178.695 66.8597 178.98 66.8597 179.3V183.787H65.7702ZM72.5637 183.953C72.1144 183.953 71.7066 183.869 71.3404 183.7C70.9741 183.527 70.6833 183.279 70.4678 182.956C70.2524 182.63 70.1447 182.236 70.1447 181.774C70.1447 181.368 70.2247 181.039 70.3847 180.787C70.5448 180.531 70.7587 180.331 71.0264 180.186C71.2942 180.042 71.5896 179.934 71.9128 179.863C72.239 179.789 72.5668 179.731 72.8961 179.688C73.327 179.632 73.6763 179.591 73.9441 179.563C74.2149 179.532 74.4119 179.482 74.535 179.411C74.6611 179.34 74.7242 179.217 74.7242 179.041V179.005C74.7242 178.549 74.5996 178.195 74.3503 177.943C74.1041 177.69 73.7302 177.564 73.2285 177.564C72.7084 177.564 72.3006 177.678 72.0051 177.906C71.7097 178.134 71.5019 178.377 71.3819 178.635L70.3478 178.266C70.5325 177.835 70.7787 177.5 71.0865 177.26C71.3973 177.016 71.7358 176.847 72.1021 176.752C72.4714 176.653 72.8346 176.604 73.1916 176.604C73.4193 176.604 73.6809 176.632 73.9764 176.687C74.2749 176.739 74.5627 176.849 74.8396 177.015C75.1197 177.181 75.3521 177.432 75.5367 177.767C75.7214 178.103 75.8137 178.552 75.8137 179.115V183.787H74.7242V182.827H74.6688C74.595 182.981 74.4719 183.146 74.2995 183.321C74.1272 183.496 73.8979 183.646 73.6117 183.769C73.3254 183.892 72.9761 183.953 72.5637 183.953ZM72.7299 182.975C73.1608 182.975 73.524 182.89 73.8194 182.721C74.1179 182.552 74.3426 182.333 74.4934 182.065C74.6473 181.798 74.7242 181.516 74.7242 181.22V180.223C74.6781 180.279 74.5765 180.329 74.4196 180.376C74.2657 180.419 74.0872 180.457 73.884 180.491C73.684 180.522 73.4886 180.55 73.2977 180.574C73.11 180.596 72.9577 180.614 72.8407 180.63C72.5576 180.666 72.2929 180.727 72.0467 180.81C71.8035 180.89 71.6066 181.011 71.4558 181.174C71.308 181.334 71.2342 181.553 71.2342 181.83C71.2342 182.208 71.3742 182.495 71.6543 182.689C71.9374 182.879 72.296 182.975 72.7299 182.975ZM78.7618 179.522V183.787H77.6723V176.696H78.7248V177.804H78.8172C78.9834 177.444 79.2357 177.155 79.5743 176.936C79.9128 176.715 80.3498 176.604 80.8853 176.604C81.3655 176.604 81.7856 176.702 82.1456 176.899C82.5057 177.093 82.7858 177.389 82.9858 177.786C83.1859 178.18 83.2859 178.678 83.2859 179.282V183.787H82.1964V179.355C82.1964 178.798 82.0518 178.364 81.7625 178.054C81.4732 177.74 81.0762 177.583 80.5714 177.583C80.2236 177.583 79.9128 177.658 79.6389 177.809C79.3681 177.96 79.1542 178.18 78.9972 178.469C78.8402 178.758 78.7618 179.109 78.7618 179.522ZM90.1695 178.284L89.1908 178.561C89.1293 178.398 89.0385 178.24 88.9184 178.086C88.8015 177.929 88.6414 177.8 88.4383 177.698C88.2352 177.597 87.9751 177.546 87.6581 177.546C87.2242 177.546 86.8626 177.646 86.5733 177.846C86.287 178.043 86.1439 178.294 86.1439 178.598C86.1439 178.869 86.2424 179.083 86.4394 179.24C86.6364 179.397 86.9441 179.528 87.3627 179.632L88.4152 179.891C89.0492 180.045 89.5217 180.28 89.8325 180.597C90.1433 180.911 90.2988 181.316 90.2988 181.811C90.2988 182.218 90.1818 182.581 89.9479 182.901C89.7171 183.221 89.3939 183.473 88.9784 183.658C88.563 183.843 88.0798 183.935 87.5289 183.935C86.8056 183.935 86.207 183.778 85.7331 183.464C85.2591 183.15 84.959 182.692 84.8329 182.088L85.8669 181.83C85.9654 182.211 86.1516 182.498 86.4255 182.689C86.7025 182.879 87.0641 182.975 87.5104 182.975C88.0182 182.975 88.4214 182.867 88.7199 182.652C89.0215 182.433 89.1723 182.171 89.1723 181.867C89.1723 181.621 89.0862 181.414 88.9138 181.248C88.7415 181.079 88.4768 180.953 88.1198 180.87L86.938 180.593C86.2886 180.439 85.8115 180.2 85.5069 179.877C85.2052 179.551 85.0544 179.143 85.0544 178.654C85.0544 178.254 85.1668 177.9 85.3914 177.592C85.6192 177.284 85.9285 177.043 86.3194 176.867C86.7133 176.692 87.1596 176.604 87.6581 176.604C88.3598 176.604 88.9107 176.758 89.3108 177.066C89.714 177.373 90.0002 177.78 90.1695 178.284ZM93.8954 183.953C93.4461 183.953 93.0383 183.869 92.672 183.7C92.3058 183.527 92.015 183.279 91.7995 182.956C91.5841 182.63 91.4764 182.236 91.4764 181.774C91.4764 181.368 91.5564 181.039 91.7164 180.787C91.8765 180.531 92.0904 180.331 92.3581 180.186C92.6259 180.042 92.9213 179.934 93.2445 179.863C93.5707 179.789 93.8985 179.731 94.2278 179.688C94.6587 179.632 95.008 179.591 95.2757 179.563C95.5466 179.532 95.7435 179.482 95.8666 179.411C95.9928 179.34 96.0559 179.217 96.0559 179.041V179.005C96.0559 178.549 95.9313 178.195 95.682 177.943C95.4358 177.69 95.0618 177.564 94.5602 177.564C94.0401 177.564 93.6323 177.678 93.3368 177.906C93.0414 178.134 92.8336 178.377 92.7136 178.635L91.6795 178.266C91.8642 177.835 92.1104 177.5 92.4181 177.26C92.729 177.016 93.0675 176.847 93.4338 176.752C93.8031 176.653 94.1662 176.604 94.5232 176.604C94.751 176.604 95.0126 176.632 95.308 176.687C95.6066 176.739 95.8943 176.849 96.1713 177.015C96.4514 177.181 96.6838 177.432 96.8684 177.767C97.0531 178.103 97.1454 178.552 97.1454 179.115V183.787H96.0559V182.827H96.0005C95.9267 182.981 95.8036 183.146 95.6312 183.321C95.4589 183.496 95.2296 183.646 94.9433 183.769C94.6571 183.892 94.3078 183.953 93.8954 183.953ZM94.0616 182.975C94.4925 182.975 94.8556 182.89 95.1511 182.721C95.4496 182.552 95.6743 182.333 95.8251 182.065C95.979 181.798 96.0559 181.516 96.0559 181.22V180.223C96.0098 180.279 95.9082 180.329 95.7512 180.376C95.5973 180.419 95.4188 180.457 95.2157 180.491C95.0157 180.522 94.8202 180.55 94.6294 180.574C94.4417 180.596 94.2893 180.614 94.1724 180.63C93.8893 180.666 93.6246 180.727 93.3784 180.81C93.1352 180.89 92.9383 181.011 92.7875 181.174C92.6397 181.334 92.5659 181.553 92.5659 181.83C92.5659 182.208 92.7059 182.495 92.986 182.689C93.2691 182.879 93.6277 182.975 94.0616 182.975ZM101.885 183.935C101.22 183.935 100.647 183.778 100.167 183.464C99.6872 183.15 99.3179 182.718 99.0594 182.167C98.8008 181.616 98.6716 180.987 98.6716 180.279C98.6716 179.559 98.8039 178.923 99.0686 178.372C99.3363 177.818 99.7087 177.386 100.186 177.075C100.666 176.761 101.226 176.604 101.866 176.604C102.365 176.604 102.814 176.696 103.214 176.881C103.614 177.066 103.942 177.324 104.197 177.657C104.453 177.989 104.611 178.377 104.673 178.82H103.584C103.5 178.497 103.316 178.211 103.03 177.961C102.746 177.709 102.365 177.583 101.885 177.583C101.46 177.583 101.088 177.693 100.767 177.915C100.45 178.134 100.203 178.443 100.024 178.843C99.8488 179.24 99.7611 179.706 99.7611 180.242C99.7611 180.79 99.8472 181.267 100.02 181.673C100.195 182.079 100.441 182.395 100.758 182.619C101.078 182.844 101.454 182.956 101.885 182.956C102.168 182.956 102.425 182.907 102.656 182.809C102.886 182.71 103.082 182.568 103.242 182.384C103.402 182.199 103.516 181.978 103.584 181.719H104.673C104.611 182.138 104.459 182.515 104.216 182.85C103.976 183.182 103.657 183.447 103.26 183.644C102.866 183.838 102.408 183.935 101.885 183.935ZM109.219 176.696V177.62H105.545V176.696H109.219ZM106.616 174.997H107.705V181.756C107.705 182.064 107.75 182.295 107.839 182.448C107.931 182.599 108.048 182.701 108.19 182.753C108.335 182.802 108.487 182.827 108.647 182.827C108.767 182.827 108.866 182.821 108.942 182.809C109.019 182.793 109.081 182.781 109.127 182.772L109.349 183.75C109.275 183.778 109.172 183.806 109.039 183.833C108.907 183.864 108.739 183.88 108.536 183.88C108.228 183.88 107.927 183.813 107.631 183.681C107.339 183.549 107.096 183.347 106.902 183.076C106.711 182.805 106.616 182.464 106.616 182.051V174.997ZM110.728 183.787V176.696H111.818V183.787H110.728ZM111.282 175.515C111.07 175.515 110.887 175.442 110.733 175.298C110.582 175.153 110.507 174.979 110.507 174.776C110.507 174.573 110.582 174.399 110.733 174.254C110.887 174.11 111.07 174.037 111.282 174.037C111.495 174.037 111.676 174.11 111.827 174.254C111.981 174.399 112.058 174.573 112.058 174.776C112.058 174.979 111.981 175.153 111.827 175.298C111.676 175.442 111.495 175.515 111.282 175.515ZM116.564 183.935C115.924 183.935 115.362 183.783 114.879 183.478C114.399 183.173 114.023 182.747 113.753 182.199C113.485 181.651 113.351 181.011 113.351 180.279C113.351 179.54 113.485 178.895 113.753 178.344C114.023 177.794 114.399 177.366 114.879 177.061C115.362 176.756 115.924 176.604 116.564 176.604C117.204 176.604 117.764 176.756 118.244 177.061C118.728 177.366 119.103 177.794 119.371 178.344C119.642 178.895 119.777 179.54 119.777 180.279C119.777 181.011 119.642 181.651 119.371 182.199C119.103 182.747 118.728 183.173 118.244 183.478C117.764 183.783 117.204 183.935 116.564 183.935ZM116.564 182.956C117.05 182.956 117.45 182.832 117.764 182.582C118.078 182.333 118.311 182.005 118.461 181.599C118.612 181.193 118.688 180.753 118.688 180.279C118.688 179.805 118.612 179.363 118.461 178.954C118.311 178.544 118.078 178.214 117.764 177.961C117.45 177.709 117.05 177.583 116.564 177.583C116.078 177.583 115.678 177.709 115.364 177.961C115.05 178.214 114.817 178.544 114.667 178.954C114.516 179.363 114.44 179.805 114.44 180.279C114.44 180.753 114.516 181.193 114.667 181.599C114.817 182.005 115.05 182.333 115.364 182.582C115.678 182.832 116.078 182.956 116.564 182.956ZM122.4 179.522V183.787H121.31V176.696H122.363V177.804H122.455C122.621 177.444 122.874 177.155 123.212 176.936C123.551 176.715 123.988 176.604 124.523 176.604C125.003 176.604 125.423 176.702 125.783 176.899C126.144 177.093 126.424 177.389 126.624 177.786C126.824 178.18 126.924 178.678 126.924 179.282V183.787H125.834V179.355C125.834 178.798 125.69 178.364 125.4 178.054C125.111 177.74 124.714 177.583 124.209 177.583C123.861 177.583 123.551 177.658 123.277 177.809C123.006 177.96 122.792 178.18 122.635 178.469C122.478 178.758 122.4 179.109 122.4 179.522ZM134.398 183.953C133.948 183.953 133.54 183.869 133.174 183.7C132.808 183.527 132.517 183.279 132.302 182.956C132.086 182.63 131.978 182.236 131.978 181.774C131.978 181.368 132.058 181.039 132.219 180.787C132.379 180.531 132.592 180.331 132.86 180.186C133.128 180.042 133.423 179.934 133.747 179.863C134.073 179.789 134.401 179.731 134.73 179.688C135.161 179.632 135.51 179.591 135.778 179.563C136.049 179.532 136.246 179.482 136.369 179.411C136.495 179.34 136.558 179.217 136.558 179.041V179.005C136.558 178.549 136.433 178.195 136.184 177.943C135.938 177.69 135.564 177.564 135.062 177.564C134.542 177.564 134.134 177.678 133.839 177.906C133.543 178.134 133.336 178.377 133.216 178.635L132.182 178.266C132.366 177.835 132.612 177.5 132.92 177.26C133.231 177.016 133.57 176.847 133.936 176.752C134.305 176.653 134.668 176.604 135.025 176.604C135.253 176.604 135.515 176.632 135.81 176.687C136.109 176.739 136.396 176.849 136.673 177.015C136.954 177.181 137.186 177.432 137.371 177.767C137.555 178.103 137.648 178.552 137.648 179.115V183.787H136.558V182.827H136.503C136.429 182.981 136.306 183.146 136.133 183.321C135.961 183.496 135.732 183.646 135.445 183.769C135.159 183.892 134.81 183.953 134.398 183.953ZM134.564 182.975C134.995 182.975 135.358 182.89 135.653 182.721C135.952 182.552 136.176 182.333 136.327 182.065C136.481 181.798 136.558 181.516 136.558 181.22V180.223C136.512 180.279 136.41 180.329 136.253 180.376C136.099 180.419 135.921 180.457 135.718 180.491C135.518 180.522 135.322 180.55 135.132 180.574C134.944 180.596 134.791 180.614 134.675 180.63C134.391 180.666 134.127 180.727 133.88 180.81C133.637 180.89 133.44 181.011 133.29 181.174C133.142 181.334 133.068 181.553 133.068 181.83C133.068 182.208 133.208 182.495 133.488 182.689C133.771 182.879 134.13 182.975 134.564 182.975ZM139.506 186.446V176.696H140.559V177.823H140.688C140.768 177.7 140.879 177.543 141.02 177.352C141.165 177.158 141.371 176.986 141.639 176.835C141.91 176.681 142.276 176.604 142.738 176.604C143.335 176.604 143.861 176.753 144.316 177.052C144.772 177.35 145.127 177.774 145.383 178.321C145.638 178.869 145.766 179.515 145.766 180.26C145.766 181.011 145.638 181.662 145.383 182.213C145.127 182.761 144.773 183.186 144.321 183.487C143.869 183.786 143.347 183.935 142.756 183.935C142.301 183.935 141.936 183.86 141.662 183.709C141.388 183.555 141.177 183.381 141.03 183.187C140.882 182.99 140.768 182.827 140.688 182.698H140.596V186.446H139.506ZM140.577 180.242C140.577 180.777 140.656 181.25 140.813 181.659C140.969 182.065 141.199 182.384 141.5 182.615C141.802 182.842 142.171 182.956 142.608 182.956C143.064 182.956 143.444 182.836 143.749 182.596C144.056 182.353 144.287 182.027 144.441 181.617C144.598 181.205 144.677 180.747 144.677 180.242C144.677 179.743 144.6 179.294 144.446 178.894C144.295 178.491 144.066 178.172 143.758 177.938C143.453 177.701 143.07 177.583 142.608 177.583C142.165 177.583 141.793 177.695 141.491 177.92C141.19 178.141 140.962 178.452 140.808 178.852C140.654 179.249 140.577 179.712 140.577 180.242ZM147.298 186.446V176.696H148.35V177.823H148.48C148.56 177.7 148.671 177.543 148.812 177.352C148.957 177.158 149.163 176.986 149.431 176.835C149.702 176.681 150.068 176.604 150.529 176.604C151.127 176.604 151.653 176.753 152.108 177.052C152.564 177.35 152.919 177.774 153.175 178.321C153.43 178.869 153.558 179.515 153.558 180.26C153.558 181.011 153.43 181.662 153.175 182.213C152.919 182.761 152.565 183.186 152.113 183.487C151.661 183.786 151.139 183.935 150.548 183.935C150.092 183.935 149.728 183.86 149.454 183.709C149.18 183.555 148.969 183.381 148.821 183.187C148.674 182.99 148.56 182.827 148.48 182.698H148.387V186.446H147.298ZM148.369 180.242C148.369 180.777 148.447 181.25 148.604 181.659C148.761 182.065 148.991 182.384 149.292 182.615C149.594 182.842 149.963 182.956 150.4 182.956C150.856 182.956 151.236 182.836 151.54 182.596C151.848 182.353 152.079 182.027 152.233 181.617C152.39 181.205 152.468 180.747 152.468 180.242C152.468 179.743 152.391 179.294 152.238 178.894C152.087 178.491 151.857 178.172 151.55 177.938C151.245 177.701 150.862 177.583 150.4 177.583C149.957 177.583 149.585 177.695 149.283 177.92C148.981 178.141 148.754 178.452 148.6 178.852C148.446 179.249 148.369 179.712 148.369 180.242ZM158.063 183.935C157.38 183.935 156.79 183.784 156.295 183.483C155.802 183.178 155.422 182.753 155.154 182.208C154.89 181.661 154.757 181.024 154.757 180.297C154.757 179.571 154.89 178.931 155.154 178.377C155.422 177.82 155.795 177.386 156.272 177.075C156.752 176.761 157.312 176.604 157.952 176.604C158.321 176.604 158.686 176.666 159.046 176.789C159.406 176.912 159.734 177.112 160.029 177.389C160.325 177.663 160.56 178.026 160.736 178.478C160.911 178.931 160.999 179.488 160.999 180.149V180.611H155.533V179.669H159.891C159.891 179.269 159.811 178.912 159.651 178.598C159.494 178.284 159.269 178.037 158.977 177.855C158.688 177.673 158.346 177.583 157.952 177.583C157.518 177.583 157.143 177.69 156.826 177.906C156.512 178.118 156.27 178.395 156.101 178.737C155.932 179.078 155.847 179.445 155.847 179.836V180.463C155.847 180.999 155.939 181.453 156.124 181.825C156.312 182.195 156.572 182.476 156.904 182.67C157.236 182.861 157.623 182.956 158.063 182.956C158.349 182.956 158.608 182.916 158.838 182.836C159.072 182.753 159.274 182.63 159.443 182.467C159.612 182.301 159.743 182.095 159.836 181.848L160.888 182.144C160.777 182.501 160.591 182.815 160.33 183.086C160.068 183.353 159.745 183.563 159.36 183.713C158.975 183.861 158.543 183.935 158.063 183.935ZM164.613 183.953C164.164 183.953 163.756 183.869 163.39 183.7C163.023 183.527 162.732 183.279 162.517 182.956C162.302 182.63 162.194 182.236 162.194 181.774C162.194 181.368 162.274 181.039 162.434 180.787C162.594 180.531 162.808 180.331 163.076 180.186C163.343 180.042 163.639 179.934 163.962 179.863C164.288 179.789 164.616 179.731 164.945 179.688C165.376 179.632 165.725 179.591 165.993 179.563C166.264 179.532 166.461 179.482 166.584 179.411C166.71 179.34 166.773 179.217 166.773 179.041V179.005C166.773 178.549 166.649 178.195 166.399 177.943C166.153 177.69 165.779 177.564 165.278 177.564C164.758 177.564 164.35 177.678 164.054 177.906C163.759 178.134 163.551 178.377 163.431 178.635L162.397 178.266C162.582 177.835 162.828 177.5 163.136 177.26C163.446 177.016 163.785 176.847 164.151 176.752C164.521 176.653 164.884 176.604 165.241 176.604C165.468 176.604 165.73 176.632 166.026 176.687C166.324 176.739 166.612 176.849 166.889 177.015C167.169 177.181 167.401 177.432 167.586 177.767C167.771 178.103 167.863 178.552 167.863 179.115V183.787H166.773V182.827H166.718C166.644 182.981 166.521 183.146 166.349 183.321C166.176 183.496 165.947 183.646 165.661 183.769C165.375 183.892 165.025 183.953 164.613 183.953ZM164.779 182.975C165.21 182.975 165.573 182.89 165.869 182.721C166.167 182.552 166.392 182.333 166.543 182.065C166.696 181.798 166.773 181.516 166.773 181.22V180.223C166.727 180.279 166.626 180.329 166.469 180.376C166.315 180.419 166.136 180.457 165.933 180.491C165.733 180.522 165.538 180.55 165.347 180.574C165.159 180.596 165.007 180.614 164.89 180.63C164.607 180.666 164.342 180.727 164.096 180.81C163.853 180.89 163.656 181.011 163.505 181.174C163.357 181.334 163.283 181.553 163.283 181.83C163.283 182.208 163.423 182.495 163.703 182.689C163.987 182.879 164.345 182.975 164.779 182.975ZM169.721 183.787V176.696H170.774V177.767H170.848C170.977 177.416 171.211 177.132 171.55 176.913C171.888 176.695 172.27 176.586 172.694 176.586C172.774 176.586 172.874 176.587 172.995 176.59C173.115 176.593 173.205 176.598 173.267 176.604V177.712C173.23 177.703 173.145 177.689 173.013 177.67C172.884 177.649 172.747 177.638 172.602 177.638C172.257 177.638 171.95 177.71 171.679 177.855C171.411 177.997 171.199 178.194 171.042 178.446C170.888 178.695 170.811 178.98 170.811 179.3V183.787H169.721ZM179.451 178.284L178.472 178.561C178.411 178.398 178.32 178.24 178.2 178.086C178.083 177.929 177.923 177.8 177.72 177.698C177.517 177.597 177.257 177.546 176.94 177.546C176.506 177.546 176.144 177.646 175.855 177.846C175.569 178.043 175.425 178.294 175.425 178.598C175.425 178.869 175.524 179.083 175.721 179.24C175.918 179.397 176.226 179.528 176.644 179.632L177.697 179.891C178.331 180.045 178.803 180.28 179.114 180.597C179.425 180.911 179.58 181.316 179.58 181.811C179.58 182.218 179.463 182.581 179.229 182.901C178.999 183.221 178.675 183.473 178.26 183.658C177.845 183.843 177.361 183.935 176.81 183.935C176.087 183.935 175.489 183.778 175.015 183.464C174.541 183.15 174.241 182.692 174.114 182.088L175.148 181.83C175.247 182.211 175.433 182.498 175.707 182.689C175.984 182.879 176.346 182.975 176.792 182.975C177.3 182.975 177.703 182.867 178.001 182.652C178.303 182.433 178.454 182.171 178.454 181.867C178.454 181.621 178.368 181.414 178.195 181.248C178.023 181.079 177.758 180.953 177.401 180.87L176.22 180.593C175.57 180.439 175.093 180.2 174.788 179.877C174.487 179.551 174.336 179.143 174.336 178.654C174.336 178.254 174.448 177.9 174.673 177.592C174.901 177.284 175.21 177.043 175.601 176.867C175.995 176.692 176.441 176.604 176.94 176.604C177.641 176.604 178.192 176.758 178.592 177.066C178.996 177.373 179.282 177.78 179.451 178.284ZM185.706 179.522V183.787H184.617V174.333H185.706V177.804H185.798C185.965 177.438 186.214 177.147 186.546 176.932C186.882 176.713 187.328 176.604 187.885 176.604C188.368 176.604 188.791 176.701 189.155 176.895C189.518 177.086 189.799 177.38 189.999 177.777C190.203 178.171 190.304 178.672 190.304 179.282V183.787H189.215V179.355C189.215 178.792 189.068 178.357 188.776 178.049C188.487 177.738 188.085 177.583 187.571 177.583C187.214 177.583 186.894 177.658 186.611 177.809C186.331 177.96 186.109 178.18 185.946 178.469C185.786 178.758 185.706 179.109 185.706 179.522ZM195.14 183.935C194.457 183.935 193.868 183.784 193.372 183.483C192.88 183.178 192.5 182.753 192.232 182.208C191.967 181.661 191.835 181.024 191.835 180.297C191.835 179.571 191.967 178.931 192.232 178.377C192.5 177.82 192.872 177.386 193.349 177.075C193.829 176.761 194.389 176.604 195.029 176.604C195.399 176.604 195.763 176.666 196.124 176.789C196.484 176.912 196.811 177.112 197.107 177.389C197.402 177.663 197.638 178.026 197.813 178.478C197.989 178.931 198.076 179.488 198.076 180.149V180.611H192.61V179.669H196.968C196.968 179.269 196.888 178.912 196.728 178.598C196.571 178.284 196.347 178.037 196.054 177.855C195.765 177.673 195.423 177.583 195.029 177.583C194.596 177.583 194.22 177.69 193.903 177.906C193.589 178.118 193.348 178.395 193.178 178.737C193.009 179.078 192.924 179.445 192.924 179.836V180.463C192.924 180.999 193.017 181.453 193.201 181.825C193.389 182.195 193.649 182.476 193.982 182.67C194.314 182.861 194.7 182.956 195.14 182.956C195.426 182.956 195.685 182.916 195.916 182.836C196.15 182.753 196.351 182.63 196.521 182.467C196.69 182.301 196.821 182.095 196.913 181.848L197.966 182.144C197.855 182.501 197.669 182.815 197.407 183.086C197.145 183.353 196.822 183.563 196.437 183.713C196.053 183.861 195.62 183.935 195.14 183.935ZM199.604 183.787V176.696H200.656V177.767H200.73C200.859 177.416 201.093 177.132 201.432 176.913C201.77 176.695 202.152 176.586 202.577 176.586C202.657 176.586 202.757 176.587 202.877 176.59C202.997 176.593 203.088 176.598 203.149 176.604V177.712C203.112 177.703 203.028 177.689 202.895 177.67C202.766 177.649 202.629 177.638 202.484 177.638C202.14 177.638 201.832 177.71 201.561 177.855C201.293 177.997 201.081 178.194 200.924 178.446C200.77 178.695 200.693 178.98 200.693 179.3V183.787H199.604ZM207.068 183.935C206.385 183.935 205.795 183.784 205.3 183.483C204.807 183.178 204.427 182.753 204.159 182.208C203.895 181.661 203.762 181.024 203.762 180.297C203.762 179.571 203.895 178.931 204.159 178.377C204.427 177.82 204.8 177.386 205.277 177.075C205.757 176.761 206.317 176.604 206.957 176.604C207.326 176.604 207.691 176.666 208.051 176.789C208.411 176.912 208.739 177.112 209.034 177.389C209.33 177.663 209.565 178.026 209.741 178.478C209.916 178.931 210.004 179.488 210.004 180.149V180.611H204.538V179.669H208.896C208.896 179.269 208.816 178.912 208.656 178.598C208.499 178.284 208.274 178.037 207.982 177.855C207.693 177.673 207.351 177.583 206.957 177.583C206.523 177.583 206.148 177.69 205.831 177.906C205.517 178.118 205.275 178.395 205.106 178.737C204.936 179.078 204.852 179.445 204.852 179.836V180.463C204.852 180.999 204.944 181.453 205.129 181.825C205.317 182.195 205.577 182.476 205.909 182.67C206.241 182.861 206.628 182.956 207.068 182.956C207.354 182.956 207.612 182.916 207.843 182.836C208.077 182.753 208.279 182.63 208.448 182.467C208.617 182.301 208.748 182.095 208.84 181.848L209.893 182.144C209.782 182.501 209.596 182.815 209.334 183.086C209.073 183.353 208.75 183.563 208.365 183.713C207.98 183.861 207.548 183.935 207.068 183.935Z" fill="#9A9FA5"/>
<defs>
<filter id="filter0_d_306_9180" x="47.0616" y="22.4572" width="129.932" height="140.989" filterUnits="userSpaceOnUse" color-interpolation-filters="sRGB">
<feFlood flood-opacity="0" result="BackgroundImageFix"/>
<feColorMatrix in="SourceAlpha" type="matrix" values="0 0 0 0 0 0 0 0 0 0 0 0 0 0 0 0 0 0 127 0" result="hardAlpha"/>
<feOffset dx="6.53189" dy="6.53189"/>
<feGaussianBlur stdDeviation="13.0638"/>
<feComposite in2="hardAlpha" operator="out"/>
<feColorMatrix type="matrix" values="0 0 0 0 0.632812 0 0 0 0 0.617188 0 0 0 0 0.617188 0 0 0 0.1 0"/>
<feBlend mode="normal" in2="BackgroundImageFix" result="effect1_dropShadow_306_9180"/>
<feBlend mode="normal" in="SourceGraphic" in2="effect1_dropShadow_306_9180" result="shape"/>
</filter>
</defs>
</svg>
