<svg width="23" height="24" viewBox="0 0 23 24" fill="none" xmlns="http://www.w3.org/2000/svg">
<path fill-rule="evenodd" clip-rule="evenodd" d="M0.0449219 17.4226C0.0449243 16.9855 0.222482 16.5671 0.536879 16.2635L1.71784 15.1228C2.1674 14.6886 2.42046 14.0899 2.41859 13.4649L2.40772 9.84604C2.39252 4.78294 6.49273 0.67041 11.5559 0.67041C16.6083 0.67041 20.704 4.76618 20.704 9.81858L20.704 13.4924C20.704 14.1011 20.9459 14.685 21.3764 15.1155L22.5241 16.2632C22.8285 16.5676 22.9995 16.9805 22.9995 17.4109C22.9995 18.3074 22.2728 19.0341 21.3764 19.0341H16.1131C16.1131 21.5696 14.0577 23.625 11.5222 23.625C8.98672 23.625 6.9313 21.5696 6.9313 19.0341H1.65642C0.766416 19.0341 0.0449219 18.3126 0.0449219 17.4226ZM9.22676 19.0341C9.22676 20.3018 10.2545 21.3295 11.5222 21.3295C12.79 21.3295 13.8177 20.3018 13.8177 19.0341H9.22676Z" fill="black"/>
</svg>
