<svg width="15" height="19" viewBox="0 0 15 19" fill="none" xmlns="http://www.w3.org/2000/svg">
<path fill-rule="evenodd" clip-rule="evenodd" d="M7.50004 2.5C8.72198 2.5 9.75094 3.33573 10.0424 4.4681C10.1628 4.9361 10.6399 5.21784 11.1079 5.09738C11.5759 4.97693 11.8576 4.4999 11.7372 4.0319C11.2515 2.14512 9.53981 0.75 7.50004 0.75C5.08379 0.75 3.12504 2.70875 3.12504 5.125L3.125 6C1.67525 6 0.5 7.17525 0.5 8.625V15.625C0.5 17.0747 1.67525 18.25 3.125 18.25H11.875C13.3247 18.25 14.5 17.0747 14.5 15.625V8.625C14.5 7.17525 13.3247 6 11.875 6H4.87504V5.125C4.87504 3.67525 6.05029 2.5 7.50004 2.5ZM9.25 11.25C9.25 11.8977 8.89808 12.4633 8.375 12.7659V13.875C8.375 14.3582 7.98325 14.75 7.5 14.75C7.01675 14.75 6.625 14.3582 6.625 13.875V12.7659C6.10192 12.4633 5.75 11.8977 5.75 11.25C5.75 10.2835 6.5335 9.5 7.5 9.5C8.4665 9.5 9.25 10.2835 9.25 11.25Z" fill="black"/>
</svg>
