<svg width="34" height="35" viewBox="0 0 34 35" fill="none" xmlns="http://www.w3.org/2000/svg">
<rect x="0.25" y="0.290039" width="33.5" height="33.5" rx="16.75" fill="white"/>
<rect x="0.25" y="0.290039" width="33.5" height="33.5" rx="16.75" stroke="#E6E8EC" stroke-width="0.5"/>
<g clip-path="url(#clip0_306_10723)">
<path d="M28.8269 18.498C28.3695 18.498 27.9121 18.4936 27.4552 18.498C27.3134 18.498 27.2593 18.4749 27.2635 18.346C27.2749 18.0172 27.2485 17.6865 27.2737 17.3589C27.2875 17.1808 27.2136 17.1602 27.0333 17.1627C26.3589 17.1708 25.6844 17.1596 25.01 17.1689C24.8357 17.1689 24.799 17.1272 24.8008 16.9914C24.8081 16.543 24.8008 16.5436 25.3334 16.5455C25.9183 16.5455 26.5031 16.5418 27.0874 16.5505C27.2491 16.5505 27.2954 16.5106 27.2863 16.3823C27.2737 16.2086 27.2737 16.0341 27.2863 15.8604C27.296 15.7327 27.2376 15.7066 27.0952 15.7078C26.3979 15.7128 25.7007 15.7078 25.0034 15.7122C24.8501 15.7122 24.7996 15.6829 24.8008 15.549C24.8051 15.1012 24.8008 15.1012 25.3322 15.1012C25.9243 15.1012 26.5163 15.1012 27.1084 15.1043C27.2437 15.1043 27.2815 15.0813 27.2749 14.9586C27.2575 14.6297 27.2707 14.3003 27.2641 13.9714C27.2641 13.8774 27.2899 13.8413 27.4126 13.8419C28.3142 13.845 29.2116 13.8363 30.1108 13.8463C30.4386 13.8597 30.7537 13.9807 31.0107 14.1919C31.5799 14.6279 31.9123 15.1654 31.9838 15.8019C32.0872 16.7292 31.6917 17.5152 30.9373 18.1872C30.6824 18.4134 30.352 18.527 30.0171 18.5036C29.6222 18.4893 29.2242 18.498 28.8269 18.498Z" fill="#203D96"/>
<path d="M12.6589 17.0331C12.2014 17.228 11.771 17.4136 11.3365 17.5936C11.2283 17.6391 11.1652 17.6889 11.1465 17.7979C11.0515 18.3491 10.828 18.868 10.4955 19.3095C10.4186 19.4135 10.3994 19.4963 10.4529 19.614C10.5478 19.8195 10.6212 20.0319 10.7155 20.2723C10.4781 20.1478 10.2743 20.0469 10.0772 19.9372C10.0492 19.9154 10.0145 19.9049 9.97962 19.9075C9.9447 19.9102 9.91189 19.9258 9.88724 19.9516C9.49998 20.2781 9.04416 20.506 8.55644 20.6167C8.51778 20.623 8.48207 20.642 8.4545 20.6708C8.42694 20.6995 8.40895 20.7367 8.40316 20.7768C8.21863 21.351 8.03349 21.9246 7.83514 22.54C7.68907 22.104 7.52738 21.7048 7.4282 21.2943C7.32902 20.8839 7.17214 20.5557 6.60291 20.4423C6.29636 20.3801 6.0433 20.182 5.81849 19.9877C5.73013 19.9117 5.66762 19.8961 5.55822 19.964C5.39773 20.0631 5.22101 20.1446 5.01724 20.2518C5.06473 20.0064 5.17473 19.8121 5.24746 19.609C5.2721 19.5411 5.29915 19.4807 5.23664 19.4023C4.86879 18.9464 4.62039 18.4001 4.51534 17.816C4.4919 17.6864 4.41856 17.6291 4.28813 17.5756C3.86737 17.4055 3.44661 17.2262 3 17.0381C3.46945 16.8351 3.90824 16.6401 4.35365 16.457C4.39724 16.4445 4.43656 16.4196 4.46707 16.385C4.49759 16.3504 4.51807 16.3076 4.52616 16.2614C4.64228 15.678 4.89888 15.1345 5.27211 14.6814C5.29859 14.6563 5.31617 14.6227 5.32206 14.586C5.32794 14.5493 5.32178 14.5116 5.30456 14.479C5.20599 14.2604 5.12424 14.0368 5.01785 13.7758C5.25467 13.8973 5.45483 13.9969 5.65019 14.1028C5.73374 14.1476 5.79084 14.1651 5.878 14.0959C6.23146 13.8185 6.63839 13.6231 7.07116 13.523C7.19137 13.4943 7.20941 13.4246 7.23465 13.3473C7.41337 12.7972 7.5937 12.2473 7.77563 11.6975C7.79066 11.6508 7.8129 11.606 7.84055 11.5381C8.04612 12.164 8.24688 12.7644 8.43802 13.3666C8.44869 13.4095 8.47163 13.4479 8.50383 13.4769C8.53602 13.506 8.57595 13.5242 8.61835 13.5292C9.03663 13.6276 9.42973 13.8177 9.77123 14.0866C9.87883 14.1726 9.95156 14.1582 10.0537 14.0984C10.2431 13.9907 10.4402 13.8929 10.6747 13.7702C10.5695 14.0349 10.4835 14.2635 10.3873 14.4883C10.3683 14.5234 10.3607 14.564 10.3656 14.6039C10.3706 14.6439 10.3879 14.6811 10.415 14.71C10.7766 15.1557 11.0261 15.6872 11.1411 16.2571C11.1658 16.3736 11.2283 16.4252 11.3431 16.4726C11.7741 16.6538 12.202 16.8394 12.6589 17.0331Z" fill="#279F42"/>
<path d="M13.3582 16.0989C13.3582 15.3777 13.3582 14.6571 13.3552 13.9365C13.3552 13.817 13.3738 13.7727 13.5421 13.7628C14.6241 13.7005 15.7133 13.7659 16.797 13.7298C17.9421 13.6937 18.5185 14.2648 18.6868 15.0015C18.8137 15.5459 18.7614 16.079 18.4344 16.5729C18.1453 17.0088 17.6944 17.2424 17.0807 17.2405C16.2332 17.2405 15.3857 17.2436 14.5381 17.2374C14.3813 17.2374 14.3332 17.2692 14.3386 17.4012C14.3506 17.7051 14.3344 18.0103 14.3458 18.3149C14.3506 18.4394 14.2983 18.4731 14.1552 18.4662C13.9532 18.4556 13.7508 18.4556 13.5487 18.4662C13.3865 18.4762 13.3504 18.4282 13.3516 18.2999C13.3588 17.5669 13.3552 16.8332 13.3552 16.1002L13.3582 16.0989Z" fill="#1F3D95"/>
<path d="M24.107 18.4663C23.8065 18.5442 23.4963 18.4912 23.191 18.4943C23.0972 18.4943 23.1339 18.4059 23.1309 18.3567C23.1309 17.8416 23.1242 17.3266 23.1309 16.8115C23.1309 16.677 23.0996 16.6328 22.9241 16.6353C22.1835 16.6456 21.4422 16.6469 20.7001 16.639C20.5239 16.639 20.4921 16.6826 20.4945 16.8159C20.5041 17.3247 20.4945 17.8335 20.5029 18.3417C20.5029 18.4763 20.4548 18.5192 20.3009 18.503C20.0419 18.475 19.7762 18.5504 19.5195 18.4657C19.5371 18.4255 19.5427 18.3809 19.5358 18.3374C19.5358 16.8842 19.5358 15.4293 19.5358 13.9728C19.5415 13.9293 19.5362 13.8851 19.5201 13.8445C19.7359 13.7548 19.9649 13.8183 20.1873 13.809C20.4957 13.7965 20.4963 13.8058 20.4963 14.0581C20.4963 14.4679 20.5011 14.8777 20.4933 15.2875C20.4933 15.4009 20.527 15.4357 20.6682 15.4339C21.4328 15.4243 22.1974 15.4212 22.962 15.4245C23.1164 15.4245 23.1279 15.3753 23.1266 15.2738C23.1218 14.8378 23.1303 14.4019 23.1212 13.969C23.1212 13.8445 23.1531 13.7822 23.3178 13.8021C23.5763 13.8308 23.8431 13.7517 24.0992 13.8413C24.0795 13.8873 24.0736 13.9383 24.0824 13.9877C24.0824 15.4305 24.0824 16.8736 24.0824 18.3168C24.0747 18.3681 24.0833 18.4206 24.107 18.4663Z" fill="#22429A"/>
<path d="M31.6456 18.7103H13.3125V18.6692H31.6474L31.6456 18.7103Z" fill="#12952F"/>
<path d="M19.5297 13.8442C19.5899 13.8966 19.5658 13.9619 19.5658 14.0224C19.5658 15.4444 19.5658 16.8665 19.5658 18.2886C19.5658 18.3509 19.5911 18.4131 19.5273 18.4655L19.5297 13.8442Z" fill="#06288B"/>
<path d="M24.1076 18.4661C24.042 18.4156 24.0673 18.3496 24.0673 18.2898C24.0673 16.8673 24.0673 15.4444 24.0673 14.0211C24.0673 13.9588 24.0426 13.8966 24.1052 13.8442C24.1084 14.9503 24.1112 16.0562 24.1136 17.1619C24.1154 17.5966 24.11 18.0314 24.1076 18.4661Z" fill="#092B8C"/>
<path d="M22.9392 19.4L22.7967 19.1335C22.7 19.1733 22.6062 19.2163 22.6224 19.3265C22.5214 19.4212 22.6453 19.5607 22.5281 19.6516C22.4577 19.5476 22.5124 19.4355 22.4968 19.3284C22.4981 19.2856 22.4903 19.2431 22.474 19.2038C22.4505 19.1677 22.3423 19.1752 22.3784 19.106C22.4145 19.0369 22.5112 19.0612 22.5767 19.0668C22.7414 19.0811 22.9813 18.9784 22.9885 19.2617C23.0137 19.2281 23.0222 19.2188 23.0282 19.2082C23.0618 19.1534 23.0504 19.04 23.1598 19.0724C23.2692 19.1048 23.1694 19.1889 23.1466 19.2375C23.0973 19.3441 23.0697 19.46 23.0654 19.5781C22.9308 19.5638 23.033 19.4343 22.9392 19.4Z" fill="#2F90CE"/>
<path d="M15.2494 19.4011C15.2419 19.3528 15.2395 19.3037 15.2421 19.2548C15.2524 19.1925 15.1959 19.0897 15.289 19.0779C15.4189 19.0611 15.3575 19.1707 15.3714 19.2268C15.3822 19.2722 15.4068 19.289 15.4597 19.289C15.5126 19.289 15.5156 19.2623 15.5259 19.2268C15.5427 19.1713 15.4784 19.0611 15.6082 19.0779C15.7008 19.0897 15.6449 19.1931 15.6545 19.2548C15.6578 19.3037 15.6553 19.3528 15.6473 19.4011C15.5595 19.4697 15.6557 19.5849 15.5559 19.6503C15.4579 19.5917 15.6004 19.4317 15.4585 19.4267C15.2812 19.4198 15.4483 19.5967 15.3413 19.6503C15.2409 19.5849 15.3377 19.4697 15.2494 19.4011Z" fill="#2B80C4"/>
<path d="M25.6012 19.3655C25.6012 19.3157 25.6012 19.2665 25.5928 19.2173C25.5796 19.1139 25.6066 19.0504 25.7587 19.0641C25.8981 19.0759 25.9679 19.1314 25.9492 19.2441C25.9402 19.297 25.8993 19.3469 25.9432 19.4004C25.9389 19.4055 25.934 19.4101 25.9288 19.4141C25.8621 19.4664 25.832 19.5711 25.7226 19.5592C25.6012 19.548 25.6703 19.4235 25.6012 19.3655Z" fill="#2C88C9"/>
<path d="M30.5894 19.2536C30.6207 19.3545 30.6555 19.4548 30.6802 19.5563C30.6892 19.5918 30.721 19.6466 30.6399 19.6597C30.6301 19.6624 30.6199 19.6631 30.6098 19.6617C30.5998 19.6603 30.5901 19.6569 30.5813 19.6516C30.5726 19.6464 30.5649 19.6394 30.5587 19.631C30.5526 19.6227 30.5481 19.6131 30.5455 19.603C30.4854 19.4361 30.4295 19.4784 30.3832 19.608C30.3803 19.618 30.3754 19.6274 30.3689 19.6355C30.3625 19.6437 30.3545 19.6503 30.3455 19.6552C30.3364 19.6601 30.3266 19.663 30.3165 19.6639C30.3063 19.6648 30.2961 19.6635 30.2865 19.6603C30.2179 19.6484 30.2432 19.6092 30.2528 19.575C30.2798 19.4797 30.3057 19.3844 30.3321 19.2891L30.3406 19.2723C30.4289 19.3215 30.5022 19.2262 30.5894 19.2536Z" fill="#2F60AF"/>
<path d="M16.0546 19.2535C16.0858 19.355 16.1195 19.4565 16.1471 19.5587C16.1555 19.5917 16.1796 19.6396 16.1225 19.6565C16.1112 19.6611 16.0991 19.6631 16.087 19.6624C16.0749 19.6617 16.0631 19.6582 16.0524 19.6523C16.0417 19.6464 16.0323 19.6381 16.025 19.6281C16.0177 19.618 16.0126 19.6065 16.0101 19.5942C15.9566 19.4379 15.9037 19.4852 15.8574 19.5979C15.8542 19.6101 15.8484 19.6215 15.8405 19.6312C15.8326 19.6409 15.8228 19.6487 15.8117 19.6541C15.8006 19.6595 15.7885 19.6623 15.7763 19.6624C15.7641 19.6625 15.752 19.6598 15.7408 19.6546C15.6807 19.6315 15.7228 19.5923 15.7306 19.5587C15.7498 19.4802 15.7727 19.4017 15.7907 19.3233C15.8899 19.3245 15.9265 19.1744 16.0546 19.2535Z" fill="#2D5EAE"/>
<path d="M26.6289 19.3951C26.6097 19.3228 26.698 19.2026 26.5177 19.1541C26.4871 19.1453 26.4943 19.0793 26.5544 19.075C26.6432 19.0681 26.7324 19.0681 26.8213 19.075C26.8748 19.0787 26.9036 19.1372 26.8651 19.1522C26.6656 19.2356 26.7966 19.3801 26.76 19.4922C26.7413 19.5489 26.8147 19.6567 26.6884 19.6523C26.5742 19.6486 26.6482 19.5439 26.6283 19.486C26.6247 19.4558 26.6249 19.4252 26.6289 19.3951Z" fill="#1E57AC"/>
<path d="M14.5999 19.289C14.547 19.3582 14.568 19.4261 14.5951 19.4989C14.6149 19.5506 14.6714 19.6316 14.5753 19.6584C14.4611 19.6907 14.4833 19.5911 14.4593 19.5406C14.446 19.5132 14.4364 19.4846 14.4226 19.451C14.4021 19.4647 14.3895 19.469 14.3859 19.4765C14.3529 19.5388 14.4334 19.659 14.306 19.6552C14.1785 19.6515 14.2525 19.5369 14.2459 19.4721C14.2424 19.4108 14.2452 19.3492 14.2543 19.2884C14.2754 19.2701 14.3025 19.261 14.33 19.2629C14.3858 19.2671 14.4419 19.2643 14.4971 19.2548C14.5156 19.2526 14.5344 19.2545 14.5521 19.2604C14.5698 19.2663 14.5861 19.2761 14.5999 19.289Z" fill="#4876BB"/>
<path d="M16.5542 19.3293C16.5205 19.4071 16.5867 19.4725 16.5927 19.5454C16.5963 19.584 16.6329 19.6394 16.5626 19.6569C16.4923 19.6743 16.4628 19.6276 16.4556 19.5722C16.4575 19.5496 16.4533 19.527 16.4437 19.5067C16.4341 19.4864 16.4193 19.4692 16.4009 19.457C16.3829 19.4464 16.3787 19.4526 16.3691 19.4682C16.3318 19.5305 16.4208 19.655 16.2969 19.6513C16.1563 19.6475 16.247 19.5267 16.2308 19.4551C16.2256 19.3998 16.2278 19.3441 16.2374 19.2894C16.351 19.2608 16.4743 19.1786 16.5542 19.3293Z" fill="#305FAF"/>
<path d="M29.1974 19.291C29.2017 19.3026 29.2045 19.3147 29.2058 19.3271C29.213 19.5619 29.1277 19.679 28.9546 19.6703C28.7814 19.6615 28.7021 19.5183 28.743 19.2891C28.7595 19.2758 28.7801 19.2692 28.801 19.2707C28.8218 19.2722 28.8414 19.2816 28.856 19.2972C28.8854 19.3315 28.8896 19.375 28.9161 19.4112C28.9618 19.4784 29.0014 19.4573 29.0363 19.4018C29.0712 19.3464 29.0598 19.243 29.1974 19.291Z" fill="#2C53A8"/>
<path d="M21.4598 19.2896C21.366 19.3805 21.4784 19.4621 21.4778 19.5487C21.4778 19.5873 21.5337 19.6358 21.4586 19.6583C21.3835 19.6807 21.3648 19.6253 21.3384 19.5786C21.3119 19.5318 21.3384 19.4777 21.2783 19.4478C21.2218 19.4552 21.247 19.4932 21.2374 19.5188C21.2194 19.5686 21.2885 19.6676 21.1629 19.6558C21.0589 19.6458 21.1106 19.5586 21.11 19.5019C21.1509 19.426 21.0499 19.3151 21.1893 19.2647C21.2494 19.2647 21.3137 19.2609 21.3763 19.2572C21.3916 19.2565 21.4068 19.2591 21.4212 19.2646C21.4355 19.2702 21.4487 19.2787 21.4598 19.2896Z" fill="#3465B2"/>
<path d="M14.1649 19.2901C14.1649 19.3087 14.1721 19.3268 14.1727 19.3449C14.1757 19.5685 14.0951 19.675 13.9274 19.67C13.7597 19.665 13.684 19.5404 13.7044 19.3287C13.7084 19.3043 13.7138 19.2801 13.7207 19.2564C13.8643 19.2471 13.8409 19.3555 13.8848 19.4159C13.9286 19.4763 13.9695 19.4557 14.0002 19.4028C14.0416 19.3511 14.026 19.2427 14.1649 19.2901Z" fill="#2A51A6"/>
<path d="M25.2856 19.2905C25.1894 19.3814 25.3018 19.463 25.3036 19.5496C25.3036 19.5882 25.3559 19.6367 25.2802 19.6585C25.2045 19.6803 25.187 19.6243 25.1642 19.5776C25.1413 19.5309 25.169 19.4761 25.1041 19.448C25.0488 19.458 25.0764 19.4954 25.0674 19.5203C25.0488 19.5701 25.1173 19.6691 24.9905 19.6561C24.8859 19.6461 24.94 19.5589 24.9382 19.5028C24.9815 19.4275 24.8781 19.316 25.0187 19.2649C25.0788 19.2649 25.1438 19.2612 25.2063 19.2568C25.2358 19.2576 25.264 19.2695 25.2856 19.2905Z" fill="#3565B2"/>
<path d="M18.4385 19.3233C18.3905 19.4068 18.465 19.4772 18.4758 19.5544C18.4812 19.5924 18.5197 19.6447 18.4379 19.6597C18.3676 19.6727 18.352 19.6316 18.34 19.5843C18.3253 19.5346 18.3081 19.4857 18.2883 19.4379C18.1981 19.4784 18.2426 19.5407 18.2342 19.5887C18.2234 19.6547 18.1951 19.6802 18.1182 19.6441C18.1074 19.5077 18.0647 19.3694 18.1482 19.2374C18.224 19.2231 18.2931 19.2648 18.3688 19.2573C18.4079 19.2679 18.4584 19.2698 18.4385 19.3233Z" fill="#2B5FAF"/>
<path d="M31.3956 19.6528C31.3397 19.4796 31.3421 19.2947 31.2387 19.1309C31.2237 19.1066 31.2225 19.0792 31.2543 19.0686C31.2862 19.058 31.3343 19.0568 31.3547 19.0867C31.3819 19.1323 31.4062 19.1797 31.4274 19.2287C31.5194 19.1957 31.4653 19.0219 31.5964 19.0748C31.7033 19.1178 31.5777 19.215 31.5597 19.2878C31.5432 19.329 31.5209 19.3674 31.4936 19.4018C31.3884 19.4659 31.5032 19.5893 31.3956 19.6528Z" fill="#378DCB"/>
<path d="M27.1326 19.3645C27.1247 19.3271 27.1251 19.2883 27.1337 19.2511C27.1424 19.2138 27.1591 19.1791 27.1826 19.1495C27.2061 19.12 27.2358 19.0963 27.2694 19.0804C27.303 19.0644 27.3397 19.0566 27.3767 19.0575C27.4179 19.055 27.4588 19.0656 27.4941 19.0878C27.5293 19.1101 27.5571 19.143 27.5738 19.1821C27.6165 19.2792 27.6568 19.3789 27.5877 19.481C27.5179 19.4536 27.5089 19.3857 27.4572 19.3465C27.3136 19.1789 27.3274 19.3701 27.2709 19.4025C27.2468 19.4112 27.2208 19.4122 27.1962 19.4054C27.1715 19.3986 27.1494 19.3844 27.1326 19.3645Z" fill="#2F90CE"/>
<path d="M17.0832 19.5103C17.0321 19.4636 17.0435 19.4057 17.0453 19.3515C17.0519 19.169 17.1583 19.0438 17.3056 19.06C17.5172 19.0837 17.549 19.2151 17.534 19.3633C17.5175 19.3834 17.4955 19.3978 17.4709 19.4047C17.4464 19.4116 17.4204 19.4106 17.3963 19.4019C17.3362 19.3745 17.3597 19.1484 17.1998 19.3396C17.1367 19.387 17.1583 19.4717 17.0832 19.5103Z" fill="#2C91CF"/>
<path d="M23.8516 19.4411C23.8522 19.4805 23.8419 19.5193 23.822 19.553C23.8021 19.5866 23.7734 19.6137 23.7392 19.631C23.6972 19.6547 23.651 19.6694 23.6034 19.6742C23.5558 19.679 23.5077 19.6739 23.4621 19.6591C23.3803 19.6304 23.4242 19.5494 23.4212 19.4915C23.4207 19.4239 23.4241 19.3563 23.4314 19.2891C23.4438 19.2789 23.4584 19.2721 23.474 19.2694C23.4895 19.2667 23.5055 19.2681 23.5204 19.2735C23.5985 19.3128 23.5504 19.4025 23.619 19.4473C23.7181 19.4143 23.6713 19.2891 23.7873 19.2698C23.9111 19.2991 23.8528 19.3782 23.8516 19.4411Z" fill="#2C56A9"/>
<path d="M24.6489 19.6497C24.578 19.5588 24.6315 19.4585 24.6171 19.3632C24.6099 19.3146 24.6231 19.2592 24.5985 19.2187C24.5738 19.1782 24.4428 19.1371 24.5383 19.0817C24.6339 19.0263 24.7517 19.0499 24.8593 19.078C24.872 19.0811 24.887 19.1191 24.8816 19.1228C24.6814 19.271 24.8425 19.484 24.7439 19.6491C24.6622 19.5868 24.7133 19.5008 24.697 19.4354C24.6796 19.5008 24.7307 19.5849 24.6489 19.6497Z" fill="#53A3D6"/>
<path d="M27.4896 19.3276C27.5774 19.3544 27.5726 19.4217 27.5876 19.4802C27.5684 19.6085 27.4854 19.6926 27.3249 19.664C27.1362 19.6303 27.1079 19.5033 27.1326 19.3644L27.2528 19.4011C27.4031 19.5282 27.4229 19.3793 27.4896 19.3276Z" fill="#2B4CA3"/>
<path d="M18.2175 19.2534C18.081 19.2746 18.1417 19.3661 18.1309 19.4284C18.1225 19.5001 18.1189 19.5723 18.1201 19.6445C18.0654 19.4814 18.1081 19.3157 18.1014 19.1519C18.1014 19.1046 18.1237 19.0728 18.1904 19.0653C18.3208 19.0504 18.423 19.0778 18.491 19.1774L18.488 19.1743C18.4789 19.2254 18.5072 19.2839 18.4423 19.3232C18.4314 19.3101 18.4176 19.3001 18.4021 19.294C18.3865 19.288 18.3698 19.286 18.3533 19.2883C18.3342 19.2731 18.3123 19.2621 18.2889 19.2561C18.2655 19.2501 18.2412 19.2492 18.2175 19.2534Z" fill="#3498D3"/>
<path d="M17.082 19.5103C17.1115 19.448 17.0339 19.3502 17.174 19.3271C17.2413 19.3788 17.2642 19.5302 17.4144 19.4L17.5346 19.3633C17.5472 19.4244 17.5371 19.4882 17.5064 19.542C17.4866 19.5836 17.4552 19.618 17.4163 19.6407C17.3774 19.6635 17.3327 19.6736 17.2882 19.6697C17.1656 19.6647 17.1007 19.6068 17.082 19.5103Z" fill="#2C52A7"/>
<path d="M13.8337 19.4354C13.7736 19.3868 13.8337 19.2835 13.7207 19.2567C13.7285 19.1359 13.7916 19.0512 13.9509 19.058C14.121 19.0661 14.1703 19.1645 14.1649 19.2903C14.0381 19.2903 14.1096 19.403 14.0417 19.4354C13.9629 19.4111 14.0038 19.3258 13.9395 19.2934C13.8794 19.3295 13.9221 19.4161 13.8337 19.4354Z" fill="#3299D3"/>
<path d="M16.5547 19.3296C16.4633 19.2405 16.3365 19.3426 16.2379 19.2897C16.2379 19.2156 16.1778 19.1203 16.2824 19.0761C16.3228 19.0586 16.3668 19.0519 16.4104 19.0566C16.454 19.0613 16.4957 19.0772 16.5318 19.1029C16.6148 19.1701 16.6298 19.2486 16.5547 19.3296Z" fill="#2E97D2"/>
<path d="M28.8469 19.3344C28.8346 19.3187 28.8188 19.3064 28.8009 19.2985C28.783 19.2906 28.7635 19.2873 28.7441 19.2889C28.7483 19.1569 28.8042 19.0529 28.9846 19.0591C29.1517 19.0653 29.2016 19.1656 29.198 19.2908C29.0723 19.2908 29.1379 19.4004 29.0777 19.4347C29.065 19.4324 29.0533 19.4262 29.044 19.4168C29.0348 19.4075 29.0285 19.3955 29.0261 19.3823C29.0122 19.2416 28.9233 19.3026 28.8469 19.3344Z" fill="#2E98D3"/>
<path d="M21.228 19.2891C21.0681 19.3146 21.1889 19.4454 21.1125 19.5021C21.1095 19.4161 21.1125 19.3302 21.1035 19.2449C21.0945 19.1328 21.1101 19.0468 21.2875 19.0636C21.4648 19.0804 21.5111 19.1577 21.4606 19.2897L21.356 19.2854C21.3115 19.2499 21.2724 19.2685 21.228 19.2891Z" fill="#2D97D2"/>
<path d="M25.2877 19.2902L25.1801 19.2834C25.1356 19.2504 25.0953 19.2703 25.0545 19.289C24.8928 19.3145 25.016 19.4466 24.9373 19.5026C24.9373 19.4167 24.9373 19.3301 24.9282 19.2448C24.9174 19.1308 24.9361 19.0473 25.1128 19.0635C25.2895 19.0797 25.3382 19.157 25.2877 19.2902Z" fill="#2F97D2"/>
<path d="M16.7835 19.2534C16.7872 19.3779 16.7126 19.5405 16.9819 19.5449C16.9901 19.5449 16.9982 19.5468 17.0056 19.5504C17.013 19.5541 17.0196 19.5593 17.0249 19.5658C17.0301 19.5724 17.034 19.58 17.0361 19.5882C17.0382 19.5964 17.0386 19.605 17.0372 19.6134C17.0336 19.6514 16.9981 19.6626 16.9603 19.6676C16.7902 19.69 16.688 19.6208 16.6513 19.4907C16.6423 19.4242 16.6423 19.3567 16.6513 19.2901C16.6856 19.2571 16.721 19.221 16.7835 19.2534Z" fill="#305DAE"/>
<path d="M30.9434 19.4054L30.8689 19.3276C30.8154 19.3531 30.7991 19.3126 30.7733 19.2902C30.7733 19.2846 30.7667 19.2778 30.7679 19.2722C30.7835 19.2024 30.694 19.094 30.834 19.071C30.9542 19.0511 30.9398 19.17 30.9849 19.2273C30.9988 19.2519 31.0095 19.2783 31.0167 19.3058C31.0769 19.2379 31.0348 19.1744 31.0564 19.119C31.0781 19.0635 31.1165 19.0311 31.1688 19.1015C31.1015 19.1781 31.149 19.2678 31.1261 19.3506C31.0937 19.4335 31.0155 19.4117 30.9434 19.4054Z" fill="#2A90CE"/>
<path d="M25.6017 19.3657C25.6979 19.3925 25.6714 19.4778 25.7219 19.537C25.8175 19.5146 25.8103 19.3695 25.9467 19.4006C25.9597 19.4252 25.9672 19.4525 25.9687 19.4805C25.9703 19.5085 25.9659 19.5365 25.9557 19.5625C25.9094 19.6746 25.7934 19.6715 25.6804 19.6678C25.5554 19.6634 25.6041 19.5825 25.5987 19.5301C25.5958 19.4753 25.5968 19.4204 25.6017 19.3657Z" fill="#2946A0"/>
<path d="M17.7164 19.3611C17.7195 19.386 17.7219 19.4103 17.7261 19.4352C17.7339 19.4782 17.7453 19.5343 17.7976 19.5399C17.8775 19.5473 17.8733 19.4776 17.8914 19.4346C17.8993 19.4108 17.9045 19.3862 17.907 19.3611C18.0621 19.3281 18.008 19.4172 18.0044 19.477C18.0044 19.5804 17.9611 19.6595 17.8192 19.6669C17.69 19.6732 17.6299 19.614 17.6257 19.5106C17.6305 19.4527 17.5367 19.3493 17.7164 19.3611Z" fill="#294BA3"/>
<path d="M30.2336 19.3613C30.1807 19.4591 29.9715 19.4728 30.0238 19.6303C30.0292 19.6472 29.986 19.664 29.9529 19.6584C29.9042 19.6503 29.9018 19.6173 29.9024 19.5867C29.9024 19.4753 29.9096 19.3638 29.9132 19.2523C29.9243 19.2424 29.9375 19.2354 29.9518 19.232C29.966 19.2287 29.9809 19.229 29.995 19.233C30.0213 19.253 30.0517 19.2664 30.0838 19.2721C30.1159 19.2778 30.1489 19.2757 30.1801 19.266C30.2444 19.2803 30.2739 19.3077 30.2336 19.3613Z" fill="#2D62B1"/>
<path d="M23.5296 19.2895H23.4317C23.4455 19.2104 23.3409 19.0921 23.5224 19.0684C23.6883 19.0466 23.814 19.0952 23.856 19.2465C23.8747 19.3126 23.9005 19.3767 23.8518 19.4415C23.8248 19.3867 23.8729 19.2926 23.7406 19.292C23.6703 19.2839 23.6006 19.231 23.5296 19.2895Z" fill="#2999D4"/>
<path d="M24.295 19.2866C24.3929 19.3109 24.4182 19.3881 24.4579 19.451C24.4975 19.5139 24.4711 19.5712 24.4158 19.6211C24.3605 19.6709 24.2709 19.6759 24.1874 19.6634C24.1363 19.6559 24.1062 19.6317 24.1176 19.5868C24.1291 19.542 24.1447 19.5133 24.2072 19.5357C24.2697 19.5582 24.3124 19.5551 24.3274 19.4984C24.3425 19.4417 24.2553 19.4454 24.2385 19.4056C24.2048 19.3489 24.224 19.3097 24.295 19.2866Z" fill="#3351A5"/>
<path d="M20.8159 19.6496C20.7558 19.5505 20.8021 19.4453 20.79 19.3438C20.7927 19.3017 20.788 19.2595 20.7762 19.2192C20.7522 19.1731 20.6157 19.1476 20.7113 19.0853C20.7906 19.0336 20.9151 19.0529 21.0118 19.076C21.078 19.0915 21.0792 19.1607 21.0052 19.1794C20.9313 19.198 20.9295 19.2447 20.9157 19.2902C20.8063 19.3942 20.9469 19.5481 20.8159 19.6496Z" fill="#2B9FD8"/>
<path d="M29.5082 19.2541L29.531 19.3437L29.5911 19.2466C29.7155 19.2503 29.6777 19.3089 29.6512 19.3668C29.6404 19.4683 29.6458 19.6402 29.5496 19.6383C29.3946 19.6383 29.4727 19.4608 29.4144 19.3711C29.3831 19.2989 29.4 19.2528 29.5082 19.2541Z" fill="#3667B3"/>
<path d="M26.1655 19.4685C26.2148 19.5744 26.2671 19.5719 26.3224 19.4722C26.3537 19.4373 26.3399 19.3477 26.4426 19.4018C26.4625 19.4598 26.4312 19.5108 26.4132 19.5644C26.3861 19.6416 26.3206 19.6709 26.2275 19.6696C26.1893 19.6735 26.1511 19.6636 26.1192 19.6416C26.0873 19.6196 26.0637 19.5868 26.0525 19.5488C26.0426 19.4871 26.0404 19.4243 26.0459 19.362C26.1902 19.3196 26.1445 19.4236 26.1655 19.4685Z" fill="#2C4AA2"/>
<path d="M18.6316 19.5046C18.6247 19.4332 18.6223 19.3614 18.6244 19.2897C18.6322 19.2 18.5787 19.1726 18.4844 19.1745L18.4874 19.1776C18.5234 19.0811 18.7987 19.0095 18.8715 19.0817C18.9051 19.116 18.9099 19.1708 18.8378 19.1807C18.7507 19.1926 18.7645 19.243 18.7507 19.2904C18.6575 19.3414 18.7825 19.4759 18.6316 19.5046Z" fill="#3498D3"/>
<path d="M21.7655 19.5089C21.6855 19.3949 21.7264 19.2822 21.7817 19.1751C21.831 19.0791 21.932 19.0461 22.0558 19.058C22.1099 19.0636 22.1339 19.0872 22.1309 19.1308C22.1309 19.1626 22.1249 19.1931 22.0708 19.1831C21.9199 19.152 21.9097 19.2591 21.8604 19.3283C21.7841 19.3731 21.8508 19.4684 21.7655 19.5089Z" fill="#3497D2"/>
<path d="M27.6765 19.3986C27.6765 19.3201 27.6699 19.241 27.6705 19.1626C27.6705 19.1227 27.6591 19.0729 27.7349 19.0654C27.7914 19.0604 27.834 19.0741 27.8551 19.124C27.8821 19.1918 27.911 19.2597 27.9386 19.3276C27.9142 19.3519 27.8817 19.3656 27.8479 19.3656L27.798 19.398C27.7559 19.3233 27.7168 19.4185 27.6765 19.3986Z" fill="#3A92CE"/>
<path d="M20.3699 19.3985C20.391 19.4801 20.4228 19.5548 20.5503 19.5449C20.6104 19.5399 20.629 19.5748 20.6302 19.6109C20.6302 19.6601 20.5809 19.6644 20.537 19.6688C20.3747 19.6844 20.284 19.6127 20.2509 19.4925C20.2419 19.426 20.2419 19.3585 20.2509 19.292C20.3603 19.2696 20.3363 19.3555 20.3699 19.3985Z" fill="#2F50A5"/>
<path d="M28.4362 19.2913C28.4416 19.4159 28.4212 19.5504 28.649 19.5461C28.7019 19.5461 28.7007 19.5803 28.7001 19.6083C28.6995 19.6364 28.667 19.6613 28.6285 19.665C28.4771 19.6793 28.3665 19.6413 28.3364 19.5037C28.3162 19.4524 28.3111 19.396 28.322 19.3418C28.325 19.2795 28.3647 19.254 28.4362 19.2913Z" fill="#2D4FA5"/>
<path d="M13.6348 19.3346C13.6312 19.3969 13.5843 19.4336 13.5146 19.4511C13.4611 19.4641 13.425 19.4828 13.419 19.537C13.413 19.5912 13.4574 19.6722 13.342 19.6535C13.2573 19.6398 13.2964 19.5607 13.2946 19.5102C13.2946 19.4243 13.3018 19.3383 13.3066 19.2524C13.3176 19.2422 13.3309 19.2351 13.3453 19.2317C13.3597 19.2283 13.3747 19.2288 13.3889 19.2331C13.4151 19.2528 13.4453 19.266 13.4772 19.2717C13.5091 19.2775 13.5418 19.2755 13.5729 19.2661C13.6167 19.2742 13.6546 19.286 13.6348 19.3346Z" fill="#3068B4"/>
<path d="M28.437 19.2915C28.2681 19.3195 28.3769 19.4359 28.3372 19.5057C28.2555 19.3456 28.2927 19.2018 28.4448 19.089C28.5121 19.0386 28.6426 19.0212 28.6852 19.089C28.7586 19.1999 28.6173 19.17 28.5518 19.1856C28.4863 19.2012 28.4857 19.2609 28.437 19.2915Z" fill="#379BD4"/>
<path d="M30.2334 19.3612C30.228 19.317 30.2051 19.2871 30.1444 19.289C30.1026 19.2715 30.0587 19.2598 30.014 19.2541H29.913C29.913 19.1918 29.8589 19.1077 29.9593 19.076C30.0392 19.0504 30.1438 19.0454 30.2093 19.1108C30.2845 19.185 30.3151 19.2715 30.2334 19.3612Z" fill="#3399D3"/>
<path d="M19.6059 19.29C19.6335 19.3915 19.5367 19.5441 19.7802 19.5585C19.8162 19.5585 19.8259 19.64 19.7387 19.6618C19.5391 19.711 19.4718 19.6513 19.4863 19.4314C19.5121 19.2838 19.5121 19.2838 19.6059 19.29Z" fill="#3059AB"/>
<path d="M19.1098 19.6456C19.0557 19.4825 19.099 19.3162 19.0894 19.1517C19.0894 19.105 19.1026 19.0633 19.1729 19.0639C19.2529 19.0639 19.3424 19.0396 19.4098 19.0864C19.4386 19.1063 19.438 19.1598 19.3797 19.1748C19.3214 19.1897 19.2595 19.1785 19.215 19.2196C19.1146 19.2769 19.206 19.3641 19.1663 19.4308C19.1519 19.5036 19.2048 19.5877 19.1098 19.6456Z" fill="#33A4DA"/>
<path d="M21.7656 19.5087C21.7969 19.4465 21.7139 19.3481 21.8594 19.3281C21.878 19.4377 21.8792 19.5592 22.0782 19.5455C22.1317 19.5417 22.1299 19.5785 22.1305 19.6078C22.1311 19.637 22.1004 19.6619 22.0614 19.6663C21.9111 19.6813 21.7993 19.6451 21.7656 19.5087Z" fill="#2E49A1"/>
<path d="M24.2956 19.2866L24.2421 19.4056C24.1219 19.3464 24.0858 19.2642 24.1393 19.1564C24.157 19.121 24.1851 19.0923 24.2196 19.0746C24.2541 19.0569 24.2932 19.0511 24.3311 19.058C24.3816 19.0612 24.4441 19.058 24.4435 19.1203C24.4435 19.1658 24.4327 19.1957 24.3509 19.1857C24.2361 19.1695 24.256 19.2299 24.2956 19.2866Z" fill="#3C96D0"/>
<path d="M14.5996 19.289H14.4794C14.462 19.2722 14.4391 19.2629 14.4154 19.2629C14.3916 19.2629 14.3687 19.2722 14.3513 19.289H14.251C14.2684 19.2031 14.1554 19.0636 14.3856 19.0654C14.5689 19.0661 14.6369 19.1427 14.5996 19.289Z" fill="#2B99D4"/>
<path d="M13.3977 19.2529H13.3034C13.3034 19.1906 13.2487 19.1065 13.3532 19.0741C13.3916 19.0593 13.4328 19.054 13.4734 19.0589C13.5141 19.0638 13.553 19.0786 13.5871 19.1022C13.661 19.1676 13.7073 19.2454 13.6321 19.3351C13.622 19.3194 13.6079 19.3068 13.5914 19.2988C13.5749 19.2908 13.5565 19.2876 13.5384 19.2896C13.4933 19.2766 13.4536 19.2448 13.3977 19.2529Z" fill="#2998D4"/>
<path d="M30.9434 19.4055C30.9722 19.337 31.0582 19.4105 31.0954 19.3638C31.1003 19.3584 31.1061 19.3541 31.1126 19.3511C31.1192 19.3482 31.1262 19.3467 31.1333 19.3467C31.1404 19.3467 31.1474 19.3482 31.154 19.3511C31.1605 19.3541 31.1663 19.3584 31.1712 19.3638C31.1794 19.4064 31.1814 19.4501 31.1772 19.4933C31.1646 19.5506 31.2373 19.6453 31.1129 19.6584C30.9999 19.6702 31.0113 19.5699 30.9794 19.5126C30.9643 19.4781 30.9523 19.4423 30.9434 19.4055Z" fill="#2A52A7"/>
<path d="M20.3702 19.3987C20.3215 19.3694 20.3167 19.3065 20.25 19.2922C20.265 19.1427 20.3474 19.0499 20.5451 19.0592C20.5806 19.0592 20.6257 19.0636 20.6305 19.1028C20.6353 19.1421 20.6107 19.1745 20.5542 19.1745C20.3594 19.1745 20.387 19.299 20.3702 19.3987Z" fill="#2B97D2"/>
<path d="M27.8457 19.3654C27.8561 19.3511 27.87 19.34 27.886 19.3333C27.902 19.3266 27.9194 19.3246 27.9365 19.3274C27.9395 19.3301 27.9416 19.3337 27.9427 19.3377C27.9438 19.3417 27.9437 19.3459 27.9425 19.3498C28.0302 19.3417 28.1312 19.3149 28.0964 19.447C28.0789 19.513 28.1102 19.5834 28.0789 19.6494C27.8457 19.6425 27.9046 19.4706 27.8457 19.3654Z" fill="#2C51A6"/>
<path d="M28.0778 19.6497C28.0724 19.6084 28.071 19.5667 28.0736 19.5251C28.0875 19.4348 28.0598 19.3713 27.9414 19.3526C28.0087 19.2953 27.9648 19.223 27.9781 19.1589C27.9847 19.1246 27.9679 19.0779 28.0316 19.0723C28.0953 19.0667 28.1091 19.1047 28.1055 19.1433C28.0899 19.3102 28.1548 19.4859 28.0778 19.6497Z" fill="#3A92CE"/>
<path d="M29.6519 19.3669C29.6417 19.3233 29.6519 19.2716 29.5918 19.2467C29.5988 19.2046 29.6082 19.163 29.62 19.1221C29.6369 19.0742 29.6802 19.0599 29.7403 19.0642C29.7501 19.0642 29.7598 19.0663 29.7688 19.0702C29.7778 19.0742 29.786 19.08 29.7928 19.0874C29.7996 19.0947 29.8049 19.1034 29.8083 19.1129C29.8118 19.1224 29.8134 19.1325 29.813 19.1427C29.8172 19.2274 29.8172 19.3121 29.819 19.3968C29.7685 19.4074 29.7403 19.3607 29.6928 19.3638H29.6735L29.6519 19.3669Z" fill="#3B9CD4"/>
<path d="M16.0523 19.2537C16.0241 19.2537 15.9844 19.2481 15.9694 19.2612C15.917 19.3008 15.8539 19.3226 15.7891 19.3235C15.7906 19.2932 15.7968 19.2633 15.8077 19.235C15.842 19.1728 15.7855 19.0482 15.9405 19.065C16.0716 19.08 16.0505 19.1746 16.0523 19.2537Z" fill="#3199D3"/>
<path d="M14.7894 19.2871C14.7821 19.2629 14.7729 19.2394 14.7618 19.2168C14.7359 19.1725 14.6145 19.1794 14.6608 19.099C14.6987 19.0368 14.781 19.066 14.8411 19.066C14.9012 19.066 14.9842 19.0324 15.0215 19.1015C15.0635 19.1837 14.9409 19.1719 14.9157 19.2174C14.9048 19.24 14.8958 19.2636 14.8886 19.2878C14.8742 19.2987 14.8568 19.3046 14.8389 19.3045C14.8211 19.3044 14.8037 19.2983 14.7894 19.2871Z" fill="#289DD7"/>
<path d="M26.9473 19.3614C26.9522 19.2636 26.8914 19.0842 26.9924 19.0879C27.1415 19.0929 27.0525 19.2586 27.061 19.3526C27.0694 19.4467 27.0988 19.5494 27.0441 19.6435C26.9317 19.57 27.0477 19.4411 26.9473 19.3614Z" fill="#1E88CB"/>
<path d="M16.7831 19.2534L16.6484 19.2902C16.6647 19.1501 16.7404 19.0573 16.9255 19.0566C16.9766 19.0566 17.0379 19.0566 17.0373 19.1189C17.0373 19.1625 17.0055 19.188 16.9502 19.1775C16.866 19.1619 16.836 19.2242 16.7831 19.2534Z" fill="#32A2D9"/>
<path d="M23.9376 19.3302C23.9503 19.2411 23.8547 19.0898 23.9978 19.0811C24.118 19.0736 24.0579 19.2324 24.0579 19.314C24.0579 19.4261 24.1144 19.5451 24.0266 19.6522C23.9172 19.56 24.0266 19.4267 23.9376 19.3302Z" fill="#3989C8"/>
<path d="M30.5897 19.2535C30.5535 19.282 30.5107 19.3003 30.4656 19.3066C30.4205 19.3128 30.3746 19.3067 30.3324 19.289C30.3324 19.2709 30.3294 19.2491 30.3397 19.2354C30.3859 19.1781 30.3222 19.0486 30.4779 19.0667C30.609 19.0804 30.5801 19.1794 30.5897 19.2535Z" fill="#2F9CD5"/>
<path d="M29.5075 19.2541C29.4828 19.262 29.4611 19.2774 29.445 19.2983C29.4289 19.3192 29.4193 19.3446 29.4173 19.3712L29.3866 19.3681C29.3696 19.368 29.3528 19.3643 29.3372 19.3572C29.3216 19.3502 29.3075 19.3399 29.2959 19.327C29.2959 19.3021 29.2821 19.2759 29.2899 19.2535C29.3127 19.1875 29.2268 19.0667 29.3897 19.0667C29.5231 19.071 29.4894 19.1812 29.5075 19.2541Z" fill="#2D96D2"/>
<path d="M19.9825 19.4397C19.9825 19.5163 20.0258 19.5524 20.1208 19.5443C20.1809 19.5393 20.1989 19.5692 20.1947 19.6128C20.1905 19.6564 20.155 19.6552 20.1171 19.662C19.8911 19.7019 19.8545 19.662 19.8767 19.3998C19.8861 19.3948 19.8964 19.3919 19.9069 19.3913C19.9175 19.3906 19.928 19.3922 19.938 19.3959C19.9479 19.3997 19.957 19.4055 19.9646 19.413C19.9723 19.4205 19.9784 19.4296 19.9825 19.4397Z" fill="#2E469F"/>
<path d="M19.1094 19.6459L19.1262 19.4023C19.1344 19.3985 19.1433 19.3965 19.1523 19.3963C19.1614 19.396 19.1703 19.3977 19.1787 19.4011C19.1871 19.4045 19.1948 19.4097 19.2012 19.4162C19.2077 19.4227 19.2128 19.4305 19.2164 19.4391C19.22 19.4976 19.235 19.5468 19.327 19.5431C19.3769 19.5431 19.434 19.5369 19.431 19.6054C19.4274 19.6851 19.3534 19.6627 19.3023 19.6627C19.2368 19.6608 19.1725 19.6508 19.1094 19.6459Z" fill="#2E47A0"/>
<path d="M26.4444 19.4017C26.3777 19.3936 26.3645 19.4503 26.3242 19.4721C26.3242 19.3625 26.3242 19.2535 26.3242 19.1439C26.3242 19.1065 26.3302 19.0679 26.3915 19.0691C26.4528 19.0704 26.4516 19.1115 26.4516 19.147C26.4504 19.2317 26.4468 19.317 26.4444 19.4017Z" fill="#3286C7"/>
<path d="M17.7163 19.361C17.5991 19.3741 17.646 19.4576 17.6226 19.5105C17.5624 19.386 17.6051 19.2583 17.5973 19.1319C17.5966 19.1235 17.5976 19.115 17.6004 19.1071C17.6031 19.0992 17.6075 19.0921 17.6133 19.0861C17.619 19.0802 17.6259 19.0756 17.6336 19.0728C17.6412 19.0699 17.6493 19.0688 17.6574 19.0696C17.7223 19.0658 17.7223 19.1082 17.7229 19.1437C17.7217 19.2172 17.7181 19.29 17.7163 19.361Z" fill="#1C83C8"/>
<path d="M21.6717 19.3611C21.6748 19.4353 21.6784 19.5087 21.6802 19.5829C21.6802 19.6215 21.6748 19.6588 21.6134 19.6613C21.5521 19.6638 21.5449 19.624 21.5449 19.5866C21.5449 19.4882 21.5503 19.3898 21.5527 19.2908C21.6585 19.2366 21.6471 19.3194 21.6717 19.3611Z" fill="#3361B0"/>
<path d="M18.0016 19.479C17.9836 19.4317 18.0016 19.365 17.9043 19.3632C17.8986 19.3027 17.8961 19.242 17.897 19.1813C17.9001 19.139 17.8694 19.0692 17.9626 19.0711C18.0323 19.0711 18.0227 19.1334 18.0227 19.172C18.0143 19.2741 18.0497 19.3787 18.0016 19.479Z" fill="#1E88CB"/>
<path d="M26.1657 19.4684C26.12 19.4386 26.1429 19.3563 26.0485 19.3638C26.0617 19.2654 25.971 19.0966 26.1086 19.0885C26.2186 19.0823 26.1423 19.2635 26.1687 19.3595C26.1729 19.3957 26.1719 19.4325 26.1657 19.4684Z" fill="#1E85C9"/>
<path d="M19.9827 19.4395L19.877 19.3997C19.877 19.325 19.877 19.2508 19.877 19.1761C19.9371 19.1499 19.9809 19.1537 19.9803 19.2228C19.9846 19.2412 19.9924 19.2586 20.0032 19.2739C20.0465 19.3162 20.1769 19.2583 20.1625 19.3617C20.1492 19.4476 20.0272 19.3885 19.9827 19.4395Z" fill="#2474BD"/>
<path d="M19.2144 19.4391L19.1242 19.4024C19.12 19.347 19.12 19.2914 19.1242 19.2361C19.1327 19.1775 19.1717 19.1844 19.212 19.2199C19.218 19.2379 19.218 19.2597 19.2312 19.2728C19.2727 19.317 19.4056 19.256 19.3929 19.3594C19.3833 19.4472 19.2607 19.3899 19.2144 19.4391Z" fill="#2474BD"/>
<path d="M29.6903 19.3611C29.7901 19.2216 29.7702 19.3941 29.8165 19.3941C29.8003 19.4826 29.8983 19.6432 29.7636 19.6432C29.6163 19.6432 29.7239 19.4832 29.6915 19.3972C29.689 19.3854 29.6886 19.3731 29.6903 19.3611Z" fill="#355FAE"/>
<path d="M25.5021 19.3264C25.5021 19.4062 25.5099 19.4865 25.5093 19.5668C25.5093 19.6067 25.5243 19.6627 25.4419 19.6596C25.3596 19.6565 25.374 19.6054 25.374 19.5637C25.374 19.5083 25.3788 19.4529 25.3818 19.3968C25.4203 19.3688 25.3518 19.2212 25.5021 19.3264Z" fill="#335EAE"/>
<path d="M18.6318 19.5045C18.7171 19.451 18.5921 19.3177 18.752 19.2903C18.7595 19.3645 18.7613 19.4393 18.7574 19.5139C18.7508 19.5643 18.8175 19.6615 18.6895 19.6546C18.5747 19.6484 18.6414 19.5581 18.6318 19.5045Z" fill="#1F54A9"/>
<path d="M27.6754 19.3988C27.7151 19.3403 27.7548 19.3471 27.7957 19.3988C27.7752 19.4866 27.8732 19.6479 27.7356 19.6479C27.5979 19.6479 27.6947 19.486 27.6754 19.3988Z" fill="#3960AE"/>
<path d="M19.6054 19.2903C19.4851 19.2903 19.5483 19.398 19.4851 19.4316C19.4851 19.3469 19.4773 19.2622 19.4785 19.1775C19.4785 19.1333 19.4581 19.0667 19.5489 19.0692C19.6396 19.0717 19.606 19.1389 19.609 19.1819C19.611 19.218 19.6098 19.2543 19.6054 19.2903Z" fill="#2F9AD4"/>
<path d="M19.9803 19.223C19.9683 19.2068 19.9525 19.194 19.9344 19.1858C19.9163 19.1776 19.8965 19.1744 19.8769 19.1763C19.8679 19.1271 19.8498 19.0698 19.9406 19.066C20.0199 19.0629 20.1101 19.0392 20.1762 19.0884C20.2045 19.109 20.2033 19.1626 20.1432 19.1756C20.0831 19.1887 20.0229 19.1788 19.9803 19.223Z" fill="#32A4DA"/>
<path d="M24.6504 19.6495C24.6564 19.5324 24.6618 19.4159 24.6696 19.2994C24.6696 19.292 24.6877 19.2857 24.7436 19.2446C24.7436 19.401 24.7436 19.5249 24.7436 19.6488L24.6504 19.6495Z" fill="#2145A0"/>
<path d="M25.5012 19.3265C25.3924 19.2692 25.4315 19.3856 25.381 19.3969C25.381 19.3122 25.375 19.2275 25.375 19.1427C25.375 19.1048 25.3822 19.0668 25.4429 19.0674C25.5036 19.068 25.5072 19.1079 25.5072 19.1446C25.5072 19.205 25.5036 19.2654 25.5012 19.3265Z" fill="#3497D2"/>
<path d="M22.3114 19.2891C22.315 19.3875 22.3204 19.4859 22.3228 19.5843C22.3228 19.6148 22.3228 19.651 22.2741 19.6559C22.214 19.6622 22.202 19.6217 22.2032 19.5837C22.2032 19.4853 22.2116 19.3869 22.2158 19.2885C22.2295 19.2775 22.2464 19.2716 22.2637 19.2717C22.281 19.2718 22.2978 19.278 22.3114 19.2891Z" fill="#1E54AA"/>
<path d="M20.8164 19.6498C20.8675 19.5327 20.7407 19.382 20.9156 19.2886C20.9186 19.387 20.9228 19.4848 20.9252 19.5832C20.9264 19.6461 20.8963 19.6766 20.8164 19.6498Z" fill="#215BAE"/>
<path d="M21.672 19.3612C21.6329 19.3376 21.6203 19.2828 21.5518 19.2909C21.562 19.2149 21.488 19.081 21.6119 19.0791C21.7357 19.0773 21.6582 19.2155 21.6804 19.289C21.6823 19.3134 21.6794 19.338 21.672 19.3612Z" fill="#309AD4"/>
<path d="M14.7907 19.2871H14.8887C14.8923 19.3861 14.8971 19.4852 14.8995 19.5836C14.8995 19.6141 14.8995 19.6502 14.8502 19.6552C14.7901 19.662 14.7787 19.6209 14.7793 19.5829C14.7811 19.4858 14.7865 19.3861 14.7907 19.2871Z" fill="#1F55AA"/>
<path d="M30.7746 19.29L30.8702 19.3274C30.8702 19.419 30.8744 19.5105 30.8744 19.6014C30.8752 19.608 30.8746 19.6147 30.8728 19.621C30.8709 19.6274 30.8679 19.6333 30.8638 19.6384C30.8597 19.6434 30.8546 19.6476 30.8489 19.6506C30.8432 19.6535 30.8369 19.6553 30.8305 19.6556C30.7819 19.6619 30.7656 19.632 30.7656 19.6002C30.7662 19.4968 30.771 19.3934 30.7746 19.29Z" fill="#1E4FA7"/>
<path d="M22.5288 19.6515C22.5805 19.5469 22.4446 19.4024 22.6232 19.3264C22.6232 19.4111 22.6298 19.4958 22.6322 19.5805C22.634 19.6397 22.6111 19.6758 22.5288 19.6515Z" fill="#2253A9"/>
<path d="M29.2939 19.3269C29.3111 19.3258 29.3283 19.3289 29.3441 19.336C29.3599 19.3432 29.3738 19.3541 29.3847 19.368C29.3654 19.4639 29.4231 19.6507 29.3426 19.6389C29.2001 19.6177 29.3143 19.4595 29.2897 19.363C29.2888 19.3508 29.2902 19.3385 29.2939 19.3269Z" fill="#1D4DA5"/>
<path d="M23.9389 19.3301C24.0904 19.4148 23.999 19.5456 24.0273 19.6527C23.9449 19.6739 23.9275 19.6359 23.9299 19.5792L23.9389 19.3301Z" fill="#2045A0"/>
<path d="M22.9389 19.3999C23.1048 19.3999 22.9828 19.5382 23.0651 19.578C23.0653 19.5979 23.058 19.617 23.0447 19.6313C23.0314 19.6456 23.0133 19.654 22.9942 19.6546C22.9269 19.6602 22.9395 19.6123 22.9383 19.5799C22.9365 19.5201 22.9383 19.4603 22.9389 19.3999Z" fill="#21429E"/>
<path d="M26.9477 19.3613C27.1143 19.4236 26.9988 19.5525 27.0445 19.6441C26.9844 19.6696 26.9411 19.6603 26.9399 19.5999C26.9375 19.5214 26.9447 19.4423 26.9477 19.3613Z" fill="#214AA3"/>
<path d="M31.397 19.6529C31.4451 19.5738 31.3117 19.4455 31.495 19.4038C31.4391 19.4792 31.617 19.6193 31.397 19.6529Z" fill="#24449F"/>
<path d="M31.172 19.3612H31.0963C31.1185 19.274 31.0133 19.1613 31.1696 19.0996L31.172 19.3612Z" fill="#1A83C7"/>
<path d="M15.2491 19.4011C15.415 19.4503 15.3008 19.5699 15.341 19.6502C15.1415 19.6104 15.2791 19.4858 15.2491 19.4011Z" fill="#2645A0"/>
<path d="M15.5562 19.6502C15.5965 19.5693 15.4823 19.4503 15.6476 19.4011C15.6176 19.4858 15.751 19.6104 15.5562 19.6502Z" fill="#2646A0"/>
<path d="M22.3123 19.2889H22.2168C22.2114 19.2148 22.1687 19.0821 22.2528 19.0853C22.3767 19.089 22.3087 19.2136 22.3123 19.2889Z" fill="#1C92D2"/>
<path d="M10.7041 17.088C10.6861 17.8803 10.4252 18.6289 9.77542 19.2616C8.71149 20.2974 7.09337 20.3279 5.96513 19.3382C4.63432 18.1699 4.63072 15.9751 5.95852 14.8017C7.14747 13.7529 8.88521 13.8495 9.92569 15.0241C10.4607 15.6301 10.6897 16.3176 10.7041 17.088Z" fill="#FEFEFE"/>
<path d="M15.8321 16.3095C15.3897 16.3095 14.9479 16.3058 14.5055 16.3095C14.3756 16.3095 14.3426 16.2765 14.3438 16.1732C14.3498 15.6886 14.3498 15.2043 14.3438 14.7201C14.3438 14.6143 14.3786 14.5838 14.5073 14.585C15.3542 14.5894 16.2011 14.585 17.0481 14.5887C17.562 14.5925 17.8848 14.841 17.9497 15.2645C17.9728 15.3996 17.9728 15.5379 17.9497 15.673C17.8782 16.0536 17.5566 16.2958 17.0925 16.3052C16.6718 16.317 16.2516 16.3095 15.8321 16.3095Z" fill="#FEFEFE"/>
<path d="M14.3535 19.2883C14.3673 19.2503 14.3367 19.185 14.407 19.1806C14.4936 19.1744 14.4815 19.2391 14.4815 19.2877C14.4395 19.3133 14.3968 19.3512 14.3535 19.2883Z" fill="#CBE2F2"/>
<path d="M28.8457 19.3344C28.8998 19.2858 28.8685 19.1507 28.9918 19.1874C29.115 19.2242 29.0591 19.3475 29.0753 19.4365C29.0531 19.4876 29.0356 19.5679 28.9551 19.5443C28.8493 19.5119 28.8643 19.411 28.8457 19.3344Z" fill="#F3F7FB"/>
<path d="M21.2266 19.289C21.2476 19.2542 21.2067 19.1888 21.2746 19.1832C21.3528 19.1763 21.357 19.2349 21.3546 19.2853C21.3131 19.3102 21.271 19.3613 21.2266 19.289Z" fill="#DFEDF6"/>
<path d="M13.832 19.4353C13.8555 19.3468 13.7948 19.1918 13.9372 19.1924C14.0797 19.193 14.0154 19.3475 14.04 19.4353C14.0238 19.4801 14.0124 19.5387 13.948 19.5443C13.8639 19.5517 13.8579 19.482 13.832 19.4353Z" fill="#FAFCFD"/>
<path d="M25.0547 19.289C25.0751 19.2541 25.0343 19.1894 25.101 19.1831C25.1791 19.175 25.1833 19.233 25.1803 19.2834C25.14 19.3077 25.1016 19.3613 25.0547 19.289Z" fill="#DEECF6"/>
<path d="M18.2168 19.2537C18.2318 19.2225 18.2276 19.1696 18.2901 19.182C18.3526 19.1945 18.3502 19.2443 18.3502 19.2885C18.2817 19.3396 18.2312 19.344 18.2168 19.2537Z" fill="#D5E7F4"/>
<path d="M27.4907 19.3274C27.4905 19.3524 27.4874 19.3773 27.4817 19.4015C27.4637 19.4601 27.4559 19.5423 27.3681 19.5423C27.2804 19.5423 27.2713 19.4607 27.2539 19.4009C27.2569 19.3892 27.2593 19.3774 27.2611 19.3654C27.2653 19.2938 27.2575 19.1997 27.3585 19.1854C27.4595 19.1711 27.4499 19.2763 27.4907 19.3274Z" fill="#F4F7FB"/>
<path d="M17.4144 19.3998C17.391 19.4621 17.382 19.5586 17.2882 19.5405C17.174 19.5181 17.1878 19.4091 17.1758 19.3269C17.2118 19.2727 17.2052 19.1656 17.305 19.1843C17.4258 19.2067 17.3964 19.3201 17.4144 19.3998Z" fill="#F2F6FA"/>
<path d="M23.5294 19.2895C23.5486 19.2521 23.5203 19.1899 23.5859 19.1799C23.6814 19.1656 23.6953 19.2472 23.7403 19.2914C23.7433 19.3154 23.7433 19.3396 23.7403 19.3636C23.7223 19.439 23.7175 19.5505 23.6027 19.5411C23.4879 19.5318 23.5618 19.4228 23.5372 19.3611C23.5315 19.3377 23.5289 19.3136 23.5294 19.2895Z" fill="#E0EAF4"/>
<path d="M30.0137 19.2543C30.0401 19.2338 30.0299 19.1808 30.0768 19.1864C30.1429 19.1939 30.1369 19.2487 30.1441 19.2892C30.1171 19.3135 30.0948 19.3552 30.0485 19.3434C30.0023 19.3316 30.0299 19.2836 30.0137 19.2543Z" fill="#F1F6FA"/>
<path d="M13.3984 19.2531C13.4117 19.2201 13.4099 19.1677 13.473 19.1814C13.5361 19.1951 13.5361 19.2437 13.5391 19.2892C13.4525 19.3895 13.4159 19.3496 13.3984 19.2531Z" fill="#C5DDEF"/>
<path d="M8.15946 15.7425C8.40831 16.0739 8.70043 16.1436 9.11699 15.968C9.33338 15.8764 9.53053 15.7594 9.75714 15.6641C9.51951 15.9427 9.28228 16.2209 9.04546 16.4986C9.013 16.4818 9.00038 16.4731 8.97393 16.5167C8.82065 16.7727 8.56098 16.9751 8.44497 17.251C8.43216 17.2846 8.40871 17.3127 8.37845 17.3307C8.3482 17.3487 8.31295 17.3555 8.27847 17.35L8.35962 16.7988L7.86793 17.1003C7.87875 16.8623 7.80121 16.6593 7.82706 16.45C7.86853 16.318 7.82705 16.1822 7.8511 16.0496C7.83246 16.0732 7.8511 16.1087 7.81383 16.1268C7.77628 16.0557 7.76577 15.9726 7.78438 15.8939C7.83438 15.8619 7.87738 15.8195 7.91061 15.7693C7.98153 15.679 8.06208 15.6578 8.15946 15.7425Z" fill="#4F82DE"/>
<path d="M7.49812 18.6251C7.24506 18.1318 6.99741 17.6367 6.70168 17.1596C6.69763 17.0959 6.71792 17.033 6.75818 16.9846C6.97638 16.7486 7.15189 16.4864 7.3743 16.2553C7.4344 16.193 7.50172 16.0815 7.63456 16.193C7.55442 16.6759 7.47287 17.1586 7.38992 17.641C7.36648 17.7799 7.34725 17.9194 7.3226 18.0851L7.81609 17.7868L7.85937 18.3218C7.8185 18.579 7.74817 18.6388 7.49812 18.6251Z" fill="#497AD7"/>
<path d="M7.63488 16.1913C7.60243 16.1758 7.56566 16.1729 7.53132 16.1832C7.49697 16.1935 7.46737 16.2163 7.44795 16.2474C7.18707 16.5451 6.93101 16.8453 6.7008 17.1604L6.34375 16.5999C6.38462 16.4218 6.56014 16.3128 6.66834 16.1689C6.71702 16.1066 6.81801 16.1446 6.89074 16.1384C6.84866 16.1128 6.75369 16.1801 6.73926 16.0867C7.17445 16.1048 7.39745 15.888 7.54712 15.5884C7.67275 15.3362 7.68357 15.0634 7.76592 14.8037C7.81761 14.8137 7.81701 14.8716 7.86991 14.8809C7.94985 15.1724 7.98712 15.4732 8.15903 15.7435C8.05504 15.7049 7.97871 15.7167 7.93242 15.8139C7.90898 15.8631 7.89275 15.9459 7.78275 15.8949C7.77554 15.8176 7.76893 15.7398 7.75811 15.6239C7.71182 15.8388 7.67335 16.0151 7.63488 16.1913Z" fill="#3B63C3"/>
<path d="M7.27679 15.5846C7.2816 15.7683 7.10127 15.9383 6.90231 15.9371C6.7286 15.9371 6.61019 15.8287 6.60177 15.6687C6.59456 15.4756 6.77608 15.2912 6.97264 15.295C7.04945 15.2938 7.12378 15.3232 7.18034 15.3771C7.23691 15.4309 7.27142 15.5052 7.27679 15.5846Z" fill="#2F4FB1"/>
<path d="M6.73907 16.0866C6.78476 16.1364 6.8653 16.1065 6.93984 16.1364C6.57618 16.1644 6.56115 16.469 6.34356 16.5997C6.14045 16.3164 5.96394 16.0136 5.81641 15.6954C6.09408 15.8914 6.40845 16.0247 6.73907 16.0866Z" fill="#2C49AC"/>
<path d="M8.40039 15.5746C8.4015 15.4915 8.43417 15.4122 8.49134 15.3539C8.5485 15.2956 8.62554 15.263 8.70574 15.2632C8.78545 15.2632 8.8619 15.296 8.91826 15.3544C8.97462 15.4128 9.00629 15.492 9.00629 15.5746C9.00629 15.6572 8.97462 15.7364 8.91826 15.7948C8.8619 15.8532 8.78545 15.886 8.70574 15.886C8.66587 15.8867 8.62627 15.8791 8.58925 15.8637C8.55223 15.8484 8.51853 15.8255 8.49011 15.7966C8.46169 15.7676 8.43912 15.733 8.42372 15.6949C8.40831 15.6568 8.40039 15.6159 8.40039 15.5746Z" fill="#4D80DD"/>
<path d="M7.49805 18.625C7.5815 18.6199 7.66129 18.5877 7.72604 18.5329C7.79079 18.4781 7.83721 18.4035 7.8587 18.3198C7.91219 18.7757 7.99454 19.231 7.88935 19.7012C7.75712 19.3375 7.62788 18.9812 7.49805 18.625Z" fill="#395FC0"/>
<path d="M8.27901 17.3504C8.34526 17.3185 8.39804 17.2628 8.42748 17.1935C8.52786 16.9226 8.80616 16.7426 8.94562 16.4916C8.97868 16.4293 9.02195 16.4075 9.046 16.499C8.81097 16.8279 8.5501 17.1443 8.35775 17.4924C8.32409 17.5547 8.29764 17.617 8.26578 17.6793C8.26326 17.6828 8.26005 17.6858 8.25635 17.688C8.25265 17.6902 8.24855 17.6916 8.24431 17.6921C8.24006 17.6925 8.23577 17.6921 8.23171 17.6907C8.22764 17.6894 8.22389 17.6872 8.2207 17.6843C8.24074 17.5734 8.26017 17.4621 8.27901 17.3504Z" fill="#2456AC"/>
<path d="M7.86815 14.8801C7.74793 14.9318 7.79722 14.8297 7.76416 14.8029C7.75895 14.6676 7.79536 14.5342 7.86815 14.4218V14.8801Z" fill="#1E41AC"/>
<path d="M7.8125 16.1268C7.83354 16.0895 7.79988 16.0409 7.86179 15.9985C7.84857 16.1567 7.90567 16.3056 7.82572 16.4501C7.82092 16.3423 7.81671 16.2346 7.8125 16.1268Z" fill="#3B63C3"/>
<path d="M8.22042 17.6847L8.2655 17.6797C8.23484 17.78 8.24206 17.8883 8.1543 17.9774C8.19096 17.8815 8.13446 17.7744 8.22042 17.6847Z" fill="#AEC1E9"/>
</g>
<defs>
<clipPath id="clip0_306_10723">
<rect width="29" height="11" fill="white" transform="translate(3 11.54)"/>
</clipPath>
</defs>
</svg>
