<svg width="193" height="189" viewBox="0 0 193 189" fill="none" xmlns="http://www.w3.org/2000/svg">
<path d="M123.271 0H115.618V7.54211H123.271V0Z" fill="black"/>
<path d="M0.826172 0V52.7938H54.3952V0H0.826172ZM46.7433 45.2527H8.47903V7.54211H46.7433V45.2527Z" fill="black"/>
<path d="M115.617 52.7938V45.2526H123.27V52.7948H130.923V37.7105H115.617V22.6263H123.27V15.0842H115.617V7.54211H107.962V15.0842H100.309V0H77.3536V7.54211H62.0479V15.0842H77.3536V22.6263H85.0064V30.1684H92.6593V22.6263H107.962V37.7105H100.309V45.2526H107.962V52.7948H100.309V45.2526H92.6563V52.7948H85.0035V37.7105H77.3536V60.3359H85.0064V67.878H100.312V60.3359H115.617V75.4201H123.27V82.9622H130.923V67.878H123.27V52.7948L115.617 52.7938ZM92.6593 15.0842H85.0064V7.54211H92.6593V15.0842Z" fill="black"/>
<path d="M138.576 0V52.7938H192.145V0H138.576ZM184.493 45.2527H146.229V7.54211H184.493V45.2527Z" fill="black"/>
<path d="M39.0904 15.0836H16.1318V37.71H39.0904V15.0836Z" fill="black"/>
<path d="M176.839 15.0836H153.881V37.71H176.839V15.0836Z" fill="black"/>
<path d="M77.354 30.1682H69.7012V37.7103H77.354V30.1682Z" fill="black"/>
<path d="M100.31 30.1682H92.6572V37.7103H100.31V30.1682Z" fill="black"/>
<path d="M69.7007 37.712H62.0479V60.3384H69.7007V37.712Z" fill="black"/>
<path d="M31.4376 60.3355H62.0481V67.8776H46.7433V75.4197H62.0481V90.504H54.3952V82.9618H39.0905V90.504H31.4376V98.0461H23.7848V120.671H16.1319V105.585H0.826172V90.504H16.1319V82.9618H0.826172V75.4197H16.1319V67.8776H23.7848V82.9618H31.4376V60.3355Z" fill="black"/>
<path d="M138.577 60.3355H153.882V67.8776H161.535V90.504H153.882V82.9618H146.23V90.504H138.577V98.0461H130.924V82.9618H138.577V60.3355Z" fill="black"/>
<path d="M184.496 60.3355H176.84V67.8776H184.496V60.3355Z" fill="black"/>
<path d="M62.0479 67.878H77.3536V82.9622H85.0064V75.4201H92.6593V82.9622H100.312V75.4201H115.617V90.5043H123.27V98.0464H115.617V120.672H100.312V135.756H92.6593V150.84H85.0064V143.298H69.7007V158.379H62.0479V120.672H69.7007V135.756H77.3536V128.214H85.0064V120.672H92.6593V113.131H107.962V105.586H100.312V98.0464H107.962V90.5043H92.6593V98.0464H85.0064V90.5043H77.3536V98.0464H62.0479V90.5043H69.7007V75.4201H62.0479V67.878Z" fill="black"/>
<path d="M54.397 90.505H46.7441V98.0471H54.397V90.505Z" fill="black"/>
<path d="M39.0894 98.0475H31.4365V105.59H39.0894V98.0475Z" fill="black"/>
<path d="M77.3537 98.0475H85.0065V120.674H77.3537V113.132H62.048V120.674H54.3951V113.132H46.7422V120.674H54.3951V128.216H39.0894V120.674H31.4365V113.132H39.0894V105.587H77.3537V98.0475Z" fill="black"/>
<path d="M123.271 98.0475H130.924V105.587H138.577V113.132H123.271V98.0475Z" fill="black"/>
<path d="M16.1319 120.674H0.826172V128.219H16.1319V120.674Z" fill="black"/>
<path d="M176.84 90.506V75.4218H169.187V105.587H161.535V113.132H153.882V105.587H161.535V98.0452H153.882V90.5031H146.23V98.0452H138.577V105.587H146.23V120.672H115.618V150.843H123.271V158.385H138.577V165.923H153.882V158.381H161.535V150.839H169.188V165.923H176.841V135.758H161.535V128.216H176.841V98.0481H192.147V90.506H176.84ZM153.882 150.842H130.924V128.216H153.882V150.842Z" fill="black"/>
<path d="M192.146 128.216H176.84V135.758H192.146V128.216Z" fill="black"/>
<path d="M107.965 135.757H100.312V150.842H107.965V135.757Z" fill="black"/>
<path d="M146.232 135.757H138.576V143.302H146.232V135.757Z" fill="black"/>
<path d="M0.826172 135.757V188.551H54.3952V135.757H0.826172ZM46.7433 181.01H8.47903V143.299H46.7433V181.01Z" fill="black"/>
<path d="M39.0904 150.842H16.1318V173.468H39.0904V150.842Z" fill="black"/>
<path d="M100.31 150.842H92.6572V158.384H100.31V150.842Z" fill="black"/>
<path d="M115.618 150.842H107.962V158.384H115.618V150.842Z" fill="black"/>
<path d="M69.7012 158.383H77.354V165.925H85.0069V158.383H92.6598V165.925H100.313V173.467H92.6598V181.009H100.313V188.551H77.354V181.009H85.0069V173.467H69.7012V158.383Z" fill="black"/>
<path d="M107.965 158.383H100.312V165.928H107.965V158.383Z" fill="black"/>
<path d="M115.619 158.383H123.272V165.925H130.924V188.551H107.964V181.009H115.62V173.467H107.964V165.925H115.62L115.619 158.383Z" fill="black"/>
<path d="M192.147 158.383H184.494V165.928H192.147V158.383Z" fill="black"/>
<path d="M161.535 165.924H169.188V173.466H176.84V165.924H184.493V181.008H192.146V188.551H169.188V181.008H138.576V173.466H161.535V165.924Z" fill="black"/>
</svg>
