<svg width="133" height="164" viewBox="0 0 133 164" fill="none" xmlns="http://www.w3.org/2000/svg">
<path d="M61.5 128.629C95.0152 128.629 122.185 101.46 122.185 67.9444C122.185 34.4292 95.0152 7.25977 61.5 7.25977C27.9849 7.25977 0.81543 34.4292 0.81543 67.9444C0.81543 101.46 27.9849 128.629 61.5 128.629Z" fill="#FAFAFA"/>
<g filter="url(#filter0_d_306_9181)">
<path d="M96.2879 42.0529H26.7029C24.4685 42.0529 22.6572 43.7801 22.6572 45.9109V126.929C22.6572 129.06 24.4685 130.787 26.7029 130.787H96.2879C98.5222 130.787 100.334 129.06 100.334 126.929V45.9109C100.334 43.7801 98.5222 42.0529 96.2879 42.0529Z" fill="white"/>
</g>
<path d="M53.4071 54.1893H32.3698C31.0292 54.1893 29.9424 55.2761 29.9424 56.6167C29.9424 57.9573 31.0292 59.0441 32.3698 59.0441H53.4071C54.7477 59.0441 55.8345 57.9573 55.8345 56.6167C55.8345 55.2761 54.7477 54.1893 53.4071 54.1893Z" fill="#EFEFEF"/>
<path d="M67.9714 64.7075H32.3698C31.0292 64.7075 29.9424 65.7943 29.9424 67.1349C29.9424 68.4755 31.0292 69.5623 32.3698 69.5623H67.9714C69.312 69.5623 70.3988 68.4755 70.3988 67.1349C70.3988 65.7943 69.312 64.7075 67.9714 64.7075Z" fill="#F7F7F7"/>
<path d="M53.4071 76.9668H32.3698C31.0292 76.9668 29.9424 78.0536 29.9424 79.3942C29.9424 80.7348 31.0292 81.8216 32.3698 81.8216H53.4071C54.7477 81.8216 55.8345 80.7348 55.8345 79.3942C55.8345 78.0536 54.7477 76.9668 53.4071 76.9668Z" fill="#EFEFEF"/>
<path d="M67.9714 87.485H32.3698C31.0292 87.485 29.9424 88.5718 29.9424 89.9124C29.9424 91.253 31.0292 92.3398 32.3698 92.3398H67.9714C69.312 92.3398 70.3988 91.253 70.3988 89.9124C70.3988 88.5718 69.312 87.485 67.9714 87.485Z" fill="#F7F7F7"/>
<path d="M53.4071 98.2256H32.3698C31.0292 98.2256 29.9424 99.3124 29.9424 100.653C29.9424 101.994 31.0292 103.08 32.3698 103.08H53.4071C54.7477 103.08 55.8345 101.994 55.8345 100.653C55.8345 99.3124 54.7477 98.2256 53.4071 98.2256Z" fill="#EFEFEF"/>
<path d="M67.9714 108.744H32.3698C31.0292 108.744 29.9424 109.831 29.9424 111.171C29.9424 112.512 31.0292 113.599 32.3698 113.599H67.9714C69.312 113.599 70.3988 112.512 70.3988 111.171C70.3988 109.831 69.312 108.744 67.9714 108.744Z" fill="#F7F7F7"/>
<path d="M96.2879 0.786865H26.7029C24.4685 0.786865 22.6572 2.59816 22.6572 4.83251V29.1064C22.6572 31.3407 24.4685 33.152 26.7029 33.152H96.2879C98.5222 33.152 100.334 31.3407 100.334 29.1064V4.83251C100.334 2.59816 98.5222 0.786865 96.2879 0.786865Z" fill="#EFEFEF"/>
<path d="M53.4071 9.68726H32.3698C31.0292 9.68726 29.9424 10.774 29.9424 12.1146C29.9424 13.4552 31.0292 14.542 32.3698 14.542H53.4071C54.7477 14.542 55.8345 13.4552 55.8345 12.1146C55.8345 10.774 54.7477 9.68726 53.4071 9.68726Z" fill="#959696"/>
<path d="M67.9714 20.2054H32.3698C31.0292 20.2054 29.9424 21.2922 29.9424 22.6328C29.9424 23.9734 31.0292 25.0602 32.3698 25.0602H67.9714C69.312 25.0602 70.3988 23.9734 70.3988 22.6328C70.3988 21.2922 69.312 20.2054 67.9714 20.2054Z" fill="white"/>
<defs>
<filter id="filter0_d_306_9181" x="3.06157" y="22.4572" width="129.932" height="140.989" filterUnits="userSpaceOnUse" color-interpolation-filters="sRGB">
<feFlood flood-opacity="0" result="BackgroundImageFix"/>
<feColorMatrix in="SourceAlpha" type="matrix" values="0 0 0 0 0 0 0 0 0 0 0 0 0 0 0 0 0 0 127 0" result="hardAlpha"/>
<feOffset dx="6.53189" dy="6.53189"/>
<feGaussianBlur stdDeviation="13.0638"/>
<feComposite in2="hardAlpha" operator="out"/>
<feColorMatrix type="matrix" values="0 0 0 0 0.632812 0 0 0 0 0.617188 0 0 0 0 0.617188 0 0 0 0.1 0"/>
<feBlend mode="normal" in2="BackgroundImageFix" result="effect1_dropShadow_306_9181"/>
<feBlend mode="normal" in="SourceGraphic" in2="effect1_dropShadow_306_9181" result="shape"/>
</filter>
</defs>
</svg>
