<svg width="38" height="38" viewBox="0 0 38 38" fill="none" xmlns="http://www.w3.org/2000/svg">
<rect x="0.25" y="0.25" width="37.5" height="37.5" rx="18.75" stroke="#E6E8EC" stroke-width="0.5"/>
<g clip-path="url(#clip0_306_10171)">
<path fill-rule="evenodd" clip-rule="evenodd" d="M10.9268 14.5116L10.96 14.3795L10.9932 14.2145L12.4548 9L28.0002 9.033L10.8271 22.9274L18.6663 13.5215H12.7869L12.4548 13.5545C11.7572 13.5875 11.1261 14.0165 10.9268 14.5116Z" fill="#808285"/>
<path fill-rule="evenodd" clip-rule="evenodd" d="M27.1693 18.5378C27.1693 18.4718 26.6711 21.4751 25.8407 24.5774L9.59766 24.6764L27.1361 10.584L19.2637 20.0559H25.1763L25.5085 20.0229C26.206 19.9899 26.9368 19.0328 27.1693 18.5378Z" fill="#ED1C24"/>
<path fill-rule="evenodd" clip-rule="evenodd" d="M11.757 28.9996H9L10.8934 26.4253H9.63112L9.73077 25.6992H12.3549L10.4615 28.2735H11.8566L11.757 28.9996ZM12.2885 28.9996L12.7203 25.6992H14.6136L14.514 26.4253H13.451L13.3846 26.9864H14.3811L14.3147 27.7124H13.285L13.2185 28.2735H14.2815L14.1818 28.9996H12.2885ZM14.7465 28.9996L15.1783 25.6992H16.0087L16.972 27.4154L17.0385 27.6134L17.1713 27.9765C17.1733 27.7671 17.1844 27.5578 17.2045 27.3494L17.4038 25.6992H18.2343L17.8024 28.9996H17.0052L16.042 27.3164L15.9423 27.0854L15.8094 26.7223C15.8077 26.9427 15.7967 27.1629 15.7762 27.3824L15.5769 28.9996H14.7465ZM18.5 28.9996L18.9318 25.6992H19.7955L19.3636 28.9996H18.5ZM20.493 28.9996L20.8252 26.4913H20.1276L20.2273 25.6992H22.486L22.3864 26.4913H21.6888L21.3566 28.9996H20.493ZM22.4528 28.9996L22.8846 25.6992H23.7483L23.5822 26.9864H24.7115L24.8776 25.6992H25.7413L25.3094 28.9996H24.4458L24.6119 27.6464H23.4825L23.3164 28.9996H22.4528Z" fill="#808285"/>
</g>
<defs>
<clipPath id="clip0_306_10171">
<rect width="19" height="20" fill="white" transform="translate(9 9)"/>
</clipPath>
</defs>
</svg>
