<svg width="38" height="39" viewBox="0 0 38 39" fill="none" xmlns="http://www.w3.org/2000/svg">
<rect x="0.25" y="0.75" width="37.5" height="37.5" rx="18.75" stroke="#E6E8EC" stroke-width="0.5"/>
<g clip-path="url(#clip0_306_9286)">
<path fill-rule="evenodd" clip-rule="evenodd" d="M10.9258 15.0116L10.959 14.8795L10.9923 14.7145L12.4538 9.5L27.9993 9.533L10.8262 23.4274L18.6653 14.0215H12.786L12.4538 14.0545C11.7562 14.0875 11.1251 14.5165 10.9258 15.0116Z" fill="#808285"/>
<path fill-rule="evenodd" clip-rule="evenodd" d="M27.1693 19.0378C27.1693 18.9718 26.6711 21.9751 25.8407 25.0774L9.59766 25.1764L27.1361 11.084L19.2637 20.5559H25.1763L25.5085 20.5229C26.206 20.4899 26.9368 19.5328 27.1693 19.0378Z" fill="#ED1C24"/>
<path fill-rule="evenodd" clip-rule="evenodd" d="M11.757 29.4996H9L10.8934 26.9253H9.63112L9.73077 26.1992H12.3549L10.4615 28.7735H11.8566L11.757 29.4996ZM12.2885 29.4996L12.7203 26.1992H14.6136L14.514 26.9253H13.451L13.3846 27.4864H14.3811L14.3147 28.2124H13.285L13.2185 28.7735H14.2815L14.1818 29.4996H12.2885ZM14.7465 29.4996L15.1783 26.1992H16.0087L16.972 27.9154L17.0385 28.1134L17.1713 28.4765C17.1733 28.2671 17.1844 28.0578 17.2045 27.8494L17.4038 26.1992H18.2343L17.8024 29.4996H17.0052L16.042 27.8164L15.9423 27.5854L15.8094 27.2223C15.8077 27.4427 15.7967 27.6629 15.7762 27.8824L15.5769 29.4996H14.7465ZM18.5 29.4996L18.9318 26.1992H19.7955L19.3636 29.4996H18.5ZM20.493 29.4996L20.8252 26.9913H20.1276L20.2273 26.1992H22.486L22.3864 26.9913H21.6888L21.3566 29.4996H20.493ZM22.4528 29.4996L22.8846 26.1992H23.7483L23.5822 27.4864H24.7115L24.8776 26.1992H25.7413L25.3094 29.4996H24.4458L24.6119 28.1464H23.4825L23.3164 29.4996H22.4528Z" fill="#808285"/>
</g>
<defs>
<clipPath id="clip0_306_9286">
<rect width="19" height="20" fill="white" transform="translate(9 9.5)"/>
</clipPath>
</defs>
</svg>
