<svg xmlns="http://www.w3.org/2000/svg" width="256" height="256"><path fill="#008225" fill-opacity=".012" fill-rule="evenodd" d="M0 128.004v128.004l128.25-.254 128.25-.254.254-127.75L257.008 0H0zm.485.496c0 70.4.119 99.053.265 63.672s.146-92.98 0-128S.485 58.1.485 128.5"/><path fill="#008225" fill-opacity=".024" fill-rule="evenodd" d="M52.325.75c24.654.149 64.704.149 89 0S145.45.479 96.5.479 27.671.601 52.325.75M5.51 2.015c.591.957.365 1.151-.814.699-.898-.345-1.941-.127-2.318.484-.441.713-.183.85.717.382.953-.494.911-.302-.131.596C2.119 4.904 1.58 6.4 1.767 7.5c.28 1.647.157 1.735-.698.5C.349 6.959.031 43.551.031 127.5c0 86.311.307 120.57 1.071 119.5.861-1.205.975-1.058.578.75-.271 1.238-.085 2.25.414 2.25.498 0 .906.648.906 1.441s.52 1.762 1.155 2.154c.711.44.883.275.448-.429-.457-.739-.16-.933.839-.55.851.327 1.367.884 1.148 1.239s28.765.645 64.41.645 64.646-.263 64.447-.585 1.226-1.342 3.165-2.267 3.244-1.224 2.898-.665c-1.222 1.978.62.981 3.201-1.733 1.439-1.512 2.291-2.187 1.894-1.5-1.244 2.151.378 1.368 3.106-1.5 1.439-1.513 2.222-2.075 1.741-1.25-1.268 2.175 4.359-1.476 7.548-4.896 1.375-1.475 2.097-1.989 1.604-1.143s.633-.175 2.5-2.269c1.868-2.095 4.181-3.921 5.141-4.058 2.05-.294 7.88-5.624 7.255-6.634-.236-.382.905-1.972 2.536-3.534 1.63-1.562 2.964-2.461 2.964-1.998s.889.037 1.976-.947c1.087-.983 1.758-2.142 1.491-2.575-.267-.432.666-1.692 2.075-2.8s2.65-2.382 2.76-2.83c.109-.449.536-.703.948-.566.413.138.638-.14.5-.618-.137-.477.671-1.715 1.797-2.75s1.555-1.657.953-1.382-.236-.287.814-1.25 1.52-1.764 1.047-1.782c-.474-.017.013-.692 1.08-1.5 1.068-.807 1.518-1.482 1-1.5-.517-.017-.124-.651.876-1.409.999-.757 1.777-1.648 1.729-1.978-.186-1.289 3.062-6.581 4.039-6.581.568 0 .755-.45.415-1s-.141-1 .441-1 .952-.337.821-.75c-.445-1.404 2.466-7.227 3.343-6.685.479.296.576-.233.214-1.177-.444-1.157-.281-1.483.5-1 .756.468.952.178.563-.836-.329-.856-.073-1.552.57-1.552.641 0 .888-.45.548-1s-.156-1 .41-1c.565 0 .74-.749.389-1.664q-.64-1.666.52-.948c.756.468.952.178.563-.836-.328-.854-.112-1.552.48-1.552.591 0 .838-.617.549-1.371s.099-1.996.862-2.759 1.202-1.946.974-2.629.06-1.241.638-1.241.793-.675.477-1.5-.12-1.5.437-1.5c.558 0 .76-.97.45-2.156-.411-1.57-.22-1.944.701-1.375.942.582 1.082.207.55-1.469-.499-1.573-.369-2.037.433-1.541.812.501.947-.09.461-2.024-.48-1.914-.347-2.524.445-2.034.793.489.961-.289.562-2.601-.446-2.582-.325-2.974.552-1.8.864 1.156.981.584.509-2.5-.456-2.983-.34-3.619.456-2.5.795 1.115.946.217.589-3.5-.349-3.642-.24-4.321.4-2.5.611 1.741.769.374.52-4.5-.214-4.174-.068-5.803.361-4.034.396 1.631.718-4.582.716-13.808s-.258-15.735-.569-14.466c-.759 3.104-2.068-10.906-1.326-14.192.46-2.039.35-2.224-.597-1-.915 1.182-1.032.652-.55-2.5.472-3.084.355-3.656-.509-2.5-.877 1.174-.998.782-.552-1.8.402-2.331.234-3.092-.574-2.593-.775.479-.961.012-.578-1.451.31-1.186.126-2.156-.41-2.156-.538 0-.672-.951-.299-2.125.494-1.557.339-1.918-.579-1.351-.941.582-1.082.095-.567-1.959.486-1.934.351-2.525-.461-2.024-.802.496-.932.032-.433-1.541.525-1.654.386-2.048-.523-1.486-.802.496-1.075.279-.776-.616.253-.759-.165-2.005-.928-2.768s-1.151-2.005-.862-2.759.042-1.371-.549-1.371-.808-.698-.48-1.552c.389-1.014.193-1.304-.563-.836q-1.16.718-.52-.948c.351-.915.176-1.664-.389-1.664-.566 0-.75-.45-.41-1s.214-1-.28-1c-1.309 0-3.362-4.961-2.578-6.229.381-.617.203-.793-.415-.411-1.009.624-2.872-2.918-2.425-4.61.109-.412-.279-.75-.861-.75s-.781-.45-.441-1 .153-1-.415-1c-.917 0-3.914-4.746-4.256-6.74-.072-.418-.85-1.356-1.73-2.084-1.262-1.045-1.283-1.188-.099-.676q1.502.65-.234-.775c-.954-.782-1.404-1.788-1-2.234s.194-.502-.466-.123c-1.189.682-3.961-3.047-3.488-4.692.131-.454-.224-.54-.787-.191-.937.579-1.473-.767-1.119-2.809.079-.454-.267-.571-.768-.261s-1.525-.193-2.275-1.118c-1.17-1.443-1.151-1.573.137-.915.894.457.799.191-.234-.657-.954-.782-1.451-1.706-1.105-2.053s-39.985-.644-89.627-.661S6.307 1.69 5.733 1.335c-.653-.404-.737-.15-.223.68M224.158 86c0 1.375.227 1.938.504 1.25.278-.687.278-1.812 0-2.5-.277-.687-.504-.125-.504 1.25M71.25 111.716c1.513.229 3.987.229 5.5 0s.275-.416-2.75-.416-4.263.187-2.75.416m16 0c1.513.229 3.987.229 5.5 0s.275-.416-2.75-.416-4.263.187-2.75.416m22.563-.033c.721.289 1.584.253 1.916-.079s-.258-.568-1.312-.525c-1.165.048-1.402.285-.604.604m7.955.042c1.797.222 4.497.218 6-.01 1.503-.229.032-.411-3.268-.405s-4.529.192-2.732.415m12.496-.007c1.52.229 3.77.223 5-.014s-.014-.425-2.764-.418-3.756.202-2.236.432m39.608 2.032c-1.243 1.586-1.208 1.621.378.378.963-.755 1.75-1.543 1.75-1.75 0-.823-.821-.294-2.128 1.372m-89.308.543c.376.986.935 1.541 1.243 1.233s.001-1.114-.683-1.793c-.988-.98-1.102-.865-.56.56m3.357 1.956c-.298 2.15-.145 3.375.358 2.872.483-.483.716-2.17.519-3.749-.33-2.644-.399-2.574-.877.877m11.094.001c.011 2.21.292 2.814.878 1.889.786-1.241.4-5.139-.51-5.139-.21 0-.376 1.463-.368 3.25m92.237 2.25c.011 2.2.216 2.982.455 1.738s.23-3.044-.02-4-.446.062-.435 2.262m-117.897 10c-.003 4.95.166 7.101.376 4.78.209-2.321.212-6.371.005-9-.206-2.629-.378-.73-.381 4.22m15.329-7.75c-.238.412-.072 1.65.371 2.75.702 1.746.813 1.651.875-.75.069-2.713-.399-3.464-1.246-2m9.511 1.75c.02 1.65.244 2.204.498 1.231s.237-2.323-.037-3-.481.119-.461 1.769m32.305.5c-.38 1.729-.482 3.351-.227 3.606s.751-.974 1.102-2.731.454-3.38.227-3.606c-.226-.227-.722 1.002-1.102 2.731m40.658-1c0 1.375.227 1.938.504 1.25.278-.687.278-1.812 0-2.5-.277-.687-.504-.125-.504 1.25M178 120.965c0 .53 1.012 1.496 2.25 2.145 2.238 1.175 2.24 1.17.345-.964-2.116-2.384-2.595-2.602-2.595-1.181m-61.805 3.535c.02 1.65.244 2.204.498 1.231s.237-2.323-.037-3-.481.119-.461 1.769m18.884 1.083c.048 1.165.285 1.402.604.605.289-.722.253-1.585-.079-1.917s-.568.258-.525 1.312M184.5 126c.995 1.1 2.035 2 2.31 2s-.315-.9-1.31-2-2.035-2-2.31-2 .315.9 1.31 2m-76.857-.232c-.261.423 1.287.601 3.441.395s3.916-.551 3.916-.768c0-.745-6.882-.396-7.357.373M168 126.941c0 .518.445 1.216.989 1.552.566.35.734-.051.393-.941-.665-1.732-1.382-2.049-1.382-.611M105.232 131c0 1.925.206 2.713.457 1.75.252-.963.252-2.537 0-3.5-.251-.963-.457-.175-.457 1.75m11.783-.417c.009 1.605.475 3.592 1.037 4.417.733 1.075.832.366.352-2.5-.83-4.961-1.409-5.759-1.389-1.917m17.064 0c.048 1.165.285 1.402.604.605.289-.722.253-1.585-.079-1.917s-.568.258-.525 1.312M78 131.941c0 .518.445 1.216.989 1.552.566.35.734-.051.393-.941-.665-1.732-1.382-2.049-1.382-.611m94.323-.262c.44.734-.147 1.342-1.558 1.613-1.353.26-.687.49 1.652.572 2.154.075 3.729.009 3.5-.147s-1.291-.943-2.359-1.75-1.624-.937-1.235-.288M94.205 138c0 5.191.155 5.846.771 3.25.424-1.787.424-4.713 0-6.5-.616-2.596-.771-1.941-.771 3.25m93.99-3.5c.02 1.65.244 2.204.498 1.231s.237-2.323-.037-3-.481.119-.461 1.769m-55.116 1.083c.048 1.165.285 1.402.604.605.289-.722.253-1.585-.079-1.917s-.568.258-.525 1.312M176.5 135c-.34.55-.141 1 .441 1s1.059-.45 1.059-1-.198-1-.441-1-.719.45-1.059 1m-96.465.809c-.019.72-.381 1.095-.803.834s-.543 1.4-.267 3.691l.501 4.166.345-4c.344-3.989.348-3.993 1.731-1.5.763 1.375 1.387 2.05 1.387 1.5 0-1.547-2.853-6.173-2.894-4.691M105.5 136c-.34.55-.141 1 .441 1s1.059-.45 1.059-1-.198-1-.441-1-.719.45-1.059 1m10.658 3c0 1.375.227 1.938.504 1.25.278-.687.278-1.812 0-2.5-.277-.687-.504-.125-.504 1.25m2.921.583c.048 1.165.285 1.402.604.605.289-.722.253-1.585-.079-1.917s-.568.258-.525 1.312m13 1c.048 1.165.285 1.402.604.605.289-.722.253-1.585-.079-1.917s-.568.258-.525 1.312M97.5 142c.995 1.1 2.035 2 2.31 2s-.315-.9-1.31-2-2.035-2-2.31-2 .315.9 1.31 2m87.372.75c-1.243 1.586-1.208 1.621.378.378 1.666-1.307 2.195-2.128 1.372-2.128-.207 0-.995.787-1.75 1.75m-15.139 1.374c.679.684 1.486.991 1.793.683.308-.308-.247-.867-1.233-1.243-1.425-.542-1.54-.428-.56.56m-64.971 1.583c1.244.239 3.044.23 4-.02s-.062-.446-2.262-.435-2.982.216-1.738.455m71 0c1.244.239 3.044.23 4-.02s-.062-.446-2.262-.435-2.982.216-1.738.455m6.11 73.043c-1.243 1.586-1.208 1.621.378.378 1.666-1.307 2.195-2.128 1.372-2.128-.207 0-.995.787-1.75 1.75m-10.435 10.5-2.937 3.25 3.25-2.937c3.029-2.738 3.71-3.563 2.937-3.563-.172 0-1.635 1.463-3.25 3.25"/><path fill="#008225" fill-opacity=".154" fill-rule="evenodd" d="M69.5 128v16H79v-3.5c0-1.925-.45-3.5-1-3.5s-.966-2.137-.924-4.75l.076-4.75 3.875 8.25 3.874 8.25H94l.009-10.75c.004-5.912.292-13.112.639-16l.631-5.25H84.767l.578 6.75.579 6.75-3.212-6.748-3.212-6.747-5-.003-5-.002zm30.717-14.439C96.511 116.156 95 120.334 95 127.982c0 8.571 1.818 13.356 5.872 15.452 3.568 1.845 6.652 1.976 10.979.468 2.767-.965 3.149-1.546 3.149-4.8 0-2.036.485-4.187 1.078-4.78s.931-2.371.75-3.95c-.312-2.736-.565-2.872-5.328-2.872-4.771 0-5.015.132-5.33 2.891-.182 1.591.132 3.178.697 3.527.592.366.674 1.207.192 1.987-1.835 2.969-3.059-.246-3.059-8.037 0-7.093.201-7.976 1.75-7.681.963.183 1.897 1.366 2.077 2.629.283 1.986.821 2.254 4 1.99 3.278-.273 3.637-.575 3.337-2.806-.712-5.289 1.604-.295 2.783 6a621 621 0 0 0 2.218 11.25l1.001 4.75h4.898c4.256 0 4.967-.295 5.425-2.25.712-3.038 4.511-21.87 4.511-22.36 0-.215.675-.39 1.5-.39 1.221 0 1.5 1.66 1.5 8.941 0 4.918-.45 9.219-1 9.559s-1 1.941-1 3.559c0 2.821.185 2.941 4.52 2.941h4.52l-.508-9.75-.509-9.75 2.616 9.803c2.294 8.595 2.866 9.765 4.642 9.5 1.65-.247 2.456-1.974 4.344-9.303l2.318-9-.513 9.317-.512 9.316 6.291-.183c3.46-.1 8.353.145 10.872.547 6.48 1.031 10.485-1.173 11.938-6.569 1.801-6.688-.383-11.125-7.661-15.561-1.07-.652-1.482-1.5-.971-2 .504-.493 1.079-.328 1.333.383.246.688 1.984 1.25 3.863 1.25 3.228 0 3.417-.191 3.417-3.443 0-4.443-2.912-6.557-9.031-6.557-4.776 0-6.964 1.117-8.814 4.5-1.013 1.852-1.096 1.797-1.125-.75-.029-2.689-.163-2.75-5.983-2.75h-5.953l-1.041 3.75c-.573 2.063-1.044 4.564-1.047 5.559-.011 3.428-1.777.706-2.448-3.773-.371-2.469-1.042-4.717-1.492-4.995s-8.524-.789-17.942-1.136c-12.585-.463-17.124-.326-17.124.518 0 .824-.544.856-1.934.112-2.898-1.55-10.318-1.247-12.849.526m25.498 6.189c-.222.412-.186 2.775.079 5.25.376 3.498.659 4.055 1.274 2.5 1.714-4.331.511-11.217-1.353-7.75m41.458 8.75c-.032 6.914.233 9.306.858 7.75 1.007-2.504 5.673-3.146 7.752-1.067.651.651 1.529.823 1.95.383s-.094-1.31-1.147-1.933c-5.016-2.969-7.667-6.284-8.502-10.633-.736-3.828-.872-3.006-.911 5.5"/><path fill="#008225" fill-opacity=".548" fill-rule="evenodd" d="M100.942 113.415c-3.297 1.866-5.029 5.718-5.659 12.585-1.069 11.635 3.055 18 11.661 18 6.539 0 7.732-1.293 8.534-9.25l.681-6.75h-9.431l.617 4.5c.555 4.052.415 4.5-1.403 4.5-1.895 0-2.002-.543-1.731-8.75.231-6.983.592-8.75 1.789-8.75.825 0 1.644 1.013 1.82 2.25.26 1.834.953 2.25 3.75 2.25 2.992 0 3.43-.319 3.43-2.5 0-6.057 1.925-1.529 4.145 9.75l2.412 12.25 4.49.295 4.49.296 2.372-11.796c1.304-6.487 2.759-12.222 3.231-12.745.473-.522.86-2.21.86-3.75 0-2.639-.251-2.8-4.368-2.8h-4.369v7.854c0 9.867-1.666 13.837-2.577 6.141-.34-2.868-.342-7.222-.006-9.677l.612-4.463-6.896.13c-3.793.072-8.921-.128-11.396-.443-3.02-.386-5.341-.099-7.058.873m72.373-.408c-2.987 1.204-4.315 4.047-4.315 9.239 0 4.811 1.931 7.633 7.029 10.269 1.634.845 2.971 1.948 2.971 2.452 0 1.572-2.121 2.312-3.287 1.146-.612-.612-2.373-1.113-3.913-1.113-2.586 0-2.8.297-2.8 3.883 0 4.382 1.201 5.079 8.795 5.103 6.074.02 9.205-3.225 9.205-9.541 0-3.939-.497-5.123-3.274-7.795-1.801-1.732-4.163-3.66-5.25-4.283s-1.618-1.506-1.181-1.962 1.669-.284 2.737.383c1.067.667 2.847 1.212 3.954 1.212 1.675 0 2.014-.658 2.014-3.902 0-3.478-.343-4.022-3.149-5-3.688-1.286-6.504-1.313-9.536-.091M69 115.941c0 1.618.45 3.219 1 3.559s1 4.39 1 9-.45 8.66-1 9-1 1.941-1 3.559c0 2.824.181 2.941 4.552 2.941h4.552l-.544-8.75-.545-8.75 4.177 8.75c4.172 8.742 4.179 8.75 7.992 8.75H93v-12.333c0-6.784.303-12.637.674-13.008s.723-1.795.783-3.166c.102-2.325-.213-2.493-4.674-2.493-4.648 0-4.783.085-4.783 3 0 1.65.45 3 1 3s1 2.115 1 4.7c0 5.584-.688 4.993-4.572-3.923l-2.928-6.723-5.25-.027c-5.149-.026-5.25.029-5.25 2.914"/></svg>