<svg xmlns="http://www.w3.org/2000/svg" width="256" height="256"><path fill="#052728" fill-opacity=".016" fill-rule="evenodd" d="M0 128.004v128.004l128.25-.254 128.25-.254.254-127.75L257.008 0H0zm.485.496c0 70.4.119 99.053.265 63.672s.146-92.98 0-128S.485 58.1.485 128.5"/><path fill="#052728" fill-opacity=".123" fill-rule="evenodd" d="M0 128.011v108.997l128.25-.254 128.25-.254.254-109 .255-109-128.505.258L0 19.015zM.483 128c0 60.225.12 84.862.267 54.75.147-30.113.147-79.388 0-109.5C.603 43.137.483 67.775.483 128M123 62.15V74.6l-5.905 1.219c-9.128 1.886-18.878 7.284-25.978 14.384L84.87 96.45l-5.435-2.94C76.446 91.893 74 90.214 74 89.779s2.722-3.472 6.049-6.748c5.577-5.491 17.387-12.604 23.641-14.24 2.12-.554 2.141-.703.742-5.35-.791-2.63-1.632-4.974-1.868-5.211-.756-.756-7.851 1.902-15.058 5.641-3.847 1.996-10.032 6.494-13.745 9.995C67.167 80.085 59 90.953 59 93.508c0 .705 4.5 3.829 10 6.943s10 6.255 10 6.98-.744 3.287-1.653 5.693c-2.455 6.501-2.257 22.547.379 30.58l2.036 6.204-5.857 3.489c-3.222 1.919-6.039 3.177-6.262 2.796s-1.168-4.068-2.101-8.193c-1.205-5.324-1.607-10.826-1.388-18.962l.308-11.461-4.435-1.284c-2.44-.706-4.762-.949-5.16-.539s-1.234 4.5-1.856 9.089c-1.838 13.551.424 26.1 7.097 39.372l3.972 7.899 3.21-1.923c1.765-1.058 6.501-3.852 10.524-6.21l7.315-4.285 5.185 5.093c8.456 8.306 17.067 12.805 29.936 15.643 2.659.586 2.75.823 2.75 7.175v6.569l-4.25-.704c-7.029-1.163-13.274-3.967-22.196-9.964l-8.468-5.693-4.072 3.342-4.072 3.343 5.279 4.816c5.888 5.372 18.403 11.939 26.779 14.051 3.025.763 9.213 1.714 13.75 2.114l8.25.727v-25.17l2.75-.619c13.473-3.035 20.578-6.689 29.025-14.931l6.505-6.347 5.36 3.025c2.948 1.664 5.36 3.377 5.36 3.808s-3.131 3.737-6.957 7.347C169.767 179.241 156.78 187 153.145 187c-.63 0-1.142.787-1.139 1.75.006 1.898 1.901 9.25 2.384 9.25.163 0 2.881-.889 6.039-1.976 13.281-4.569 25.004-13.907 33.607-26.77l5.037-7.531-2.786-1.673c-1.533-.919-6.306-3.665-10.608-6.1-6.4-3.624-7.734-4.794-7.343-6.439 4.303-18.096 4.462-25.255.802-36.097l-1.833-5.43 4.863-2.992c2.674-1.646 5.268-2.992 5.764-2.992 1.355 0 3.914 7.65 5.051 15.097.672 4.403.675 9.21.011 14.45-.547 4.318-.658 8.15-.245 8.514.413.365 2.659 1.126 4.992 1.692l4.24 1.03.956-3.642c3.912-14.914.868-35.114-7.228-47.953l-3.233-5.128-10.282 6.018-10.282 6.019-6.115-6.059c-6.97-6.905-16.908-12.363-25.892-14.219L134 74.6V61.728l4.36.598c7.262.995 15.211 4.517 23.309 10.327l7.689 5.517 3.283-3.835c1.806-2.109 3.286-4.06 3.289-4.335.01-1.024-12.427-10.218-16.846-12.453-7.531-3.81-17.9-6.556-27.267-7.221L123 49.701zm-5.735 20.392c-11.884 3.2-21.53 10.246-28.31 20.679-8.24 12.682-9.321 30.243-2.706 43.994 4.223 8.778 8.928 14.38 16.043 19.103 15.788 10.48 36.492 10.57 52.074.227 7.451-4.946 12.108-10.44 16.385-19.33 6.615-13.751 5.534-31.312-2.706-43.994-11.266-17.336-31.936-25.754-50.78-20.679m2.481 8.544c-5.769 1.359-12.84 5.311-17.116 9.564s-8.633 10.61-8.625 12.58c.005 1.106 31.435 19.77 33.293 19.77.386 0 .702-9.675.702-21.5V90l-2.25.1c-1.237.056-3.939.499-6.004.986M130 111.511v21.687l3.75-2.216c2.063-1.219 9.488-5.584 16.5-9.701s12.75-8.069 12.75-8.783c0-1.788-6.815-10.661-10.662-13.881-4.056-3.395-12.644-7.248-18.088-8.116l-4.25-.677zm-12-9.393c0 .615-1.328 2.63-2.951 4.479-3.844 4.378-4.933 9.769-2.513 12.443 1.988 2.196 4.638 2.625 4.389.71-.089-.687-.109-2.318-.043-3.622.102-2.046.336-2.192 1.698-1.061.922.765 1.397 2.274 1.139 3.622-.514 2.689.487 2.963 2.71.74 1.934-1.935 2.003-5.172.201-9.458-1.26-2.996-1.459-3.106-2.47-1.364-1.41 2.428-1.503.903-.105-1.711 1.133-2.115.413-5.896-1.122-5.896-.513 0-.933.503-.933 1.118m15.667 5.549c-1.05 1.049-.778 7.146.349 7.843.559.346.758 1.047.441 1.559-.689 1.115.746 1.238 2.114.181.534-.412-.088.197-1.383 1.354l-2.355 2.104 4.769-.723c5.739-.872 8.644-3.85 8.198-8.408-.258-2.648-.649-3.029-2.8-2.729-1.375.191-3.025.777-3.666 1.302-.803.658-1.368.317-1.817-1.097-.64-2.017-2.537-2.7-3.85-1.386m-41.436 10.052c-.402.979-.731 5.831-.73 10.781 0 7.654.398 9.849 2.66 14.675 3.554 7.584 9.492 13.816 17.087 17.935 6.029 3.269 6.644 3.39 17.252 3.39s11.223-.121 17.252-3.39c7.595-4.119 13.532-10.351 17.088-17.935 2.307-4.922 2.66-6.961 2.66-15.373 0-6.063-.438-10.136-1.169-10.868-.892-.895-4.444.767-15.028 7.028l-13.859 8.199.389 7.17c.407 7.48 1.659 10.577 3.525 8.711 2.952-2.952 9.259.702 9.187 5.324l-.045 2.867-7.75.236c-4.262.131-7.75-.147-7.75-.616s-2.025-.853-4.5-.853-4.5.42-4.5.933c0 1.112-5.861 1.101-6.549-.013-.263-.425-1.911-.362-3.663.141-3.665 1.051-4.659.131-4.931-4.561-.277-4.785.105-6.857 1.418-7.691 2.099-1.334 7.508-.883 9.154.762 1.428 1.429 1.571 1.073 1.571-3.918 0-3.019.229-6.089.508-6.821.332-.869-2.712-3.154-8.75-6.57a2371 2371 0 0 1-14.527-8.281c-4.829-2.789-5.331-2.895-6-1.262M123 134.5c0 .867.595 1.209 1.5.862.825-.317 1.5-.705 1.5-.862s-.675-.545-1.5-.862c-.905-.347-1.5-.005-1.5.862m9.143-.593c-1.006.625-1.053 1.03-.183 1.568 1.372.848 2.402.097 1.894-1.38-.208-.606-.914-.683-1.711-.188M124 141.5c0 1.111 1.167 1.5 4.5 1.5s4.5-.389 4.5-1.5-1.167-1.5-4.5-1.5-4.5.389-4.5 1.5m-13 6.701c0 1.389.797 1.799 3.5 1.799 2.322 0 3.5-.468 3.5-1.391 0-.844-1.374-1.551-3.5-1.799-2.855-.333-3.5-.077-3.5 1.391m30.269 1.492c.973.254 2.323.237 3-.037s-.119-.481-1.769-.461-2.204.244-1.231.498"/><path fill="#052728" fill-opacity=".391" fill-rule="evenodd" d="M0 128.011v108.997l128.25-.254 128.25-.254.254-109 .255-109-128.505.258L0 19.015zM.483 128c0 60.225.12 84.862.267 54.75.147-30.113.147-79.388 0-109.5C.603 43.137.483 67.775.483 128M123.75 49.793c-1.553.314-1.75 1.74-1.75 12.644v12.291l-4.647.637c-7.747 1.062-18.945 7.139-26.2 14.218l-6.497 6.339-4.827-2.711c-2.655-1.491-4.827-3.047-4.828-3.458s1.687-2.625 3.749-4.92c4.73-5.262 13.856-11.217 21.415-13.973 3.209-1.171 5.826-2.405 5.816-2.744-.011-.339-.615-2.866-1.342-5.616-1.158-4.38-1.621-4.969-3.731-4.754-4.853.495-20.408 9.1-26.617 14.724C68.829 77.417 58 91.727 58 93.998c0 .456 4.72 3.456 10.49 6.666 7.636 4.248 10.337 6.244 9.929 7.336-4.481 11.971-4.451 28.475.071 40.132.809 2.084-9.57 8.493-10.627 6.562-.359-.657-1.419-4.975-2.355-9.597-1.303-6.43-1.538-10.695-1.002-18.174l.699-9.772-3.853-1.07c-6.31-1.752-7.18-1.464-8.057 2.669-1.55 7.31-.898 27.318 1.084 33.25 2.365 7.08 8.72 20 9.837 20 .474 0 5.363-2.635 10.865-5.855l10.003-5.855 5.865 5.74c6.545 6.403 16.957 12.134 25.535 14.054l5.516 1.234v5.841c0 5.442-.158 5.841-2.318 5.841-5.078 0-12.778-3.275-22.008-9.36l-9.696-6.393-4.161 3.693c-2.332 2.07-3.861 4.181-3.477 4.801.377.61 3.492 3.232 6.922 5.828 12.314 9.317 26.704 14.377 40.988 14.414L135 206v-24.682l5.516-1.234c8.7-1.947 18.985-7.645 25.755-14.27l6.085-5.954 4.549 2.501c2.502 1.376 4.71 2.984 4.907 3.574.553 1.661-10.047 11.487-15.988 14.822-2.928 1.643-7.461 3.781-10.074 4.751s-4.741 2.04-4.731 2.378c.011.338.612 2.864 1.336 5.614 1.531 5.812 1.559 5.816 12.145 1.407 12.556-5.23 24.908-16.215 32.175-28.615 1.496-2.553 2.219-4.794 1.709-5.299-.486-.481-5.159-3.311-10.384-6.29-5.558-3.169-9.372-5.963-9.192-6.734.17-.725.957-3.809 1.75-6.854 2.078-7.975 1.85-20.627-.508-28.202-1.073-3.446-1.743-6.6-1.491-7.009.54-.874 9.646-6.057 9.958-5.669.117.146 1.045 2.74 2.062 5.765 1.947 5.794 2.63 22.318 1.19 28.782-.804 3.608.187 4.369 7.47 5.735l3.452.648 1.154-5.749c1.548-7.706 1.431-19.451-.274-27.493-1.524-7.19-6.122-18.029-9.264-21.838l-1.993-2.415-9.374 5.415c-5.156 2.978-9.738 5.569-10.182 5.757s-3.718-2.382-7.275-5.709c-7.235-6.768-18.478-12.759-25.836-13.768L135 74.728V61.962l2.75.608c10.801 2.387 18.634 6.111 26.449 12.576l4.698 3.887 3.98-4.267c3.773-4.044 3.893-4.363 2.301-6.135-3.008-3.349-13.805-10.576-19.686-13.177-8.989-3.975-25.502-6.92-31.742-5.661m-9.263 33.952c-28.266 10.077-40.252 40.278-26.342 66.375 9.471 17.77 32.145 27.639 51.599 22.46 21.914-5.834 37.232-27.315 34.807-48.812-1.911-16.947-11.027-29.94-26.302-37.489-7.145-3.532-8.246-3.776-18.177-4.04-8.163-.217-11.714.126-15.585 1.506m1.326 8.181c-6.894 2.696-11.285 5.667-15.574 10.54-3.924 4.458-8.006 11.167-7.195 11.826.55.448 29.514 16.915 32.706 18.594l2.25 1.184V90l-3.75.047c-2.062.026-5.859.871-8.437 1.879M129 111.291c0 11.85.273 22.257.607 23.127.659 1.719 4.393 2.213 4.393.582 0-.55.401-1 .891-1s1.059 3.345 1.266 7.433c.352 6.975 1.554 10.642 2.563 7.817.57-1.595 6.498-1.632 8.08-.05.66.66 1.2 2.426 1.2 3.924v2.724l-11.237-.376c-6.181-.207-12.931.005-15 .47-2.174.488-3.763.468-3.763-.048 0-.492-1.35-.894-3-.894s-3 .505-3 1.122c0 .776-.464.738-1.5-.122-.955-.793-1.5-3.003-1.5-6.087 0-3.9.41-5.062 2.105-5.969 2.814-1.506 8.639-.343 9.212 1.839.248.944.503-1.294.567-4.974s.566-6.969 1.116-7.309 1 .084 1 .941c0 .892.855 1.559 2 1.559 1.1 0 1.982-.338 1.96-.75-.034-.642-30.26-18.069-33.165-19.122-2.816-1.02-4.479 10.245-2.75 18.619 2.578 12.48 10.153 22.083 21.754 27.579 5.983 2.834 7.665 3.174 15.701 3.174s9.718-.34 15.701-3.174c16.179-7.665 25.277-25.072 21.817-41.742-.638-3.071-1.431-5.584-1.763-5.584s-7.414 4.031-15.738 8.958-16.007 9.254-17.075 9.617c-1.068.362 5.698-3.922 15.037-9.52 9.338-5.598 17.133-10.334 17.323-10.524.755-.754-2.906-6.43-7.296-11.313-5.494-6.11-15.228-11.293-22.53-11.994L129 89.746zm-12.845-5.815c-1.735 1.977-3.155 4.703-3.155 6.059s-.45 2.465-1 2.465c-1.688 0-1.111 2.889 1 5 1.994 1.994 4.616 2.806 3.563 1.103-.305-.494-.273-2.301.07-4.016.5-2.502.895-2.894 1.995-1.981.755.627 1.372 2.504 1.372 4.171 0 2.97.042 2.995 2 1.223 2.354-2.13 2.498-4.086.63-8.529-1.26-2.996-1.459-3.106-2.47-1.364-1.34 2.309-1.503.426-.248-2.875 1.691-4.449-.354-5.132-3.757-1.256m17.977 3.278c-2.406 4.495-.743 7.522 2.07 3.768 1.436-1.916 1.496-2.553.382-4.077-1.258-1.72-1.374-1.705-2.452.309m6.176 1.256c-2.465.993-5.927 5.704-4.927 6.705.359.358 1.185.119 1.836-.532 1.931-1.931 3.239-1.344 1.438.646-3.325 3.673-.592 4.483 3.71 1.098 1.931-1.518 2.635-2.988 2.635-5.5 0-3.585-.786-3.991-4.692-2.417M124 141.5c0 1.111 1.167 1.5 4.5 1.5s4.5-.389 4.5-1.5-1.167-1.5-4.5-1.5-4.5.389-4.5 1.5m-12.488 4.322c-.282.281-.512 1.336-.512 2.345 0 1.472.788 1.833 4 1.833 5.928 0 5.243-4.232-.738-4.565-1.231-.069-2.469.105-2.75.387m18.567 3.761c.048 1.165.285 1.402.604.605.289-.722.253-1.585-.079-1.917s-.568.258-.525 1.312m11.171.106c.963.252 2.537.252 3.5 0 .963-.251.175-.457-1.75-.457s-2.713.206-1.75.457"/><path fill="#052728" fill-opacity=".784" fill-rule="evenodd" d="M0 128.011v108.997l128.25-.254 128.25-.254.254-109 .255-109-128.505.258L0 19.015zM.483 128c0 60.225.12 84.862.267 54.75.147-30.113.147-79.388 0-109.5C.603 43.137.483 67.775.483 128m110.033-86.341C83.488 47.45 61.502 64.636 49.508 89.347c-10.783 22.213-11.731 47.727-2.643 71.131 6.165 15.875 21.734 34.266 36.227 42.791C96.291 211.032 114.008 216 128.5 216c14.454 0 32.021-4.915 45.5-12.731 9.306-5.396 25.377-21.765 30.701-31.269 14.549-25.974 15.558-56.131 2.764-82.653-12.157-25.203-34.66-42.508-62.303-47.912-9.303-1.819-25.601-1.714-34.646.224m5.651 64.601c-2.611 3.256-3.21 4.773-2.765 6.998.348 1.743.187 2.606-.417 2.233-1.402-.867-1.224 1.87.215 3.309 2.325 2.325 2.888 1.292 2.888-5.3l.001-3 2.205 2.941c1.213 1.617 2.475 3.867 2.804 5 .565 1.947.665 1.917 1.85-.56 1.041-2.174.989-3.107-.307-5.5-.859-1.584-1.579-2.318-1.601-1.631s-.532 1.25-1.134 1.25c-.737 0-.87-1.628-.406-5 .378-2.75.533-4.977.344-4.948s-1.844 1.922-3.677 4.208m5.903 33.99c-.066 6.343-1.13 8.641-2.432 5.25-.394-1.027-1.999-1.5-5.088-1.5-3.908 0-4.591.316-5.105 2.362-.326 1.299-.447 3.837-.269 5.64l.324 3.278 7.25.176c3.987.097 7.25-.191 7.25-.64s2.025-.816 4.5-.816 4.5.379 4.5.841c0 .463 3.374.801 7.498.75 6.532-.079 7.497-.324 7.5-1.9.001-1.181-.432-1.548-1.248-1.058-.97.583-.965.399.023-.821 1.129-1.394.779-1.516-3.105-1.078-6.451.727-8.645-1.952-8.738-10.673-.039-3.608-.376-5.886-.75-5.061-.473 1.043-2.204 1.5-5.68 1.5s-5.207-.457-5.68-1.5c-.374-.825-.711 1.537-.75 5.25m.93 1.25c0 1.152 1.278 1.5 5.5 1.5s5.5-.348 5.5-1.5-1.278-1.5-5.5-1.5-5.5.348-5.5 1.5m-11.947 4.936c-2.074 2.5-.655 4.073 3.569 3.959 3.395-.092 3.878-.404 3.878-2.5 0-1.944-.581-2.452-3.085-2.696-1.869-.182-3.589.305-4.362 1.237m14.66-.815c-.392.392-.713 1.762-.713 3.046 0 2.008.497 2.333 3.566 2.333 3.301 0 3.543-.205 3.25-2.75-.241-2.096-.92-2.82-2.853-3.046-1.396-.163-2.859.025-3.25.417m-3.9 5.062c.721.289 1.584.253 1.916-.079s-.258-.568-1.312-.525c-1.165.048-1.402.285-.604.604m12 0c.721.289 1.584.253 1.916-.079s-.258-.568-1.312-.525c-1.165.048-1.402.285-.604.604M111 153c0 .55.477 1 1.059 1s.781-.45.441-1-.816-1-1.059-1-.441.45-.441 1m6 0c0 .55.477 1 1.059 1s.781-.45.441-1-.816-1-1.059-1-.441.45-.441 1m24.813.683c.721.289 1.584.253 1.916-.079s-.258-.568-1.312-.525c-1.165.048-1.402.285-.604.604"/></svg>