<svg width="80" height="80" viewBox="0 0 80 80" fill="none" xmlns="http://www.w3.org/2000/svg">
<path fill-rule="evenodd" clip-rule="evenodd" d="M25.958 71.0549C26.9772 71.0549 27.7221 71.2708 28.1925 71.7025C28.6629 72.1343 28.8983 72.8057 28.8989 73.7169V78.6005H27.37V73.9234C27.37 72.8936 26.7926 72.3787 25.6378 72.3787C25.139 72.3746 24.6493 72.5124 24.2258 72.776C24.2991 73.0841 24.3335 73.4002 24.3283 73.7169V78.6005H22.7995V73.9234C22.7995 72.8936 22.2221 72.3787 21.0673 72.3787C20.5403 72.3792 20.0177 72.4739 19.5241 72.6584V78.6005H17.9961V71.8201C18.502 71.5686 19.0375 71.3817 19.5901 71.2639C20.1795 71.1265 20.7823 71.0551 21.3875 71.051C22.341 71.051 23.0495 71.2364 23.513 71.6072C24.2765 71.2425 25.112 71.0538 25.958 71.0549ZM34.1369 78.8246C32.9715 78.8246 32.0955 78.4911 31.5091 77.8242C30.9227 77.1572 30.6292 76.1865 30.6287 74.9119C30.6287 72.3327 31.7941 71.0433 34.125 71.0438C35.2994 71.0438 36.1824 71.3746 36.7742 72.0363C37.3659 72.6979 37.662 73.6565 37.6625 74.9119C37.6625 76.1663 37.3569 77.132 36.7456 77.8091C36.1342 78.4861 35.2647 78.8246 34.1369 78.8246ZM34.1218 77.5151C35.4615 77.5151 36.1311 76.6473 36.1305 74.9119C36.1305 74.049 35.9716 73.4043 35.6538 72.9779C35.3359 72.5514 34.8263 72.338 34.125 72.3374C33.4167 72.3374 32.9097 72.5557 32.6041 72.9922C32.2984 73.4287 32.1456 74.0686 32.1456 74.9119C32.1456 75.7547 32.3032 76.3994 32.6184 76.846C32.9336 77.2926 33.4347 77.5145 34.1218 77.5119V77.5151ZM42.7663 71.0581C43.8533 71.0581 44.6781 71.3865 45.2406 72.0434C45.8032 72.7003 46.0853 73.6308 46.0869 74.8349C46.0869 76.2863 45.7497 77.3135 45.0754 77.9163C44.401 78.5192 43.5439 78.8219 42.504 78.8246C40.4174 78.8246 39.3741 78.2657 39.3741 77.1479V68.2603H40.8886V71.5142C41.1932 71.3687 41.513 71.2576 41.8421 71.1829C42.1443 71.1053 42.4544 71.0624 42.7663 71.0549V71.0581ZM42.3872 77.4856C43.1818 77.4856 43.738 77.2552 44.0559 76.7943C44.3737 76.3335 44.5327 75.701 44.5327 74.8968C44.5327 74.0736 44.3653 73.4462 44.0305 73.0144C43.6957 72.5827 43.1985 72.3671 42.539 72.3676C42.2517 72.3696 41.9656 72.4064 41.6872 72.4773C41.4085 72.5446 41.1408 72.6516 40.8926 72.7951V76.7681C40.8899 77.2449 41.3881 77.483 42.3872 77.4825V77.4856ZM47.8144 68.6457H49.4449V70.0434H47.8144V68.6457ZM47.8581 71.2639H49.3869L49.4012 78.6037H47.8581V71.2639ZM51.553 78.6037V68.4224H53.0675V78.6005L51.553 78.6037ZM58.1887 71.0375C59.3244 71.0375 60.1566 71.4083 60.6853 72.1499C61.214 72.8915 61.4736 73.9285 61.464 75.2608H56.3373C56.3865 75.9865 56.5984 76.5382 56.9729 76.9159C57.3475 77.2936 57.8788 77.4822 58.5669 77.4817C59.3913 77.4826 60.2025 77.2751 60.9253 76.8786V78.32C60.1683 78.6564 59.3011 78.8246 58.3238 78.8246C57.2272 78.8246 56.3659 78.4887 55.7397 77.817C55.1136 77.1453 54.8008 76.1918 54.8013 74.9564C54.8013 73.6914 55.0971 72.7233 55.6889 72.0522C56.2806 71.381 57.1138 71.0427 58.1887 71.0375ZM58.145 72.3088C57.6306 72.3088 57.228 72.4463 56.9372 72.7212C56.6464 72.9961 56.457 73.4618 56.369 74.1181H59.9066C59.8383 73.4904 59.6635 73.0322 59.3822 72.7435C59.1009 72.4548 58.6885 72.3099 58.145 72.3088ZM43.5442 11.7967C41.858 11.3798 40.5602 11.1711 39.6506 11.1705C32.8655 11.1705 27.3645 16.6533 27.3645 23.4146C27.3645 30.1758 32.8679 35.6594 39.6506 35.6594C46.4333 35.6594 51.9375 30.1766 51.9375 23.4146C51.938 22.4268 51.819 21.4425 51.5832 20.4833L61.3512 17.8523C62.1425 20.8605 62.2921 24.0014 61.7904 27.0712C61.2886 30.1409 60.1468 33.0708 58.439 35.6705L42.2641 65.658H27.2795L37.9271 46.0313C37.9851 45.9233 37.8143 45.6849 37.6713 45.6722C26.2934 44.6392 17.3811 35.104 17.3811 23.4956C17.3811 11.196 27.3851 1.22609 39.7269 1.22609C41.9861 1.2236 44.2328 1.56303 46.3904 2.23285L43.5442 11.7967Z" fill="#006E53"/>
<path d="M39.5768 30.1487C43.296 30.1487 46.311 27.1337 46.311 23.4144C46.311 19.6952 43.296 16.6802 39.5768 16.6802C35.8576 16.6802 32.8425 19.6952 32.8425 23.4144C32.8425 27.1337 35.8576 30.1487 39.5768 30.1487Z" fill="#D6E806"/>
<path d="M59.6278 15.6093C57.529 10.2693 53.4018 5.97733 48.1482 3.67114M51.209 18.8234C50.0423 15.9029 47.7937 13.5453 44.9316 12.2417L51.209 18.8234ZM55.4951 16.9863C53.8474 12.9358 50.7318 9.65626 46.7711 7.80308L55.4951 16.9863Z" stroke="#D6E806" stroke-linecap="round"/>
</svg>
