<svg width="68" height="77" viewBox="0 0 68 77" fill="none" xmlns="http://www.w3.org/2000/svg">
<path d="M43.6091 0.273926C46.2392 0.309948 48.7485 0.801726 51.0918 1.97636C53.1578 3.01864 54.8423 4.47597 55.9921 6.48458C56.7394 7.81057 57.2295 9.2621 57.4375 10.7649C57.865 13.6498 57.4327 16.4407 56.4673 19.1698C55.9 20.7704 55.1149 22.2716 54.2647 23.7462C52.5324 26.7477 50.3067 29.3491 47.7179 31.6553C44.3966 34.617 40.7544 37.2092 36.8573 39.3852C35.3476 40.2254 33.7822 40.931 32.0984 41.3625C31.067 41.637 30.0019 41.7698 28.9335 41.7571C27.5271 41.729 26.4266 41.0978 25.5708 40.0344C24.7805 39.0799 24.3734 37.8728 24.4266 36.642C24.4359 36.2997 24.486 35.9595 24.5759 35.6287C25.0853 33.8456 25.7774 32.1377 26.812 30.5802C27.6026 29.3906 28.545 28.3343 29.7774 27.5786C31.1481 26.7376 32.638 26.3781 34.2494 26.725C34.7532 26.8414 35.2274 27.0586 35.6424 27.3632C36.7032 28.1103 36.6475 29.2826 36.1382 30.0312C35.7018 30.6818 35.214 31.2974 34.6793 31.8722C33.7735 32.8339 32.8112 33.743 31.872 34.6733C31.0408 35.4964 30.2597 36.3601 29.6264 37.3445C29.2983 37.855 28.9955 38.3758 28.9049 38.9889C28.7905 39.7579 29.1958 40.2818 29.9832 40.3539C30.3906 40.3866 30.8007 40.346 31.1934 40.234C32.4036 39.9044 33.5271 39.3727 34.6308 38.7994C36.3329 37.9122 37.9038 36.8276 39.435 35.6835C41.2912 34.2967 43.0957 32.8503 44.7588 31.2419C46.6532 29.4118 48.3417 27.4228 49.6337 25.1275C50.5777 23.4517 51.273 21.6819 51.5821 19.7837C51.8554 18.1119 51.7029 16.483 50.917 14.9482C50.5386 14.1895 49.9466 13.5542 49.2118 13.1181C48.8725 12.9168 48.4983 12.7793 48.1081 12.7125C46.6881 12.4642 45.3143 12.6678 43.9642 13.1118C42.557 13.5754 41.2515 14.252 39.9825 14.9913C37.2284 16.6013 34.4711 18.2105 31.8466 20.0234C30.5307 20.9317 29.2554 21.8981 27.9657 22.8425C26.8008 23.696 25.6439 24.5598 24.3709 25.2575C23.3379 25.8372 22.2198 26.2554 21.0566 26.4971C19.6152 26.7853 18.2867 26.5175 17.0662 25.7454C15.7996 24.9443 14.9128 23.8448 14.5234 22.3899C14.2755 21.4713 14.3733 20.5606 14.587 19.6537C14.8993 18.3225 15.4921 17.1166 16.231 15.9732C18.0586 13.1494 20.3566 10.754 23.0289 8.7062C26.9892 5.67174 31.3468 3.33501 36.0603 1.64433C38.4803 0.771947 41.0325 0.308631 43.6091 0.273926Z" fill="#E20010"/>
<path d="M11.0276 64.8348C11.0141 63.9484 10.9116 63.1512 10.3919 62.4597C10.1388 62.1256 9.78848 61.8754 9.3875 61.7424C8.35452 61.3775 7.30247 61.4206 6.27664 61.733C5.45422 61.9836 4.66121 62.325 3.85628 62.6296C3.69736 62.6876 3.55274 62.762 3.36044 62.8466C2.98142 61.9202 2.60875 61.0212 2.2186 60.0815C2.78356 59.8176 3.31595 59.5482 3.86502 59.3172C5.13002 58.7839 6.44191 58.4182 7.82134 58.336C9.20077 58.2538 10.5619 58.3258 11.8174 58.9852C13.2374 59.726 14.2624 60.7957 14.6915 62.3524C14.7534 62.5562 14.7905 62.7665 14.8019 62.9789C14.8568 65.0001 14.9307 67.0212 14.9394 69.0423C14.945 70.4237 14.8528 71.8059 14.8115 73.188C14.8041 73.3775 14.724 73.5572 14.5874 73.6908C13.606 74.7558 12.4054 75.4919 11.045 75.986C9.5863 76.5105 8.03283 76.7306 6.48323 76.632C5.05295 76.5537 3.81814 75.9766 2.77403 75.0189C1.72992 74.0612 1.00048 72.9045 0.797057 71.4871C0.518946 69.5459 1.08709 67.8615 2.50307 66.4754C3.41368 65.5842 4.53566 65.1238 5.79987 64.9609C7.19838 64.7816 8.60164 64.8293 10.0049 64.8333L11.0276 64.8348ZM10.844 67.9907C10.7616 67.9746 10.6783 67.9634 10.5945 67.957C10.1177 67.9476 9.63542 67.9312 9.15627 67.9382C8.58178 67.9468 8.0049 67.9492 7.43358 68.0024C6.84319 68.058 6.27028 68.2279 5.81259 68.6163C5.05295 69.2616 4.82728 70.1042 5.01242 71.0541C5.24286 72.2287 5.90874 73.0494 7.09587 73.3987C7.70798 73.5791 8.35612 73.606 8.98146 73.477C9.56272 73.3721 10.1049 73.1158 10.5516 72.7346C10.6272 72.6768 10.6894 72.6037 10.734 72.5202C10.7785 72.4367 10.8044 72.3448 10.8098 72.2507C10.8281 71.838 10.8822 71.4261 10.8853 71.0134C10.8917 70.0682 10.8774 69.123 10.8694 68.1778C10.8647 68.115 10.8562 68.0525 10.844 67.9907Z" fill="#E20010"/>
<path d="M58.821 67.9121C55.4122 67.9121 52.0669 67.8401 48.6747 67.9278C48.6922 68.1627 48.7026 68.3851 48.724 68.602C48.8114 69.4892 49.0053 70.3514 49.3859 71.165C49.6819 71.8287 50.1413 72.409 50.7224 72.8534C51.6442 73.5433 52.6962 73.656 53.7999 73.5159C54.7121 73.4 55.5616 73.0711 56.4086 72.7398C56.7972 72.5887 57.1825 72.4266 57.6005 72.2582C57.9978 73.0773 58.3872 73.8824 58.7924 74.7109C58.7177 74.7641 58.6478 74.8236 58.5699 74.8675C56.9171 75.8338 55.142 76.4564 53.2246 76.6208C51.4765 76.7704 49.8078 76.4877 48.2981 75.5347C47.2699 74.8855 46.55 73.9685 45.9477 72.9427C45.2059 71.6664 44.7567 70.2454 44.6318 68.7798C44.3797 66.1074 44.9555 63.6192 46.3593 61.3154C47.3382 59.714 48.7995 58.844 50.6287 58.544C52.31 58.2527 54.0419 58.5367 55.5369 59.3491C56.3744 59.7962 56.9577 60.5002 57.4384 61.2895C58.0741 62.3303 58.4086 63.4775 58.5691 64.6662C58.6994 65.6247 58.7408 66.595 58.8186 67.5636C58.8282 67.6631 58.821 67.7664 58.821 67.9121ZM54.6891 64.8698C54.4912 63.9763 54.3561 63.0632 53.7626 62.306C53.4649 61.9296 53.0468 61.6636 52.5762 61.5511C51.3247 61.2245 50.0669 61.7931 49.5289 62.9607C49.3366 63.3765 49.2238 63.8283 49.084 64.2661C49.0212 64.4642 48.9807 64.6701 48.9306 64.8698C49.2667 64.9575 54.345 64.9614 54.6907 64.8722L54.6891 64.8698Z" fill="#E20010"/>
<path d="M36.4572 54.2638L40.5248 53.6436V58.5668C41.4275 58.6201 42.2872 58.5621 43.1517 58.6537V61.6866C42.2777 61.7007 41.4219 61.6749 40.5295 61.7281C40.5295 61.8989 40.5295 62.0265 40.5295 62.1541C40.5221 65.0735 40.5158 67.9931 40.5105 70.913C40.5105 71.3726 40.5478 71.8331 40.5899 72.2912C40.6567 72.996 41.0532 73.4431 41.7461 73.6146C42.1283 73.7102 42.5208 73.7642 42.9086 73.837L43.2979 73.9153V76.4893C43.2542 76.5107 43.2077 76.5259 43.1597 76.5347C42.0051 76.5856 40.8553 76.5559 39.7389 76.2215C38.6487 75.8973 37.7397 75.31 37.1231 74.3421C36.7727 73.7939 36.5947 73.1777 36.5176 72.541C36.471 72.1422 36.4482 71.7411 36.4493 71.3398C36.4493 65.7955 36.4524 60.2518 36.4588 54.7086L36.4572 54.2638Z" fill="#E20010"/>
<path d="M61.0555 54.2666L64.9888 53.5947V54.1296C64.9888 59.1648 64.9909 64.2001 64.9951 69.2353C64.9951 70.157 65.0031 71.0787 65.0102 72.0012C65.0166 72.9111 65.3535 73.3747 66.2355 73.6456C66.5353 73.7273 66.8396 73.7916 67.1469 73.8383C67.3345 73.8727 67.5244 73.8892 67.7524 73.9166V76.5462C67.7312 76.5635 67.7062 76.5756 67.6793 76.5814C66.5621 76.6261 65.4497 76.6081 64.3634 76.2948C63.7053 76.1081 63.0924 75.7916 62.5621 75.3645C61.5744 74.5681 61.1723 73.5008 61.069 72.2972C61.0388 71.9448 61.0428 71.5885 61.0436 71.2345C61.0436 65.7263 61.0475 60.2186 61.0555 54.7114V54.2666Z" fill="#E20010"/>
<path d="M28.5499 76.3143H24.5769C24.5721 76.1506 24.5642 76.001 24.5634 75.853C24.5591 73.5006 24.5557 71.1482 24.553 68.7959C24.5483 66.9164 24.5364 65.037 24.5371 63.1576C24.5384 62.8168 24.565 62.4766 24.6166 62.1396C24.6754 61.7551 24.8796 61.4348 25.1633 61.1647C26.7239 59.6674 28.5936 58.77 30.7255 58.3832C32.0616 58.1417 33.4309 58.1399 34.7677 58.3777C34.8384 58.3902 34.9091 58.4059 34.9782 58.4231C35.0124 58.4317 35.045 58.4482 35.1109 58.4732C34.6596 59.604 34.1097 60.6846 33.5916 61.7528C32.9726 61.7528 32.3862 61.7348 31.8014 61.7567C30.7914 61.7897 29.8 62.0331 28.8924 62.4709C28.6349 62.5954 28.5388 62.7504 28.5396 63.0425C28.5507 67.3234 28.5533 71.6043 28.5475 75.8851L28.5499 76.3143Z" fill="#E20010"/>
<path d="M21.6461 58.7329C21.6882 64.5998 21.6421 70.4322 21.6803 76.3007H17.7923C17.7827 76.1589 17.7637 76.0109 17.7637 75.8629C17.7637 72.1746 17.7637 68.4857 17.7637 64.7964C17.7637 63.1057 17.778 61.415 17.7851 59.7243C17.7851 59.5959 17.7851 59.4674 17.7851 59.3061L21.6461 58.7329Z" fill="#E20010"/>
<path d="M19.5402 57.0062C17.6419 57.0015 16.4531 55.1393 17.2406 53.3813C17.7245 52.303 18.5557 51.8934 19.7547 51.9005C21.3614 51.9138 22.5525 53.4886 22.1695 55.0273C21.8636 56.2568 20.8624 57.0093 19.5402 57.0062Z" fill="#E20010"/>
</svg>
