<svg width="108" height="114" viewBox="0 0 108 114" fill="none" xmlns="http://www.w3.org/2000/svg">
<rect width="107.099" height="114.008" rx="12" fill="#EDE9FE"/>
<path d="M63.6091 17.2739C66.2392 17.3099 68.7485 17.8017 71.0918 18.9764C73.1578 20.0186 74.8423 21.476 75.9921 23.4846C76.7394 24.8106 77.2295 26.2621 77.4375 27.7649C77.865 30.6498 77.4327 33.4407 76.4673 36.1698C75.9 37.7704 75.1149 39.2716 74.2647 40.7462C72.5324 43.7477 70.3067 46.3491 67.7179 48.6553C64.3966 51.617 60.7544 54.2092 56.8573 56.3852C55.3476 57.2254 53.7822 57.931 52.0984 58.3625C51.067 58.637 50.0019 58.7698 48.9335 58.7571C47.5271 58.729 46.4266 58.0978 45.5708 57.0344C44.7805 56.0799 44.3734 54.8728 44.4266 53.642C44.4359 53.2997 44.486 52.9595 44.5759 52.6287C45.0853 50.8456 45.7774 49.1377 46.812 47.5802C47.6026 46.3906 48.545 45.3343 49.7774 44.5786C51.1481 43.7376 52.638 43.3781 54.2494 43.725C54.7532 43.8414 55.2274 44.0586 55.6424 44.3632C56.7032 45.1103 56.6475 46.2826 56.1382 47.0312C55.7018 47.6818 55.214 48.2974 54.6793 48.8722C53.7735 49.8339 52.8112 50.743 51.872 51.6733C51.0408 52.4964 50.2597 53.3601 49.6264 54.3445C49.2983 54.855 48.9955 55.3758 48.9049 55.9889C48.7905 56.7579 49.1958 57.2818 49.9832 57.3539C50.3906 57.3866 50.8007 57.346 51.1934 57.234C52.4036 56.9044 53.5271 56.3727 54.6308 55.7994C56.3329 54.9122 57.9038 53.8276 59.435 52.6835C61.2912 51.2967 63.0957 49.8503 64.7588 48.2419C66.6532 46.4118 68.3417 44.4228 69.6337 42.1275C70.5777 40.4517 71.273 38.6819 71.5821 36.7837C71.8554 35.1119 71.7029 33.483 70.917 31.9482C70.5386 31.1895 69.9466 30.5542 69.2118 30.1181C68.8725 29.9168 68.4983 29.7793 68.1081 29.7125C66.6881 29.4642 65.3143 29.6678 63.9642 30.1118C62.557 30.5754 61.2515 31.252 59.9825 31.9913C57.2284 33.6013 54.4711 35.2105 51.8466 37.0234C50.5307 37.9317 49.2554 38.8981 47.9657 39.8425C46.8008 40.696 45.6439 41.5598 44.3709 42.2575C43.3379 42.8372 42.2198 43.2554 41.0566 43.4971C39.6152 43.7853 38.2867 43.5175 37.0662 42.7454C35.7996 41.9443 34.9128 40.8448 34.5234 39.3899C34.2755 38.4713 34.3733 37.5606 34.587 36.6537C34.8993 35.3225 35.4921 34.1166 36.231 32.9732C38.0586 30.1494 40.3566 27.754 43.0289 25.7062C46.9892 22.6717 51.3468 20.335 56.0603 18.6443C58.4803 17.7719 61.0325 17.3086 63.6091 17.2739Z" fill="#E20010"/>
<path d="M31.0276 81.8348C31.0141 80.9484 30.9116 80.1512 30.3919 79.4597C30.1388 79.1256 29.7885 78.8754 29.3875 78.7424C28.3545 78.3775 27.3025 78.4206 26.2766 78.733C25.4542 78.9836 24.6612 79.325 23.8563 79.6296C23.6974 79.6876 23.5527 79.762 23.3604 79.8466C22.9814 78.9202 22.6088 78.0212 22.2186 77.0815C22.7836 76.8176 23.3159 76.5482 23.865 76.3172C25.13 75.7839 26.4419 75.4182 27.8213 75.336C29.2008 75.2538 30.5619 75.3258 31.8174 75.9852C33.2374 76.726 34.2624 77.7957 34.6915 79.3524C34.7534 79.5562 34.7905 79.7665 34.8019 79.9789C34.8568 82.0001 34.9307 84.0212 34.9394 86.0423C34.945 87.4237 34.8528 88.8059 34.8115 90.188C34.8041 90.3775 34.724 90.5572 34.5874 90.6908C33.606 91.7558 32.4054 92.4919 31.045 92.986C29.5863 93.5105 28.0328 93.7306 26.4832 93.632C25.0529 93.5537 23.8181 92.9766 22.774 92.0189C21.7299 91.0612 21.0005 89.9045 20.7971 88.4871C20.5189 86.5459 21.0871 84.8615 22.5031 83.4754C23.4137 82.5842 24.5357 82.1238 25.7999 81.9609C27.1984 81.7816 28.6016 81.8293 30.0049 81.8333L31.0276 81.8348ZM30.844 84.9907C30.7616 84.9746 30.6783 84.9634 30.5945 84.957C30.1177 84.9476 29.6354 84.9312 29.1563 84.9382C28.5818 84.9468 28.0049 84.9492 27.4336 85.0024C26.8432 85.058 26.2703 85.2279 25.8126 85.6163C25.0529 86.2616 24.8273 87.1042 25.0124 88.0541C25.2429 89.2287 25.9087 90.0494 27.0959 90.3987C27.708 90.5791 28.3561 90.606 28.9815 90.477C29.5627 90.3721 30.1049 90.1158 30.5516 89.7346C30.6272 89.6768 30.6894 89.6037 30.734 89.5202C30.7785 89.4367 30.8044 89.3448 30.8098 89.2507C30.8281 88.838 30.8822 88.4261 30.8853 88.0134C30.8917 87.0682 30.8774 86.123 30.8694 85.1778C30.8647 85.115 30.8562 85.0525 30.844 84.9907Z" fill="#E20010"/>
<path d="M78.821 84.9121C75.4122 84.9121 72.0669 84.8401 68.6747 84.9278C68.6922 85.1627 68.7026 85.3851 68.724 85.602C68.8114 86.4892 69.0053 87.3514 69.3859 88.165C69.6819 88.8287 70.1413 89.409 70.7224 89.8534C71.6442 90.5433 72.6962 90.656 73.7999 90.5159C74.7121 90.4 75.5616 90.0711 76.4086 89.7398C76.7972 89.5887 77.1825 89.4266 77.6005 89.2582C77.9978 90.0773 78.3872 90.8824 78.7924 91.7109C78.7177 91.7641 78.6478 91.8236 78.5699 91.8675C76.9171 92.8338 75.142 93.4564 73.2246 93.6208C71.4765 93.7704 69.8078 93.4877 68.2981 92.5347C67.2699 91.8855 66.55 90.9685 65.9477 89.9427C65.2059 88.6664 64.7567 87.2454 64.6318 85.7798C64.3797 83.1074 64.9555 80.6192 66.3593 78.3154C67.3382 76.714 68.7995 75.844 70.6287 75.544C72.31 75.2527 74.0419 75.5367 75.5369 76.3491C76.3744 76.7962 76.9577 77.5002 77.4384 78.2895C78.0741 79.3303 78.4086 80.4775 78.5691 81.6662C78.6994 82.6247 78.7408 83.595 78.8186 84.5636C78.8282 84.6631 78.821 84.7664 78.821 84.9121ZM74.6891 81.8698C74.4912 80.9763 74.3561 80.0632 73.7626 79.306C73.4649 78.9296 73.0468 78.6636 72.5762 78.5511C71.3247 78.2245 70.0669 78.7931 69.5289 79.9607C69.3366 80.3765 69.2238 80.8283 69.084 81.2661C69.0212 81.4642 68.9807 81.6701 68.9306 81.8698C69.2667 81.9575 74.345 81.9614 74.6907 81.8722L74.6891 81.8698Z" fill="#E20010"/>
<path d="M56.4572 71.2638L60.5248 70.6436V75.5668C61.4275 75.6201 62.2872 75.5621 63.1517 75.6537V78.6866C62.2777 78.7007 61.4219 78.6749 60.5295 78.7281C60.5295 78.8989 60.5295 79.0265 60.5295 79.1541C60.5221 82.0735 60.5158 84.9931 60.5105 87.913C60.5105 88.3726 60.5478 88.8331 60.5899 89.2912C60.6567 89.996 61.0532 90.4431 61.7461 90.6146C62.1283 90.7102 62.5208 90.7642 62.9086 90.837L63.2979 90.9153V93.4893C63.2542 93.5107 63.2077 93.5259 63.1597 93.5347C62.0051 93.5856 60.8553 93.5559 59.7389 93.2215C58.6487 92.8973 57.7397 92.31 57.1231 91.3421C56.7727 90.7939 56.5947 90.1777 56.5176 89.541C56.471 89.1422 56.4482 88.7411 56.4493 88.3398C56.4493 82.7955 56.4524 77.2518 56.4588 71.7086L56.4572 71.2638Z" fill="#E20010"/>
<path d="M81.0555 71.2666L84.9888 70.5947V71.1296C84.9888 76.1648 84.9909 81.2001 84.9951 86.2353C84.9951 87.157 85.0031 88.0787 85.0102 89.0012C85.0166 89.9111 85.3535 90.3747 86.2355 90.6456C86.5353 90.7273 86.8396 90.7916 87.1469 90.8383C87.3345 90.8727 87.5244 90.8892 87.7524 90.9166V93.5462C87.7312 93.5635 87.7062 93.5756 87.6793 93.5814C86.5621 93.6261 85.4497 93.6081 84.3634 93.2948C83.7053 93.1081 83.0924 92.7916 82.5621 92.3645C81.5744 91.5681 81.1723 90.5008 81.069 89.2972C81.0388 88.9448 81.0428 88.5885 81.0436 88.2345C81.0436 82.7263 81.0475 77.2186 81.0555 71.7114V71.2666Z" fill="#E20010"/>
<path d="M48.5499 93.3143H44.5769C44.5721 93.1506 44.5642 93.001 44.5634 92.853C44.5591 90.5006 44.5557 88.1482 44.553 85.7959C44.5483 83.9164 44.5364 82.037 44.5371 80.1576C44.5384 79.8168 44.565 79.4766 44.6166 79.1396C44.6754 78.7551 44.8796 78.4348 45.1633 78.1647C46.7239 76.6674 48.5936 75.77 50.7255 75.3832C52.0616 75.1417 53.4309 75.1399 54.7677 75.3777C54.8384 75.3902 54.9091 75.4059 54.9782 75.4231C55.0124 75.4317 55.045 75.4482 55.1109 75.4732C54.6596 76.604 54.1097 77.6846 53.5916 78.7528C52.9726 78.7528 52.3862 78.7348 51.8014 78.7567C50.7914 78.7897 49.8 79.0331 48.8924 79.4709C48.6349 79.5954 48.5388 79.7504 48.5396 80.0425C48.5507 84.3234 48.5533 88.6043 48.5475 92.8851L48.5499 93.3143Z" fill="#E20010"/>
<path d="M41.6461 75.7329C41.6882 81.5998 41.6421 87.4322 41.6803 93.3007H37.7923C37.7827 93.1589 37.7637 93.0109 37.7637 92.8629C37.7637 89.1746 37.7637 85.4857 37.7637 81.7964C37.7637 80.1057 37.778 78.415 37.7851 76.7243C37.7851 76.5959 37.7851 76.4674 37.7851 76.3061L41.6461 75.7329Z" fill="#E20010"/>
<path d="M39.5402 74.0062C37.6419 74.0015 36.4531 72.1393 37.2406 70.3813C37.7245 69.303 38.5557 68.8934 39.7547 68.9005C41.3614 68.9138 42.5525 70.4886 42.1695 72.0273C41.8636 73.2568 40.8624 74.0093 39.5402 74.0062Z" fill="#E20010"/>
</svg>
