<svg width="21" height="21" viewBox="0 0 21 21" fill="none" xmlns="http://www.w3.org/2000/svg">
<path fill-rule="evenodd" clip-rule="evenodd" d="M0.600254 7.37398L2.56287 1.47474L3.75446 2.8628C3.75446 2.8628 10.3853 -2.84413 17.2825 3.48742C17.2825 3.48742 20.5258 6.46737 20.0161 12.0934H3.96474C3.96474 12.0934 4.16331 14.9736 8.31053 16.6046C8.31053 16.6046 11.8035 17.6572 14.3386 15.1471L13.4274 13.6896H19.5255L17.633 19.5889L16.5816 18.1314C16.5816 18.1314 11.897 22.0758 6.06754 19.6583C6.06754 19.6583 -0.953508 16.6162 0.1096 8.76204H16.3012C16.3012 8.76204 15.425 4.72508 10.5535 4.04265C10.5535 4.04265 7.5278 3.89225 5.78717 5.70831L6.90867 7.23518L0.600254 7.37398Z" fill="#4338CA"/>
</svg>
