<svg width="92" height="92" viewBox="0 0 92 92" fill="none" xmlns="http://www.w3.org/2000/svg">
<path d="M46.2291 82.1313C66.6441 82.1313 83.1938 65.5816 83.1938 45.1666C83.1938 24.7516 66.6441 8.2019 46.2291 8.2019C25.8141 8.2019 9.2644 24.7516 9.2644 45.1666C9.2644 65.5816 25.8141 82.1313 46.2291 82.1313Z" fill="#50B651"/>
<path opacity="0.663" fill-rule="evenodd" clip-rule="evenodd" d="M83.0805 45.0626C83.0805 65.5418 66.4791 82.1432 46.0045 82.1432C25.5299 82.1432 8.92395 65.5418 8.92395 45.0626C8.92395 36.0034 9.17787 34.6565 12.7438 29.499C12.7438 29.499 12.5598 35.3244 16.8313 38.791C19.4874 40.9447 22.2593 39.3899 27.3331 37.0531C32.8219 34.5231 37.2839 32.891 40.7651 33.3216C46.0091 33.9711 62.1726 43.678 70.6081 41.7451C77.3471 40.2041 76.6359 24.3157 76.6359 24.3157C83.9959 31.5027 83.0805 36.3603 83.0805 45.0626Z" fill="url(#paint0_linear_306_12962)"/>
<path opacity="0.586" fill-rule="evenodd" clip-rule="evenodd" d="M61.916 72.2992C75.3265 59.6848 77.5557 45.2334 68.6035 28.9451C68.6489 28.9782 69.2027 27.0671 70.265 23.2117C75.0294 28.9813 77.5628 36.1027 77.8651 44.5759C77.8627 55.5509 72.5463 64.792 61.916 72.2992Z" fill="url(#paint1_linear_306_12962)"/>
<path opacity="0.744" fill-rule="evenodd" clip-rule="evenodd" d="M55.5551 23.288C49.082 19.7056 41.6558 12.4992 42.6429 10.9858C43.6301 9.47239 56.4429 9.73275 62.917 13.3152C69.391 16.8977 74.9009 27.6442 73.9146 29.1576C72.9284 30.671 62.0282 26.8705 55.5551 23.288Z" fill="url(#paint2_radial_306_12962)"/>
<path fill-rule="evenodd" clip-rule="evenodd" d="M61.1938 54.2699C55.8238 54.2699 51.4703 49.7923 51.4703 44.2695C51.4703 38.7467 55.8238 34.27 61.1938 34.27C66.5639 34.27 70.9182 38.7467 70.9182 44.2695C70.9182 49.7923 66.5648 54.2699 61.1938 54.2699ZM61.2628 51.0977C64.6144 51.0977 67.3348 48.0406 67.3348 44.2695C67.3348 40.4984 64.6144 37.444 61.2628 37.444C57.9113 37.444 55.1908 40.5012 55.1908 44.2713C55.1908 48.0415 57.9113 51.0977 61.2628 51.0977Z" fill="white"/>
<path fill-rule="evenodd" clip-rule="evenodd" d="M41.1313 26.2183H48.1381V54.1587H44.2915V29.2828H41.1313V26.2183Z" fill="white"/>
<path fill-rule="evenodd" clip-rule="evenodd" d="M35.9094 34.5542H39.5462V57.8873C39.5462 60.0134 37.3097 62.2278 35.1302 63.1809C34.0998 63.6311 32.1985 63.8985 29.4262 63.9832V61.662C32.1377 61.3597 33.9679 60.7564 34.9168 59.8524C35.4643 59.0915 35.8065 58.2025 35.9104 57.2709V50.4159C34.9382 52.4786 33.714 53.846 32.2377 54.5182C30.7032 55.3462 27.5798 55.2101 26.3046 54.5182C25.0295 53.8264 23.1592 52.0048 22.3017 49.2917C22.0644 48.5428 21.4737 46.505 21.5354 44.3458C21.5906 42.2896 22.2714 40.1138 22.8372 39.2195C23.8087 37.6923 25.3405 35.7797 27.6607 34.9802C28.7942 34.5895 30.8948 34.449 33.9627 34.5588V36.8671C31.683 36.7132 30.2606 36.7901 29.6958 37.098C28.8484 37.558 26.9358 38.1257 26.3046 42.2942C25.6735 46.4627 26.323 49.8741 28.324 50.9422C29.0094 51.3102 30.222 51.7453 31.3426 51.3617C33.4954 50.6257 35.5212 48.0009 35.6758 46.2226C35.8315 44.4182 35.9094 40.5287 35.9094 34.5542Z" fill="white"/>
<path fill-rule="evenodd" clip-rule="evenodd" d="M81.9187 52.4841C78.4843 69.0211 63.8306 81.4466 46.276 81.4466C26.1713 81.4466 9.87256 65.1479 9.87256 45.0431C9.87256 32.5532 16.1626 21.5325 25.7472 14.9775C17.9594 21.4359 13.0006 31.1925 13.0006 42.1028C13.0006 61.5636 28.7767 77.3388 48.2366 77.3388C64.0845 77.3388 77.487 66.8775 81.9187 52.4841Z" fill="url(#paint3_radial_306_12962)"/>
<path fill-rule="evenodd" clip-rule="evenodd" d="M46.2761 1.93188C22.4665 1.93188 3.16394 21.2335 3.16394 45.0431C3.16394 68.8527 22.4665 88.1552 46.2761 88.1552C70.0857 88.1552 89.3882 68.8527 89.3882 45.0431C89.3882 21.2335 70.0857 1.93188 46.2761 1.93188ZM46.2761 81.4475C26.1713 81.4475 9.87258 65.1488 9.87258 45.044C9.87258 32.5541 16.1626 21.5334 25.7472 14.9784C31.7919 10.8385 38.9496 8.62834 46.2761 8.63961C66.3808 8.63961 82.6796 24.9374 82.6796 45.0431C82.6809 47.5429 82.4259 50.0362 81.9187 52.4841C78.4844 69.0211 63.8306 81.4466 46.2761 81.4466V81.4475Z" fill="white"/>
<defs>
<linearGradient id="paint0_linear_306_12962" x1="44.5721" y1="29.3794" x2="49.3248" y2="72.3001" gradientUnits="userSpaceOnUse">
<stop stop-color="#123214"/>
<stop offset="0.46" stop-color="#3E7C37"/>
<stop offset="0.91" stop-color="#5FBB46"/>
</linearGradient>
<linearGradient id="paint1_linear_306_12962" x1="72.0291" y1="26.5893" x2="72.0291" y2="61.2966" gradientUnits="userSpaceOnUse">
<stop stop-color="white" stop-opacity="0"/>
<stop offset="0.64" stop-color="white" stop-opacity="0.43"/>
<stop offset="1" stop-color="white" stop-opacity="0.42"/>
</linearGradient>
<radialGradient id="paint2_radial_306_12962" cx="0" cy="0" r="1" gradientUnits="userSpaceOnUse" gradientTransform="translate(59.0666 20.3149) rotate(26.7606) scale(18.266 7.60745)">
<stop offset="0.13" stop-color="white"/>
<stop offset="0.29" stop-color="white" stop-opacity="0.69"/>
<stop offset="0.45" stop-color="white" stop-opacity="0.4"/>
<stop offset="0.59" stop-color="white" stop-opacity="0.18"/>
<stop offset="0.69" stop-color="white" stop-opacity="0.05"/>
<stop offset="0.74" stop-color="white" stop-opacity="0"/>
</radialGradient>
<radialGradient id="paint3_radial_306_12962" cx="0" cy="0" r="1" gradientUnits="userSpaceOnUse" gradientTransform="translate(52.5184 36.6557) rotate(39.84) scale(40.9336 44.6176)">
<stop offset="0.86" stop-opacity="0"/>
<stop offset="0.98" stop-opacity="0.47"/>
<stop offset="1"/>
</radialGradient>
</defs>
</svg>
