<svg width="83" height="83" viewBox="0 0 83 83" fill="none" xmlns="http://www.w3.org/2000/svg">
<path d="M42 0H41C18.3563 0 0 18.3563 0 41V41.9975C0 64.6411 18.3563 82.9975 41 82.9975H42C64.6437 82.9975 83 64.6412 83 41.9975V41C83 18.3563 64.6437 0 42 0Z" fill="#FFC325"/>
<path d="M10.7279 41.4998C10.7279 34.9629 24.5059 29.6631 41.5018 29.6631C58.4977 29.6631 72.2756 34.9642 72.2756 41.5005C72.2756 48.0368 58.4983 53.3353 41.5018 53.3353C24.5052 53.3353 10.7279 48.0361 10.7279 41.4998Z" fill="#006891"/>
<path d="M10.7279 41.4998C10.7279 34.9629 24.5059 29.6631 41.5018 29.6631C58.4977 29.6631 72.2756 34.9642 72.2756 41.5005C72.2756 48.0368 58.4983 53.3353 41.5018 53.3353C24.5052 53.3353 10.7279 48.0361 10.7279 41.4998Z" stroke="#006891" stroke-width="1.40509" stroke-miterlimit="3.8636"/>
<path fill-rule="evenodd" clip-rule="evenodd" d="M21.7753 47.5486L24.9739 35.4495H30.0225V42.5655H30.0556L33.4805 35.4495H38.6089L35.4103 47.5486H32.0768L34.1273 39.7877H34.0942L30.0225 47.5486H27.3532V39.7877H27.2987L25.2483 47.5486H21.7753Z" fill="white"/>
<path fill-rule="evenodd" clip-rule="evenodd" d="M39.6591 47.5486L40.1214 45.9705H43.8674L43.4045 47.5486H39.6591Z" fill="#EE4034"/>
<path fill-rule="evenodd" clip-rule="evenodd" d="M40.1423 45.4444L42.0673 38.5076H38.6077L39.4565 35.4495H50.1808L49.3327 38.5076H45.8731L43.9487 45.4424L40.1423 45.4444Z" fill="#FFC325"/>
<path fill-rule="evenodd" clip-rule="evenodd" d="M47.5496 47.5486L50.7828 35.4495H54.4371L56.0859 41.9233H56.118L57.8488 35.4495H61.2269L57.9931 47.5486H54.5165L52.7261 40.9406H52.6939L50.9278 47.5486H47.5496Z" fill="white"/>
</svg>
