<svg width="384" height="152" viewBox="0 0 384 152" fill="none" xmlns="http://www.w3.org/2000/svg">
<path d="M206.667 7.99998V2.66665C206.667 2.31302 206.526 1.97388 206.276 1.72384C206.026 1.47379 205.687 1.33331 205.333 1.33331H178.667C178.313 1.33331 177.974 1.47379 177.724 1.72384C177.474 1.97388 177.333 2.31302 177.333 2.66665V7.99998H206.667Z" fill="#1DB5BE"/>
<path d="M177.333 10.6666V29.3333C177.333 29.6869 177.474 30.0261 177.724 30.2761C177.974 30.5262 178.313 30.6666 178.667 30.6666H185.333V10.6666H177.333Z" fill="#C4B5FD"/>
<path d="M188 30.6666H205.333C205.687 30.6666 206.026 30.5262 206.276 30.2761C206.526 30.0261 206.667 29.6869 206.667 29.3333V10.6666H188V30.6666Z" fill="#7C3AED"/>
<path d="M112.715 65.1818H117.328V79.3509C117.328 80.9418 116.948 82.3338 116.188 83.527C115.435 84.7202 114.38 85.6506 113.024 86.3182C111.667 86.9787 110.087 87.3089 108.283 87.3089C106.472 87.3089 104.888 86.9787 103.531 86.3182C102.175 85.6506 101.12 84.7202 100.367 83.527C99.6145 82.3338 99.2381 80.9418 99.2381 79.3509V65.1818H103.851V78.9567C103.851 79.7876 104.032 80.5263 104.394 81.1726C104.764 81.8189 105.282 82.3267 105.95 82.696C106.617 83.0653 107.395 83.25 108.283 83.25C109.178 83.25 109.955 83.0653 110.616 82.696C111.284 82.3267 111.798 81.8189 112.161 81.1726C112.53 80.5263 112.715 79.7876 112.715 78.9567V65.1818ZM134.653 75.3026L130.498 75.5582C130.427 75.2031 130.274 74.8835 130.04 74.5994C129.805 74.3082 129.496 74.0774 129.113 73.907C128.737 73.7294 128.286 73.6406 127.76 73.6406C127.057 73.6406 126.464 73.7898 125.981 74.0881C125.498 74.3793 125.256 74.7699 125.256 75.2599C125.256 75.6506 125.413 75.9808 125.725 76.2507C126.038 76.5206 126.574 76.7372 127.334 76.9006L130.295 77.4972C131.886 77.8239 133.072 78.3494 133.854 79.0739C134.635 79.7983 135.026 80.75 135.026 81.929C135.026 83.0014 134.71 83.9425 134.077 84.7521C133.452 85.5618 132.593 86.1939 131.499 86.6484C130.413 87.0959 129.159 87.3196 127.739 87.3196C125.572 87.3196 123.847 86.8686 122.561 85.9666C121.283 85.0575 120.533 83.8217 120.313 82.2592L124.777 82.0249C124.912 82.6854 125.239 83.1896 125.757 83.5376C126.276 83.8786 126.94 84.049 127.749 84.049C128.545 84.049 129.184 83.8963 129.667 83.5909C130.157 83.2784 130.406 82.8771 130.413 82.3871C130.406 81.9751 130.232 81.6378 129.891 81.375C129.55 81.1051 129.024 80.8991 128.314 80.7571L125.48 80.1925C123.882 79.8729 122.692 79.3189 121.911 78.5305C121.137 77.7422 120.75 76.7372 120.75 75.5156C120.75 74.4645 121.034 73.5589 121.602 72.799C122.178 72.0391 122.984 71.4531 124.021 71.0412C125.065 70.6293 126.286 70.4233 127.685 70.4233C129.752 70.4233 131.379 70.8601 132.565 71.7337C133.758 72.6072 134.454 73.7969 134.653 75.3026ZM145.341 87.3196C143.657 87.3196 142.209 86.9787 140.994 86.2969C139.787 85.608 138.856 84.6349 138.203 83.3778C137.55 82.1136 137.223 80.6186 137.223 78.8928C137.223 77.2095 137.55 75.7322 138.203 74.4609C138.856 73.1896 139.776 72.1989 140.962 71.4886C142.155 70.7784 143.555 70.4233 145.16 70.4233C146.239 70.4233 147.244 70.5973 148.175 70.9453C149.112 71.2862 149.929 71.8011 150.625 72.4901C151.328 73.179 151.875 74.0455 152.265 75.0895C152.656 76.1264 152.851 77.3409 152.851 78.733V79.9794H139.034V77.1669H148.579C148.579 76.5135 148.437 75.9347 148.153 75.4304C147.869 74.9261 147.475 74.532 146.971 74.2479C146.474 73.9567 145.895 73.8111 145.234 73.8111C144.545 73.8111 143.934 73.9709 143.402 74.2905C142.876 74.603 142.464 75.0256 142.166 75.5582C141.868 76.0838 141.715 76.6697 141.708 77.3161V79.9901C141.708 80.7997 141.857 81.4993 142.155 82.0888C142.461 82.6783 142.89 83.1328 143.444 83.4524C143.998 83.772 144.655 83.9318 145.415 83.9318C145.92 83.9318 146.381 83.8608 146.8 83.7188C147.219 83.5767 147.578 83.3636 147.876 83.0795C148.175 82.7955 148.402 82.4474 148.558 82.0355L152.756 82.3125C152.542 83.321 152.106 84.2017 151.445 84.9545C150.792 85.7003 149.947 86.2827 148.91 86.7017C147.88 87.1136 146.69 87.3196 145.341 87.3196ZM155.813 87V70.6364H160.213V73.4915H160.383C160.682 72.4759 161.182 71.7088 161.885 71.1903C162.589 70.6648 163.398 70.402 164.314 70.402C164.542 70.402 164.787 70.4162 165.05 70.4446C165.312 70.473 165.543 70.5121 165.742 70.5618V74.5888C165.529 74.5249 165.234 74.468 164.858 74.4183C164.481 74.3686 164.137 74.3438 163.824 74.3438C163.157 74.3438 162.56 74.4893 162.035 74.7805C161.516 75.0646 161.104 75.4624 160.799 75.9737C160.501 76.4851 160.351 77.0746 160.351 77.7422V87H155.813ZM183.831 70.6364V74.0455H173.732V70.6364H183.831ZM176.044 87V69.4538C176.044 68.2678 176.275 67.2841 176.736 66.5028C177.205 65.7216 177.844 65.1357 178.654 64.745C179.464 64.3544 180.383 64.1591 181.413 64.1591C182.109 64.1591 182.745 64.2124 183.32 64.3189C183.903 64.4254 184.336 64.5213 184.62 64.6065L183.81 68.0156C183.633 67.9588 183.412 67.9055 183.15 67.8558C182.894 67.8061 182.631 67.7812 182.361 67.7812C181.694 67.7812 181.229 67.9375 180.966 68.25C180.703 68.5554 180.572 68.9851 180.572 69.5391V87H176.044ZM186.604 87V70.6364H191.004V73.4915H191.174C191.473 72.4759 191.973 71.7088 192.676 71.1903C193.38 70.6648 194.189 70.402 195.105 70.402C195.333 70.402 195.578 70.4162 195.841 70.4446C196.103 70.473 196.334 70.5121 196.533 70.5618V74.5888C196.32 74.5249 196.025 74.468 195.649 74.4183C195.272 74.3686 194.928 74.3438 194.615 74.3438C193.948 74.3438 193.351 74.4893 192.826 74.7805C192.307 75.0646 191.895 75.4624 191.59 75.9737C191.292 76.4851 191.142 77.0746 191.142 77.7422V87H186.604ZM198.879 87V70.6364H203.418V87H198.879ZM201.159 68.527C200.485 68.527 199.906 68.3033 199.423 67.8558C198.947 67.4013 198.709 66.858 198.709 66.2259C198.709 65.6009 198.947 65.0646 199.423 64.6172C199.906 64.1626 200.485 63.9354 201.159 63.9354C201.834 63.9354 202.409 64.1626 202.885 64.6172C203.368 65.0646 203.61 65.6009 203.61 66.2259C203.61 66.858 203.368 67.4013 202.885 67.8558C202.409 68.3033 201.834 68.527 201.159 68.527ZM214.511 87.3196C212.827 87.3196 211.379 86.9787 210.164 86.2969C208.957 85.608 208.026 84.6349 207.373 83.3778C206.719 82.1136 206.393 80.6186 206.393 78.8928C206.393 77.2095 206.719 75.7322 207.373 74.4609C208.026 73.1896 208.946 72.1989 210.132 71.4886C211.325 70.7784 212.724 70.4233 214.33 70.4233C215.409 70.4233 216.414 70.5973 217.344 70.9453C218.282 71.2862 219.099 71.8011 219.795 72.4901C220.498 73.179 221.045 74.0455 221.435 75.0895C221.826 76.1264 222.021 77.3409 222.021 78.733V79.9794H208.204V77.1669H217.749C217.749 76.5135 217.607 75.9347 217.323 75.4304C217.039 74.9261 216.645 74.532 216.141 74.2479C215.643 73.9567 215.065 73.8111 214.404 73.8111C213.715 73.8111 213.104 73.9709 212.572 74.2905C212.046 74.603 211.634 75.0256 211.336 75.5582C211.038 76.0838 210.885 76.6697 210.878 77.3161V79.9901C210.878 80.7997 211.027 81.4993 211.325 82.0888C211.631 82.6783 212.06 83.1328 212.614 83.4524C213.168 83.772 213.825 83.9318 214.585 83.9318C215.089 83.9318 215.551 83.8608 215.97 83.7188C216.389 83.5767 216.748 83.3636 217.046 83.0795C217.344 82.7955 217.572 82.4474 217.728 82.0355L221.925 82.3125C221.712 83.321 221.276 84.2017 220.615 84.9545C219.962 85.7003 219.116 86.2827 218.08 86.7017C217.05 87.1136 215.86 87.3196 214.511 87.3196ZM229.521 77.5398V87H224.983V70.6364H229.308V73.5234H229.5C229.862 72.5717 230.469 71.8189 231.322 71.2649C232.174 70.7038 233.207 70.4233 234.422 70.4233C235.558 70.4233 236.549 70.6719 237.394 71.169C238.239 71.6662 238.896 72.3764 239.365 73.2997C239.834 74.2159 240.068 75.3097 240.068 76.581V87H235.53V77.3906C235.537 76.3892 235.281 75.608 234.763 75.0469C234.244 74.4787 233.531 74.1946 232.621 74.1946C232.011 74.1946 231.471 74.326 231.002 74.5888C230.54 74.8516 230.178 75.2351 229.915 75.7393C229.66 76.2365 229.528 76.8366 229.521 77.5398ZM249.675 87.2663C248.432 87.2663 247.306 86.9467 246.298 86.3075C245.296 85.6612 244.501 84.7131 243.911 83.4631C243.329 82.206 243.038 80.6648 243.038 78.8395C243.038 76.9645 243.34 75.4055 243.943 74.1626C244.547 72.9126 245.35 71.9787 246.351 71.3608C247.36 70.7358 248.464 70.4233 249.664 70.4233C250.58 70.4233 251.344 70.5795 251.955 70.892C252.573 71.1974 253.07 71.581 253.446 72.0426C253.83 72.4972 254.121 72.9446 254.32 73.3849H254.458V65.1818H258.986V87H254.512V84.3793H254.32C254.107 84.8338 253.805 85.2848 253.414 85.7322C253.031 86.1726 252.53 86.5384 251.912 86.8295C251.301 87.1207 250.556 87.2663 249.675 87.2663ZM251.113 83.6548C251.845 83.6548 252.463 83.456 252.967 83.0582C253.478 82.6534 253.869 82.0888 254.139 81.3643C254.416 80.6399 254.554 79.7912 254.554 78.8182C254.554 77.8452 254.419 77 254.149 76.2827C253.879 75.5653 253.489 75.0114 252.977 74.6207C252.466 74.2301 251.845 74.0348 251.113 74.0348C250.367 74.0348 249.739 74.2372 249.227 74.642C248.716 75.0469 248.329 75.608 248.066 76.3253C247.803 77.0426 247.672 77.8736 247.672 78.8182C247.672 79.7699 247.803 80.6115 248.066 81.343C248.336 82.0675 248.723 82.6357 249.227 83.0476C249.739 83.4524 250.367 83.6548 251.113 83.6548ZM267.256 65.1818V87H262.717V65.1818H267.256ZM273.693 93.1364C273.118 93.1364 272.578 93.0902 272.074 92.9979C271.577 92.9126 271.165 92.8026 270.838 92.6676L271.861 89.2798C272.393 89.4432 272.873 89.532 273.299 89.5462C273.732 89.5604 274.105 89.4609 274.417 89.2479C274.737 89.0348 274.996 88.6726 275.195 88.1612L275.461 87.4688L269.591 70.6364H274.364L277.752 82.6534H277.922L281.342 70.6364H286.147L279.787 88.7685C279.481 89.6491 279.066 90.4162 278.54 91.0696C278.022 91.7301 277.365 92.2379 276.569 92.593C275.774 92.9553 274.815 93.1364 273.693 93.1364Z" fill="#111827"/>
<path d="M40.9638 122V110.364H42.3729V120.75H47.782V122H40.9638ZM53.3274 122.182C52.5395 122.182 51.8482 121.994 51.2536 121.619C50.6626 121.244 50.2005 120.72 49.8672 120.045C49.5376 119.371 49.3729 118.583 49.3729 117.682C49.3729 116.773 49.5376 115.979 49.8672 115.301C50.2005 114.623 50.6626 114.097 51.2536 113.722C51.8482 113.347 52.5395 113.159 53.3274 113.159C54.1153 113.159 54.8047 113.347 55.3956 113.722C55.9903 114.097 56.4524 114.623 56.782 115.301C57.1153 115.979 57.282 116.773 57.282 117.682C57.282 118.583 57.1153 119.371 56.782 120.045C56.4524 120.72 55.9903 121.244 55.3956 121.619C54.8047 121.994 54.1153 122.182 53.3274 122.182ZM53.3274 120.977C53.9259 120.977 54.4183 120.824 54.8047 120.517C55.1911 120.21 55.477 119.807 55.6626 119.307C55.8482 118.807 55.9411 118.265 55.9411 117.682C55.9411 117.098 55.8482 116.555 55.6626 116.051C55.477 115.547 55.1911 115.14 54.8047 114.83C54.4183 114.519 53.9259 114.364 53.3274 114.364C52.7289 114.364 52.2365 114.519 51.8501 114.83C51.4638 115.14 51.1778 115.547 50.9922 116.051C50.8066 116.555 50.7138 117.098 50.7138 117.682C50.7138 118.265 50.8066 118.807 50.9922 119.307C51.1778 119.807 51.4638 120.21 51.8501 120.517C52.2365 120.824 52.7289 120.977 53.3274 120.977ZM59.3288 122V113.273H60.6243V114.591H60.7152C60.8743 114.159 61.1622 113.809 61.5788 113.54C61.9955 113.271 62.4652 113.136 62.9879 113.136C63.0864 113.136 63.2095 113.138 63.3572 113.142C63.505 113.146 63.6167 113.152 63.6925 113.159V114.523C63.647 114.511 63.5429 114.494 63.38 114.472C63.2209 114.445 63.0523 114.432 62.8743 114.432C62.45 114.432 62.0713 114.521 61.7379 114.699C61.4084 114.873 61.147 115.116 60.9538 115.426C60.7644 115.733 60.6697 116.083 60.6697 116.477V122H59.3288ZM68.6754 122.182C67.8345 122.182 67.1091 121.996 66.4993 121.625C65.8932 121.25 65.4254 120.727 65.0959 120.057C64.7701 119.383 64.6072 118.598 64.6072 117.705C64.6072 116.811 64.7701 116.023 65.0959 115.341C65.4254 114.655 65.8838 114.121 66.4709 113.739C67.0618 113.352 67.7512 113.159 68.5391 113.159C68.9936 113.159 69.4425 113.235 69.8857 113.386C70.3288 113.538 70.7322 113.784 71.0959 114.125C71.4595 114.462 71.7493 114.909 71.9652 115.466C72.1811 116.023 72.2891 116.708 72.2891 117.523V118.091H65.5618V116.932H70.9254C70.9254 116.439 70.8269 116 70.63 115.614C70.4368 115.227 70.1603 114.922 69.8004 114.699C69.4444 114.475 69.0239 114.364 68.5391 114.364C68.005 114.364 67.5429 114.496 67.1527 114.761C66.7663 115.023 66.469 115.364 66.2607 115.784C66.0523 116.205 65.9482 116.655 65.9482 117.136V117.909C65.9482 118.568 66.0618 119.127 66.2891 119.585C66.5201 120.04 66.8402 120.386 67.2493 120.625C67.6584 120.86 68.1338 120.977 68.6754 120.977C69.0277 120.977 69.3459 120.928 69.63 120.83C69.9179 120.727 70.166 120.576 70.3743 120.375C70.5826 120.17 70.7436 119.917 70.8572 119.614L72.1527 119.977C72.0163 120.417 71.7872 120.803 71.4652 121.136C71.1432 121.466 70.7455 121.723 70.272 121.909C69.7985 122.091 69.2663 122.182 68.6754 122.182ZM74.3288 122V113.273H75.6243V114.636H75.7379C75.9197 114.17 76.2133 113.809 76.6186 113.551C77.0239 113.29 77.5107 113.159 78.0788 113.159C78.6546 113.159 79.1338 113.29 79.5163 113.551C79.9027 113.809 80.2038 114.17 80.4197 114.636H80.5107C80.7341 114.186 81.0694 113.828 81.5163 113.562C81.9633 113.294 82.4993 113.159 83.1243 113.159C83.9046 113.159 84.5429 113.403 85.0391 113.892C85.5353 114.377 85.7834 115.133 85.7834 116.159V122H84.4425V116.159C84.4425 115.515 84.2663 115.055 83.9141 114.778C83.5618 114.502 83.147 114.364 82.6697 114.364C82.0561 114.364 81.5807 114.549 81.2436 114.92C80.9065 115.288 80.7379 115.754 80.7379 116.318V122H79.3743V116.023C79.3743 115.527 79.2133 115.127 78.8913 114.824C78.5694 114.517 78.1546 114.364 77.647 114.364C77.2985 114.364 76.9728 114.456 76.6697 114.642C76.3705 114.828 76.1281 115.085 75.9425 115.415C75.7607 115.741 75.6697 116.117 75.6697 116.545V122H74.3288ZM92.7351 122V113.273H94.076V122H92.7351ZM93.4169 111.818C93.1555 111.818 92.9302 111.729 92.7408 111.551C92.5552 111.373 92.4624 111.159 92.4624 110.909C92.4624 110.659 92.5552 110.445 92.7408 110.267C92.9302 110.089 93.1555 110 93.4169 110C93.6783 110 93.9018 110.089 94.0874 110.267C94.2768 110.445 94.3714 110.659 94.3714 110.909C94.3714 111.159 94.2768 111.373 94.0874 111.551C93.9018 111.729 93.6783 111.818 93.4169 111.818ZM96.532 125.273V113.273H97.8274V114.659H97.9865C98.085 114.508 98.2214 114.314 98.3956 114.08C98.5736 113.841 98.8274 113.629 99.157 113.443C99.4903 113.254 99.9411 113.159 100.509 113.159C101.244 113.159 101.892 113.343 102.452 113.71C103.013 114.078 103.451 114.598 103.765 115.273C104.079 115.947 104.237 116.742 104.237 117.659C104.237 118.583 104.079 119.384 103.765 120.062C103.451 120.737 103.015 121.259 102.458 121.631C101.901 121.998 101.259 122.182 100.532 122.182C99.9714 122.182 99.5225 122.089 99.1854 121.903C98.8482 121.714 98.5888 121.5 98.407 121.261C98.2251 121.019 98.085 120.818 97.9865 120.659H97.8729V125.273H96.532ZM97.8501 117.636C97.8501 118.295 97.9467 118.877 98.1399 119.381C98.3331 119.881 98.6153 120.273 98.9865 120.557C99.3577 120.837 99.8123 120.977 100.35 120.977C100.911 120.977 101.379 120.83 101.754 120.534C102.132 120.235 102.416 119.833 102.606 119.33C102.799 118.822 102.896 118.258 102.896 117.636C102.896 117.023 102.801 116.47 102.612 115.977C102.426 115.481 102.144 115.089 101.765 114.801C101.39 114.509 100.918 114.364 100.35 114.364C99.8047 114.364 99.3464 114.502 98.9751 114.778C98.6039 115.051 98.3236 115.434 98.1342 115.926C97.9448 116.415 97.8501 116.985 97.8501 117.636ZM112.464 115.227L111.259 115.568C111.183 115.367 111.072 115.172 110.924 114.983C110.78 114.79 110.583 114.631 110.333 114.506C110.083 114.381 109.763 114.318 109.373 114.318C108.839 114.318 108.394 114.441 108.038 114.688C107.685 114.93 107.509 115.239 107.509 115.614C107.509 115.947 107.63 116.21 107.873 116.403C108.115 116.597 108.494 116.758 109.009 116.886L110.305 117.205C111.085 117.394 111.666 117.684 112.049 118.074C112.432 118.46 112.623 118.958 112.623 119.568C112.623 120.068 112.479 120.515 112.191 120.909C111.907 121.303 111.509 121.614 110.998 121.841C110.487 122.068 109.892 122.182 109.214 122.182C108.324 122.182 107.587 121.989 107.004 121.602C106.42 121.216 106.051 120.652 105.896 119.909L107.168 119.591C107.29 120.061 107.519 120.413 107.856 120.648C108.197 120.883 108.642 121 109.191 121C109.816 121 110.312 120.867 110.68 120.602C111.051 120.333 111.237 120.011 111.237 119.636C111.237 119.333 111.13 119.08 110.918 118.875C110.706 118.667 110.38 118.511 109.941 118.409L108.487 118.068C107.687 117.879 107.1 117.585 106.725 117.188C106.354 116.786 106.168 116.284 106.168 115.682C106.168 115.189 106.307 114.754 106.583 114.375C106.863 113.996 107.244 113.699 107.725 113.483C108.21 113.267 108.759 113.159 109.373 113.159C110.237 113.159 110.915 113.348 111.407 113.727C111.903 114.106 112.255 114.606 112.464 115.227ZM120.141 118.432V113.273H121.482V122H120.141V120.523H120.05C119.846 120.966 119.528 121.343 119.096 121.653C118.664 121.96 118.119 122.114 117.46 122.114C116.914 122.114 116.429 121.994 116.005 121.756C115.581 121.513 115.247 121.15 115.005 120.665C114.763 120.176 114.641 119.561 114.641 118.818V113.273H115.982V118.727C115.982 119.364 116.16 119.871 116.516 120.25C116.876 120.629 117.335 120.818 117.891 120.818C118.225 120.818 118.564 120.733 118.908 120.562C119.257 120.392 119.549 120.131 119.783 119.778C120.022 119.426 120.141 118.977 120.141 118.432ZM123.938 122V113.273H125.234V114.636H125.347C125.529 114.17 125.823 113.809 126.228 113.551C126.633 113.29 127.12 113.159 127.688 113.159C128.264 113.159 128.743 113.29 129.126 113.551C129.512 113.809 129.813 114.17 130.029 114.636H130.12C130.344 114.186 130.679 113.828 131.126 113.562C131.573 113.294 132.109 113.159 132.734 113.159C133.514 113.159 134.152 113.403 134.648 113.892C135.145 114.377 135.393 115.133 135.393 116.159V122H134.052V116.159C134.052 115.515 133.876 115.055 133.523 114.778C133.171 114.502 132.756 114.364 132.279 114.364C131.665 114.364 131.19 114.549 130.853 114.92C130.516 115.288 130.347 115.754 130.347 116.318V122H128.984V116.023C128.984 115.527 128.823 115.127 128.501 114.824C128.179 114.517 127.764 114.364 127.256 114.364C126.908 114.364 126.582 114.456 126.279 114.642C125.98 114.828 125.737 115.085 125.552 115.415C125.37 115.741 125.279 116.117 125.279 116.545V122H123.938ZM145.64 122.182C144.913 122.182 144.271 121.998 143.714 121.631C143.157 121.259 142.721 120.737 142.407 120.062C142.093 119.384 141.935 118.583 141.935 117.659C141.935 116.742 142.093 115.947 142.407 115.273C142.721 114.598 143.159 114.078 143.719 113.71C144.28 113.343 144.928 113.159 145.663 113.159C146.231 113.159 146.68 113.254 147.009 113.443C147.343 113.629 147.596 113.841 147.771 114.08C147.949 114.314 148.087 114.508 148.185 114.659H148.299V110.364H149.64V122H148.344V120.659H148.185C148.087 120.818 147.947 121.019 147.765 121.261C147.583 121.5 147.324 121.714 146.987 121.903C146.649 122.089 146.201 122.182 145.64 122.182ZM145.822 120.977C146.36 120.977 146.814 120.837 147.185 120.557C147.557 120.273 147.839 119.881 148.032 119.381C148.225 118.877 148.322 118.295 148.322 117.636C148.322 116.985 148.227 116.415 148.038 115.926C147.848 115.434 147.568 115.051 147.197 114.778C146.826 114.502 146.367 114.364 145.822 114.364C145.254 114.364 144.78 114.509 144.401 114.801C144.026 115.089 143.744 115.481 143.555 115.977C143.369 116.47 143.276 117.023 143.276 117.636C143.276 118.258 143.371 118.822 143.56 119.33C143.754 119.833 144.038 120.235 144.413 120.534C144.791 120.83 145.261 120.977 145.822 120.977ZM155.827 122.182C155.04 122.182 154.348 121.994 153.754 121.619C153.163 121.244 152.701 120.72 152.367 120.045C152.038 119.371 151.873 118.583 151.873 117.682C151.873 116.773 152.038 115.979 152.367 115.301C152.701 114.623 153.163 114.097 153.754 113.722C154.348 113.347 155.04 113.159 155.827 113.159C156.615 113.159 157.305 113.347 157.896 113.722C158.49 114.097 158.952 114.623 159.282 115.301C159.615 115.979 159.782 116.773 159.782 117.682C159.782 118.583 159.615 119.371 159.282 120.045C158.952 120.72 158.49 121.244 157.896 121.619C157.305 121.994 156.615 122.182 155.827 122.182ZM155.827 120.977C156.426 120.977 156.918 120.824 157.305 120.517C157.691 120.21 157.977 119.807 158.163 119.307C158.348 118.807 158.441 118.265 158.441 117.682C158.441 117.098 158.348 116.555 158.163 116.051C157.977 115.547 157.691 115.14 157.305 114.83C156.918 114.519 156.426 114.364 155.827 114.364C155.229 114.364 154.737 114.519 154.35 114.83C153.964 115.14 153.678 115.547 153.492 116.051C153.307 116.555 153.214 117.098 153.214 117.682C153.214 118.265 153.307 118.807 153.492 119.307C153.678 119.807 153.964 120.21 154.35 120.517C154.737 120.824 155.229 120.977 155.827 120.977ZM163.17 110.364V122H161.829V110.364H163.17ZM169.171 122.182C168.383 122.182 167.692 121.994 167.097 121.619C166.506 121.244 166.044 120.72 165.711 120.045C165.381 119.371 165.217 118.583 165.217 117.682C165.217 116.773 165.381 115.979 165.711 115.301C166.044 114.623 166.506 114.097 167.097 113.722C167.692 113.347 168.383 113.159 169.171 113.159C169.959 113.159 170.648 113.347 171.239 113.722C171.834 114.097 172.296 114.623 172.626 115.301C172.959 115.979 173.126 116.773 173.126 117.682C173.126 118.583 172.959 119.371 172.626 120.045C172.296 120.72 171.834 121.244 171.239 121.619C170.648 121.994 169.959 122.182 169.171 122.182ZM169.171 120.977C169.77 120.977 170.262 120.824 170.648 120.517C171.035 120.21 171.321 119.807 171.506 119.307C171.692 118.807 171.785 118.265 171.785 117.682C171.785 117.098 171.692 116.555 171.506 116.051C171.321 115.547 171.035 115.14 170.648 114.83C170.262 114.519 169.77 114.364 169.171 114.364C168.573 114.364 168.08 114.519 167.694 114.83C167.308 115.14 167.022 115.547 166.836 116.051C166.65 116.555 166.558 117.098 166.558 117.682C166.558 118.265 166.65 118.807 166.836 119.307C167.022 119.807 167.308 120.21 167.694 120.517C168.08 120.824 168.573 120.977 169.171 120.977ZM175.173 122V113.273H176.468V114.591H176.559C176.718 114.159 177.006 113.809 177.423 113.54C177.839 113.271 178.309 113.136 178.832 113.136C178.93 113.136 179.053 113.138 179.201 113.142C179.349 113.146 179.46 113.152 179.536 113.159V114.523C179.491 114.511 179.387 114.494 179.224 114.472C179.065 114.445 178.896 114.432 178.718 114.432C178.294 114.432 177.915 114.521 177.582 114.699C177.252 114.873 176.991 115.116 176.798 115.426C176.608 115.733 176.513 116.083 176.513 116.477V122H175.173ZM191.808 115.227L190.603 115.568C190.527 115.367 190.415 115.172 190.268 114.983C190.124 114.79 189.927 114.631 189.677 114.506C189.427 114.381 189.107 114.318 188.717 114.318C188.183 114.318 187.737 114.441 187.381 114.688C187.029 114.93 186.853 115.239 186.853 115.614C186.853 115.947 186.974 116.21 187.217 116.403C187.459 116.597 187.838 116.758 188.353 116.886L189.648 117.205C190.429 117.394 191.01 117.684 191.393 118.074C191.775 118.46 191.967 118.958 191.967 119.568C191.967 120.068 191.823 120.515 191.535 120.909C191.251 121.303 190.853 121.614 190.342 121.841C189.83 122.068 189.236 122.182 188.558 122.182C187.667 122.182 186.931 121.989 186.347 121.602C185.764 121.216 185.395 120.652 185.239 119.909L186.512 119.591C186.633 120.061 186.862 120.413 187.2 120.648C187.54 120.883 187.986 121 188.535 121C189.16 121 189.656 120.867 190.023 120.602C190.395 120.333 190.58 120.011 190.58 119.636C190.58 119.333 190.474 119.08 190.262 118.875C190.05 118.667 189.724 118.511 189.285 118.409L187.83 118.068C187.031 117.879 186.444 117.585 186.069 117.188C185.698 116.786 185.512 116.284 185.512 115.682C185.512 115.189 185.65 114.754 185.927 114.375C186.207 113.996 186.588 113.699 187.069 113.483C187.554 113.267 188.103 113.159 188.717 113.159C189.58 113.159 190.258 113.348 190.751 113.727C191.247 114.106 191.599 114.606 191.808 115.227ZM193.985 122V113.273H195.326V122H193.985ZM194.667 111.818C194.406 111.818 194.18 111.729 193.991 111.551C193.805 111.373 193.712 111.159 193.712 110.909C193.712 110.659 193.805 110.445 193.991 110.267C194.18 110.089 194.406 110 194.667 110C194.928 110 195.152 110.089 195.337 110.267C195.527 110.445 195.621 110.659 195.621 110.909C195.621 111.159 195.527 111.373 195.337 111.551C195.152 111.729 194.928 111.818 194.667 111.818ZM201.577 113.273V114.409H197.055V113.273H201.577ZM198.373 111.182H199.714V119.5C199.714 119.879 199.769 120.163 199.879 120.352C199.992 120.538 200.136 120.663 200.31 120.727C200.488 120.788 200.676 120.818 200.873 120.818C201.021 120.818 201.142 120.811 201.237 120.795C201.331 120.777 201.407 120.761 201.464 120.75L201.737 121.955C201.646 121.989 201.519 122.023 201.356 122.057C201.193 122.095 200.987 122.114 200.737 122.114C200.358 122.114 199.987 122.032 199.623 121.869C199.263 121.706 198.964 121.458 198.725 121.125C198.49 120.792 198.373 120.371 198.373 119.864V111.182ZM210.663 122.205C210.11 122.205 209.608 122.1 209.157 121.892C208.706 121.68 208.348 121.375 208.083 120.977C207.818 120.576 207.685 120.091 207.685 119.523C207.685 119.023 207.784 118.617 207.981 118.307C208.178 117.992 208.441 117.746 208.771 117.568C209.1 117.39 209.464 117.258 209.862 117.17C210.263 117.08 210.666 117.008 211.072 116.955C211.602 116.886 212.032 116.835 212.362 116.801C212.695 116.763 212.937 116.701 213.089 116.614C213.244 116.527 213.322 116.375 213.322 116.159V116.114C213.322 115.553 213.168 115.117 212.862 114.807C212.558 114.496 212.098 114.341 211.481 114.341C210.841 114.341 210.339 114.481 209.975 114.761C209.612 115.042 209.356 115.341 209.208 115.659L207.935 115.205C208.163 114.674 208.466 114.261 208.844 113.966C209.227 113.667 209.644 113.458 210.094 113.341C210.549 113.22 210.996 113.159 211.435 113.159C211.716 113.159 212.038 113.193 212.401 113.261C212.769 113.326 213.123 113.46 213.464 113.665C213.808 113.869 214.094 114.178 214.322 114.591C214.549 115.004 214.663 115.557 214.663 116.25V122H213.322V120.818H213.254C213.163 121.008 213.011 121.21 212.799 121.426C212.587 121.642 212.305 121.826 211.952 121.977C211.6 122.129 211.17 122.205 210.663 122.205ZM210.867 121C211.397 121 211.844 120.896 212.208 120.688C212.576 120.479 212.852 120.21 213.038 119.881C213.227 119.551 213.322 119.205 213.322 118.841V117.614C213.265 117.682 213.14 117.744 212.947 117.801C212.757 117.854 212.538 117.902 212.288 117.943C212.041 117.981 211.801 118.015 211.566 118.045C211.335 118.072 211.147 118.095 211.004 118.114C210.655 118.159 210.329 118.233 210.026 118.335C209.727 118.434 209.485 118.583 209.299 118.784C209.117 118.981 209.026 119.25 209.026 119.591C209.026 120.057 209.199 120.409 209.543 120.648C209.892 120.883 210.333 121 210.867 121ZM217.11 122V113.273H218.406V114.636H218.519C218.701 114.17 218.995 113.809 219.4 113.551C219.805 113.29 220.292 113.159 220.86 113.159C221.436 113.159 221.915 113.29 222.298 113.551C222.684 113.809 222.985 114.17 223.201 114.636H223.292C223.515 114.186 223.851 113.828 224.298 113.562C224.745 113.294 225.281 113.159 225.906 113.159C226.686 113.159 227.324 113.403 227.82 113.892C228.317 114.377 228.565 115.133 228.565 116.159V122H227.224V116.159C227.224 115.515 227.048 115.055 226.695 114.778C226.343 114.502 225.928 114.364 225.451 114.364C224.837 114.364 224.362 114.549 224.025 114.92C223.688 115.288 223.519 115.754 223.519 116.318V122H222.156V116.023C222.156 115.527 221.995 115.127 221.673 114.824C221.351 114.517 220.936 114.364 220.428 114.364C220.08 114.364 219.754 114.456 219.451 114.642C219.152 114.828 218.909 115.085 218.724 115.415C218.542 115.741 218.451 116.117 218.451 116.545V122H217.11ZM234.675 122.182C233.835 122.182 233.109 121.996 232.499 121.625C231.893 121.25 231.425 120.727 231.096 120.057C230.77 119.383 230.607 118.598 230.607 117.705C230.607 116.811 230.77 116.023 231.096 115.341C231.425 114.655 231.884 114.121 232.471 113.739C233.062 113.352 233.751 113.159 234.539 113.159C234.994 113.159 235.442 113.235 235.886 113.386C236.329 113.538 236.732 113.784 237.096 114.125C237.46 114.462 237.749 114.909 237.965 115.466C238.181 116.023 238.289 116.708 238.289 117.523V118.091H231.562V116.932H236.925C236.925 116.439 236.827 116 236.63 115.614C236.437 115.227 236.16 114.922 235.8 114.699C235.444 114.475 235.024 114.364 234.539 114.364C234.005 114.364 233.543 114.496 233.153 114.761C232.766 115.023 232.469 115.364 232.261 115.784C232.052 116.205 231.948 116.655 231.948 117.136V117.909C231.948 118.568 232.062 119.127 232.289 119.585C232.52 120.04 232.84 120.386 233.249 120.625C233.658 120.86 234.134 120.977 234.675 120.977C235.028 120.977 235.346 120.928 235.63 120.83C235.918 120.727 236.166 120.576 236.374 120.375C236.583 120.17 236.744 119.917 236.857 119.614L238.153 119.977C238.016 120.417 237.787 120.803 237.465 121.136C237.143 121.466 236.746 121.723 236.272 121.909C235.799 122.091 235.266 122.182 234.675 122.182ZM244.124 113.273V114.409H239.602V113.273H244.124ZM240.92 111.182H242.261V119.5C242.261 119.879 242.316 120.163 242.425 120.352C242.539 120.538 242.683 120.663 242.857 120.727C243.035 120.788 243.223 120.818 243.42 120.818C243.567 120.818 243.689 120.811 243.783 120.795C243.878 120.777 243.954 120.761 244.011 120.75L244.283 121.955C244.192 121.989 244.066 122.023 243.903 122.057C243.74 122.095 243.533 122.114 243.283 122.114C242.905 122.114 242.533 122.032 242.17 121.869C241.81 121.706 241.511 121.458 241.272 121.125C241.037 120.792 240.92 120.371 240.92 119.864V111.182ZM248.141 120.409L248.05 121.023C247.986 121.455 247.888 121.917 247.755 122.409C247.626 122.902 247.492 123.366 247.352 123.801C247.211 124.237 247.096 124.583 247.005 124.841H245.982C246.031 124.598 246.096 124.278 246.175 123.881C246.255 123.483 246.335 123.038 246.414 122.545C246.497 122.057 246.566 121.557 246.619 121.045L246.687 120.409H248.141ZM258.671 122.182C257.853 122.182 257.148 121.989 256.558 121.602C255.967 121.216 255.512 120.684 255.194 120.006C254.876 119.328 254.717 118.553 254.717 117.682C254.717 116.795 254.879 116.013 255.205 115.335C255.535 114.653 255.993 114.121 256.58 113.739C257.171 113.352 257.861 113.159 258.648 113.159C259.262 113.159 259.815 113.273 260.308 113.5C260.8 113.727 261.203 114.045 261.518 114.455C261.832 114.864 262.027 115.341 262.103 115.886H260.762C260.66 115.489 260.433 115.136 260.08 114.83C259.732 114.519 259.262 114.364 258.671 114.364C258.148 114.364 257.69 114.5 257.296 114.773C256.906 115.042 256.601 115.422 256.381 115.915C256.165 116.403 256.058 116.977 256.058 117.636C256.058 118.311 256.164 118.898 256.376 119.398C256.592 119.898 256.895 120.286 257.285 120.562C257.679 120.839 258.141 120.977 258.671 120.977C259.02 120.977 259.336 120.917 259.62 120.795C259.904 120.674 260.145 120.5 260.342 120.273C260.539 120.045 260.679 119.773 260.762 119.455H262.103C262.027 119.97 261.84 120.434 261.54 120.847C261.245 121.256 260.853 121.581 260.364 121.824C259.879 122.062 259.315 122.182 258.671 122.182ZM267.609 122.182C266.821 122.182 266.129 121.994 265.535 121.619C264.944 121.244 264.482 120.72 264.148 120.045C263.819 119.371 263.654 118.583 263.654 117.682C263.654 116.773 263.819 115.979 264.148 115.301C264.482 114.623 264.944 114.097 265.535 113.722C266.129 113.347 266.821 113.159 267.609 113.159C268.397 113.159 269.086 113.347 269.677 113.722C270.272 114.097 270.734 114.623 271.063 115.301C271.397 115.979 271.563 116.773 271.563 117.682C271.563 118.583 271.397 119.371 271.063 120.045C270.734 120.72 270.272 121.244 269.677 121.619C269.086 121.994 268.397 122.182 267.609 122.182ZM267.609 120.977C268.207 120.977 268.7 120.824 269.086 120.517C269.472 120.21 269.758 119.807 269.944 119.307C270.129 118.807 270.222 118.265 270.222 117.682C270.222 117.098 270.129 116.555 269.944 116.051C269.758 115.547 269.472 115.14 269.086 114.83C268.7 114.519 268.207 114.364 267.609 114.364C267.01 114.364 266.518 114.519 266.131 114.83C265.745 115.14 265.459 115.547 265.273 116.051C265.088 116.555 264.995 117.098 264.995 117.682C264.995 118.265 265.088 118.807 265.273 119.307C265.459 119.807 265.745 120.21 266.131 120.517C266.518 120.824 267.01 120.977 267.609 120.977ZM274.951 116.75V122H273.61V113.273H274.906V114.636H275.019C275.224 114.193 275.534 113.837 275.951 113.568C276.368 113.295 276.906 113.159 277.565 113.159C278.156 113.159 278.673 113.28 279.116 113.523C279.559 113.761 279.904 114.125 280.15 114.614C280.396 115.098 280.519 115.712 280.519 116.455V122H279.178V116.545C279.178 115.86 279 115.326 278.644 114.943C278.288 114.557 277.799 114.364 277.178 114.364C276.75 114.364 276.368 114.456 276.031 114.642C275.697 114.828 275.434 115.098 275.241 115.455C275.048 115.811 274.951 116.242 274.951 116.75ZM289.151 115.227L287.947 115.568C287.871 115.367 287.759 115.172 287.612 114.983C287.468 114.79 287.271 114.631 287.021 114.506C286.771 114.381 286.451 114.318 286.06 114.318C285.526 114.318 285.081 114.441 284.725 114.688C284.373 114.93 284.197 115.239 284.197 115.614C284.197 115.947 284.318 116.21 284.56 116.403C284.803 116.597 285.182 116.758 285.697 116.886L286.992 117.205C287.772 117.394 288.354 117.684 288.737 118.074C289.119 118.46 289.31 118.958 289.31 119.568C289.31 120.068 289.166 120.515 288.879 120.909C288.594 121.303 288.197 121.614 287.685 121.841C287.174 122.068 286.579 122.182 285.901 122.182C285.011 122.182 284.274 121.989 283.691 121.602C283.108 121.216 282.738 120.652 282.583 119.909L283.856 119.591C283.977 120.061 284.206 120.413 284.543 120.648C284.884 120.883 285.329 121 285.879 121C286.504 121 287 120.867 287.367 120.602C287.738 120.333 287.924 120.011 287.924 119.636C287.924 119.333 287.818 119.08 287.606 118.875C287.394 118.667 287.068 118.511 286.629 118.409L285.174 118.068C284.375 117.879 283.788 117.585 283.413 117.188C283.041 116.786 282.856 116.284 282.856 115.682C282.856 115.189 282.994 114.754 283.271 114.375C283.551 113.996 283.932 113.699 284.413 113.483C284.897 113.267 285.447 113.159 286.06 113.159C286.924 113.159 287.602 113.348 288.094 113.727C288.591 114.106 288.943 114.606 289.151 115.227ZM294.988 122.182C294.147 122.182 293.422 121.996 292.812 121.625C292.206 121.25 291.738 120.727 291.408 120.057C291.083 119.383 290.92 118.598 290.92 117.705C290.92 116.811 291.083 116.023 291.408 115.341C291.738 114.655 292.196 114.121 292.783 113.739C293.374 113.352 294.064 113.159 294.852 113.159C295.306 113.159 295.755 113.235 296.198 113.386C296.641 113.538 297.045 113.784 297.408 114.125C297.772 114.462 298.062 114.909 298.278 115.466C298.494 116.023 298.602 116.708 298.602 117.523V118.091H291.874V116.932H297.238C297.238 116.439 297.139 116 296.942 115.614C296.749 115.227 296.473 114.922 296.113 114.699C295.757 114.475 295.336 114.364 294.852 114.364C294.317 114.364 293.855 114.496 293.465 114.761C293.079 115.023 292.781 115.364 292.573 115.784C292.365 116.205 292.261 116.655 292.261 117.136V117.909C292.261 118.568 292.374 119.127 292.602 119.585C292.833 120.04 293.153 120.386 293.562 120.625C293.971 120.86 294.446 120.977 294.988 120.977C295.34 120.977 295.658 120.928 295.942 120.83C296.23 120.727 296.478 120.576 296.687 120.375C296.895 120.17 297.056 119.917 297.17 119.614L298.465 119.977C298.329 120.417 298.1 120.803 297.778 121.136C297.456 121.466 297.058 121.723 296.585 121.909C296.111 122.091 295.579 122.182 294.988 122.182ZM304.187 122.182C303.369 122.182 302.664 121.989 302.073 121.602C301.482 121.216 301.028 120.684 300.71 120.006C300.391 119.328 300.232 118.553 300.232 117.682C300.232 116.795 300.395 116.013 300.721 115.335C301.05 114.653 301.509 114.121 302.096 113.739C302.687 113.352 303.376 113.159 304.164 113.159C304.778 113.159 305.331 113.273 305.823 113.5C306.316 113.727 306.719 114.045 307.033 114.455C307.348 114.864 307.543 115.341 307.619 115.886H306.278C306.175 115.489 305.948 115.136 305.596 114.83C305.247 114.519 304.778 114.364 304.187 114.364C303.664 114.364 303.206 114.5 302.812 114.773C302.422 115.042 302.117 115.422 301.897 115.915C301.681 116.403 301.573 116.977 301.573 117.636C301.573 118.311 301.679 118.898 301.891 119.398C302.107 119.898 302.41 120.286 302.8 120.562C303.194 120.839 303.656 120.977 304.187 120.977C304.535 120.977 304.852 120.917 305.136 120.795C305.42 120.674 305.66 120.5 305.857 120.273C306.054 120.045 306.194 119.773 306.278 119.455H307.619C307.543 119.97 307.355 120.434 307.056 120.847C306.761 121.256 306.369 121.581 305.88 121.824C305.395 122.062 304.831 122.182 304.187 122.182ZM313.374 113.273V114.409H308.852V113.273H313.374ZM310.17 111.182H311.511V119.5C311.511 119.879 311.566 120.163 311.675 120.352C311.789 120.538 311.933 120.663 312.107 120.727C312.285 120.788 312.473 120.818 312.67 120.818C312.817 120.818 312.939 120.811 313.033 120.795C313.128 120.777 313.204 120.761 313.261 120.75L313.533 121.955C313.442 121.989 313.316 122.023 313.153 122.057C312.99 122.095 312.783 122.114 312.533 122.114C312.155 122.114 311.783 122.032 311.42 121.869C311.06 121.706 310.761 121.458 310.522 121.125C310.287 120.792 310.17 120.371 310.17 119.864V111.182ZM318.957 122.182C318.116 122.182 317.39 121.996 316.781 121.625C316.174 121.25 315.707 120.727 315.377 120.057C315.051 119.383 314.888 118.598 314.888 117.705C314.888 116.811 315.051 116.023 315.377 115.341C315.707 114.655 316.165 114.121 316.752 113.739C317.343 113.352 318.032 113.159 318.82 113.159C319.275 113.159 319.724 113.235 320.167 113.386C320.61 113.538 321.013 113.784 321.377 114.125C321.741 114.462 322.031 114.909 322.246 115.466C322.462 116.023 322.57 116.708 322.57 117.523V118.091H315.843V116.932H321.207C321.207 116.439 321.108 116 320.911 115.614C320.718 115.227 320.442 114.922 320.082 114.699C319.726 114.475 319.305 114.364 318.82 114.364C318.286 114.364 317.824 114.496 317.434 114.761C317.048 115.023 316.75 115.364 316.542 115.784C316.334 116.205 316.229 116.655 316.229 117.136V117.909C316.229 118.568 316.343 119.127 316.57 119.585C316.801 120.04 317.121 120.386 317.531 120.625C317.94 120.86 318.415 120.977 318.957 120.977C319.309 120.977 319.627 120.928 319.911 120.83C320.199 120.727 320.447 120.576 320.656 120.375C320.864 120.17 321.025 119.917 321.138 119.614L322.434 119.977C322.298 120.417 322.068 120.803 321.746 121.136C321.424 121.466 321.027 121.723 320.553 121.909C320.08 122.091 319.548 122.182 318.957 122.182ZM328.406 113.273V114.409H323.883V113.273H328.406ZM325.201 111.182H326.542V119.5C326.542 119.879 326.597 120.163 326.707 120.352C326.82 120.538 326.964 120.663 327.138 120.727C327.317 120.788 327.504 120.818 327.701 120.818C327.849 120.818 327.97 120.811 328.065 120.795C328.159 120.777 328.235 120.761 328.292 120.75L328.565 121.955C328.474 121.989 328.347 122.023 328.184 122.057C328.021 122.095 327.815 122.114 327.565 122.114C327.186 122.114 326.815 122.032 326.451 121.869C326.091 121.706 325.792 121.458 325.553 121.125C325.318 120.792 325.201 120.371 325.201 119.864V111.182ZM335.923 118.432V113.273H337.263V122H335.923V120.523H335.832C335.627 120.966 335.309 121.343 334.877 121.653C334.445 121.96 333.9 122.114 333.241 122.114C332.695 122.114 332.21 121.994 331.786 121.756C331.362 121.513 331.029 121.15 330.786 120.665C330.544 120.176 330.423 119.561 330.423 118.818V113.273H331.763V118.727C331.763 119.364 331.942 119.871 332.298 120.25C332.657 120.629 333.116 120.818 333.673 120.818C334.006 120.818 334.345 120.733 334.69 120.562C335.038 120.392 335.33 120.131 335.565 119.778C335.803 119.426 335.923 118.977 335.923 118.432ZM339.719 122V113.273H341.015V114.591H341.106C341.265 114.159 341.553 113.809 341.969 113.54C342.386 113.271 342.856 113.136 343.379 113.136C343.477 113.136 343.6 113.138 343.748 113.142C343.896 113.146 344.007 113.152 344.083 113.159V114.523C344.038 114.511 343.933 114.494 343.771 114.472C343.612 114.445 343.443 114.432 343.265 114.432C342.841 114.432 342.462 114.521 342.129 114.699C341.799 114.873 341.538 115.116 341.344 115.426C341.155 115.733 341.06 116.083 341.06 116.477V122H339.719ZM28.733 146.205C28.1799 146.205 27.678 146.1 27.2273 145.892C26.7765 145.68 26.4186 145.375 26.1534 144.977C25.8883 144.576 25.7557 144.091 25.7557 143.523C25.7557 143.023 25.8542 142.617 26.0511 142.307C26.2481 141.992 26.5114 141.746 26.8409 141.568C27.1705 141.39 27.5341 141.258 27.9318 141.17C28.3333 141.08 28.7367 141.008 29.142 140.955C29.6723 140.886 30.1023 140.835 30.4318 140.801C30.7652 140.763 31.0076 140.701 31.1591 140.614C31.3144 140.527 31.392 140.375 31.392 140.159V140.114C31.392 139.553 31.2386 139.117 30.9318 138.807C30.6288 138.496 30.1686 138.341 29.5511 138.341C28.911 138.341 28.4091 138.481 28.0455 138.761C27.6818 139.042 27.4261 139.341 27.2784 139.659L26.0057 139.205C26.233 138.674 26.536 138.261 26.9148 137.966C27.2973 137.667 27.714 137.458 28.1648 137.341C28.6193 137.22 29.0663 137.159 29.5057 137.159C29.786 137.159 30.108 137.193 30.4716 137.261C30.839 137.326 31.1932 137.46 31.5341 137.665C31.8788 137.869 32.1648 138.178 32.392 138.591C32.6193 139.004 32.733 139.557 32.733 140.25V146H31.392V144.818H31.3239C31.233 145.008 31.0814 145.21 30.8693 145.426C30.6572 145.642 30.375 145.826 30.0227 145.977C29.6705 146.129 29.2405 146.205 28.733 146.205ZM28.9375 145C29.4678 145 29.9148 144.896 30.2784 144.688C30.6458 144.479 30.9223 144.21 31.108 143.881C31.2973 143.551 31.392 143.205 31.392 142.841V141.614C31.3352 141.682 31.2102 141.744 31.017 141.801C30.8277 141.854 30.608 141.902 30.358 141.943C30.1117 141.981 29.8712 142.015 29.6364 142.045C29.4053 142.072 29.2178 142.095 29.0739 142.114C28.7254 142.159 28.3996 142.233 28.0966 142.335C27.7973 142.434 27.5549 142.583 27.3693 142.784C27.1875 142.981 27.0966 143.25 27.0966 143.591C27.0966 144.057 27.2689 144.409 27.6136 144.648C27.9621 144.883 28.4034 145 28.9375 145ZM38.4759 146.182C37.7486 146.182 37.1065 145.998 36.5497 145.631C35.9929 145.259 35.5573 144.737 35.2429 144.062C34.9285 143.384 34.7713 142.583 34.7713 141.659C34.7713 140.742 34.9285 139.947 35.2429 139.273C35.5573 138.598 35.9948 138.078 36.5554 137.71C37.116 137.343 37.7637 137.159 38.4986 137.159C39.0668 137.159 39.5156 137.254 39.8452 137.443C40.1785 137.629 40.4323 137.841 40.6065 138.08C40.7846 138.314 40.9228 138.508 41.0213 138.659H41.1349V134.364H42.4759V146H41.1804V144.659H41.0213C40.9228 144.818 40.7827 145.019 40.6009 145.261C40.419 145.5 40.1596 145.714 39.8224 145.903C39.4853 146.089 39.0365 146.182 38.4759 146.182ZM38.6577 144.977C39.1955 144.977 39.6501 144.837 40.0213 144.557C40.3925 144.273 40.6747 143.881 40.8679 143.381C41.0611 142.877 41.1577 142.295 41.1577 141.636C41.1577 140.985 41.063 140.415 40.8736 139.926C40.6842 139.434 40.4039 139.051 40.0327 138.778C39.6615 138.502 39.2031 138.364 38.6577 138.364C38.0895 138.364 37.616 138.509 37.2372 138.801C36.8622 139.089 36.58 139.481 36.3906 139.977C36.205 140.47 36.1122 141.023 36.1122 141.636C36.1122 142.258 36.2069 142.822 36.3963 143.33C36.5895 143.833 36.8736 144.235 37.2486 144.534C37.6274 144.83 38.0971 144.977 38.6577 144.977ZM45.1179 146V137.273H46.4588V146H45.1179ZM45.7997 135.818C45.5384 135.818 45.313 135.729 45.1236 135.551C44.938 135.373 44.8452 135.159 44.8452 134.909C44.8452 134.659 44.938 134.445 45.1236 134.267C45.313 134.089 45.5384 134 45.7997 134C46.0611 134 46.2846 134.089 46.4702 134.267C46.6596 134.445 46.7543 134.659 46.7543 134.909C46.7543 135.159 46.6596 135.373 46.4702 135.551C46.2846 135.729 46.0611 135.818 45.7997 135.818ZM48.9148 149.273V137.273H50.2102V138.659H50.3693C50.4678 138.508 50.6042 138.314 50.7784 138.08C50.9564 137.841 51.2102 137.629 51.5398 137.443C51.8731 137.254 52.3239 137.159 52.892 137.159C53.6269 137.159 54.2746 137.343 54.8352 137.71C55.3958 138.078 55.8333 138.598 56.1477 139.273C56.4621 139.947 56.6193 140.742 56.6193 141.659C56.6193 142.583 56.4621 143.384 56.1477 144.062C55.8333 144.737 55.3977 145.259 54.8409 145.631C54.2841 145.998 53.642 146.182 52.9148 146.182C52.3542 146.182 51.9053 146.089 51.5682 145.903C51.2311 145.714 50.9716 145.5 50.7898 145.261C50.608 145.019 50.4678 144.818 50.3693 144.659H50.2557V149.273H48.9148ZM50.233 141.636C50.233 142.295 50.3295 142.877 50.5227 143.381C50.7159 143.881 50.9981 144.273 51.3693 144.557C51.7405 144.837 52.1951 144.977 52.733 144.977C53.2936 144.977 53.7614 144.83 54.1364 144.534C54.5152 144.235 54.7992 143.833 54.9886 143.33C55.1818 142.822 55.2784 142.258 55.2784 141.636C55.2784 141.023 55.1837 140.47 54.9943 139.977C54.8087 139.481 54.5265 139.089 54.1477 138.801C53.7727 138.509 53.3011 138.364 52.733 138.364C52.1875 138.364 51.7292 138.502 51.358 138.778C50.9867 139.051 50.7064 139.434 50.517 139.926C50.3277 140.415 50.233 140.985 50.233 141.636ZM58.6648 146V137.273H60.0057V146H58.6648ZM59.3466 135.818C59.0852 135.818 58.8598 135.729 58.6705 135.551C58.4848 135.373 58.392 135.159 58.392 134.909C58.392 134.659 58.4848 134.445 58.6705 134.267C58.8598 134.089 59.0852 134 59.3466 134C59.608 134 59.8314 134.089 60.017 134.267C60.2064 134.445 60.3011 134.659 60.3011 134.909C60.3011 135.159 60.2064 135.373 60.017 135.551C59.8314 135.729 59.608 135.818 59.3466 135.818ZM68.6435 139.227L67.4389 139.568C67.3632 139.367 67.2514 139.172 67.1037 138.983C66.9598 138.79 66.7628 138.631 66.5128 138.506C66.2628 138.381 65.9427 138.318 65.5526 138.318C65.0185 138.318 64.5734 138.441 64.2173 138.688C63.8651 138.93 63.6889 139.239 63.6889 139.614C63.6889 139.947 63.8101 140.21 64.0526 140.403C64.295 140.597 64.6738 140.758 65.1889 140.886L66.4844 141.205C67.2647 141.394 67.8461 141.684 68.2287 142.074C68.6113 142.46 68.8026 142.958 68.8026 143.568C68.8026 144.068 68.6586 144.515 68.3707 144.909C68.0866 145.303 67.6889 145.614 67.1776 145.841C66.6662 146.068 66.0715 146.182 65.3935 146.182C64.5033 146.182 63.7666 145.989 63.1832 145.602C62.5999 145.216 62.2306 144.652 62.0753 143.909L63.348 143.591C63.4692 144.061 63.6984 144.413 64.0355 144.648C64.3764 144.883 64.8215 145 65.3707 145C65.9957 145 66.492 144.867 66.8594 144.602C67.2306 144.333 67.4162 144.011 67.4162 143.636C67.4162 143.333 67.3101 143.08 67.098 142.875C66.8859 142.667 66.5601 142.511 66.1207 142.409L64.6662 142.068C63.867 141.879 63.2798 141.585 62.9048 141.188C62.5336 140.786 62.348 140.284 62.348 139.682C62.348 139.189 62.4863 138.754 62.7628 138.375C63.0431 137.996 63.4238 137.699 63.9048 137.483C64.3897 137.267 64.9389 137.159 65.5526 137.159C66.4162 137.159 67.0942 137.348 67.5866 137.727C68.0829 138.106 68.4351 138.606 68.6435 139.227ZM74.3665 146.182C73.5483 146.182 72.8438 145.989 72.2528 145.602C71.6619 145.216 71.2074 144.684 70.8892 144.006C70.571 143.328 70.4119 142.553 70.4119 141.682C70.4119 140.795 70.5748 140.013 70.9006 139.335C71.2301 138.653 71.6884 138.121 72.2756 137.739C72.8665 137.352 73.5559 137.159 74.3438 137.159C74.9574 137.159 75.5104 137.273 76.0028 137.5C76.4953 137.727 76.8987 138.045 77.2131 138.455C77.5275 138.864 77.7225 139.341 77.7983 139.886H76.4574C76.3551 139.489 76.1278 139.136 75.7756 138.83C75.4271 138.519 74.9574 138.364 74.3665 138.364C73.8438 138.364 73.3854 138.5 72.9915 138.773C72.6013 139.042 72.2964 139.422 72.0767 139.915C71.8608 140.403 71.7528 140.977 71.7528 141.636C71.7528 142.311 71.8589 142.898 72.071 143.398C72.2869 143.898 72.59 144.286 72.9801 144.562C73.3741 144.839 73.8362 144.977 74.3665 144.977C74.715 144.977 75.0312 144.917 75.3153 144.795C75.5994 144.674 75.84 144.5 76.0369 144.273C76.2339 144.045 76.3741 143.773 76.4574 143.455H77.7983C77.7225 143.97 77.535 144.434 77.2358 144.847C76.9403 145.256 76.5483 145.581 76.0597 145.824C75.5748 146.062 75.0104 146.182 74.3665 146.182ZM79.7585 146V137.273H81.0994V146H79.7585ZM80.4403 135.818C80.179 135.818 79.9536 135.729 79.7642 135.551C79.5786 135.373 79.4858 135.159 79.4858 134.909C79.4858 134.659 79.5786 134.445 79.7642 134.267C79.9536 134.089 80.179 134 80.4403 134C80.7017 134 80.9252 134.089 81.1108 134.267C81.3002 134.445 81.3949 134.659 81.3949 134.909C81.3949 135.159 81.3002 135.373 81.1108 135.551C80.9252 135.729 80.7017 135.818 80.4403 135.818ZM84.8963 140.75V146H83.5554V137.273H84.8509V138.636H84.9645C85.169 138.193 85.4796 137.837 85.8963 137.568C86.313 137.295 86.8509 137.159 87.5099 137.159C88.1009 137.159 88.6179 137.28 89.0611 137.523C89.5043 137.761 89.849 138.125 90.0952 138.614C90.3414 139.098 90.4645 139.712 90.4645 140.455V146H89.1236V140.545C89.1236 139.86 88.9455 139.326 88.5895 138.943C88.2334 138.557 87.7448 138.364 87.1236 138.364C86.6955 138.364 86.313 138.456 85.9759 138.642C85.6425 138.828 85.3793 139.098 85.1861 139.455C84.9929 139.811 84.8963 140.242 84.8963 140.75ZM96.4375 149.455C95.7898 149.455 95.233 149.371 94.767 149.205C94.3011 149.042 93.9129 148.826 93.6023 148.557C93.2955 148.292 93.0511 148.008 92.8693 147.705L93.9375 146.955C94.0587 147.114 94.2121 147.295 94.3977 147.5C94.5833 147.708 94.8371 147.888 95.1591 148.04C95.4848 148.195 95.911 148.273 96.4375 148.273C97.142 148.273 97.7235 148.102 98.1818 147.761C98.6402 147.42 98.8693 146.886 98.8693 146.159V144.386H98.7557C98.6572 144.545 98.517 144.742 98.3352 144.977C98.1572 145.208 97.8996 145.415 97.5625 145.597C97.2292 145.775 96.7784 145.864 96.2102 145.864C95.5057 145.864 94.8731 145.697 94.3125 145.364C93.7557 145.03 93.3144 144.545 92.9886 143.909C92.6667 143.273 92.5057 142.5 92.5057 141.591C92.5057 140.697 92.6629 139.919 92.9773 139.256C93.2917 138.589 93.7292 138.074 94.2898 137.71C94.8504 137.343 95.4981 137.159 96.233 137.159C96.8011 137.159 97.2519 137.254 97.5852 137.443C97.9223 137.629 98.1799 137.841 98.358 138.08C98.5398 138.314 98.6799 138.508 98.7784 138.659H98.9148V137.273H100.21V146.25C100.21 147 100.04 147.61 99.6989 148.08C99.3617 148.553 98.9072 148.9 98.3352 149.119C97.767 149.343 97.1345 149.455 96.4375 149.455ZM96.392 144.659C96.9299 144.659 97.3845 144.536 97.7557 144.29C98.1269 144.044 98.4091 143.689 98.6023 143.227C98.7955 142.765 98.892 142.212 98.892 141.568C98.892 140.939 98.7973 140.384 98.608 139.903C98.4186 139.422 98.1383 139.045 97.767 138.773C97.3958 138.5 96.9375 138.364 96.392 138.364C95.8239 138.364 95.3504 138.508 94.9716 138.795C94.5966 139.083 94.3144 139.47 94.125 139.955C93.9394 140.439 93.8466 140.977 93.8466 141.568C93.8466 142.174 93.9413 142.71 94.1307 143.176C94.3239 143.638 94.608 144.002 94.983 144.267C95.3617 144.528 95.8314 144.659 96.392 144.659ZM110.824 146.182C109.983 146.182 109.258 145.996 108.648 145.625C108.042 145.25 107.574 144.727 107.244 144.057C106.919 143.383 106.756 142.598 106.756 141.705C106.756 140.811 106.919 140.023 107.244 139.341C107.574 138.655 108.032 138.121 108.619 137.739C109.21 137.352 109.9 137.159 110.688 137.159C111.142 137.159 111.591 137.235 112.034 137.386C112.477 137.538 112.881 137.784 113.244 138.125C113.608 138.462 113.898 138.909 114.114 139.466C114.33 140.023 114.438 140.708 114.438 141.523V142.091H107.71V140.932H113.074C113.074 140.439 112.975 140 112.778 139.614C112.585 139.227 112.309 138.922 111.949 138.699C111.593 138.475 111.172 138.364 110.688 138.364C110.153 138.364 109.691 138.496 109.301 138.761C108.915 139.023 108.617 139.364 108.409 139.784C108.201 140.205 108.097 140.655 108.097 141.136V141.909C108.097 142.568 108.21 143.127 108.438 143.585C108.669 144.04 108.989 144.386 109.398 144.625C109.807 144.86 110.282 144.977 110.824 144.977C111.176 144.977 111.494 144.928 111.778 144.83C112.066 144.727 112.314 144.576 112.523 144.375C112.731 144.17 112.892 143.917 113.006 143.614L114.301 143.977C114.165 144.417 113.936 144.803 113.614 145.136C113.292 145.466 112.894 145.723 112.42 145.909C111.947 146.091 111.415 146.182 110.824 146.182ZM117.818 134.364V146H116.477V134.364H117.818ZM120.274 146V137.273H121.615V146H120.274ZM120.956 135.818C120.695 135.818 120.469 135.729 120.28 135.551C120.094 135.373 120.001 135.159 120.001 134.909C120.001 134.659 120.094 134.445 120.28 134.267C120.469 134.089 120.695 134 120.956 134C121.217 134 121.441 134.089 121.626 134.267C121.816 134.445 121.911 134.659 121.911 134.909C121.911 135.159 121.816 135.373 121.626 135.551C121.441 135.729 121.217 135.818 120.956 135.818ZM127.866 137.273V138.409H123.344V137.273H127.866ZM124.662 135.182H126.003V143.5C126.003 143.879 126.058 144.163 126.168 144.352C126.281 144.538 126.425 144.663 126.599 144.727C126.777 144.788 126.965 144.818 127.162 144.818C127.31 144.818 127.431 144.811 127.526 144.795C127.62 144.777 127.696 144.761 127.753 144.75L128.026 145.955C127.935 145.989 127.808 146.023 127.645 146.057C127.482 146.095 127.276 146.114 127.026 146.114C126.647 146.114 126.276 146.032 125.912 145.869C125.552 145.706 125.253 145.458 125.014 145.125C124.779 144.792 124.662 144.371 124.662 143.864V135.182ZM130.861 146.091C130.58 146.091 130.34 145.991 130.139 145.79C129.938 145.589 129.838 145.348 129.838 145.068C129.838 144.788 129.938 144.547 130.139 144.347C130.34 144.146 130.58 144.045 130.861 144.045C131.141 144.045 131.382 144.146 131.582 144.347C131.783 144.547 131.884 144.788 131.884 145.068C131.884 145.254 131.836 145.424 131.741 145.58C131.651 145.735 131.527 145.86 131.372 145.955C131.221 146.045 131.05 146.091 130.861 146.091ZM145.335 137.273C145.267 136.697 144.991 136.25 144.506 135.932C144.021 135.614 143.426 135.455 142.722 135.455C142.206 135.455 141.756 135.538 141.369 135.705C140.987 135.871 140.688 136.1 140.472 136.392C140.259 136.684 140.153 137.015 140.153 137.386C140.153 137.697 140.227 137.964 140.375 138.188C140.527 138.407 140.72 138.591 140.955 138.739C141.189 138.883 141.436 139.002 141.693 139.097C141.951 139.187 142.188 139.261 142.403 139.318L143.585 139.636C143.888 139.716 144.225 139.826 144.597 139.966C144.972 140.106 145.33 140.297 145.67 140.54C146.015 140.778 146.299 141.085 146.523 141.46C146.746 141.835 146.858 142.295 146.858 142.841C146.858 143.47 146.693 144.038 146.364 144.545C146.038 145.053 145.561 145.456 144.932 145.756C144.307 146.055 143.547 146.205 142.653 146.205C141.82 146.205 141.098 146.07 140.489 145.801C139.883 145.532 139.405 145.157 139.057 144.676C138.712 144.195 138.517 143.636 138.472 143H139.926C139.964 143.439 140.112 143.803 140.369 144.091C140.631 144.375 140.96 144.587 141.358 144.727C141.759 144.864 142.191 144.932 142.653 144.932C143.191 144.932 143.674 144.845 144.102 144.67C144.53 144.492 144.869 144.246 145.119 143.932C145.369 143.614 145.494 143.242 145.494 142.818C145.494 142.432 145.386 142.117 145.17 141.875C144.955 141.633 144.67 141.436 144.318 141.284C143.966 141.133 143.585 141 143.176 140.886L141.744 140.477C140.835 140.216 140.116 139.843 139.585 139.358C139.055 138.873 138.79 138.239 138.79 137.455C138.79 136.803 138.966 136.235 139.318 135.75C139.674 135.261 140.152 134.883 140.75 134.614C141.352 134.341 142.025 134.205 142.767 134.205C143.517 134.205 144.184 134.339 144.767 134.608C145.35 134.873 145.813 135.237 146.153 135.699C146.498 136.161 146.68 136.686 146.699 137.273H145.335ZM152.652 146.182C151.811 146.182 151.086 145.996 150.476 145.625C149.87 145.25 149.402 144.727 149.072 144.057C148.747 143.383 148.584 142.598 148.584 141.705C148.584 140.811 148.747 140.023 149.072 139.341C149.402 138.655 149.86 138.121 150.447 137.739C151.038 137.352 151.728 137.159 152.516 137.159C152.97 137.159 153.419 137.235 153.862 137.386C154.305 137.538 154.709 137.784 155.072 138.125C155.436 138.462 155.726 138.909 155.942 139.466C156.158 140.023 156.266 140.708 156.266 141.523V142.091H149.538V140.932H154.902C154.902 140.439 154.804 140 154.607 139.614C154.413 139.227 154.137 138.922 153.777 138.699C153.421 138.475 153 138.364 152.516 138.364C151.982 138.364 151.519 138.496 151.129 138.761C150.743 139.023 150.446 139.364 150.237 139.784C150.029 140.205 149.925 140.655 149.925 141.136V141.909C149.925 142.568 150.038 143.127 150.266 143.585C150.497 144.04 150.817 144.386 151.226 144.625C151.635 144.86 152.11 144.977 152.652 144.977C153.004 144.977 153.322 144.928 153.607 144.83C153.894 144.727 154.143 144.576 154.351 144.375C154.559 144.17 154.72 143.917 154.834 143.614L156.129 143.977C155.993 144.417 155.764 144.803 155.442 145.136C155.12 145.466 154.722 145.723 154.249 145.909C153.775 146.091 153.243 146.182 152.652 146.182ZM161.601 146.182C160.874 146.182 160.232 145.998 159.675 145.631C159.118 145.259 158.682 144.737 158.368 144.062C158.054 143.384 157.896 142.583 157.896 141.659C157.896 140.742 158.054 139.947 158.368 139.273C158.682 138.598 159.12 138.078 159.68 137.71C160.241 137.343 160.889 137.159 161.624 137.159C162.192 137.159 162.641 137.254 162.97 137.443C163.304 137.629 163.557 137.841 163.732 138.08C163.91 138.314 164.048 138.508 164.146 138.659H164.26V134.364H165.601V146H164.305V144.659H164.146C164.048 144.818 163.908 145.019 163.726 145.261C163.544 145.5 163.285 145.714 162.947 145.903C162.61 146.089 162.161 146.182 161.601 146.182ZM161.783 144.977C162.321 144.977 162.775 144.837 163.146 144.557C163.518 144.273 163.8 143.881 163.993 143.381C164.186 142.877 164.283 142.295 164.283 141.636C164.283 140.985 164.188 140.415 163.999 139.926C163.809 139.434 163.529 139.051 163.158 138.778C162.786 138.502 162.328 138.364 161.783 138.364C161.214 138.364 160.741 138.509 160.362 138.801C159.987 139.089 159.705 139.481 159.516 139.977C159.33 140.47 159.237 141.023 159.237 141.636C159.237 142.258 159.332 142.822 159.521 143.33C159.714 143.833 159.999 144.235 160.374 144.534C160.752 144.83 161.222 144.977 161.783 144.977ZM176.402 146.182C175.561 146.182 174.836 145.996 174.226 145.625C173.62 145.25 173.152 144.727 172.822 144.057C172.497 143.383 172.334 142.598 172.334 141.705C172.334 140.811 172.497 140.023 172.822 139.341C173.152 138.655 173.61 138.121 174.197 137.739C174.788 137.352 175.478 137.159 176.266 137.159C176.72 137.159 177.169 137.235 177.612 137.386C178.055 137.538 178.459 137.784 178.822 138.125C179.186 138.462 179.476 138.909 179.692 139.466C179.908 140.023 180.016 140.708 180.016 141.523V142.091H173.288V140.932H178.652C178.652 140.439 178.554 140 178.357 139.614C178.163 139.227 177.887 138.922 177.527 138.699C177.171 138.475 176.75 138.364 176.266 138.364C175.732 138.364 175.269 138.496 174.879 138.761C174.493 139.023 174.196 139.364 173.987 139.784C173.779 140.205 173.675 140.655 173.675 141.136V141.909C173.675 142.568 173.788 143.127 174.016 143.585C174.247 144.04 174.567 144.386 174.976 144.625C175.385 144.86 175.86 144.977 176.402 144.977C176.754 144.977 177.072 144.928 177.357 144.83C177.644 144.727 177.893 144.576 178.101 144.375C178.309 144.17 178.47 143.917 178.584 143.614L179.879 143.977C179.743 144.417 179.514 144.803 179.192 145.136C178.87 145.466 178.472 145.723 177.999 145.909C177.525 146.091 176.993 146.182 176.402 146.182ZM182.055 146V137.273H183.351V138.591H183.442C183.601 138.159 183.889 137.809 184.305 137.54C184.722 137.271 185.192 137.136 185.714 137.136C185.813 137.136 185.936 137.138 186.084 137.142C186.232 137.146 186.343 137.152 186.419 137.159V138.523C186.374 138.511 186.269 138.494 186.107 138.472C185.947 138.445 185.779 138.432 185.601 138.432C185.177 138.432 184.798 138.521 184.464 138.699C184.135 138.873 183.874 139.116 183.68 139.426C183.491 139.733 183.396 140.083 183.396 140.477V146H182.055ZM190.577 146.205C190.024 146.205 189.522 146.1 189.071 145.892C188.62 145.68 188.262 145.375 187.997 144.977C187.732 144.576 187.599 144.091 187.599 143.523C187.599 143.023 187.698 142.617 187.895 142.307C188.092 141.992 188.355 141.746 188.685 141.568C189.014 141.39 189.378 141.258 189.776 141.17C190.177 141.08 190.58 141.008 190.986 140.955C191.516 140.886 191.946 140.835 192.276 140.801C192.609 140.763 192.851 140.701 193.003 140.614C193.158 140.527 193.236 140.375 193.236 140.159V140.114C193.236 139.553 193.082 139.117 192.776 138.807C192.473 138.496 192.012 138.341 191.395 138.341C190.755 138.341 190.253 138.481 189.889 138.761C189.526 139.042 189.27 139.341 189.122 139.659L187.849 139.205C188.077 138.674 188.38 138.261 188.759 137.966C189.141 137.667 189.558 137.458 190.009 137.341C190.463 137.22 190.91 137.159 191.349 137.159C191.63 137.159 191.952 137.193 192.315 137.261C192.683 137.326 193.037 137.46 193.378 137.665C193.723 137.869 194.009 138.178 194.236 138.591C194.463 139.004 194.577 139.557 194.577 140.25V146H193.236V144.818H193.168C193.077 145.008 192.925 145.21 192.713 145.426C192.501 145.642 192.219 145.826 191.866 145.977C191.514 146.129 191.084 146.205 190.577 146.205ZM190.781 145C191.312 145 191.759 144.896 192.122 144.688C192.49 144.479 192.766 144.21 192.952 143.881C193.141 143.551 193.236 143.205 193.236 142.841V141.614C193.179 141.682 193.054 141.744 192.861 141.801C192.671 141.854 192.452 141.902 192.202 141.943C191.955 141.981 191.715 142.015 191.48 142.045C191.249 142.072 191.062 142.095 190.918 142.114C190.569 142.159 190.243 142.233 189.94 142.335C189.641 142.434 189.399 142.583 189.213 142.784C189.031 142.981 188.94 143.25 188.94 143.591C188.94 144.057 189.113 144.409 189.457 144.648C189.806 144.883 190.247 145 190.781 145ZM200.82 137.273V138.409H196.297V137.273H200.82ZM197.615 135.182H198.956V143.5C198.956 143.879 199.011 144.163 199.121 144.352C199.234 144.538 199.378 144.663 199.553 144.727C199.731 144.788 199.918 144.818 200.115 144.818C200.263 144.818 200.384 144.811 200.479 144.795C200.573 144.777 200.649 144.761 200.706 144.75L200.979 145.955C200.888 145.989 200.761 146.023 200.598 146.057C200.435 146.095 200.229 146.114 199.979 146.114C199.6 146.114 199.229 146.032 198.865 145.869C198.505 145.706 198.206 145.458 197.967 145.125C197.732 144.792 197.615 144.371 197.615 143.864V135.182ZM208.678 140.75V146H207.337V137.273H208.632V138.636H208.746C208.95 138.193 209.261 137.837 209.678 137.568C210.094 137.295 210.632 137.159 211.291 137.159C211.882 137.159 212.399 137.28 212.842 137.523C213.286 137.761 213.63 138.125 213.876 138.614C214.123 139.098 214.246 139.712 214.246 140.455V146H212.905V140.545C212.905 139.86 212.727 139.326 212.371 138.943C212.015 138.557 211.526 138.364 210.905 138.364C210.477 138.364 210.094 138.456 209.757 138.642C209.424 138.828 209.161 139.098 208.967 139.455C208.774 139.811 208.678 140.242 208.678 140.75ZM216.696 146V137.273H218.037V146H216.696ZM217.378 135.818C217.116 135.818 216.891 135.729 216.702 135.551C216.516 135.373 216.423 135.159 216.423 134.909C216.423 134.659 216.516 134.445 216.702 134.267C216.891 134.089 217.116 134 217.378 134C217.639 134 217.863 134.089 218.048 134.267C218.238 134.445 218.332 134.659 218.332 134.909C218.332 135.159 218.238 135.373 218.048 135.551C217.863 135.729 217.639 135.818 217.378 135.818ZM220.675 146V134.364H222.016V138.659H222.129C222.228 138.508 222.364 138.314 222.538 138.08C222.716 137.841 222.97 137.629 223.3 137.443C223.633 137.254 224.084 137.159 224.652 137.159C225.387 137.159 226.035 137.343 226.595 137.71C227.156 138.078 227.593 138.598 227.908 139.273C228.222 139.947 228.379 140.742 228.379 141.659C228.379 142.583 228.222 143.384 227.908 144.062C227.593 144.737 227.158 145.259 226.601 145.631C226.044 145.998 225.402 146.182 224.675 146.182C224.114 146.182 223.665 146.089 223.328 145.903C222.991 145.714 222.732 145.5 222.55 145.261C222.368 145.019 222.228 144.818 222.129 144.659H221.97V146H220.675ZM221.993 141.636C221.993 142.295 222.089 142.877 222.283 143.381C222.476 143.881 222.758 144.273 223.129 144.557C223.5 144.837 223.955 144.977 224.493 144.977C225.054 144.977 225.521 144.83 225.896 144.534C226.275 144.235 226.559 143.833 226.749 143.33C226.942 142.822 227.038 142.258 227.038 141.636C227.038 141.023 226.944 140.47 226.754 139.977C226.569 139.481 226.286 139.089 225.908 138.801C225.533 138.509 225.061 138.364 224.493 138.364C223.947 138.364 223.489 138.502 223.118 138.778C222.747 139.051 222.466 139.434 222.277 139.926C222.088 140.415 221.993 140.985 221.993 141.636ZM231.771 140.75V146H230.43V134.364H231.771V138.636H231.885C232.089 138.186 232.396 137.828 232.805 137.562C233.218 137.294 233.768 137.159 234.453 137.159C235.048 137.159 235.569 137.278 236.016 137.517C236.463 137.752 236.809 138.114 237.055 138.602C237.305 139.087 237.43 139.705 237.43 140.455V146H236.089V140.545C236.089 139.852 235.91 139.316 235.55 138.938C235.194 138.555 234.699 138.364 234.067 138.364C233.627 138.364 233.233 138.456 232.885 138.642C232.54 138.828 232.268 139.098 232.067 139.455C231.87 139.811 231.771 140.242 231.771 140.75ZM248.179 137.273V138.409H243.656V137.273H248.179ZM244.974 135.182H246.315V143.5C246.315 143.879 246.37 144.163 246.48 144.352C246.594 144.538 246.738 144.663 246.912 144.727C247.09 144.788 247.277 144.818 247.474 144.818C247.622 144.818 247.743 144.811 247.838 144.795C247.933 144.777 248.009 144.761 248.065 144.75L248.338 145.955C248.247 145.989 248.12 146.023 247.957 146.057C247.795 146.095 247.588 146.114 247.338 146.114C246.959 146.114 246.588 146.032 246.224 145.869C245.865 145.706 245.565 145.458 245.327 145.125C245.092 144.792 244.974 144.371 244.974 143.864V135.182ZM250.196 146V137.273H251.491V138.591H251.582C251.741 138.159 252.029 137.809 252.446 137.54C252.863 137.271 253.332 137.136 253.855 137.136C253.954 137.136 254.077 137.138 254.224 137.142C254.372 137.146 254.484 137.152 254.56 137.159V138.523C254.514 138.511 254.41 138.494 254.247 138.472C254.088 138.445 253.92 138.432 253.741 138.432C253.317 138.432 252.938 138.521 252.605 138.699C252.276 138.873 252.014 139.116 251.821 139.426C251.632 139.733 251.537 140.083 251.537 140.477V146H250.196ZM256.149 146V137.273H257.49V146H256.149ZM256.831 135.818C256.57 135.818 256.344 135.729 256.155 135.551C255.969 135.373 255.876 135.159 255.876 134.909C255.876 134.659 255.969 134.445 256.155 134.267C256.344 134.089 256.57 134 256.831 134C257.092 134 257.316 134.089 257.501 134.267C257.691 134.445 257.786 134.659 257.786 134.909C257.786 135.159 257.691 135.373 257.501 135.551C257.316 135.729 257.092 135.818 256.831 135.818ZM266.128 139.227L264.923 139.568C264.848 139.367 264.736 139.172 264.588 138.983C264.444 138.79 264.247 138.631 263.997 138.506C263.747 138.381 263.427 138.318 263.037 138.318C262.503 138.318 262.058 138.441 261.702 138.688C261.349 138.93 261.173 139.239 261.173 139.614C261.173 139.947 261.295 140.21 261.537 140.403C261.779 140.597 262.158 140.758 262.673 140.886L263.969 141.205C264.749 141.394 265.33 141.684 265.713 142.074C266.096 142.46 266.287 142.958 266.287 143.568C266.287 144.068 266.143 144.515 265.855 144.909C265.571 145.303 265.173 145.614 264.662 145.841C264.151 146.068 263.556 146.182 262.878 146.182C261.988 146.182 261.251 145.989 260.668 145.602C260.084 145.216 259.715 144.652 259.56 143.909L260.832 143.591C260.954 144.061 261.183 144.413 261.52 144.648C261.861 144.883 262.306 145 262.855 145C263.48 145 263.976 144.867 264.344 144.602C264.715 144.333 264.901 144.011 264.901 143.636C264.901 143.333 264.795 143.08 264.582 142.875C264.37 142.667 264.045 142.511 263.605 142.409L262.151 142.068C261.351 141.879 260.764 141.585 260.389 141.188C260.018 140.786 259.832 140.284 259.832 139.682C259.832 139.189 259.971 138.754 260.247 138.375C260.527 137.996 260.908 137.699 261.389 137.483C261.874 137.267 262.423 137.159 263.037 137.159C263.901 137.159 264.579 137.348 265.071 137.727C265.567 138.106 265.92 138.606 266.128 139.227ZM272.101 137.273V138.409H267.578V137.273H272.101ZM268.896 135.182H270.237V143.5C270.237 143.879 270.292 144.163 270.402 144.352C270.516 144.538 270.66 144.663 270.834 144.727C271.012 144.788 271.199 144.818 271.396 144.818C271.544 144.818 271.665 144.811 271.76 144.795C271.855 144.777 271.93 144.761 271.987 144.75L272.26 145.955C272.169 145.989 272.042 146.023 271.879 146.057C271.716 146.095 271.51 146.114 271.26 146.114C270.881 146.114 270.51 146.032 270.146 145.869C269.786 145.706 269.487 145.458 269.249 145.125C269.014 144.792 268.896 144.371 268.896 143.864V135.182ZM274.118 146V137.273H275.459V146H274.118ZM274.8 135.818C274.538 135.818 274.313 135.729 274.124 135.551C273.938 135.373 273.845 135.159 273.845 134.909C273.845 134.659 273.938 134.445 274.124 134.267C274.313 134.089 274.538 134 274.8 134C275.061 134 275.285 134.089 275.47 134.267C275.66 134.445 275.754 134.659 275.754 134.909C275.754 135.159 275.66 135.373 275.47 135.551C275.285 135.729 275.061 135.818 274.8 135.818ZM283.869 149.273V144.659H283.756C283.657 144.818 283.517 145.019 283.335 145.261C283.153 145.5 282.894 145.714 282.557 145.903C282.22 146.089 281.771 146.182 281.21 146.182C280.483 146.182 279.841 145.998 279.284 145.631C278.727 145.259 278.292 144.737 277.977 144.062C277.663 143.384 277.506 142.583 277.506 141.659C277.506 140.742 277.663 139.947 277.977 139.273C278.292 138.598 278.729 138.078 279.29 137.71C279.85 137.343 280.498 137.159 281.233 137.159C281.801 137.159 282.25 137.254 282.58 137.443C282.913 137.629 283.167 137.841 283.341 138.08C283.519 138.314 283.657 138.508 283.756 138.659H283.915V137.273H285.21V149.273H283.869ZM281.392 144.977C281.93 144.977 282.384 144.837 282.756 144.557C283.127 144.273 283.409 143.881 283.602 143.381C283.795 142.877 283.892 142.295 283.892 141.636C283.892 140.985 283.797 140.415 283.608 139.926C283.419 139.434 283.138 139.051 282.767 138.778C282.396 138.502 281.938 138.364 281.392 138.364C280.824 138.364 280.35 138.509 279.972 138.801C279.597 139.089 279.314 139.481 279.125 139.977C278.939 140.47 278.847 141.023 278.847 141.636C278.847 142.258 278.941 142.822 279.131 143.33C279.324 143.833 279.608 144.235 279.983 144.534C280.362 144.83 280.831 144.977 281.392 144.977ZM293.165 142.432V137.273H294.506V146H293.165V144.523H293.074C292.869 144.966 292.551 145.343 292.119 145.653C291.688 145.96 291.142 146.114 290.483 146.114C289.938 146.114 289.453 145.994 289.028 145.756C288.604 145.513 288.271 145.15 288.028 144.665C287.786 144.176 287.665 143.561 287.665 142.818V137.273H289.006V142.727C289.006 143.364 289.184 143.871 289.54 144.25C289.9 144.629 290.358 144.818 290.915 144.818C291.248 144.818 291.587 144.733 291.932 144.562C292.28 144.392 292.572 144.131 292.807 143.778C293.045 143.426 293.165 142.977 293.165 142.432ZM300.621 146.182C299.78 146.182 299.054 145.996 298.445 145.625C297.839 145.25 297.371 144.727 297.041 144.057C296.715 143.383 296.553 142.598 296.553 141.705C296.553 140.811 296.715 140.023 297.041 139.341C297.371 138.655 297.829 138.121 298.416 137.739C299.007 137.352 299.696 137.159 300.484 137.159C300.939 137.159 301.388 137.235 301.831 137.386C302.274 137.538 302.678 137.784 303.041 138.125C303.405 138.462 303.695 138.909 303.911 139.466C304.126 140.023 304.234 140.708 304.234 141.523V142.091H297.507V140.932H302.871C302.871 140.439 302.772 140 302.575 139.614C302.382 139.227 302.106 138.922 301.746 138.699C301.39 138.475 300.969 138.364 300.484 138.364C299.95 138.364 299.488 138.496 299.098 138.761C298.712 139.023 298.414 139.364 298.206 139.784C297.998 140.205 297.893 140.655 297.893 141.136V141.909C297.893 142.568 298.007 143.127 298.234 143.585C298.465 144.04 298.786 144.386 299.195 144.625C299.604 144.86 300.079 144.977 300.621 144.977C300.973 144.977 301.291 144.928 301.575 144.83C301.863 144.727 302.111 144.576 302.32 144.375C302.528 144.17 302.689 143.917 302.803 143.614L304.098 143.977C303.962 144.417 303.732 144.803 303.411 145.136C303.089 145.466 302.691 145.723 302.217 145.909C301.744 146.091 301.212 146.182 300.621 146.182ZM310.774 146V137.273H312.115V146H310.774ZM311.456 135.818C311.195 135.818 310.969 135.729 310.78 135.551C310.594 135.373 310.501 135.159 310.501 134.909C310.501 134.659 310.594 134.445 310.78 134.267C310.969 134.089 311.195 134 311.456 134C311.717 134 311.941 134.089 312.126 134.267C312.316 134.445 312.411 134.659 312.411 134.909C312.411 135.159 312.316 135.373 312.126 135.551C311.941 135.729 311.717 135.818 311.456 135.818ZM314.571 149.273V137.273H315.866V138.659H316.026C316.124 138.508 316.26 138.314 316.435 138.08C316.613 137.841 316.866 137.629 317.196 137.443C317.529 137.254 317.98 137.159 318.548 137.159C319.283 137.159 319.931 137.343 320.491 137.71C321.052 138.078 321.49 138.598 321.804 139.273C322.118 139.947 322.276 140.742 322.276 141.659C322.276 142.583 322.118 143.384 321.804 144.062C321.49 144.737 321.054 145.259 320.497 145.631C319.94 145.998 319.298 146.182 318.571 146.182C318.01 146.182 317.562 146.089 317.224 145.903C316.887 145.714 316.628 145.5 316.446 145.261C316.264 145.019 316.124 144.818 316.026 144.659H315.912V149.273H314.571ZM315.889 141.636C315.889 142.295 315.986 142.877 316.179 143.381C316.372 143.881 316.654 144.273 317.026 144.557C317.397 144.837 317.851 144.977 318.389 144.977C318.95 144.977 319.418 144.83 319.793 144.534C320.171 144.235 320.455 143.833 320.645 143.33C320.838 142.822 320.935 142.258 320.935 141.636C320.935 141.023 320.84 140.47 320.651 139.977C320.465 139.481 320.183 139.089 319.804 138.801C319.429 138.509 318.957 138.364 318.389 138.364C317.844 138.364 317.385 138.502 317.014 138.778C316.643 139.051 316.363 139.434 316.173 139.926C315.984 140.415 315.889 140.985 315.889 141.636ZM330.503 139.227L329.298 139.568C329.223 139.367 329.111 139.172 328.963 138.983C328.819 138.79 328.622 138.631 328.372 138.506C328.122 138.381 327.802 138.318 327.412 138.318C326.878 138.318 326.433 138.441 326.077 138.688C325.724 138.93 325.548 139.239 325.548 139.614C325.548 139.947 325.67 140.21 325.912 140.403C326.154 140.597 326.533 140.758 327.048 140.886L328.344 141.205C329.124 141.394 329.705 141.684 330.088 142.074C330.471 142.46 330.662 142.958 330.662 143.568C330.662 144.068 330.518 144.515 330.23 144.909C329.946 145.303 329.548 145.614 329.037 145.841C328.526 146.068 327.931 146.182 327.253 146.182C326.363 146.182 325.626 145.989 325.043 145.602C324.459 145.216 324.09 144.652 323.935 143.909L325.207 143.591C325.329 144.061 325.558 144.413 325.895 144.648C326.236 144.883 326.681 145 327.23 145C327.855 145 328.351 144.867 328.719 144.602C329.09 144.333 329.276 144.011 329.276 143.636C329.276 143.333 329.17 143.08 328.957 142.875C328.745 142.667 328.42 142.511 327.98 142.409L326.526 142.068C325.726 141.879 325.139 141.585 324.764 141.188C324.393 140.786 324.207 140.284 324.207 139.682C324.207 139.189 324.346 138.754 324.622 138.375C324.902 137.996 325.283 137.699 325.764 137.483C326.249 137.267 326.798 137.159 327.412 137.159C328.276 137.159 328.954 137.348 329.446 137.727C329.942 138.106 330.295 138.606 330.503 139.227ZM338.18 142.432V137.273H339.521V146H338.18V144.523H338.089C337.885 144.966 337.567 145.343 337.135 145.653C336.703 145.96 336.158 146.114 335.499 146.114C334.953 146.114 334.468 145.994 334.044 145.756C333.62 145.513 333.286 145.15 333.044 144.665C332.802 144.176 332.68 143.561 332.68 142.818V137.273H334.021V142.727C334.021 143.364 334.199 143.871 334.555 144.25C334.915 144.629 335.374 144.818 335.93 144.818C336.264 144.818 336.603 144.733 336.947 144.562C337.296 144.392 337.588 144.131 337.822 143.778C338.061 143.426 338.18 142.977 338.18 142.432ZM341.977 146V137.273H343.273V138.636H343.386C343.568 138.17 343.862 137.809 344.267 137.551C344.672 137.29 345.159 137.159 345.727 137.159C346.303 137.159 346.782 137.29 347.165 137.551C347.551 137.809 347.852 138.17 348.068 138.636H348.159C348.383 138.186 348.718 137.828 349.165 137.562C349.612 137.294 350.148 137.159 350.773 137.159C351.553 137.159 352.191 137.403 352.688 137.892C353.184 138.377 353.432 139.133 353.432 140.159V146H352.091V140.159C352.091 139.515 351.915 139.055 351.562 138.778C351.21 138.502 350.795 138.364 350.318 138.364C349.705 138.364 349.229 138.549 348.892 138.92C348.555 139.288 348.386 139.754 348.386 140.318V146H347.023V140.023C347.023 139.527 346.862 139.127 346.54 138.824C346.218 138.517 345.803 138.364 345.295 138.364C344.947 138.364 344.621 138.456 344.318 138.642C344.019 138.828 343.777 139.085 343.591 139.415C343.409 139.741 343.318 140.117 343.318 140.545V146H341.977ZM356.861 146.091C356.58 146.091 356.34 145.991 356.139 145.79C355.938 145.589 355.838 145.348 355.838 145.068C355.838 144.788 355.938 144.547 356.139 144.347C356.34 144.146 356.58 144.045 356.861 144.045C357.141 144.045 357.382 144.146 357.582 144.347C357.783 144.547 357.884 144.788 357.884 145.068C357.884 145.254 357.836 145.424 357.741 145.58C357.651 145.735 357.527 145.86 357.372 145.955C357.221 146.045 357.05 146.091 356.861 146.091Z" fill="#374151"/>
</svg>
